G70*
%FSLAX53Y53*%
%ADD11C,0.030*%
%ADD12C,0.020*%
%ADD13C,0.015*%
%ADD14C,0.012*%
%ADD15C,0.006*%
%ADD16R,0.070X0.040*%
%ADD17R,0.090X0.050*%
%ADD18C,0.080*%
%ADD19C,0.150*%
%ADD20C,0.040*%
%ADD21C,0.125*%
%ADD22C,0.060*%
%ADD23C,0.100*%
%ADD24R,0.120X0.080*%
%ADD25R,0.110X0.100*%
%ADD26R,0.040X0.100*%
%ADD27R,0.040X0.070*%
%ADD28R,0.050X0.075*%
%ADD29O,0.025X0.075*%
%AMUSER30*
21, 1, 0.105, 0.020, 0.0, 0.0, 135.0*
1, 1, 0.020, -0.037, 0.037*
1, 1, 0.020, 0.037, -0.037*%
%ADD30USER30*%
%AMUSER31*
21, 1, 0.105, 0.020, 0.0, 0.0, 225.0*
1, 1, 0.020, -0.037, -0.037*
1, 1, 0.020, 0.037, 0.037*%
%ADD31USER31*%
%ADD32C,0.050*%
D11*
X2722Y950D02*
X2722Y820D01*
D12*
X1607Y460D02*
X1607Y547D01*
D13*
X1770Y823D02*
X1502Y555D01*
X1502Y522*
D12*
X1502Y470D01*
X1472Y440*
D13*
X1885Y849D02*
X1956Y920D01*
X2052Y920*
X2052Y1042*
X1975Y1120*
X1997Y1142*
X2019Y1164*
X2041Y1187*
X2064Y1209*
X2042Y1231*
D11*
X2897Y950D02*
X2717Y950D01*
X3022Y950D02*
X2887Y950D01*
X3167Y760D02*
X3082Y760D01*
X3032Y810*
X3032Y950*
X3347Y760D02*
X3187Y760D01*
X3507Y760D02*
X3392Y760D01*
X3377Y760*
X3367Y760*
X3722Y995D02*
X3722Y840D01*
X3642Y760*
X3527Y760*
X2924Y615D02*
X3002Y615D01*
X3082Y695*
X3082Y760*
D12*
X2592Y2845D02*
X2732Y2845D01*
D11*
X2772Y2805D01*
X2772Y2580*
X2777Y2580D02*
X2922Y2580D01*
X2932Y2580D02*
X2932Y1798D01*
D12*
X3071Y1659D01*
X3171Y1659*
D13*
X2134Y1231D02*
X2067Y1165D01*
D12*
X2063Y1165D01*
D13*
X2041Y1187D01*
X2334Y1580D02*
X2052Y1580D01*
X2052Y1241*
X2042Y1231*
X2111Y760D02*
X2072Y800D01*
X2094Y822D02*
X2072Y800D01*
X2052Y820*
D12*
X2052Y917D01*
D13*
X2292Y510D02*
X2247Y510D01*
X2052Y510*
X2052Y665*
D12*
X1892Y1630D02*
X2057Y1795D01*
X2392Y1795*
X2392Y1925*
X2442Y1975*
X2537Y1975*
X2547Y1975D02*
X2642Y1975D01*
X2692Y1925*
X2752Y1925*
X2857Y1820*
X2857Y1720*
X2862Y1720D02*
X2922Y1720D01*
X2952Y1690*
X2952Y1600*
X2992Y1560*
X3192Y1560*
X2647Y290D02*
X2712Y290D01*
D11*
X2532Y2155D02*
X2432Y2155D01*
X2542Y1690D02*
X2542Y1605D01*
X2722Y1425*
X2722Y1110*
X2727Y1110D02*
X2602Y1110D01*
D13*
X2052Y665D02*
X2052Y780D01*
X2072Y800*
D11*
X1837Y2870D02*
X1837Y2745D01*
D13*
X1881Y712D02*
X1822Y653D01*
X1822Y623*
D12*
X1822Y560D01*
X1777Y515*
D13*
X2156Y805D02*
X2116Y844D01*
X2094Y822*
D12*
X3002Y1235D02*
X3032Y1205D01*
D11*
X2892Y1080D02*
X2892Y950D01*
D12*
X3032Y1075D02*
X3032Y1205D01*
X1047Y360D02*
X1282Y360D01*
D13*
X2360Y868D02*
X2418Y810D01*
X2467Y810*
D11*
X3517Y655D02*
X3517Y760D01*
D13*
X2271Y779D02*
X2317Y733D01*
X2317Y690*
D12*
X2317Y535D01*
X2292Y510*
D11*
X3722Y2105D02*
X3722Y2000D01*
X3647Y1925*
X3647Y1705*
X3862Y1490*
X3862Y1290*
X3722Y1150*
X3722Y995*
X802Y780D02*
X802Y570D01*
X742Y570*
X702Y530*
X702Y370*
X827Y245*
X1607Y245*
D12*
X3237Y425D02*
X3212Y425D01*
X3212Y535*
X3127Y620*
X1282Y360D02*
X1377Y360D01*
D11*
X1607Y250D02*
X1607Y460D01*
D12*
X2072Y330D02*
X2072Y235D01*
D11*
X1607Y235D01*
X1607Y245*
X2882Y1425D02*
X2727Y1425D01*
D12*
X3577Y2475D02*
X3472Y2475D01*
X2792Y290D02*
X2712Y290D01*
X3472Y2475D02*
X3362Y2475D01*
X3072Y2185*
X3072Y1955*
X3272Y1755*
X3272Y1545*
X3227Y1500*
X2922Y1500*
X2892Y1470*
X2892Y1425*
D11*
X802Y975D02*
X802Y780D01*
X637Y770D02*
X722Y770D01*
X802Y780*
X627Y680D02*
X627Y770D01*
D12*
X2482Y1705D02*
X2392Y1795D01*
X2537Y2280D02*
X2437Y2280D01*
X2392Y2280D02*
X2437Y2280D01*
D11*
X1842Y2425D02*
X1842Y2425D01*
D12*
X1762Y2425D01*
D13*
X1930Y1209D02*
X1997Y1142D01*
D12*
X1157Y1505D02*
X1262Y1505D01*
D11*
X627Y895D02*
X627Y980D01*
D12*
X1762Y2425D02*
X1672Y2515D01*
X1672Y3105*
X1742Y3175*
X2042Y3175*
X2102Y3115*
X2102Y2980*
X2162Y2920*
X2267Y2920*
X2342Y2845*
X2592Y2845*
X1077Y490D02*
X1077Y445D01*
X1047Y415*
X1047Y360*
X2822Y392D02*
X2822Y370D01*
X2792Y340*
X2792Y295*
D11*
X627Y1065D02*
X627Y980D01*
X502Y895D02*
X617Y895D01*
D13*
X1908Y1187D02*
X1975Y1120D01*
D12*
X1022Y1290D02*
X1022Y1465D01*
X1062Y1505*
X1147Y1505*
X3077Y370D02*
X3077Y290D01*
D11*
X2882Y1205D02*
X2787Y1205D01*
D12*
X512Y1665D02*
X597Y1580D01*
X2872Y392D02*
X2872Y295D01*
X2577Y495D02*
X2842Y495D01*
X2872Y465*
X2872Y437*
X2572Y710D02*
X2537Y745D01*
X2537Y1210*
D11*
X3517Y420D02*
X3517Y655D01*
X3622Y420D02*
X3517Y420D01*
D12*
X1022Y1165D02*
X1022Y840D01*
D11*
X2092Y2425D02*
X2092Y2425D01*
X2012Y2425*
D12*
X3582Y2335D02*
X3582Y2245D01*
D11*
X2357Y2580D02*
X2767Y2580D01*
D12*
X2572Y620D02*
X2572Y710D01*
D11*
X802Y410D02*
X802Y480D01*
X1067Y570D02*
X977Y570D01*
D12*
X812Y1190D02*
X632Y1190D01*
X1262Y1380D02*
X1157Y1380D01*
X2172Y2310D02*
X2172Y2425D01*
D11*
X957Y570D02*
X802Y570D01*
D12*
X1197Y445D02*
X1247Y495D01*
X627Y1280D02*
X627Y1190D01*
D11*
X2892Y1345D02*
X2892Y1205D01*
D14*
X3672Y3030D02*
X3672Y2790D01*
X3582Y2700*
X3582Y2475*
D11*
X1382Y680D02*
X1382Y600D01*
D12*
X1377Y520D02*
X1272Y520D01*
X1247Y495*
D11*
X1372Y600D02*
X1292Y600D01*
X1262Y570*
X1087Y570*
X2897Y790D02*
X2812Y790D01*
X2767Y745*
D12*
X1387Y760D02*
X1492Y760D01*
X1782Y310D02*
X1902Y310D01*
D11*
X1982Y2685D02*
X1897Y2685D01*
X1837Y2745*
D12*
X3577Y2245D02*
X3472Y2245D01*
X3227Y2245*
X3122Y2140*
X3122Y2000*
X3332Y1790*
X2547Y280D02*
X2572Y305D01*
X2572Y495*
X1197Y645D02*
X1312Y760D01*
X1377Y760*
D13*
X2227Y1280D02*
X2326Y1380D01*
D12*
X2497Y1380D01*
X2537Y1420*
D11*
X2769Y415D02*
X2667Y415D01*
D13*
X1748Y1168D02*
X1682Y1234D01*
X1682Y1285*
D12*
X1682Y1340D01*
X2137Y2725D02*
X2257Y2605D01*
D11*
X3122Y1345D02*
X2902Y1345D01*
D13*
X2293Y801D02*
X2362Y732D01*
X2362Y690*
D12*
X2362Y435D01*
X2392Y405*
X2067Y2310D02*
X2172Y2310D01*
X1147Y1165D02*
X1027Y1165D01*
X3077Y2920D02*
X3182Y2920D01*
D11*
X2432Y2155D02*
X2322Y2155D01*
D12*
X1812Y2185D02*
X1917Y2185D01*
D13*
X2249Y1258D02*
X2277Y1286D01*
D12*
X3177Y840D02*
X3177Y885D01*
X3142Y920*
X3142Y1075*
X2722Y1795D02*
X2722Y1710D01*
X3182Y2705D02*
X3077Y2705D01*
D13*
X1903Y689D02*
X1872Y658D01*
X1872Y625*
D12*
X1872Y550D01*
X1907Y515*
D11*
X3312Y1050D02*
X3312Y965D01*
X3392Y885*
X3507Y885*
D12*
X2602Y1710D02*
X2722Y1710D01*
D11*
X3262Y1345D02*
X3142Y1345D01*
D12*
X1912Y310D02*
X1927Y310D01*
X2037Y420*
X2247Y420*
X2442Y225*
X2582Y225*
X2647Y290*
D11*
X2767Y745D02*
X2677Y745D01*
X2602Y820*
X2602Y1110*
D12*
X1152Y1290D02*
X1152Y1380D01*
X2852Y1595D02*
X2722Y1595D01*
D11*
X1982Y3070D02*
X1837Y3070D01*
D12*
X3357Y425D02*
X3357Y415D01*
X3432Y340*
D13*
X2123Y704D02*
X2083Y665D01*
X2052Y665*
X2182Y1324D02*
X2242Y1385D01*
D12*
X2242Y1385D01*
D13*
X1997Y1276D02*
X2042Y1231D01*
X1974Y1254D02*
X2041Y1187D01*
D12*
X2822Y592D02*
X2822Y570D01*
X2792Y540*
X2672Y540*
X2592Y620*
X2577Y620*
D13*
X1952Y1231D02*
X2019Y1164D01*
D11*
X3517Y885D02*
X3517Y990D01*
D12*
X1762Y1615D02*
X1762Y1510D01*
D11*
X252Y2680D02*
X252Y2780D01*
D12*
X3717Y2245D02*
X3587Y2245D01*
D11*
X3517Y1105D02*
X3517Y990D01*
D12*
X1137Y860D02*
X1137Y775D01*
X2767Y1505D02*
X2722Y1595D01*
X1922Y2185D02*
X1922Y2110D01*
X1137Y1075D02*
X1212Y1075D01*
X1262Y1125*
X1262Y1260*
X1302Y1300*
X1572Y1300*
X1640Y1232*
D13*
X1727Y1145D01*
X2271Y1235D02*
X2299Y1263D01*
X2277Y1286*
D12*
X967Y415D02*
X967Y490D01*
X1762Y1705D02*
X1762Y1615D01*
D11*
X502Y800D02*
X502Y895D01*
D12*
X3412Y550D02*
X3359Y550D01*
X3357Y550D02*
X3357Y465D01*
X3357Y635D02*
X3357Y552D01*
X967Y360D02*
X967Y415D01*
D13*
X1703Y890D02*
X1678Y865D01*
X1641Y865*
D12*
X1597Y865D01*
X1492Y760*
D14*
X3182Y2920D02*
X3182Y3015D01*
X3357Y3190*
X3512Y3190*
X3572Y3130*
X3572Y3030*
D13*
X2134Y783D02*
X2094Y822D01*
D12*
X3127Y1205D02*
X3097Y1205D01*
X3032Y1205*
X3267Y1220D02*
X3207Y1220D01*
X3192Y1205*
X3137Y1205*
D11*
X2542Y1850D02*
X2542Y1740D01*
D12*
X3722Y1390D02*
X3582Y1530D01*
X3582Y2120*
X2872Y637D02*
X2872Y695D01*
X2892Y715*
X2892Y790*
D13*
X1607Y550D02*
X1607Y571D01*
X1814Y779*
D12*
X2102Y2095D02*
X2102Y2040D01*
X2062Y2185D02*
X2062Y2135D01*
X2102Y2095*
D13*
X2338Y1169D02*
X2379Y1210D01*
X2407Y1210*
D12*
X2467Y1210D01*
X2212Y1995D02*
X2212Y2215D01*
X2257Y2260*
X2257Y2605*
D13*
X1792Y1213D02*
X1747Y1258D01*
X1747Y1314*
D12*
X1747Y1360D01*
X1697Y1410*
X1357Y1410*
X1262Y1505*
X3072Y495D02*
X2942Y495D01*
X2872Y565*
X2872Y592*
D11*
X2132Y2560D02*
X2132Y2560D01*
X2052Y2560*
X1992Y2620*
X1992Y2685*
X3517Y1225D02*
X3517Y1105D01*
D12*
X3417Y2940D02*
X3417Y3070D01*
X2207Y1870D02*
X2092Y1870D01*
D13*
X2345Y1087D02*
X2373Y1060D01*
X2372Y1060*
D12*
X2432Y1000D01*
X2467Y1000*
X2502Y1265D02*
X2390Y1265D01*
X2377Y1252*
D13*
X2316Y1191D01*
X2277Y1286D02*
X2321Y1330D01*
X2385Y1330*
D12*
X2092Y1870D02*
X2042Y1870D01*
X1992Y1820*
D11*
X2392Y1330D02*
X2547Y1330D01*
X2602Y1275*
X2602Y1110*
D13*
X2294Y1213D02*
X2342Y1262D01*
X2342Y1285*
D11*
X2722Y2055D02*
X2622Y2155D01*
X2552Y2155*
X1882Y2560D02*
X1882Y2570D01*
X1827Y2625*
X1742Y2710*
X1742Y3040*
X1772Y3070*
X1837Y3070*
X1837Y2970D02*
X1892Y2970D01*
X1932Y2930*
X1982Y2930*
D13*
X1748Y845D02*
X1652Y750D01*
X1622Y750*
D12*
X3360Y1879D02*
X3439Y1958D01*
D11*
X1992Y2930D02*
X1992Y2825D01*
D12*
X3252Y1075D02*
X3142Y1075D01*
D13*
X1815Y1235D02*
X1790Y1260D01*
X1790Y1313*
D12*
X1817Y1340D01*
X3072Y2795D02*
X3072Y2705D01*
D13*
X2316Y823D02*
X2407Y732D01*
X2407Y689*
D12*
X2407Y500D01*
X2437Y470*
X2467Y470*
D11*
X2002Y2825D02*
X2137Y2825D01*
D12*
X2937Y2705D02*
X3067Y2705D01*
X3302Y2170D02*
X3217Y2086D01*
D11*
X3372Y1100D02*
X3372Y1315D01*
X3342Y1345*
X3282Y1345*
D13*
X2383Y890D02*
X2393Y880D01*
X2467Y880*
D12*
X3272Y1979D02*
X3345Y2052D01*
D13*
X2338Y845D02*
X2467Y717D01*
D12*
X2467Y535D01*
D11*
X2137Y2825D02*
X2237Y2825D01*
X2357Y2705*
X2592Y2705*
D12*
X3417Y2625D02*
X3022Y2230D01*
X3022Y1905*
X3102Y1825*
D11*
X3297Y470D02*
X3297Y545D01*
X3252Y590*
X3252Y640*
D12*
X252Y2480D02*
X252Y2170D01*
X273Y2139*
X293Y2107*
X311Y2074*
X327Y2040*
X342Y2005*
X354Y1969*
X365Y1933*
X374Y1896*
X381Y1859*
X382Y1850*
X382Y1795*
X512Y1665*
X2332Y1455D02*
X2312Y1455D01*
X2242Y1385*
X1907Y435D02*
X1907Y515D01*
D13*
X1859Y734D02*
X1737Y612D01*
X1737Y580*
D12*
X3417Y2725D02*
X3417Y2625D01*
D13*
X1792Y801D02*
X1547Y556D01*
X1547Y521*
D12*
X1547Y395D01*
X1447Y295*
X987Y295*
X967Y315*
X967Y360*
X3417Y2850D02*
X3417Y2940D01*
X1777Y435D02*
X1777Y515D01*
D13*
X1837Y756D02*
X1672Y592D01*
X1672Y551*
D12*
X1672Y400D01*
X1137Y985D02*
X1137Y1075D01*
X2467Y330D02*
X2392Y405D01*
D13*
X2249Y756D02*
X2272Y733D01*
X2272Y690*
D12*
X2262Y680D01*
X2262Y590*
D11*
X1992Y2030D02*
X1892Y1930D01*
X1772Y1830D02*
X1852Y1830D01*
X1892Y1870*
X1892Y1930*
D12*
X2872Y290D02*
X3077Y290D01*
D11*
X3072Y2580D02*
X3072Y2490D01*
X3032Y2330D02*
X3072Y2370D01*
X3072Y2490*
D13*
X1725Y868D02*
X1667Y810D01*
X1637Y810*
D12*
X1607Y810D01*
X1567Y770*
X1567Y680*
X1457Y570*
X1457Y540*
X1437Y520*
X1387Y520*
X2467Y1115D02*
X2417Y1165D01*
D13*
X2379Y1165D01*
X2360Y1146*
D12*
X1812Y2310D02*
X1917Y2310D01*
X1922Y2425D02*
X1922Y2310D01*
X1387Y440D02*
X1472Y440D01*
D11*
X502Y480D02*
X407Y575D01*
X407Y1520D02*
X502Y1425D01*
X502Y1155*
X407Y1060*
X407Y575*
D15*
%LPD*%
D15*
G36*
X3237Y490D02*
X3177Y490D01*
X3177Y400*
X3237Y400*
X3237Y490*
G37*
X3177Y490*
X3177Y400*
X3237Y400*
X3237Y490*
G36*
X2772Y445D02*
X2722Y445D01*
X2722Y385*
X2772Y385*
X2772Y445*
G37*
X2722Y445*
X2722Y385*
X2772Y385*
X2772Y445*
G36*
X2772Y645D02*
X2722Y645D01*
X2722Y585*
X2772Y585*
X2772Y645*
G37*
X2722Y645*
X2722Y585*
X2772Y585*
X2772Y645*
G36*
X2482Y1760D02*
X2422Y1760D01*
X2422Y1670*
X2482Y1670*
X2482Y1760*
G37*
X2422Y1760*
X2422Y1670*
X2482Y1670*
X2482Y1760*
G36*
X3252Y1120D02*
X3192Y1120D01*
X3192Y1030*
X3252Y1030*
X3252Y1120*
G37*
X3192Y1120*
X3192Y1030*
X3252Y1030*
X3252Y1120*
G36*
X1215Y831D02*
X1215Y1014D01*
X1304Y1103*
X1304Y1103*
X1305Y1104*
X1305Y1105*
X1305Y1239*
X1323Y1257*
X1532Y1257*
X1769Y1020*
X1769Y1019*
X1770Y1019*

X1771Y1019*
X1771Y1019*
X1817Y1019*
X1817Y995*
X1771Y995*
X1771Y995*
X1770Y995*
X1769Y994*
X1769Y994*
X1683Y908*
X1572Y908*
X1572Y908*
X1571Y908*
X1570Y907*
X1570Y907*
X1476Y813*
X1233Y813*
X1215Y831*
G37*
X1215Y1014*
X1304Y1103*
X1304Y1103*
X1305Y1104*
X1305Y1105*
X1305Y1239*
X1323Y1257*
X1532Y1257*
X1769Y1020*
X1769Y1019*
X1770Y1019*
X1771Y1019*
X1771Y1019*
X1817Y1019*
X1817Y995*
X1771Y995*
X1771Y995*
X1770Y995*
X1769Y994*
X1769Y994*
X1683Y908*
X1572Y908*
X1572Y908*
X1571Y908*
X1570Y907*
X1570Y907*
X1476Y813*
X1233Y813*
X1215Y831*
D14*
G36*
X1047Y3136D02*
X1042Y3136D01*
X1036Y3138*
X1032Y3140*
X1027Y3142*
X1023Y3146*
X1020Y3150*
X1017Y3154*
X1015Y3159*
X1013Y3165*
X1013Y3170*
X1013Y3400*
X1014Y3404*
X1016Y3408*
X1019Y3411*
X1023Y3413*
X1027Y3414*
X1297Y3414*
X1297Y3414*
X1303Y3413*
X1308Y3410*
X1312Y3406*
X1315Y3401*
X1316Y3395*
X1316Y3395*
X1316Y3150*
X1315Y3146*
X1313Y3142*
X1310Y3139*
X1306Y3137*
X1302Y3136*
X1047Y3136*
G37*
X1042Y3136*
X1036Y3138*
X1032Y3140*
X1027Y3142*
X1023Y3146*
X1020Y3150*
X1017Y3154*
X1015Y3159*
X1013Y3165*
X1013Y3170*
X1013Y3400*
X1014Y3404*
X1016Y3408*
X1019Y3411*
X1023Y3413*
X1027Y3414*
X1297Y3414*
X1297Y3414*
X1303Y3413*
X1308Y3410*
X1312Y3406*
X1315Y3401*
X1316Y3395*
X1316Y3395*
X1316Y3150*
X1315Y3146*
X1313Y3142*
X1310Y3139*
X1306Y3137*
X1302Y3136*
X1047Y3136*
D12*
X3622Y420D02*
X3673Y420D01*
X3622Y471D02*
X3622Y369D01*
X3722Y2105D02*
X3793Y2105D01*
D15*
X3802Y2176D02*
X3802Y2305D01*
X3679Y2305*
X3674Y2306*
X3669Y2308*
X3665Y2312*
X3663Y2317*
X3662Y2322*
X3662Y2480*
X3662Y2480*
X3663Y2485*
X3665Y2490*
X3669Y2494*
X3674Y2496*
X3679Y2497*
X3679Y2497*
X3873Y2497*
X3873Y2497*
X3878Y2496*
X3883Y2494*
X3887Y2490*
X3889Y2485*
X3890Y2480*
X3890Y2480*
X3890Y1913*
X3889Y1908*
X3887Y1903*
X3883Y1899*
X3878Y1897*
X3873Y1896*
X3868Y1897*
X3863Y1899*
X3861Y1901*
X3857Y1905*
X3848Y1912*
X3840Y1918*
X3830Y1923*
X3820Y1926*
X3810Y1929*
X3800Y1931*
X3789Y1931*
X3779Y1931*
X3768Y1929*
X3758Y1926*
X3748Y1923*
X3739Y1918*
X3730Y1912*
X3722Y1905*
X3715Y1898*
X3708Y1890*
X3702Y1881*
X3697Y1872*
X3694Y1862*
X3691Y1852*
X3689Y1841*
X3689Y1831*
X3689Y1820*
X3691Y1810*
X3694Y1800*
X3697Y1790*
X3702Y1780*
X3708Y1772*
X3715Y1763*
X3722Y1756*
X3730Y1749*
X3739Y1744*
X3748Y1739*
X3758Y1735*
X3768Y1732*
X3779Y1731*
X3789Y1730*
X3800Y1731*
X3810Y1732*
X3820Y1735*
X3830Y1739*
X3840Y1744*
X3848Y1749*
X3857Y1756*
X3861Y1760*
X3863Y1762*
X3868Y1764*
X3873Y1765*
X3878Y1764*
X3883Y1762*
X3887Y1758*
X3889Y1754*
X3890Y1748*
X3890Y378*
X3889Y373*
X3887Y368*
X3883Y364*
X3878Y362*
X3876Y361*
X3874Y361*
X3863Y358*
X3852Y354*
X3842Y348*
X3833Y340*
X3826Y331*
X3820Y321*
X3815Y310*
X3812Y299*
X3812Y287*
X3812Y287*
X3812Y241*
X3812Y241*
X3811Y236*
X3808Y231*
X3804Y227*
X3800Y225*
X3795Y224*
X3795Y224*
X3172Y224*
X3167Y225*
X3162Y227*
X3158Y231*
X3156Y236*
X3155Y241*
X3155Y293*
X3156Y298*
X3157Y301*
X3157Y343*
X3157Y343*
X3158Y348*
X3160Y353*
X3164Y357*
X3169Y359*
X3174Y360*
X3174Y360*
X3341Y360*
X3341Y360*
X3347Y359*
X3351Y357*
X3353Y355*
X3374Y334*
X3376Y332*
X3378Y327*
X3379Y326*
X3380Y323*
X3383Y315*
X3387Y307*
X3393Y301*
X3400Y295*
X3407Y291*
X3415Y287*
X3423Y285*
X3432Y285*
X3441Y285*
X3449Y287*
X3457Y291*
X3464Y295*
X3471Y301*
X3477Y307*
X3481Y315*
X3482Y316*
X3483Y319*
X3487Y323*
X3492Y325*
X3497Y326*
X3500Y326*
X3507Y325*
X3517Y324*
X3527Y325*
X3537Y326*
X3546Y329*
X3556Y333*
X3565Y337*
X3573Y343*
X3581Y349*
X3588Y356*
X3590Y358*
X3593Y361*
X3598Y363*
X3603Y364*
X3607Y364*
X3613Y363*
X3622Y362*
X3631Y363*
X3640Y365*
X3648Y368*
X3656Y373*
X3663Y379*
X3669Y386*
X3674Y394*
X3677Y402*
X3679Y411*
X3680Y420*
X3679Y429*
X3677Y438*
X3674Y446*
X3669Y454*
X3663Y461*
X3656Y467*
X3648Y472*
X3640Y475*
X3631Y477*
X3622Y478*
X3613Y477*
X3607Y476*
X3603Y475*
X3598Y476*
X3593Y479*
X3590Y481*
X3588Y484*
X3581Y491*
X3573Y497*
X3565Y503*
X3556Y507*
X3546Y511*
X3537Y513*
X3527Y515*
X3517Y515*
X3507Y515*
X3497Y513*
X3491Y512*
X3486Y511*
X3481Y512*
X3476Y514*
X3472Y518*
X3470Y523*
X3469Y528*
X3470Y533*
X3471Y540*
X3472Y547*
X3473Y551*
X3475Y556*
X3479Y560*
X3484Y562*
X3489Y563*
X3493Y562*
X3497Y561*
X3507Y560*
X3517Y559*
X3527Y560*
X3537Y561*
X3546Y564*
X3556Y568*
X3565Y572*
X3573Y578*
X3581Y584*
X3588Y591*
X3594Y599*
X3600Y607*
X3604Y616*
X3608Y625*
X3610Y635*
X3612Y645*
X3612Y655*
X3612Y665*
X3610Y675*
X3608Y684*
X3604Y694*
X3600Y703*
X3598Y706*
X3596Y710*
X3595Y715*
X3595Y808*
X3596Y813*
X3597Y816*
X3597Y929*
X3598Y934*
X3600Y938*
X3600Y939*
X3601Y940*
X3605Y944*
X3610Y947*
X3615Y947*
X3620Y947*
X3625Y944*
X3629Y940*
X3629Y939*
X3635Y931*
X3642Y923*
X3650Y915*
X3658Y907*
X3668Y901*
X3678Y896*
X3689Y892*
X3700Y889*
X3711Y887*
X3722Y887*
X3733Y887*
X3744Y889*
X3755Y892*
X3766Y896*
X3776Y901*
X3785Y907*
X3794Y915*
X3802Y923*
X3809Y931*
X3815Y941*
X3821Y951*
X3825Y961*
X3828Y972*
X3829Y984*
X3830Y995*
X3830Y997*
X3829Y1006*
X3828Y1017*
X3825Y1028*
X3821Y1039*
X3815Y1049*
X3809Y1058*
X3802Y1067*
X3794Y1075*
X3785Y1082*
X3776Y1088*
X3766Y1094*
X3755Y1098*
X3744Y1100*
X3733Y1102*
X3722Y1103*
X3711Y1102*
X3700Y1100*
X3689Y1098*
X3678Y1094*
X3668Y1088*
X3658Y1082*
X3650Y1075*
X3642Y1067*
X3635Y1058*
X3628Y1049*
X3627Y1046*
X3626Y1044*
X3622Y1040*
X3617Y1038*
X3612Y1037*
X3607Y1038*
X3602Y1040*
X3598Y1044*
X3598Y1045*
X3596Y1047*
X3589Y1055*
X3582Y1062*
X3579Y1065*
X3576Y1069*
X3573Y1073*
X3572Y1079*
X3573Y1084*
X3573Y1084*
X3574Y1086*
X3576Y1095*
X3577Y1105*
X3576Y1114*
X3574Y1123*
X3572Y1128*
X3572Y1130*
X3571Y1135*
X3572Y1140*
X3574Y1145*
X3577Y1148*
X3582Y1152*
X3589Y1160*
X3596Y1167*
X3601Y1176*
X3606Y1185*
X3610Y1195*
X3612Y1205*
X3614Y1215*
X3615Y1225*
X3614Y1235*
X3612Y1245*
X3610Y1255*
X3606Y1265*
X3601Y1274*
X3596Y1282*
X3589Y1290*
X3582Y1297*
X3574Y1304*
X3566Y1309*
X3557Y1314*
X3547Y1318*
X3537Y1320*
X3527Y1322*
X3517Y1322*
X3507Y1322*
X3497Y1320*
X3487Y1318*
X3477Y1314*
X3468Y1309*
X3460Y1304*
X3452Y1297*
X3451Y1296*
X3449Y1295*
X3444Y1293*
X3439Y1292*
X3434Y1293*
X3429Y1295*
X3425Y1299*
X3423Y1304*
X3422Y1309*
X3422Y1315*
X3422Y1315*
X3422Y1315*
X3422Y1315*
X3421Y1323*
X3420Y1330*
X3417Y1338*
X3412Y1344*
X3407Y1350*
X3407Y1350*
X3377Y1380*
X3377Y1380*
X3371Y1385*
X3365Y1389*
X3362Y1391*
X3359Y1392*
X3355Y1396*
X3353Y1401*
X3352Y1405*
X3050Y1405*
X3049Y1402*
X3045Y1398*
X3040Y1396*
X3035Y1395*
X2979Y1395*
X2974Y1396*
X2969Y1398*
X2965Y1402*
X2963Y1407*
X2962Y1412*
X2962Y1438*
X2962Y1438*
X2963Y1443*
X2965Y1448*
X2969Y1452*
X2974Y1454*
X2979Y1455*
X2979Y1455*
X3227Y1455*
X3227Y1455*
X3227Y1455*
X3227Y1455*
X3234Y1455*
X3241Y1457*
X3247Y1460*
X3253Y1463*
X3259Y1468*
X3259Y1468*
X3304Y1513*
X3304Y1513*
X3308Y1518*
X3312Y1524*
X3315Y1531*
X3316Y1538*
X3317Y1545*
X3317Y1545*
X3317Y1545*
X3317Y1545*
X3317Y1718*
X3318Y1723*
X3320Y1728*
X3324Y1732*
X3329Y1734*
X3334Y1735*
X3341Y1735*
X3349Y1737*
X3357Y1741*
X3364Y1745*
X3371Y1751*
X3377Y1757*
X3381Y1765*
X3382Y1768*
X3384Y1771*
X3388Y1774*
X3393Y1777*
X3398Y1778*
X3403Y1777*
X3408Y1774*
X3410Y1772*
X3416Y1767*
X3423Y1761*
X3430Y1756*
X3438Y1752*
X3447Y1749*
X3455Y1747*
X3464Y1745*
X3473Y1745*
X3482Y1745*
X3491Y1747*
X3499Y1749*
X3508Y1752*
X3512Y1754*
X3515Y1755*
X3520Y1756*
X3525Y1755*
X3530Y1753*
X3534Y1749*
X3536Y1744*
X3537Y1739*
X3537Y1530*
X3537Y1530*
X3537Y1530*
X3537Y1530*
X3537Y1523*
X3539Y1516*
X3542Y1509*
X3545Y1503*
X3550Y1498*
X3550Y1498*
X3612Y1436*
X3613Y1434*
X3616Y1430*
X3617Y1424*
X3616Y1420*
X3614Y1413*
X3612Y1401*
X3612Y1390*
X3612Y1378*
X3614Y1367*
X3617Y1356*
X3621Y1345*
X3627Y1335*
X3633Y1325*
X3640Y1316*
X3648Y1308*
X3657Y1301*
X3667Y1295*
X3677Y1289*
X3688Y1285*
X3699Y1282*
X3710Y1280*
X3722Y1280*
X3733Y1280*
X3745Y1282*
X3756Y1285*
X3767Y1289*
X3777Y1295*
X3787Y1301*
X3796Y1308*
X3800Y1312*
X3804Y1316*
X3811Y1325*
X3817Y1335*
X3823Y1345*
X3827Y1356*
X3830Y1367*
X3831Y1378*
X3832Y1390*
X3831Y1401*
X3830Y1413*
X3827Y1424*
X3823Y1435*
X3817Y1445*
X3811Y1455*
X3804Y1464*
X3796Y1472*
X3787Y1479*
X3777Y1485*
X3767Y1490*
X3756Y1495*
X3745Y1498*
X3733Y1499*
X3722Y1500*
X3710Y1499*
X3699Y1498*
X3692Y1496*
X3687Y1495*
X3682Y1496*
X3677Y1498*
X3675Y1500*
X3632Y1544*
X3630Y1546*
X3628Y1550*
X3627Y1556*
X3627Y2030*
X3627Y2030*
X3628Y2035*
X3630Y2040*
X3634Y2044*
X3639Y2046*
X3644Y2047*
X3644Y2047*
X3800Y2047*
X3800Y2168*
X3801Y2173*
X3802Y2176*
X3164Y226D02*
X3803Y226D01*
X3158Y231D02*
X3808Y231D01*
X3156Y236D02*
X3811Y236D01*
X3155Y241D02*
X3812Y241D01*
X3155Y246D02*
X3812Y246D01*
X3155Y251D02*
X3812Y251D01*
X3155Y256D02*
X3812Y256D01*
X3155Y261D02*
X3812Y261D01*
X3155Y266D02*
X3812Y266D01*
X3155Y271D02*
X3812Y271D01*
X3155Y276D02*
X3812Y276D01*
X3155Y281D02*
X3812Y281D01*
X3155Y286D02*
X3421Y286D01*
X3443Y286D02*
X3812Y286D01*
X3155Y291D02*
X3407Y291D01*
X3457Y291D02*
X3812Y291D01*
X3155Y296D02*
X3399Y296D01*
X3465Y296D02*
X3812Y296D01*
X3157Y301D02*
X3393Y301D01*
X3471Y301D02*
X3813Y301D01*
X3157Y306D02*
X3389Y306D01*
X3475Y306D02*
X3814Y306D01*
X3157Y311D02*
X3385Y311D01*
X3479Y311D02*
X3815Y311D01*
X3157Y316D02*
X3382Y316D01*
X3482Y316D02*
X3817Y316D01*
X3157Y321D02*
X3380Y321D01*
X3485Y321D02*
X3819Y321D01*
X3157Y326D02*
X3379Y326D01*
X3495Y326D02*
X3500Y326D01*
X3534Y326D02*
X3822Y326D01*
X3157Y331D02*
X3377Y331D01*
X3552Y331D02*
X3826Y331D01*
X3157Y336D02*
X3372Y336D01*
X3563Y336D02*
X3830Y336D01*
X3157Y341D02*
X3367Y341D01*
X3571Y341D02*
X3834Y341D01*
X3157Y346D02*
X3362Y346D01*
X3577Y346D02*
X3840Y346D01*
X3159Y351D02*
X3357Y351D01*
X3583Y351D02*
X3847Y351D01*
X3163Y356D02*
X3352Y356D01*
X3588Y356D02*
X3857Y356D01*
X3593Y361D02*
X3875Y361D01*
X3643Y366D02*
X3885Y366D01*
X3653Y371D02*
X3889Y371D01*
X3660Y376D02*
X3890Y376D01*
X3665Y381D02*
X3890Y381D01*
X3669Y386D02*
X3890Y386D01*
X3672Y391D02*
X3890Y391D01*
X3675Y396D02*
X3890Y396D01*
X3677Y401D02*
X3890Y401D01*
X3678Y406D02*
X3890Y406D01*
X3679Y411D02*
X3890Y411D01*
X3680Y416D02*
X3890Y416D01*
X3680Y421D02*
X3890Y421D01*
X3680Y426D02*
X3890Y426D01*
X3679Y431D02*
X3890Y431D01*
X3678Y436D02*
X3890Y436D01*
X3676Y441D02*
X3890Y441D01*
X3674Y446D02*
X3890Y446D01*
X3671Y451D02*
X3890Y451D01*
X3667Y456D02*
X3890Y456D01*
X3663Y461D02*
X3890Y461D01*
X3657Y466D02*
X3890Y466D01*
X3649Y471D02*
X3890Y471D01*
X3599Y476D02*
X3607Y476D01*
X3637Y476D02*
X3890Y476D01*
X3590Y481D02*
X3890Y481D01*
X3586Y486D02*
X3890Y486D01*
X3581Y491D02*
X3890Y491D01*
X3575Y496D02*
X3890Y496D01*
X3567Y501D02*
X3890Y501D01*
X3558Y506D02*
X3890Y506D01*
X3546Y511D02*
X3890Y511D01*
X3474Y516D02*
X3890Y516D01*
X3470Y521D02*
X3890Y521D01*
X3469Y526D02*
X3890Y526D01*
X3469Y531D02*
X3890Y531D01*
X3470Y536D02*
X3890Y536D01*
X3471Y541D02*
X3890Y541D01*
X3472Y546D02*
X3890Y546D01*
X3473Y551D02*
X3890Y551D01*
X3475Y556D02*
X3890Y556D01*
X3481Y561D02*
X3500Y561D01*
X3534Y561D02*
X3890Y561D01*
X3552Y566D02*
X3890Y566D01*
X3563Y571D02*
X3890Y571D01*
X3571Y576D02*
X3890Y576D01*
X3577Y581D02*
X3890Y581D01*
X3583Y586D02*
X3890Y586D01*
X3588Y591D02*
X3890Y591D01*
X3592Y596D02*
X3890Y596D01*
X3596Y601D02*
X3890Y601D01*
X3599Y606D02*
X3890Y606D01*
X3602Y611D02*
X3890Y611D01*
X3604Y616D02*
X3890Y616D01*
X3606Y621D02*
X3890Y621D01*
X3608Y626D02*
X3890Y626D01*
X3609Y631D02*
X3890Y631D01*
X3611Y636D02*
X3890Y636D01*
X3611Y641D02*
X3890Y641D01*
X3612Y646D02*
X3890Y646D01*
X3612Y651D02*
X3890Y651D01*
X3612Y656D02*
X3890Y656D01*
X3612Y661D02*
X3890Y661D01*
X3612Y666D02*
X3890Y666D01*
X3611Y671D02*
X3890Y671D01*
X3610Y676D02*
X3890Y676D01*
X3609Y681D02*
X3890Y681D01*
X3607Y686D02*
X3890Y686D01*
X3605Y691D02*
X3890Y691D01*
X3603Y696D02*
X3890Y696D01*
X3601Y701D02*
X3890Y701D01*
X3598Y706D02*
X3890Y706D01*
X3595Y711D02*
X3890Y711D01*
X3595Y716D02*
X3890Y716D01*
X3595Y721D02*
X3890Y721D01*
X3595Y726D02*
X3890Y726D01*
X3595Y731D02*
X3890Y731D01*
X3595Y736D02*
X3890Y736D01*
X3595Y741D02*
X3890Y741D01*
X3595Y746D02*
X3890Y746D01*
X3595Y751D02*
X3890Y751D01*
X3595Y756D02*
X3890Y756D01*
X3595Y761D02*
X3890Y761D01*
X3595Y766D02*
X3890Y766D01*
X3595Y771D02*
X3890Y771D01*
X3595Y776D02*
X3890Y776D01*
X3595Y781D02*
X3890Y781D01*
X3595Y786D02*
X3890Y786D01*
X3595Y791D02*
X3890Y791D01*
X3595Y796D02*
X3890Y796D01*
X3595Y801D02*
X3890Y801D01*
X3595Y806D02*
X3890Y806D01*
X3595Y811D02*
X3890Y811D01*
X3597Y816D02*
X3890Y816D01*
X3597Y821D02*
X3890Y821D01*
X3597Y826D02*
X3890Y826D01*
X3597Y831D02*
X3890Y831D01*
X3597Y836D02*
X3890Y836D01*
X3597Y841D02*
X3890Y841D01*
X3597Y846D02*
X3890Y846D01*
X3597Y851D02*
X3890Y851D01*
X3597Y856D02*
X3890Y856D01*
X3597Y861D02*
X3890Y861D01*
X3597Y866D02*
X3890Y866D01*
X3597Y871D02*
X3890Y871D01*
X3597Y876D02*
X3890Y876D01*
X3597Y881D02*
X3890Y881D01*
X3597Y886D02*
X3890Y886D01*
X3597Y891D02*
X3693Y891D01*
X3751Y891D02*
X3890Y891D01*
X3597Y896D02*
X3679Y896D01*
X3765Y896D02*
X3890Y896D01*
X3597Y901D02*
X3669Y901D01*
X3775Y901D02*
X3890Y901D01*
X3597Y906D02*
X3661Y906D01*
X3783Y906D02*
X3890Y906D01*
X3597Y911D02*
X3654Y911D01*
X3790Y911D02*
X3890Y911D01*
X3597Y916D02*
X3648Y916D01*
X3796Y916D02*
X3890Y916D01*
X3597Y921D02*
X3643Y921D01*
X3801Y921D02*
X3890Y921D01*
X3597Y926D02*
X3639Y926D01*
X3805Y926D02*
X3890Y926D01*
X3597Y931D02*
X3635Y931D01*
X3809Y931D02*
X3890Y931D01*
X3599Y936D02*
X3631Y936D01*
X3812Y936D02*
X3890Y936D01*
X3602Y941D02*
X3628Y941D01*
X3816Y941D02*
X3890Y941D01*
X3608Y946D02*
X3622Y946D01*
X3818Y946D02*
X3890Y946D01*
X3821Y951D02*
X3890Y951D01*
X3823Y956D02*
X3890Y956D01*
X3825Y961D02*
X3890Y961D01*
X3826Y966D02*
X3890Y966D01*
X3827Y971D02*
X3890Y971D01*
X3828Y976D02*
X3890Y976D01*
X3829Y981D02*
X3890Y981D01*
X3830Y986D02*
X3890Y986D01*
X3830Y991D02*
X3890Y991D01*
X3830Y996D02*
X3890Y996D01*
X3830Y1001D02*
X3890Y1001D01*
X3829Y1006D02*
X3890Y1006D01*
X3829Y1011D02*
X3890Y1011D01*
X3828Y1016D02*
X3890Y1016D01*
X3827Y1021D02*
X3890Y1021D01*
X3825Y1026D02*
X3890Y1026D01*
X3824Y1031D02*
X3890Y1031D01*
X3822Y1036D02*
X3890Y1036D01*
X3601Y1041D02*
X3623Y1041D01*
X3820Y1041D02*
X3890Y1041D01*
X3597Y1046D02*
X3627Y1046D01*
X3817Y1046D02*
X3890Y1046D01*
X3593Y1051D02*
X3630Y1051D01*
X3814Y1051D02*
X3890Y1051D01*
X3589Y1056D02*
X3633Y1056D01*
X3811Y1056D02*
X3890Y1056D01*
X3584Y1061D02*
X3637Y1061D01*
X3807Y1061D02*
X3890Y1061D01*
X3578Y1066D02*
X3641Y1066D01*
X3803Y1066D02*
X3890Y1066D01*
X3574Y1071D02*
X3645Y1071D01*
X3799Y1071D02*
X3890Y1071D01*
X3573Y1076D02*
X3651Y1076D01*
X3793Y1076D02*
X3890Y1076D01*
X3573Y1081D02*
X3657Y1081D01*
X3787Y1081D02*
X3890Y1081D01*
X3574Y1086D02*
X3664Y1086D01*
X3780Y1086D02*
X3890Y1086D01*
X3575Y1091D02*
X3673Y1091D01*
X3771Y1091D02*
X3890Y1091D01*
X3576Y1096D02*
X3684Y1096D01*
X3760Y1096D02*
X3890Y1096D01*
X3577Y1101D02*
X3702Y1101D01*
X3742Y1101D02*
X3890Y1101D01*
X3577Y1106D02*
X3890Y1106D01*
X3577Y1111D02*
X3890Y1111D01*
X3576Y1116D02*
X3890Y1116D01*
X3575Y1121D02*
X3890Y1121D01*
X3573Y1126D02*
X3890Y1126D01*
X3571Y1131D02*
X3890Y1131D01*
X3571Y1136D02*
X3890Y1136D01*
X3572Y1141D02*
X3890Y1141D01*
X3575Y1146D02*
X3890Y1146D01*
X3581Y1151D02*
X3890Y1151D01*
X3586Y1156D02*
X3890Y1156D01*
X3591Y1161D02*
X3890Y1161D01*
X3595Y1166D02*
X3890Y1166D01*
X3598Y1171D02*
X3890Y1171D01*
X3601Y1176D02*
X3890Y1176D01*
X3604Y1181D02*
X3890Y1181D01*
X3606Y1186D02*
X3890Y1186D01*
X3608Y1191D02*
X3890Y1191D01*
X3610Y1196D02*
X3890Y1196D01*
X3612Y1201D02*
X3890Y1201D01*
X3613Y1206D02*
X3890Y1206D01*
X3614Y1211D02*
X3890Y1211D01*
X3614Y1216D02*
X3890Y1216D01*
X3614Y1221D02*
X3890Y1221D01*
X3615Y1226D02*
X3890Y1226D01*
X3614Y1231D02*
X3890Y1231D01*
X3614Y1236D02*
X3890Y1236D01*
X3613Y1241D02*
X3890Y1241D01*
X3612Y1246D02*
X3890Y1246D01*
X3611Y1251D02*
X3890Y1251D01*
X3609Y1256D02*
X3890Y1256D01*
X3608Y1261D02*
X3890Y1261D01*
X3605Y1266D02*
X3890Y1266D01*
X3603Y1271D02*
X3890Y1271D01*
X3600Y1276D02*
X3890Y1276D01*
X3597Y1281D02*
X3706Y1281D01*
X3738Y1281D02*
X3890Y1281D01*
X3593Y1286D02*
X3686Y1286D01*
X3758Y1286D02*
X3890Y1286D01*
X3589Y1291D02*
X3674Y1291D01*
X3770Y1291D02*
X3890Y1291D01*
X3428Y1296D02*
X3450Y1296D01*
X3584Y1296D02*
X3665Y1296D01*
X3779Y1296D02*
X3890Y1296D01*
X3424Y1301D02*
X3456Y1301D01*
X3578Y1301D02*
X3657Y1301D01*
X3787Y1301D02*
X3890Y1301D01*
X3422Y1306D02*
X3463Y1306D01*
X3571Y1306D02*
X3651Y1306D01*
X3793Y1306D02*
X3890Y1306D01*
X3422Y1311D02*
X3471Y1311D01*
X3563Y1311D02*
X3645Y1311D01*
X3799Y1311D02*
X3890Y1311D01*
X3422Y1316D02*
X3482Y1316D01*
X3552Y1316D02*
X3640Y1316D01*
X3804Y1316D02*
X3890Y1316D01*
X3422Y1321D02*
X3500Y1321D01*
X3534Y1321D02*
X3636Y1321D01*
X3808Y1321D02*
X3890Y1321D01*
X3421Y1326D02*
X3632Y1326D01*
X3812Y1326D02*
X3890Y1326D01*
X3419Y1331D02*
X3629Y1331D01*
X3815Y1331D02*
X3890Y1331D01*
X3417Y1336D02*
X3626Y1336D01*
X3818Y1336D02*
X3890Y1336D01*
X3415Y1341D02*
X3623Y1341D01*
X3821Y1341D02*
X3890Y1341D01*
X3411Y1346D02*
X3621Y1346D01*
X3823Y1346D02*
X3890Y1346D01*
X3407Y1351D02*
X3619Y1351D01*
X3825Y1351D02*
X3890Y1351D01*
X3402Y1356D02*
X3617Y1356D01*
X3827Y1356D02*
X3890Y1356D01*
X3397Y1361D02*
X3616Y1361D01*
X3828Y1361D02*
X3890Y1361D01*
X3392Y1366D02*
X3615Y1366D01*
X3829Y1366D02*
X3890Y1366D01*
X3387Y1371D02*
X3614Y1371D01*
X3830Y1371D02*
X3890Y1371D01*
X3382Y1376D02*
X3613Y1376D01*
X3831Y1376D02*
X3890Y1376D01*
X3377Y1381D02*
X3612Y1381D01*
X3832Y1381D02*
X3890Y1381D01*
X3371Y1386D02*
X3612Y1386D01*
X3832Y1386D02*
X3890Y1386D01*
X3362Y1391D02*
X3612Y1391D01*
X3832Y1391D02*
X3890Y1391D01*
X2973Y1396D02*
X3041Y1396D01*
X3356Y1396D02*
X3612Y1396D01*
X3832Y1396D02*
X3890Y1396D01*
X2966Y1401D02*
X3048Y1401D01*
X3353Y1401D02*
X3612Y1401D01*
X3831Y1401D02*
X3890Y1401D01*
X2963Y1406D02*
X3613Y1406D01*
X3831Y1406D02*
X3890Y1406D01*
X2962Y1411D02*
X3614Y1411D01*
X3830Y1411D02*
X3890Y1411D01*
X2962Y1416D02*
X3615Y1416D01*
X3829Y1416D02*
X3890Y1416D01*
X2962Y1421D02*
X3616Y1421D01*
X3828Y1421D02*
X3890Y1421D01*
X2962Y1426D02*
X3617Y1426D01*
X3826Y1426D02*
X3890Y1426D01*
X2962Y1431D02*
X3615Y1431D01*
X3824Y1431D02*
X3890Y1431D01*
X2962Y1436D02*
X3612Y1436D01*
X3822Y1436D02*
X3890Y1436D01*
X2962Y1441D02*
X3607Y1441D01*
X3819Y1441D02*
X3890Y1441D01*
X2964Y1446D02*
X3602Y1446D01*
X3817Y1446D02*
X3890Y1446D01*
X2968Y1451D02*
X3597Y1451D01*
X3814Y1451D02*
X3890Y1451D01*
X3237Y1456D02*
X3592Y1456D01*
X3810Y1456D02*
X3890Y1456D01*
X3250Y1461D02*
X3587Y1461D01*
X3806Y1461D02*
X3890Y1461D01*
X3257Y1466D02*
X3582Y1466D01*
X3802Y1466D02*
X3890Y1466D01*
X3262Y1471D02*
X3577Y1471D01*
X3796Y1471D02*
X3890Y1471D01*
X3267Y1476D02*
X3572Y1476D01*
X3791Y1476D02*
X3890Y1476D01*
X3272Y1481D02*
X3567Y1481D01*
X3784Y1481D02*
X3890Y1481D01*
X3277Y1486D02*
X3562Y1486D01*
X3776Y1486D02*
X3890Y1486D01*
X3282Y1491D02*
X3557Y1491D01*
X3766Y1491D02*
X3890Y1491D01*
X3287Y1496D02*
X3552Y1496D01*
X3682Y1496D02*
X3693Y1496D01*
X3751Y1496D02*
X3890Y1496D01*
X3292Y1501D02*
X3547Y1501D01*
X3675Y1501D02*
X3890Y1501D01*
X3297Y1506D02*
X3544Y1506D01*
X3670Y1506D02*
X3890Y1506D01*
X3302Y1511D02*
X3541Y1511D01*
X3665Y1511D02*
X3890Y1511D01*
X3307Y1516D02*
X3539Y1516D01*
X3660Y1516D02*
X3890Y1516D01*
X3310Y1521D02*
X3538Y1521D01*
X3655Y1521D02*
X3890Y1521D01*
X3313Y1526D02*
X3537Y1526D01*
X3650Y1526D02*
X3890Y1526D01*
X3315Y1531D02*
X3537Y1531D01*
X3645Y1531D02*
X3890Y1531D01*
X3316Y1536D02*
X3537Y1536D01*
X3640Y1536D02*
X3890Y1536D01*
X3317Y1541D02*
X3537Y1541D01*
X3635Y1541D02*
X3890Y1541D01*
X3317Y1546D02*
X3537Y1546D01*
X3630Y1546D02*
X3890Y1546D01*
X3317Y1551D02*
X3537Y1551D01*
X3628Y1551D02*
X3890Y1551D01*
X3317Y1556D02*
X3537Y1556D01*
X3627Y1556D02*
X3890Y1556D01*
X3317Y1561D02*
X3537Y1561D01*
X3627Y1561D02*
X3890Y1561D01*
X3317Y1566D02*
X3537Y1566D01*
X3627Y1566D02*
X3890Y1566D01*
X3317Y1571D02*
X3537Y1571D01*
X3627Y1571D02*
X3890Y1571D01*
X3317Y1576D02*
X3537Y1576D01*
X3627Y1576D02*
X3890Y1576D01*
X3317Y1581D02*
X3537Y1581D01*
X3627Y1581D02*
X3890Y1581D01*
X3317Y1586D02*
X3537Y1586D01*
X3627Y1586D02*
X3890Y1586D01*
X3317Y1591D02*
X3537Y1591D01*
X3627Y1591D02*
X3890Y1591D01*
X3317Y1596D02*
X3537Y1596D01*
X3627Y1596D02*
X3890Y1596D01*
X3317Y1601D02*
X3537Y1601D01*
X3627Y1601D02*
X3890Y1601D01*
X3317Y1606D02*
X3537Y1606D01*
X3627Y1606D02*
X3890Y1606D01*
X3317Y1611D02*
X3537Y1611D01*
X3627Y1611D02*
X3890Y1611D01*
X3317Y1616D02*
X3537Y1616D01*
X3627Y1616D02*
X3890Y1616D01*
X3317Y1621D02*
X3537Y1621D01*
X3627Y1621D02*
X3890Y1621D01*
X3317Y1626D02*
X3537Y1626D01*
X3627Y1626D02*
X3890Y1626D01*
X3317Y1631D02*
X3537Y1631D01*
X3627Y1631D02*
X3890Y1631D01*
X3317Y1636D02*
X3537Y1636D01*
X3627Y1636D02*
X3890Y1636D01*
X3317Y1641D02*
X3537Y1641D01*
X3627Y1641D02*
X3890Y1641D01*
X3317Y1646D02*
X3537Y1646D01*
X3627Y1646D02*
X3890Y1646D01*
X3317Y1651D02*
X3537Y1651D01*
X3627Y1651D02*
X3890Y1651D01*
X3317Y1656D02*
X3537Y1656D01*
X3627Y1656D02*
X3890Y1656D01*
X3317Y1661D02*
X3537Y1661D01*
X3627Y1661D02*
X3890Y1661D01*
X3317Y1666D02*
X3537Y1666D01*
X3627Y1666D02*
X3890Y1666D01*
X3317Y1671D02*
X3537Y1671D01*
X3627Y1671D02*
X3890Y1671D01*
X3317Y1676D02*
X3537Y1676D01*
X3627Y1676D02*
X3890Y1676D01*
X3317Y1681D02*
X3537Y1681D01*
X3627Y1681D02*
X3890Y1681D01*
X3317Y1686D02*
X3537Y1686D01*
X3627Y1686D02*
X3890Y1686D01*
X3317Y1691D02*
X3537Y1691D01*
X3627Y1691D02*
X3890Y1691D01*
X3317Y1696D02*
X3537Y1696D01*
X3627Y1696D02*
X3890Y1696D01*
X3317Y1701D02*
X3537Y1701D01*
X3627Y1701D02*
X3890Y1701D01*
X3317Y1706D02*
X3537Y1706D01*
X3627Y1706D02*
X3890Y1706D01*
X3317Y1711D02*
X3537Y1711D01*
X3627Y1711D02*
X3890Y1711D01*
X3317Y1716D02*
X3537Y1716D01*
X3627Y1716D02*
X3890Y1716D01*
X3317Y1721D02*
X3537Y1721D01*
X3627Y1721D02*
X3890Y1721D01*
X3319Y1726D02*
X3537Y1726D01*
X3627Y1726D02*
X3890Y1726D01*
X3323Y1731D02*
X3537Y1731D01*
X3627Y1731D02*
X3777Y1731D01*
X3802Y1731D02*
X3890Y1731D01*
X3343Y1736D02*
X3537Y1736D01*
X3627Y1736D02*
X3756Y1736D01*
X3823Y1736D02*
X3890Y1736D01*
X3357Y1741D02*
X3537Y1741D01*
X3627Y1741D02*
X3744Y1741D01*
X3835Y1741D02*
X3890Y1741D01*
X3365Y1746D02*
X3459Y1746D01*
X3487Y1746D02*
X3535Y1746D01*
X3627Y1746D02*
X3735Y1746D01*
X3843Y1746D02*
X3890Y1746D01*
X3371Y1751D02*
X3441Y1751D01*
X3505Y1751D02*
X3532Y1751D01*
X3627Y1751D02*
X3728Y1751D01*
X3851Y1751D02*
X3890Y1751D01*
X3375Y1756D02*
X3431Y1756D01*
X3517Y1756D02*
X3523Y1756D01*
X3627Y1756D02*
X3722Y1756D01*
X3857Y1756D02*
X3888Y1756D01*
X3379Y1761D02*
X3423Y1761D01*
X3627Y1761D02*
X3717Y1761D01*
X3862Y1761D02*
X3885Y1761D01*
X3382Y1766D02*
X3417Y1766D01*
X3627Y1766D02*
X3712Y1766D01*
X3384Y1771D02*
X3412Y1771D01*
X3627Y1771D02*
X3708Y1771D01*
X3390Y1776D02*
X3405Y1776D01*
X3627Y1776D02*
X3705Y1776D01*
X3627Y1781D02*
X3702Y1781D01*
X3627Y1786D02*
X3699Y1786D01*
X3627Y1791D02*
X3697Y1791D01*
X3627Y1796D02*
X3695Y1796D01*
X3627Y1801D02*
X3693Y1801D01*
X3627Y1806D02*
X3692Y1806D01*
X3627Y1811D02*
X3691Y1811D01*
X3627Y1816D02*
X3690Y1816D01*
X3627Y1821D02*
X3689Y1821D01*
X3627Y1826D02*
X3689Y1826D01*
X3627Y1831D02*
X3689Y1831D01*
X3627Y1836D02*
X3689Y1836D01*
X3627Y1841D02*
X3689Y1841D01*
X3627Y1846D02*
X3690Y1846D01*
X3627Y1851D02*
X3691Y1851D01*
X3627Y1856D02*
X3692Y1856D01*
X3627Y1861D02*
X3693Y1861D01*
X3627Y1866D02*
X3695Y1866D01*
X3627Y1871D02*
X3697Y1871D01*
X3627Y1876D02*
X3700Y1876D01*
X3627Y1881D02*
X3702Y1881D01*
X3627Y1886D02*
X3705Y1886D01*
X3627Y1891D02*
X3709Y1891D01*
X3627Y1896D02*
X3713Y1896D01*
X3627Y1901D02*
X3717Y1901D01*
X3861Y1901D02*
X3885Y1901D01*
X3627Y1906D02*
X3723Y1906D01*
X3856Y1906D02*
X3889Y1906D01*
X3627Y1911D02*
X3729Y1911D01*
X3850Y1911D02*
X3890Y1911D01*
X3627Y1916D02*
X3736Y1916D01*
X3843Y1916D02*
X3890Y1916D01*
X3627Y1921D02*
X3745Y1921D01*
X3834Y1921D02*
X3890Y1921D01*
X3627Y1926D02*
X3757Y1926D01*
X3822Y1926D02*
X3890Y1926D01*
X3627Y1931D02*
X3781Y1931D01*
X3798Y1931D02*
X3890Y1931D01*
X3627Y1936D02*
X3890Y1936D01*
X3627Y1941D02*
X3890Y1941D01*
X3627Y1946D02*
X3890Y1946D01*
X3627Y1951D02*
X3890Y1951D01*
X3627Y1956D02*
X3890Y1956D01*
X3627Y1961D02*
X3890Y1961D01*
X3627Y1966D02*
X3890Y1966D01*
X3627Y1971D02*
X3890Y1971D01*
X3627Y1976D02*
X3890Y1976D01*
X3627Y1981D02*
X3890Y1981D01*
X3627Y1986D02*
X3890Y1986D01*
X3627Y1991D02*
X3890Y1991D01*
X3627Y1996D02*
X3890Y1996D01*
X3627Y2001D02*
X3890Y2001D01*
X3627Y2006D02*
X3890Y2006D01*
X3627Y2011D02*
X3890Y2011D01*
X3627Y2016D02*
X3890Y2016D01*
X3627Y2021D02*
X3890Y2021D01*
X3627Y2026D02*
X3890Y2026D01*
X3627Y2031D02*
X3890Y2031D01*
X3628Y2036D02*
X3890Y2036D01*
X3631Y2041D02*
X3890Y2041D01*
X3639Y2046D02*
X3890Y2046D01*
X3800Y2051D02*
X3890Y2051D01*
X3800Y2056D02*
X3890Y2056D01*
X3800Y2061D02*
X3890Y2061D01*
X3800Y2066D02*
X3890Y2066D01*
X3800Y2071D02*
X3890Y2071D01*
X3800Y2076D02*
X3890Y2076D01*
X3800Y2081D02*
X3890Y2081D01*
X3800Y2086D02*
X3890Y2086D01*
X3800Y2091D02*
X3890Y2091D01*
X3800Y2096D02*
X3890Y2096D01*
X3800Y2101D02*
X3890Y2101D01*
X3800Y2106D02*
X3890Y2106D01*
X3800Y2111D02*
X3890Y2111D01*
X3800Y2116D02*
X3890Y2116D01*
X3800Y2121D02*
X3890Y2121D01*
X3800Y2126D02*
X3890Y2126D01*
X3800Y2131D02*
X3890Y2131D01*
X3800Y2136D02*
X3890Y2136D01*
X3800Y2141D02*
X3890Y2141D01*
X3800Y2146D02*
X3890Y2146D01*
X3800Y2151D02*
X3890Y2151D01*
X3800Y2156D02*
X3890Y2156D01*
X3800Y2161D02*
X3890Y2161D01*
X3800Y2166D02*
X3890Y2166D01*
X3800Y2171D02*
X3890Y2171D01*
X3802Y2176D02*
X3890Y2176D01*
X3802Y2181D02*
X3890Y2181D01*
X3802Y2186D02*
X3890Y2186D01*
X3802Y2191D02*
X3890Y2191D01*
X3802Y2196D02*
X3890Y2196D01*
X3802Y2201D02*
X3890Y2201D01*
X3802Y2206D02*
X3890Y2206D01*
X3802Y2211D02*
X3890Y2211D01*
X3802Y2216D02*
X3890Y2216D01*
X3802Y2221D02*
X3890Y2221D01*
X3802Y2226D02*
X3890Y2226D01*
X3802Y2231D02*
X3890Y2231D01*
X3802Y2236D02*
X3890Y2236D01*
X3802Y2241D02*
X3890Y2241D01*
X3802Y2246D02*
X3890Y2246D01*
X3802Y2251D02*
X3890Y2251D01*
X3802Y2256D02*
X3890Y2256D01*
X3802Y2261D02*
X3890Y2261D01*
X3802Y2266D02*
X3890Y2266D01*
X3802Y2271D02*
X3890Y2271D01*
X3802Y2276D02*
X3890Y2276D01*
X3802Y2281D02*
X3890Y2281D01*
X3802Y2286D02*
X3890Y2286D01*
X3802Y2291D02*
X3890Y2291D01*
X3802Y2296D02*
X3890Y2296D01*
X3802Y2301D02*
X3890Y2301D01*
X3673Y2306D02*
X3890Y2306D01*
X3666Y2311D02*
X3890Y2311D01*
X3663Y2316D02*
X3890Y2316D01*
X3662Y2321D02*
X3890Y2321D01*
X3662Y2326D02*
X3890Y2326D01*
X3662Y2331D02*
X3890Y2331D01*
X3662Y2336D02*
X3890Y2336D01*
X3662Y2341D02*
X3890Y2341D01*
X3662Y2346D02*
X3890Y2346D01*
X3662Y2351D02*
X3890Y2351D01*
X3662Y2356D02*
X3890Y2356D01*
X3662Y2361D02*
X3890Y2361D01*
X3662Y2366D02*
X3890Y2366D01*
X3662Y2371D02*
X3890Y2371D01*
X3662Y2376D02*
X3890Y2376D01*
X3662Y2381D02*
X3890Y2381D01*
X3662Y2386D02*
X3890Y2386D01*
X3662Y2391D02*
X3890Y2391D01*
X3662Y2396D02*
X3890Y2396D01*
X3662Y2401D02*
X3890Y2401D01*
X3662Y2406D02*
X3890Y2406D01*
X3662Y2411D02*
X3890Y2411D01*
X3662Y2416D02*
X3890Y2416D01*
X3662Y2421D02*
X3890Y2421D01*
X3662Y2426D02*
X3890Y2426D01*
X3662Y2431D02*
X3890Y2431D01*
X3662Y2436D02*
X3890Y2436D01*
X3662Y2441D02*
X3890Y2441D01*
X3662Y2446D02*
X3890Y2446D01*
X3662Y2451D02*
X3890Y2451D01*
X3662Y2456D02*
X3890Y2456D01*
X3662Y2461D02*
X3890Y2461D01*
X3662Y2466D02*
X3890Y2466D01*
X3662Y2471D02*
X3890Y2471D01*
X3662Y2476D02*
X3890Y2476D01*
X3662Y2481D02*
X3890Y2481D01*
X3663Y2486D02*
X3889Y2486D01*
X3666Y2491D02*
X3886Y2491D01*
X3674Y2496D02*
X3879Y2496D01*
D12*
X2072Y330D02*
X2138Y330D01*
D15*
G36*
X2342Y220D02*
X2004Y220D01*
X1999Y221*
X1994Y223*
X1990Y227*
X1988Y232*
X1987Y237*
X1987Y271*
X1988Y276*
X1990Y281*
X1994Y285*
X1999Y287*
X2004Y288*
X2009Y287*
X2014Y285*
X2017Y282*
X2020Y278*
X2029Y271*
X2039Y265*
X2049Y260*
X2061Y258*
X2072Y257*
X2083Y258*
X2095Y260*
X2105Y265*
X2115Y271*
X2124Y278*
X2131Y287*
X2137Y297*
X2141Y307*
X2144Y318*
X2145Y330*
X2144Y341*
X2141Y352*
X2141Y352*
X2141Y353*
X2141Y358*
X2141Y363*
X2144Y368*
X2148Y372*
X2152Y374*
X2158Y375*
X2221Y375*
X2221Y375*
X2227Y374*
X2231Y372*
X2233Y370*
X2354Y249*
X2356Y247*
X2358Y242*
X2359Y237*
X2358Y232*
X2356Y227*
X2352Y223*
X2347Y221*
X2342Y220*
G37*
X2004Y220*
X1999Y221*
X1994Y223*
X1990Y227*
X1988Y232*
X1987Y237*
X1987Y271*
X1988Y276*
X1990Y281*
X1994Y285*
X1999Y287*
X2004Y288*
X2009Y287*
X2014Y285*
X2017Y282*
X2020Y278*
X2029Y271*
X2039Y265*
X2049Y260*
X2061Y258*
X2072Y257*
X2083Y258*
X2095Y260*
X2105Y265*
X2115Y271*
X2124Y278*
X2131Y287*
X2137Y297*
X2141Y307*
X2144Y318*
X2145Y330*
X2144Y341*
X2141Y352*
X2141Y352*
X2141Y353*
X2141Y358*
X2141Y363*
X2144Y368*
X2148Y372*
X2152Y374*
X2158Y375*
X2221Y375*
X2221Y375*
X2227Y374*
X2231Y372*
X2233Y370*
X2354Y249*
X2356Y247*
X2358Y242*
X2359Y237*
X2358Y232*
X2356Y227*
X2352Y223*
X2347Y221*
X2342Y220*
G36*
X1697Y328D02*
X1697Y237D01*
X1697Y237*
X1696Y232*
X1694Y227*
X1690Y223*
X1685Y221*
X1680Y220*
X1680Y220*
X1469Y220*
X1464Y221*
X1459Y223*
X1456Y227*
X1453Y232*
X1452Y237*
X1453Y242*
X1456Y247*
X1459Y251*
X1463Y253*
X1467Y255*
X1473Y258*
X1479Y263*
X1579Y363*
X1579Y363*
X1583Y368*
X1587Y374*
X1589Y379*
X1591Y383*
X1595Y387*
X1600Y389*
X1605Y390*
X1610Y389*
X1615Y387*
X1619Y383*
X1621Y379*
X1623Y375*
X1627Y367*
X1633Y361*
X1640Y355*
X1647Y351*
X1655Y347*
X1663Y345*
X1672Y345*
X1678Y345*
X1680Y345*
X1685Y344*
X1690Y342*
X1694Y338*
X1696Y333*
X1697Y328*
X1697Y328*
G37*
X1697Y237*
X1697Y237*
X1696Y232*
X1694Y227*
X1690Y223*
X1685Y221*
X1680Y220*
X1680Y220*
X1469Y220*
X1464Y221*
X1459Y223*
X1456Y227*
X1453Y232*
X1452Y237*
X1453Y242*
X1456Y247*
X1459Y251*
X1463Y253*
X1467Y255*
X1473Y258*
X1479Y263*
X1579Y363*
X1579Y363*
X1583Y368*
X1587Y374*
X1589Y379*
X1591Y383*
X1595Y387*
X1600Y389*
X1605Y390*
X1610Y389*
X1615Y387*
X1619Y383*
X1621Y379*
X1623Y375*
X1627Y367*
X1633Y361*
X1640Y355*
X1647Y351*
X1655Y347*
X1663Y345*
X1672Y345*
X1678Y345*
X1680Y345*
X1685Y344*
X1690Y342*
X1694Y338*
X1696Y333*
X1697Y328*
X1697Y328*
D12*
X967Y570D02*
X967Y616D01*
X678Y680D02*
X576Y680D01*
X1077Y570D02*
X1077Y616D01*
X802Y975D02*
X802Y1041D01*
D15*
G36*
X897Y1273D02*
X895Y1277D01*
X895Y1282*
X895Y1317*
X895Y1317*
X894Y1323*
X893Y1328*
X891Y1333*
X888Y1338*
X884Y1342*
X880Y1346*
X875Y1349*
X870Y1351*
X865Y1352*
X859Y1352*
X859Y1352*
X769Y1352*
X769Y1352*
X764Y1352*
X759Y1351*
X754Y1349*
X749Y1346*
X745Y1342*
X741Y1338*
X738Y1333*
X736Y1328*
X735Y1323*
X734Y1317*
X734Y1317*
X734Y1282*
X734Y1282*
X734Y1277*
X731Y1272*
X727Y1268*
X723Y1266*
X717Y1265*
X717Y1265*
X704Y1265*
X699Y1266*
X694Y1268*
X690Y1272*
X688Y1277*
X687Y1281*
X686Y1289*
X684Y1298*
X680Y1307*
X676Y1315*
X669Y1322*
X662Y1328*
X654Y1333*
X646Y1337*
X636Y1339*
X627Y1340*
X618Y1339*
X608Y1337*
X600Y1333*
X592Y1328*
X584Y1322*
X582Y1319*
X579Y1317*
X574Y1315*
X569Y1314*
X564Y1315*
X559Y1317*
X555Y1321*
X553Y1325*
X552Y1331*
X552Y1425*
X552Y1425*
X552Y1425*
X552Y1425*
X551Y1433*
X550Y1440*
X547Y1448*
X542Y1454*
X537Y1460*
X537Y1460*
X500Y1498*
X498Y1500*
X496Y1505*
X495Y1510*
X496Y1515*
X498Y1520*
X502Y1524*
X507Y1526*
X512Y1527*
X979Y1527*
X984Y1526*
X989Y1524*
X993Y1520*
X995Y1515*
X996Y1510*
X995Y1505*
X993Y1500*
X991Y1498*
X990Y1497*
X990Y1497*
X985Y1491*
X982Y1485*
X979Y1479*
X977Y1472*
X977Y1465*
X977Y1465*
X977Y1465*
X977Y1465*
X977Y1367*
X977Y1367*
X976Y1362*
X974Y1357*
X970Y1353*
X965Y1351*
X960Y1350*
X960Y1350*
X942Y1350*
X942Y1105*
X960Y1105*
X960Y1105*
X965Y1104*
X970Y1102*
X974Y1098*
X976Y1093*
X977Y1088*
X977Y1088*
X977Y876*
X976Y871*
X975Y868*
X973Y865*
X970Y857*
X968Y848*
X967Y840*
X968Y831*
X970Y823*
X973Y815*
X977Y807*
X983Y801*
X990Y795*
X997Y791*
X1005Y787*
X1013Y785*
X1022Y785*
X1031Y785*
X1039Y787*
X1047Y791*
X1054Y795*
X1055Y796*
X1055Y796*
X1060Y798*
X1065Y799*
X1071Y798*
X1075Y796*
X1079Y792*
X1081Y787*
X1082Y782*
X1082Y780*
X1082Y775*
X1083Y766*
X1085Y758*
X1088Y750*
X1092Y742*
X1098Y736*
X1105Y730*
X1112Y726*
X1120Y722*
X1128Y720*
X1129Y720*
X1131Y720*
X1136Y717*
X1140Y714*
X1142Y709*
X1143Y704*
X1142Y698*
X1140Y694*
X1139Y693*
X1136Y689*
X1130Y679*
X1126Y668*
X1123Y657*
X1122Y645*
X1122Y641*
X1122Y640*
X1121Y635*
X1119Y630*
X1115Y626*
X1110Y624*
X1105Y623*
X899Y623*
X899Y562*
X898Y557*
X897Y554*
X897Y529*
X897Y529*
X896Y524*
X894Y519*
X890Y515*
X885Y513*
X880Y512*
X875Y513*
X870Y515*
X866Y519*
X866Y520*
X863Y524*
X855Y533*
X846Y541*
X836Y547*
X825Y551*
X814Y554*
X802Y555*
X790Y554*
X779Y551*
X768Y547*
X758Y541*
X749Y533*
X741Y524*
X735Y514*
X731Y503*
X728Y492*
X727Y480*
X728Y468*
X731Y457*
X735Y446*
X741Y437*
X743Y432*
X744Y427*
X743Y423*
X743Y419*
X742Y410*
X743Y400*
X745Y391*
X748Y383*
X753Y375*
X759Y367*
X767Y361*
X775Y356*
X783Y353*
X793Y351*
X802Y350*
X811Y351*
X821Y353*
X829Y356*
X837Y361*
X844Y367*
X851Y375*
X855Y383*
X859Y391*
X861Y400*
X862Y410*
X861Y419*
X861Y423*
X860Y427*
X861Y432*
X863Y437*
X866Y440*
X866Y441*
X870Y445*
X875Y447*
X880Y448*
X885Y447*
X890Y445*
X894Y441*
X896Y436*
X897Y433*
X900Y432*
X904Y428*
X906Y423*
X907Y418*
X907Y417*
X907Y415*
X908Y405*
X909Y399*
X910Y395*
X909Y389*
X908Y387*
X905Y380*
X903Y370*
X902Y360*
X903Y350*
X905Y340*
X909Y330*
X914Y322*
X918Y317*
X919Y315*
X922Y311*
X922Y308*
X922Y308*
X924Y301*
X927Y294*
X931Y288*
X935Y283*
X955Y263*
X960Y258*
X967Y255*
X971Y253*
X952Y250*
X921Y220*
X533Y220*
X528Y221*
X523Y223*
X520Y227*
X517Y232*
X516Y237*
X517Y242*
X519Y246*
X522Y251*
X525Y259*
X527Y267*
X528Y276*
X527Y284*
X525Y293*
X522Y301*
X517Y308*
X511Y315*
X505Y320*
X497Y325*
X489Y328*
X481Y330*
X472Y331*
X464Y330*
X455Y328*
X450Y326*
X448Y325*
X443Y324*
X438Y325*
X433Y328*
X429Y331*
X427Y336*
X427Y337*
X426Y338*
X422Y349*
X415Y359*
X408Y368*
X399Y376*
X389Y382*
X378Y387*
X366Y390*
X354Y391*
X343Y390*
X331Y387*
X320Y382*
X310Y376*
X301Y368*
X293Y359*
X287Y349*
X282Y338*
X280Y327*
X279Y315*
X280Y303*
X282Y292*
X287Y281*
X293Y271*
X301Y262*
X310Y254*
X314Y251*
X315Y251*
X318Y247*
X321Y242*
X322Y237*
X321Y232*
X318Y227*
X315Y223*
X310Y221*
X305Y220*
X237Y220*
X232Y221*
X227Y223*
X223Y227*
X221Y232*
X220Y237*
X220Y952*
X220Y952*
X220Y956*
X309Y1340*
X310Y1342*
X312Y1346*
X316Y1350*
X320Y1353*
X326Y1353*
X331Y1353*
X336Y1350*
X339Y1346*
X341Y1344*
X346Y1336*
X354Y1327*
X363Y1319*
X373Y1313*
X384Y1308*
X395Y1306*
X407Y1305*
X419Y1306*
X430Y1308*
X435Y1309*
X440Y1308*
X445Y1306*
X449Y1302*
X451Y1297*
X452Y1292*
X452Y1183*
X451Y1177*
X449Y1173*
X447Y1171*
X372Y1095*
X372Y1095*
X366Y1089*
X362Y1083*
X359Y1075*
X358Y1068*
X357Y1060*
X357Y1060*
X357Y1060*
X357Y1060*
X357Y613*
X356Y608*
X355Y604*
X353Y602*
X350Y593*
X348Y584*
X347Y575*
X348Y565*
X350Y556*
X353Y548*
X358Y540*
X364Y532*
X372Y526*
X380Y521*
X388Y518*
X391Y517*
X392Y517*
X396Y514*
X398Y513*
X422Y489*
X424Y487*
X426Y482*
X427Y478*
X428Y468*
X431Y457*
X435Y446*
X441Y436*
X449Y427*
X458Y419*
X468Y413*
X479Y408*
X490Y406*
X502Y405*
X514Y406*
X525Y408*
X536Y413*
X546Y419*
X555Y427*
X563Y436*
X569Y446*
X573Y457*
X576Y468*
X577Y480*
X576Y492*
X573Y503*
X569Y514*
X563Y524*
X555Y533*
X546Y541*
X536Y547*
X525Y551*
X514Y554*
X504Y555*
X500Y556*
X495Y558*
X493Y560*
X469Y583*
X467Y585*
X465Y590*
X465Y591*
X464Y593*
X460Y602*
X459Y604*
X458Y608*
X457Y613*
X457Y728*
X457Y728*
X458Y733*
X460Y738*
X464Y742*
X469Y744*
X474Y745*
X479Y744*
X480Y744*
X483Y743*
X493Y741*
X502Y740*
X511Y741*
X521Y743*
X525Y745*
X527Y745*
X532Y746*
X537Y745*
X542Y743*
X546Y739*
X548Y734*
X549Y729*
X549Y729*
X549Y712*
X553Y712*
X553Y712*
X559Y711*
X563Y709*
X567Y705*
X570Y700*
X570Y695*
X570Y691*
X570Y689*
X569Y680*
X570Y671*
X572Y662*
X575Y654*
X580Y646*
X586Y639*
X593Y633*
X601Y628*
X609Y625*
X618Y623*
X627Y622*
X636Y623*
X645Y625*
X653Y628*
X661Y633*
X668Y639*
X674Y646*
X679Y654*
X682Y662*
X684Y671*
X685Y680*
X684Y689*
X684Y691*
X683Y695*
X684Y700*
X687Y705*
X690Y709*
X695Y711*
X700Y712*
X705Y712*
X705Y739*
X706Y744*
X708Y749*
X712Y752*
X717Y755*
X722Y756*
X727Y755*
X732Y752*
X736Y749*
X737Y746*
X743Y737*
X750Y728*
X759Y721*
X769Y715*
X779Y710*
X791Y708*
X802Y707*
X813Y708*
X825Y710*
X835Y715*
X845Y721*
X854Y728*
X861Y737*
X867Y747*
X871Y757*
X874Y768*
X875Y778*
X875Y780*
X874Y791*
X871Y802*
X867Y813*
X861Y823*
X854Y831*
X845Y839*
X835Y845*
X825Y849*
X813Y852*
X802Y853*
X791Y852*
X779Y849*
X769Y845*
X759Y839*
X750Y831*
X743Y823*
X739Y816*
X738Y815*
X734Y811*
X729Y809*
X724Y808*
X719Y809*
X714Y811*
X710Y815*
X708Y820*
X707Y825*
X707Y885*
X707Y885*
X708Y890*
X710Y895*
X714Y899*
X719Y901*
X724Y902*
X724Y902*
X895Y902*
X895Y1048*
X724Y1048*
X719Y1049*
X714Y1051*
X710Y1055*
X708Y1060*
X707Y1065*
X707Y1098*
X707Y1098*
X708Y1103*
X710Y1108*
X714Y1112*
X719Y1114*
X724Y1115*
X724Y1115*
X897Y1115*
X897Y1273*
G37*
X895Y1277*
X895Y1282*
X895Y1317*
X895Y1317*
X894Y1323*
X893Y1328*
X891Y1333*
X888Y1338*
X884Y1342*
X880Y1346*
X875Y1349*
X870Y1351*
X865Y1352*
X859Y1352*
X859Y1352*
X769Y1352*
X769Y1352*
X764Y1352*
X759Y1351*
X754Y1349*
X749Y1346*
X745Y1342*
X741Y1338*
X738Y1333*
X736Y1328*
X735Y1323*
X734Y1317*
X734Y1317*
X734Y1282*
X734Y1282*
X734Y1277*
X731Y1272*
X727Y1268*
X723Y1266*
X717Y1265*
X717Y1265*
X704Y1265*
X699Y1266*
X694Y1268*
X690Y1272*
X688Y1277*
X687Y1281*
X686Y1289*
X684Y1298*
X680Y1307*
X676Y1315*
X669Y1322*
X662Y1328*
X654Y1333*
X646Y1337*
X636Y1339*
X627Y1340*
X618Y1339*
X608Y1337*
X600Y1333*
X592Y1328*
X584Y1322*
X582Y1319*
X579Y1317*
X574Y1315*
X569Y1314*
X564Y1315*
X559Y1317*
X555Y1321*
X553Y1325*
X552Y1331*
X552Y1425*
X552Y1425*
X552Y1425*
X552Y1425*
X551Y1433*
X550Y1440*
X547Y1448*
X542Y1454*
X537Y1460*
X537Y1460*
X500Y1498*
X498Y1500*
X496Y1505*
X495Y1510*
X496Y1515*
X498Y1520*
X502Y1524*
X507Y1526*
X512Y1527*
X979Y1527*
X984Y1526*
X989Y1524*
X993Y1520*
X995Y1515*
X996Y1510*
X995Y1505*
X993Y1500*
X991Y1498*
X990Y1497*
X990Y1497*
X985Y1491*
X982Y1485*
X979Y1479*
X977Y1472*
X977Y1465*
X977Y1465*
X977Y1465*
X977Y1465*
X977Y1367*
X977Y1367*
X976Y1362*
X974Y1357*
X970Y1353*
X965Y1351*
X960Y1350*
X960Y1350*
X942Y1350*
X942Y1105*
X960Y1105*
X960Y1105*
X965Y1104*
X970Y1102*
X974Y1098*
X976Y1093*
X977Y1088*
X977Y1088*
X977Y876*
X976Y871*
X975Y868*
X973Y865*
X970Y857*
X968Y848*
X967Y840*
X968Y831*
X970Y823*
X973Y815*
X977Y807*
X983Y801*
X990Y795*
X997Y791*
X1005Y787*
X1013Y785*
X1022Y785*
X1031Y785*
X1039Y787*
X1047Y791*
X1054Y795*
X1055Y796*
X1055Y796*
X1060Y798*
X1065Y799*
X1071Y798*
X1075Y796*
X1079Y792*
X1081Y787*
X1082Y782*
X1082Y780*
X1082Y775*
X1083Y766*
X1085Y758*
X1088Y750*
X1092Y742*
X1098Y736*
X1105Y730*
X1112Y726*
X1120Y722*
X1128Y720*
X1129Y720*
X1131Y720*
X1136Y717*
X1140Y714*
X1142Y709*
X1143Y704*
X1142Y698*
X1140Y694*
X1139Y693*
X1136Y689*
X1130Y679*
X1126Y668*
X1123Y657*
X1122Y645*
X1122Y641*
X1122Y640*
X1121Y635*
X1119Y630*
X1115Y626*
X1110Y624*
X1105Y623*
X899Y623*
X899Y562*
X898Y557*
X897Y554*
X897Y529*
X897Y529*
X896Y524*
X894Y519*
X890Y515*
X885Y513*
X880Y512*
X875Y513*
X870Y515*
X866Y519*
X866Y520*
X863Y524*
X855Y533*
X846Y541*
X836Y547*
X825Y551*
X814Y554*
X802Y555*
X790Y554*
X779Y551*
X768Y547*
X758Y541*
X749Y533*
X741Y524*
X735Y514*
X731Y503*
X728Y492*
X727Y480*
X728Y468*
X731Y457*
X735Y446*
X741Y437*
X743Y432*
X744Y427*
X743Y423*
X743Y419*
X742Y410*
X743Y400*
X745Y391*
X748Y383*
X753Y375*
X759Y367*
X767Y361*
X775Y356*
X783Y353*
X793Y351*
X802Y350*
X811Y351*
X821Y353*
X829Y356*
X837Y361*
X844Y367*
X851Y375*
X855Y383*
X859Y391*
X861Y400*
X862Y410*
X861Y419*
X861Y423*
X860Y427*
X861Y432*
X863Y437*
X866Y440*
X866Y441*
X870Y445*
X875Y447*
X880Y448*
X885Y447*
X890Y445*
X894Y441*
X896Y436*
X897Y433*
X900Y432*
X904Y428*
X906Y423*
X907Y418*
X907Y417*
X907Y415*
X908Y405*
X909Y399*
X910Y395*
X909Y389*
X908Y387*
X905Y380*
X903Y370*
X902Y360*
X903Y350*
X905Y340*
X909Y330*
X914Y322*
X918Y317*
X919Y315*
X922Y311*
X922Y308*
X922Y308*
X924Y301*
X927Y294*
X931Y288*
X935Y283*
X955Y263*
X960Y258*
X967Y255*
X971Y253*
X952Y250*
X921Y220*
X533Y220*
X528Y221*
X523Y223*
X520Y227*
X517Y232*
X516Y237*
X517Y242*
X519Y246*
X522Y251*
X525Y259*
X527Y267*
X528Y276*
X527Y284*
X525Y293*
X522Y301*
X517Y308*
X511Y315*
X505Y320*
X497Y325*
X489Y328*
X481Y330*
X472Y331*
X464Y330*
X455Y328*
X450Y326*
X448Y325*
X443Y324*
X438Y325*
X433Y328*
X429Y331*
X427Y336*
X427Y337*
X426Y338*
X422Y349*
X415Y359*
X408Y368*
X399Y376*
X389Y382*
X378Y387*
X366Y390*
X354Y391*
X343Y390*
X331Y387*
X320Y382*
X310Y376*
X301Y368*
X293Y359*
X287Y349*
X282Y338*
X280Y327*
X279Y315*
X280Y303*
X282Y292*
X287Y281*
X293Y271*
X301Y262*
X310Y254*
X314Y251*
X315Y251*
X318Y247*
X321Y242*
X322Y237*
X321Y232*
X318Y227*
X315Y223*
X310Y221*
X305Y220*
X237Y220*
X232Y221*
X227Y223*
X223Y227*
X221Y232*
X220Y237*
X220Y952*
X220Y952*
X220Y956*
X309Y1340*
X310Y1342*
X312Y1346*
X316Y1350*
X320Y1353*
X326Y1353*
X331Y1353*
X336Y1350*
X339Y1346*
X341Y1344*
X346Y1336*
X354Y1327*
X363Y1319*
X373Y1313*
X384Y1308*
X395Y1306*
X407Y1305*
X419Y1306*
X430Y1308*
X435Y1309*
X440Y1308*
X445Y1306*
X449Y1302*
X451Y1297*
X452Y1292*
X452Y1183*
X451Y1177*
X449Y1173*
X447Y1171*
X372Y1095*
X372Y1095*
X366Y1089*
X362Y1083*
X359Y1075*
X358Y1068*
X357Y1060*
X357Y1060*
X357Y1060*
X357Y1060*
X357Y613*
X356Y608*
X355Y604*
X353Y602*
X350Y593*
X348Y584*
X347Y575*
X348Y565*
X350Y556*
X353Y548*
X358Y540*
X364Y532*
X372Y526*
X380Y521*
X388Y518*
X391Y517*
X392Y517*
X396Y514*
X398Y513*
X422Y489*
X424Y487*
X426Y482*
X427Y478*
X428Y468*
X431Y457*
X435Y446*
X441Y436*
X449Y427*
X458Y419*
X468Y413*
X479Y408*
X490Y406*
X502Y405*
X514Y406*
X525Y408*
X536Y413*
X546Y419*
X555Y427*
X563Y436*
X569Y446*
X573Y457*
X576Y468*
X577Y480*
X576Y492*
X573Y503*
X569Y514*
X563Y524*
X555Y533*
X546Y541*
X536Y547*
X525Y551*
X514Y554*
X504Y555*
X500Y556*
X495Y558*
X493Y560*
X469Y583*
X467Y585*
X465Y590*
X465Y591*
X464Y593*
X460Y602*
X459Y604*
X458Y608*
X457Y613*
X457Y728*
X457Y728*
X458Y733*
X460Y738*
X464Y742*
X469Y744*
X474Y745*
X479Y744*
X480Y744*
X483Y743*
X493Y741*
X502Y740*
X511Y741*
X521Y743*
X525Y745*
X527Y745*
X532Y746*
X537Y745*
X542Y743*
X546Y739*
X548Y734*
X549Y729*
X549Y729*
X549Y712*
X553Y712*
X553Y712*
X559Y711*
X563Y709*
X567Y705*
X570Y700*
X570Y695*
X570Y691*
X570Y689*
X569Y680*
X570Y671*
X572Y662*
X575Y654*
X580Y646*
X586Y639*
X593Y633*
X601Y628*
X609Y625*
X618Y623*
X627Y622*
X636Y623*
X645Y625*
X653Y628*
X661Y633*
X668Y639*
X674Y646*
X679Y654*
X682Y662*
X684Y671*
X685Y680*
X684Y689*
X684Y691*
X683Y695*
X684Y700*
X687Y705*
X690Y709*
X695Y711*
X700Y712*
X705Y712*
X705Y739*
X706Y744*
X708Y749*
X712Y752*
X717Y755*
X722Y756*
X727Y755*
X732Y752*
X736Y749*
X737Y746*
X743Y737*
X750Y728*
X759Y721*
X769Y715*
X779Y710*
X791Y708*
X802Y707*
X813Y708*
X825Y710*
X835Y715*
X845Y721*
X854Y728*
X861Y737*
X867Y747*
X871Y757*
X874Y768*
X875Y778*
X875Y780*
X874Y791*
X871Y802*
X867Y813*
X861Y823*
X854Y831*
X845Y839*
X835Y845*
X825Y849*
X813Y852*
X802Y853*
X791Y852*
X779Y849*
X769Y845*
X759Y839*
X750Y831*
X743Y823*
X739Y816*
X738Y815*
X734Y811*
X729Y809*
X724Y808*
X719Y809*
X714Y811*
X710Y815*
X708Y820*
X707Y825*
X707Y885*
X707Y885*
X708Y890*
X710Y895*
X714Y899*
X719Y901*
X724Y902*
X724Y902*
X895Y902*
X895Y1048*
X724Y1048*
X719Y1049*
X714Y1051*

X710Y1055*
X708Y1060*
X707Y1065*
X707Y1098*
X707Y1098*
X708Y1103*
X710Y1108*
X714Y1112*
X719Y1114*
X724Y1115*
X724Y1115*
X897Y1115*
X897Y1273*
D14*
G36*
X1302Y2804D02*
X1302Y2804D01*
X1306Y2803*
X1310Y2801*
X1313Y2798*
X1315Y2794*
X1316Y2790*
X1316Y2790*
X1316Y2120*
X1315Y2108*
X1312Y2097*
X1308Y2086*
X1302Y2076*
X1294Y2068*
X1285Y2060*
X1276Y2054*
X1265Y2050*
X1254Y2047*
X1242Y2046*
X774Y2046*
X632Y2188*
X632Y2436*
X635Y2440*
X638Y2444*
X642Y2447*
X647Y2450*
X651Y2452*
X657Y2453*
X662Y2454*
X662Y2454*
X697Y2454*
X709Y2454*
X720Y2455*
X732Y2456*
X743Y2459*
X754Y2461*
X765Y2465*
X776Y2468*
X787Y2473*
X797Y2478*
X808Y2483*
X817Y2489*
X827Y2496*
X836Y2503*
X845Y2511*
X853Y2518*
X853Y2519*
X861Y2527*
X869Y2536*
X876Y2545*
X882Y2554*
X888Y2564*
X894Y2574*
X899Y2585*
X903Y2596*
X907Y2607*
X911Y2618*
X913Y2629*
X915Y2640*
X917Y2652*
X918Y2663*
X918Y2675*
X918Y2675*
X918Y2692*
X1029Y2804*
X1302Y2804*
G37*
X1302Y2804*
X1306Y2803*
X1310Y2801*
X1313Y2798*
X1315Y2794*
X1316Y2790*
X1316Y2790*
X1316Y2120*
X1315Y2108*
X1312Y2097*
X1308Y2086*
X1302Y2076*
X1294Y2068*
X1285Y2060*
X1276Y2054*
X1265Y2050*
X1254Y2047*
X1242Y2046*
X774Y2046*
X632Y2188*
X632Y2436*
X635Y2440*
X638Y2444*
X642Y2447*
X647Y2450*
X651Y2452*
X657Y2453*
X662Y2454*
X662Y2454*
X697Y2454*
X709Y2454*
X720Y2455*
X732Y2456*
X743Y2459*
X754Y2461*
X765Y2465*
X776Y2468*
X787Y2473*
X797Y2478*
X808Y2483*
X817Y2489*
X827Y2496*
X836Y2503*
X845Y2511*
X853Y2518*
X853Y2519*
X861Y2527*
X869Y2536*
X876Y2545*
X882Y2554*
X888Y2564*
X894Y2574*
X899Y2585*
X903Y2596*
X907Y2607*
X911Y2618*
X913Y2629*
X915Y2640*
X917Y2652*
X918Y2663*
X918Y2675*
X918Y2675*
X918Y2692*
X1029Y2804*
X1302Y2804*
G36*
X1066Y3004D02*
X1067Y3004D01*
X1067Y3004*
X1102Y3004*
X1103Y3004*
X1104Y3003*
X1105Y3002*
X1106Y3001*
X1106Y3000*
X1106Y2940*
X1106Y2939*
X1105Y2938*
X1104Y2937*
X1103Y2936*
X1102Y2936*
X1002Y2936*
X1000Y2936*
X993Y2934*
X985Y2931*
X976Y2927*
X968Y2923*
X960Y2919*
X952Y2914*
X944Y2908*
X937Y2903*
X930Y2897*
X923Y2890*
X917Y2884*
X914Y2881*
X632Y2881*
X611Y2881*
X608Y2890*
X601Y2908*
X592Y2925*
X583Y2942*
X573Y2959*
X562Y2975*
X550Y2990*
X538Y3005*
X525Y3019*
X511Y3032*
X496Y3044*
X482Y3055*
X478Y3058*
X461Y3070*
X444Y3080*
X427Y3090*
X409Y3098*
X390Y3106*
X372Y3112*
X353Y3118*
X333Y3123*
X314Y3126*
X294Y3129*
X274Y3130*
X254Y3131*
X252Y3131*
X247Y3131*
X243Y3132*
X239Y3134*
X236Y3137*
X234Y3141*
X233Y3145*
X233Y3345*
X234Y3349*
X236Y3353*
X239Y3356*
X243Y3358*
X247Y3359*
X867Y3359*
X871Y3358*
X875Y3356*
X878Y3353*
X880Y3349*
X881Y3345*
X881Y3190*
X881Y3190*
X881Y3189*
X881Y3175*
X881Y3170*
X881Y3161*
X882Y3152*
X883Y3144*
X885Y3135*
X887Y3127*
X889Y3119*
X892Y3110*
X895Y3102*
X899Y3094*
X903Y3087*
X908Y3079*
X913Y3072*
X918Y3065*
X924Y3059*
X930Y3052*
X936Y3046*
X942Y3041*
X949Y3035*
X957Y3031*
X964Y3026*
X972Y3022*
X979Y3018*
X987Y3015*
X996Y3012*
X1004Y3009*
X1012Y3007*
X1021Y3006*
X1030Y3005*
X1038Y3004*
X1047Y3004*
X1052Y3004*
X1066Y3004*
G37*
X1067Y3004*
X1067Y3004*
X1102Y3004*
X1103Y3004*
X1104Y3003*
X1105Y3002*
X1106Y3001*
X1106Y3000*
X1106Y2940*
X1106Y2939*
X1105Y2938*
X1104Y2937*
X1103Y2936*
X1102Y2936*
X1002Y2936*
X1000Y2936*
X993Y2934*
X985Y2931*
X976Y2927*
X968Y2923*
X960Y2919*
X952Y2914*
X944Y2908*
X937Y2903*
X930Y2897*
X923Y2890*
X917Y2884*
X914Y2881*
X632Y2881*
X611Y2881*
X608Y2890*
X601Y2908*
X592Y2925*
X583Y2942*
X573Y2959*
X562Y2975*
X550Y2990*
X538Y3005*
X525Y3019*
X511Y3032*
X496Y3044*
X482Y3055*
X478Y3058*
X461Y3070*
X444Y3080*
X427Y3090*
X409Y3098*
X390Y3106*
X372Y3112*
X353Y3118*
X333Y3123*
X314Y3126*
X294Y3129*
X274Y3130*
X254Y3131*
X252Y3131*
X247Y3131*
X243Y3132*
X239Y3134*
X236Y3137*
X234Y3141*
X233Y3145*
X233Y3345*
X234Y3349*
X236Y3353*
X239Y3356*
X243Y3358*
X247Y3359*
X867Y3359*
X871Y3358*
X875Y3356*
X878Y3353*
X880Y3349*
X881Y3345*
X881Y3190*

X881Y3190*
X881Y3189*
X881Y3175*
X881Y3170*
X881Y3161*
X882Y3152*
X883Y3144*
X885Y3135*
X887Y3127*
X889Y3119*
X892Y3110*
X895Y3102*
X899Y3094*
X903Y3087*
X908Y3079*
X913Y3072*
X918Y3065*
X924Y3059*
X930Y3052*
X936Y3046*
X942Y3041*
X949Y3035*
X957Y3031*
X964Y3026*
X972Y3022*
X979Y3018*
X987Y3015*
X996Y3012*
X1004Y3009*
X1012Y3007*
X1021Y3006*
X1030Y3005*
X1038Y3004*
X1047Y3004*
X1052Y3004*
X1066Y3004*
D15*
G36*
X2977Y2520D02*
X2977Y2510D01*
X2977Y2230*
X2977Y2230*
X2977Y2230*
X2977Y1905*
X2977Y1905*
X2977Y1905*
X2977Y1905*
X2977Y1898*
X2979Y1891*
X2982Y1884*
X2985Y1878*
X2990Y1873*
X2990Y1873*
X3044Y1819*
X3046Y1817*
X3048Y1812*
X3049Y1811*
X3050Y1808*
X3053Y1800*
X3057Y1792*
X3063Y1786*
X3070Y1780*
X3077Y1776*
X3085Y1772*
X3093Y1770*
X3102Y1770*
X3111Y1770*
X3119Y1772*
X3127Y1776*
X3134Y1780*
X3141Y1786*
X3145Y1791*
X3149Y1794*
X3153Y1797*
X3159Y1797*
X3164Y1797*
X3169Y1794*
X3171Y1792*
X3193Y1770*
X3194Y1768*
X3197Y1764*
X3198Y1758*
X3197Y1753*
X3194Y1748*
X3191Y1745*
X3186Y1742*
X3181Y1741*
X3179Y1741*
X3171Y1742*
X3162Y1741*
X3154Y1740*
X3145Y1738*
X3137Y1735*
X3129Y1731*
X3122Y1726*
X3115Y1721*
X3109Y1714*
X3104Y1708*
X3099Y1700*
X3095Y1693*
X3092Y1684*
X3090Y1676*
X3088Y1668*
X3088Y1659*
X3088Y1650*
X3090Y1642*
X3092Y1633*
X3094Y1628*
X3094Y1627*
X3095Y1622*
X3094Y1617*
X3092Y1612*
X3088Y1608*
X3083Y1606*
X3078Y1605*
X3078Y1605*
X3018Y1605*
X3012Y1606*
X3008Y1608*
X3006Y1610*
X3002Y1614*
X3000Y1616*
X2998Y1620*
X2997Y1626*
X2997Y1690*
X2997Y1690*
X2997Y1690*
X2997Y1690*
X2996Y1697*
X2995Y1704*
X2992Y1710*
X2988Y1716*
X2984Y1722*
X2984Y1722*
X2954Y1752*
X2932Y1775*
X2926Y1778*
X2919Y1780*
X2914Y1781*
X2909Y1783*
X2905Y1787*
X2903Y1792*
X2902Y1797*
X2902Y1820*
X2902Y1820*
X2902Y1820*
X2902Y1820*
X2901Y1827*
X2900Y1834*
X2897Y1840*
X2893Y1846*
X2889Y1852*
X2889Y1852*
X2784Y1957*
X2784Y1957*
X2778Y1961*
X2777Y1962*
X2777Y1962*
X2773Y1966*
X2771Y1971*
X2770Y1976*
X2771Y1981*
X2773Y1986*
X2776Y1989*
X2779Y1992*
X2785Y1998*
X2791Y2005*
X2796Y2012*
X2800Y2020*
X2803Y2029*
X2805Y2037*
X2807Y2046*
X2807Y2055*
X2807Y2064*
X2805Y2073*
X2803Y2081*
X2800Y2089*
X2796Y2097*
X2791Y2105*
X2785Y2112*
X2779Y2118*
X2772Y2124*
X2765Y2129*
X2757Y2133*
X2748Y2136*
X2740Y2138*
X2739Y2138*
X2737Y2139*
X2732Y2141*
X2729Y2145*
X2726Y2150*
X2725Y2155*
X2726Y2160*
X2729Y2165*
X2732Y2169*
X2737Y2171*
X2739Y2171*
X2740Y2172*
X2748Y2174*
X2757Y2177*
X2765Y2181*
X2772Y2186*
X2779Y2192*
X2785Y2198*
X2791Y2205*
X2796Y2212*
X2800Y2220*
X2803Y2229*
X2805Y2237*
X2807Y2246*
X2807Y2255*
X2807Y2264*
X2805Y2273*
X2803Y2281*
X2800Y2289*
X2796Y2297*
X2791Y2305*
X2785Y2312*
X2779Y2318*
X2772Y2324*
X2765Y2329*
X2757Y2333*
X2748Y2336*
X2740Y2338*
X2731Y2339*
X2722Y2340*
X2713Y2339*
X2704Y2338*
X2696Y2336*
X2687Y2333*
X2679Y2329*
X2672Y2324*
X2665Y2318*
X2659Y2312*
X2653Y2305*
X2653Y2304*
X2653Y2304*
X2649Y2301*
X2644Y2298*
X2639Y2297*
X2634Y2298*
X2629Y2301*
X2625Y2304*
X2623Y2309*
X2622Y2314*
X2622Y2314*
X2622Y2340*
X2464Y2340*
X2459Y2341*
X2454Y2343*
X2450Y2347*
X2448Y2352*
X2447Y2357*
X2447Y2395*
X2447Y2395*
X2447Y2400*
X2445Y2406*
X2443Y2411*
X2440Y2415*
X2437Y2420*
X2437Y2420*
X2435Y2422*
X2433Y2427*
X2432Y2432*
X2432Y2433*
X2432Y2440*
X2431Y2452*
X2428Y2463*
X2424Y2474*
X2418Y2484*
X2410Y2493*
X2404Y2498*
X2401Y2501*
X2399Y2506*
X2398Y2511*
X2399Y2516*
X2401Y2521*
X2404Y2524*
X2409Y2528*
X2416Y2537*
X2422Y2547*
X2426Y2557*
X2429Y2568*
X2430Y2580*
X2429Y2591*
X2426Y2602*
X2422Y2613*
X2416Y2623*
X2413Y2627*
X2412Y2628*
X2410Y2633*
X2409Y2638*
X2410Y2643*
X2412Y2648*
X2416Y2652*
X2421Y2654*
X2426Y2655*
X2529Y2655*
X2529Y2655*
X2534Y2654*
X2539Y2652*
X2541Y2650*
X2548Y2644*
X2558Y2638*
X2560Y2637*
X2564Y2633*
X2566Y2628*
X2567Y2623*
X2567Y2623*
X2567Y2620*
X2567Y2614*
X2569Y2609*
X2571Y2604*
X2574Y2599*
X2577Y2595*
X2581Y2591*
X2586Y2589*
X2591Y2586*
X2596Y2585*
X2602Y2585*
X2682Y2585*
X2682Y2585*
X2687Y2585*
X2693Y2587*
X2698Y2589*
X2703Y2592*
X2707Y2595*
X2710Y2599*
X2713Y2604*
X2715Y2609*
X2717Y2614*
X2717Y2620*
X2717Y2620*
X2717Y2690*
X2717Y2690*
X2717Y2695*
X2715Y2701*
X2713Y2706*
X2710Y2710*
X2707Y2715*
X2703Y2718*
X2698Y2721*
X2693Y2723*
X2687Y2724*
X2682Y2725*
X2682Y2725*
X2676Y2725*
X2671Y2726*
X2666Y2728*
X2662Y2732*
X2661Y2735*
X2659Y2739*
X2653Y2749*
X2645Y2758*
X2639Y2763*
X2636Y2766*
X2634Y2771*
X2633Y2776*
X2634Y2781*
X2636Y2786*
X2639Y2789*
X2644Y2793*
X2651Y2802*
X2657Y2812*
X2661Y2822*
X2664Y2833*
X2665Y2845*
X2664Y2856*
X2661Y2867*
X2657Y2878*
X2651Y2888*
X2644Y2896*
X2635Y2904*
X2625Y2910*
X2615Y2914*
X2603Y2917*
X2592Y2918*
X2592Y2918*
X2581Y2917*
X2569Y2914*
X2559Y2910*
X2549Y2904*
X2540Y2896*
X2533Y2888*
X2527Y2878*
X2523Y2867*
X2520Y2856*
X2519Y2845*
X2520Y2833*
X2523Y2822*
X2527Y2812*
X2533Y2802*
X2540Y2793*
X2545Y2789*
X2548Y2786*
X2550Y2781*
X2551Y2776*
X2550Y2771*
X2548Y2766*
X2545Y2763*
X2541Y2760*
X2539Y2758*
X2534Y2756*
X2529Y2755*
X2385Y2755*
X2380Y2756*
X2375Y2758*
X2373Y2760*
X2272Y2860*
X2272Y2860*
X2266Y2865*
X2260Y2869*
X2252Y2872*
X2245Y2874*
X2237Y2875*
X2237Y2875*
X2237Y2875*
X2237Y2875*
X2200Y2875*
X2195Y2876*
X2190Y2878*
X2188Y2880*
X2181Y2886*
X2171Y2892*
X2160Y2896*
X2149Y2899*
X2137Y2900*
X2125Y2899*
X2114Y2896*
X2103Y2892*
X2098Y2889*
X2094Y2887*
X2089Y2886*
X2084Y2887*
X2079Y2890*
X2075Y2893*
X2073Y2898*
X2072Y2903*
X2072Y3130*
X1907Y3130*
X1905Y3128*
X1900Y3125*
X1895Y3124*
X1890Y3125*
X1885Y3128*
X1884Y3128*
X1881Y3131*
X1871Y3137*
X1860Y3141*
X1849Y3144*
X1837Y3145*
X1825Y3144*
X1814Y3141*
X1803Y3137*
X1793Y3131*
X1786Y3125*
X1784Y3123*
X1779Y3121*
X1774Y3120*
X1772Y3120*
X1772Y3120*
X1772Y3120*
X1772Y3120*
X1764Y3119*
X1756Y3117*
X1749Y3114*
X1743Y3110*
X1737Y3105*
X1737Y3105*
X1707Y3075*
X1707Y3075*
X1701Y3069*
X1697Y3063*
X1694Y3055*
X1693Y3048*
X1692Y3040*
X1692Y3040*
X1692Y3040*
X1692Y3040*
X1692Y2670*
X1787Y2575*
X1787Y2370*
X1757Y2340*
X1757Y2225*
X1757Y2225*
X1756Y2219*
X1753Y2213*
X1749Y2209*
X1743Y2206*
X1737Y2205*
X1737Y2205*
X1658Y2205*
X1658Y2854*
X1656Y2865*
X1652Y2884*
X1646Y2902*
X1646Y2903*
X1646Y2903*
X1645Y2908*
X1645Y3032*
X1646Y3037*
X1646Y3037*
X1646Y3038*
X1652Y3056*
X1656Y3075*
X1660Y3093*
X1662Y3112*
X1663Y3131*
X1664Y3150*
X1664Y3150*
X1664Y3168*
X1665Y3173*
X1667Y3178*
X1671Y3182*
X1676Y3184*
X1681Y3185*
X1683Y3185*
X1687Y3185*
X2101Y3185*
X2345Y2940*
X2837Y2940*
X2837Y2940*
X2842Y2939*
X2847Y2937*
X2851Y2933*
X2853Y2928*
X2854Y2923*
X2854Y2923*
X2854Y2782*
X2853Y2777*
X2852Y2774*
X2852Y2636*
X2853Y2633*
X2854Y2628*
X2854Y2525*
X2854Y2525*
X2854Y2523*
X2854Y2522*
X2855Y2522*
X2857Y2522*
X2857Y2522*
X2977Y2520*
G37*
X2977Y2510*
X2977Y2230*
X2977Y2230*
X2977Y2230*
X2977Y1905*
X2977Y1905*
X2977Y1905*
X2977Y1905*
X2977Y1898*
X2979Y1891*
X2982Y1884*
X2985Y1878*
X2990Y1873*
X2990Y1873*
X3044Y1819*
X3046Y1817*
X3048Y1812*
X3049Y1811*
X3050Y1808*
X3053Y1800*
X3057Y1792*
X3063Y1786*
X3070Y1780*
X3077Y1776*
X3085Y1772*
X3093Y1770*
X3102Y1770*
X3111Y1770*
X3119Y1772*
X3127Y1776*
X3134Y1780*
X3141Y1786*
X3145Y1791*
X3149Y1794*
X3153Y1797*
X3159Y1797*
X3164Y1797*
X3169Y1794*
X3171Y1792*
X3193Y1770*
X3194Y1768*
X3197Y1764*
X3198Y1758*
X3197Y1753*
X3194Y1748*
X3191Y1745*
X3186Y1742*
X3181Y1741*
X3179Y1741*
X3171Y1742*
X3162Y1741*
X3154Y1740*
X3145Y1738*
X3137Y1735*
X3129Y1731*
X3122Y1726*
X3115Y1721*
X3109Y1714*
X3104Y1708*
X3099Y1700*
X3095Y1693*
X3092Y1684*
X3090Y1676*
X3088Y1668*
X3088Y1659*
X3088Y1650*
X3090Y1642*
X3092Y1633*
X3094Y1628*
X3094Y1627*
X3095Y1622*
X3094Y1617*
X3092Y1612*
X3088Y1608*
X3083Y1606*
X3078Y1605*
X3078Y1605*
X3018Y1605*
X3012Y1606*
X3008Y1608*
X3006Y1610*
X3002Y1614*
X3000Y1616*
X2998Y1620*
X2997Y1626*
X2997Y1690*
X2997Y1690*
X2997Y1690*
X2997Y1690*
X2996Y1697*
X2995Y1704*
X2992Y1710*
X2988Y1716*
X2984Y1722*
X2984Y1722*
X2954Y1752*
X2932Y1775*
X2926Y1778*
X2919Y1780*
X2914Y1781*
X2909Y1783*
X2905Y1787*
X2903Y1792*
X2902Y1797*
X2902Y1820*
X2902Y1820*
X2902Y1820*
X2902Y1820*
X2901Y1827*
X2900Y1834*
X2897Y1840*
X2893Y1846*
X2889Y1852*
X2889Y1852*
X2784Y1957*
X2784Y1957*
X2778Y1961*
X2777Y1962*
X2777Y1962*
X2773Y1966*
X2771Y1971*
X2770Y1976*
X2771Y1981*
X2773Y1986*
X2776Y1989*
X2779Y1992*
X2785Y1998*
X2791Y2005*
X2796Y2012*
X2800Y2020*
X2803Y2029*
X2805Y2037*
X2807Y2046*
X2807Y2055*
X2807Y2064*
X2805Y2073*
X2803Y2081*
X2800Y2089*
X2796Y2097*
X2791Y2105*
X2785Y2112*
X2779Y2118*
X2772Y2124*
X2765Y2129*
X2757Y2133*
X2748Y2136*
X2740Y2138*
X2739Y2138*
X2737Y2139*
X2732Y2141*
X2729Y2145*
X2726Y2150*
X2725Y2155*
X2726Y2160*
X2729Y2165*
X2732Y2169*
X2737Y2171*
X2739Y2171*
X2740Y2172*
X2748Y2174*
X2757Y2177*
X2765Y2181*
X2772Y2186*
X2779Y2192*
X2785Y2198*
X2791Y2205*
X2796Y2212*
X2800Y2220*
X2803Y2229*
X2805Y2237*
X2807Y2246*
X2807Y2255*
X2807Y2264*
X2805Y2273*
X2803Y2281*
X2800Y2289*
X2796Y2297*
X2791Y2305*
X2785Y2312*
X2779Y2318*
X2772Y2324*
X2765Y2329*
X2757Y2333*
X2748Y2336*
X2740Y2338*
X2731Y2339*
X2722Y2340*
X2713Y2339*
X2704Y2338*
X2696Y2336*
X2687Y2333*
X2679Y2329*
X2672Y2324*
X2665Y2318*
X2659Y2312*
X2653Y2305*
X2653Y2304*
X2653Y2304*
X2649Y2301*
X2644Y2298*
X2639Y2297*
X2634Y2298*
X2629Y2301*
X2625Y2304*
X2623Y2309*
X2622Y2314*
X2622Y2314*
X2622Y2340*
X2464Y2340*
X2459Y2341*
X2454Y2343*
X2450Y2347*
X2448Y2352*
X2447Y2357*
X2447Y2395*
X2447Y2395*
X2447Y2400*
X2445Y2406*
X2443Y2411*
X2440Y2415*
X2437Y2420*
X2437Y2420*
X2435Y2422*
X2433Y2427*
X2432Y2432*
X2432Y2433*
X2432Y2440*
X2431Y2452*
X2428Y2463*
X2424Y2474*
X2418Y2484*
X2410Y2493*
X2404Y2498*
X2401Y2501*
X2399Y2506*
X2398Y2511*
X2399Y2516*
X2401Y2521*
X2404Y2524*
X2409Y2528*
X2416Y2537*
X2422Y2547*
X2426Y2557*
X2429Y2568*
X2430Y2580*
X2429Y2591*
X2426Y2602*
X2422Y2613*
X2416Y2623*
X2413Y2627*
X2412Y2628*
X2410Y2633*
X2409Y2638*
X2410Y2643*
X2412Y2648*
X2416Y2652*
X2421Y2654*
X2426Y2655*
X2529Y2655*
X2529Y2655*
X2534Y2654*
X2539Y2652*
X2541Y2650*
X2548Y2644*
X2558Y2638*
X2560Y2637*
X2564Y2633*
X2566Y2628*
X2567Y2623*
X2567Y2623*
X2567Y2620*
X2567Y2614*
X2569Y2609*
X2571Y2604*
X2574Y2599*
X2577Y2595*
X2581Y2591*
X2586Y2589*
X2591Y2586*
X2596Y2585*
X2602Y2585*
X2682Y2585*
X2682Y2585*
X2687Y2585*
X2693Y2587*
X2698Y2589*
X2703Y2592*
X2707Y2595*
X2710Y2599*
X2713Y2604*
X2715Y2609*
X2717Y2614*
X2717Y2620*
X2717Y2620*
X2717Y2690*
X2717Y2690*
X2717Y2695*
X2715Y2701*
X2713Y2706*
X2710Y2710*
X2707Y2715*
X2703Y2718*
X2698Y2721*
X2693Y2723*
X2687Y2724*
X2682Y2725*
X2682Y2725*
X2676Y2725*
X2671Y2726*
X2666Y2728*
X2662Y2732*
X2661Y2735*
X2659Y2739*
X2653Y2749*
X2645Y2758*
X2639Y2763*
X2636Y2766*
X2634Y2771*
X2633Y2776*
X2634Y2781*
X2636Y2786*
X2639Y2789*
X2644Y2793*
X2651Y2802*
X2657Y2812*
X2661Y2822*
X2664Y2833*
X2665Y2845*
X2664Y2856*
X2661Y2867*
X2657Y2878*
X2651Y2888*
X2644Y2896*
X2635Y2904*
X2625Y2910*
X2615Y2914*
X2603Y2917*
X2592Y2918*
X2592Y2918*
X2581Y2917*
X2569Y2914*
X2559Y2910*
X2549Y2904*
X2540Y2896*
X2533Y2888*
X2527Y2878*
X2523Y2867*
X2520Y2856*
X2519Y2845*
X2520Y2833*
X2523Y2822*
X2527Y2812*
X2533Y2802*
X2540Y2793*
X2545Y2789*
X2548Y2786*
X2550Y2781*
X2551Y2776*
X2550Y2771*
X2548Y2766*
X2545Y2763*
X2541Y2760*
X2539Y2758*
X2534Y2756*
X2529Y2755*
X2385Y2755*
X2380Y2756*
X2375Y2758*
X2373Y2760*
X2272Y2860*
X2272Y2860*
X2266Y2865*
X2260Y2869*
X2252Y2872*
X2245Y2874*
X2237Y2875*
X2237Y2875*
X2237Y2875*
X2237Y2875*
X2200Y2875*
X2195Y2876*
X2190Y2878*
X2188Y2880*
X2181Y2886*
X2171Y2892*
X2160Y2896*
X2149Y2899*
X2137Y2900*
X2125Y2899*
X2114Y2896*
X2103Y2892*
X2098Y2889*
X2094Y2887*
X2089Y2886*
X2084Y2887*
X2079Y2890*
X2075Y2893*
X2073Y2898*
X2072Y2903*
X2072Y3130*
X1907Y3130*
X1905Y3128*
X1900Y3125*
X1895Y3124*
X1890Y3125*
X1885Y3128*
X1884Y3128*
X1881Y3131*
X1871Y3137*
X1860Y3141*
X1849Y3144*
X1837Y3145*
X1825Y3144*
X1814Y3141*
X1803Y3137*
X1793Y3131*
X1786Y3125*
X1784Y3123*
X1779Y3121*
X1774Y3120*
X1772Y3120*
X1772Y3120*
X1772Y3120*
X1772Y3120*
X1764Y3119*
X1756Y3117*
X1749Y3114*
X1743Y3110*
X1737Y3105*
X1737Y3105*
X1707Y3075*
X1707Y3075*
X1701Y3069*
X1697Y3063*
X1694Y3055*
X1693Y3048*
X1692Y3040*
X1692Y3040*
X1692Y3040*
X1692Y3040*
X1692Y2670*
X1787Y2575*
X1787Y2370*
X1757Y2340*
X1757Y2225*
X1757Y2225*
X1756Y2219*
X1753Y2213*
X1749Y2209*
X1743Y2206*
X1737Y2205*
X1737Y2205*
X1658Y2205*
X1658Y2854*
X1656Y2865*
X1652Y2884*
X1646Y2902*
X1646Y2903*
X1646Y2903*
X1645Y2908*
X1645Y3032*
X1646Y3037*
X1646Y3037*
X1646Y3038*
X1652Y3056*
X1656Y3075*
X1660Y3093*
X1662Y3112*
X1663Y3131*
X1664Y3150*
X1664Y3150*
X1664Y3168*
X1665Y3173*
X1667Y3178*
X1671Y3182*
X1676Y3184*
X1681Y3185*
X1683Y3185*
X1687Y3185*
X2101Y3185*
X2345Y2940*
X2837Y2940*
X2837Y2940*
X2842Y2939*
X2847Y2937*
X2851Y2933*
X2853Y2928*
X2854Y2923*
X2854Y2923*
X2854Y2782*
X2853Y2777*
X2852Y2774*
X2852Y2636*
X2853Y2633*
X2854Y2628*
X2854Y2525*
X2854Y2525*
X2854Y2523*
X2854Y2522*
X2855Y2522*
X2857Y2522*
X2857Y2522*
X2977Y2520*
D12*
X3517Y655D02*
X3605Y655D01*
X802Y780D02*
X868Y780D01*
X802Y975D02*
X888Y975D01*
X627Y680D02*
X627Y629D01*
X3517Y420D02*
X3517Y331D01*
X3722Y995D02*
X3823Y995D01*
X3171Y1659D02*
X3171Y1735D01*
X2592Y2845D02*
X2592Y2911D01*
D15*
G36*
X1795Y1009D02*
X2045Y1260D01*
X2045Y1260*
X2046Y1261*
X2046Y1262*
X2046Y1295*
X2046Y1296*
X2045Y1297*
X2045Y1297*
X1880Y1462*
X1880Y1484*
X1984Y1588*
X1984Y1588*
X1985Y1589*
X1985Y1590*
X1985Y1649*
X2078Y1742*
X2202Y1742*
X2220Y1724*
X2220Y1604*
X2220Y1604*
X2221Y1603*
X2221Y1603*
X2221Y1602*
X2249Y1575*
X2249Y1474*
X2060Y1285*
X2059Y1285*
X2059Y1284*
X2059Y1283*
X2059Y1238*
X2059Y1238*
X2059Y1237*
X2059Y1236*
X2060Y1236*
X2289Y1007*
X2062Y780*
X2061Y780*
X2061Y779*
X2061Y778*
X2061Y729*
X2061Y729*
X2061Y728*
X2061Y727*
X2062Y727*
X2206Y583*
X2206Y481*
X2188Y463*
X2018Y463*
X1985Y496*
X1985Y533*
X1985Y534*
X1984Y535*
X1984Y535*
X1940Y579*
X1940Y614*
X2045Y719*
X2045Y719*
X2046Y720*
X2046Y721*
X2046Y757*
X2046Y758*
X2045Y759*
X2045Y759*
X1795Y1009*
G37*
X2045Y1260*
X2045Y1260*
X2046Y1261*
X2046Y1262*
X2046Y1295*
X2046Y1296*
X2045Y1297*
X2045Y1297*
X1880Y1462*
X1880Y1484*
X1984Y1588*
X1984Y1588*
X1985Y1589*
X1985Y1590*
X1985Y1649*
X2078Y1742*
X2202Y1742*
X2220Y1724*
X2220Y1604*
X2220Y1604*
X2221Y1603*
X2221Y1603*
X2221Y1602*
X2249Y1575*
X2249Y1474*
X2060Y1285*
X2059Y1285*
X2059Y1284*
X2059Y1283*
X2059Y1238*
X2059Y1238*
X2059Y1237*
X2059Y1236*
X2060Y1236*
X2289Y1007*
X2062Y780*
X2061Y780*
X2061Y779*
X2061Y778*
X2061Y729*
X2061Y729*
X2061Y728*
X2061Y727*
X2062Y727*
X2206Y583*
X2206Y481*
X2188Y463*
X2018Y463*
X1985Y496*
X1985Y533*
X1985Y534*
X1984Y535*
X1984Y535*
X1940Y579*
X1940Y614*
X2045Y719*
X2045Y719*
X2046Y720*
X2046Y721*
X2046Y757*
X2046Y758*
X2045Y759*
X2045Y759*
X1795Y1009*
D16*
X3177Y760D03*
X3177Y840D03*
D17*
X3072Y2705D03*
X3072Y2580D03*
X1777Y435D03*
X1777Y310D03*
D18*
X502Y895D03*
X802Y780D03*
X802Y480D03*
X502Y480D03*
D19*
X707Y2275D03*
X3722Y1390D03*
D17*
X2892Y1205D03*
X2892Y1080D03*
D18*
X3572Y3030D03*
X3672Y3030D03*
D17*
X1152Y1380D03*
X1152Y1505D03*
X2932Y2580D03*
X2932Y2705D03*
D20*
X472Y276D03*
D17*
X1762Y1705D03*
X1762Y1830D03*
D20*
X3839Y3268D03*
D19*
X707Y3060D03*
D21*
X3517Y420D03*
X3517Y655D03*
D17*
X1992Y2685D03*
X1992Y2825D03*
D22*
X1047Y360D03*
X967Y360D03*
D17*
X3272Y1220D03*
X3272Y1345D03*
X1922Y2185D03*
X1922Y2310D03*
X2337Y1455D03*
X2337Y1580D03*
D19*
X3722Y995D03*
D17*
X3132Y1205D03*
X3132Y1345D03*
D23*
X2322Y1695D03*
X2722Y1595D03*
X2722Y1795D03*
D17*
X1022Y1165D03*
X1022Y1290D03*
X3077Y370D03*
X3077Y495D03*
X1907Y435D03*
X1907Y310D03*
D18*
X2137Y2825D03*
X2137Y2725D03*
D17*
X3582Y2120D03*
X3582Y2245D03*
X3582Y2335D03*
X3582Y2475D03*
D16*
X1077Y490D03*
X1077Y570D03*
X1382Y760D03*
X1382Y680D03*
D18*
X2467Y330D03*
X2072Y330D03*
D16*
X2892Y1425D03*
X2892Y1345D03*
D20*
X2247Y510D03*
D23*
X2322Y2155D03*
X2722Y2055D03*
X2722Y2255D03*
D21*
X3517Y990D03*
X3517Y1225D03*
D17*
X3417Y2725D03*
X3417Y2850D03*
X627Y895D03*
X627Y770D03*
D24*
X802Y1190D03*
X802Y975D03*
D17*
X3072Y2795D03*
X3072Y2920D03*
X3357Y760D03*
X3357Y635D03*
D24*
X2722Y1110D03*
X2722Y950D03*
D17*
X2857Y1720D03*
X2857Y1595D03*
D18*
X407Y1520D03*
D25*
X252Y2480D03*
D17*
X1152Y1165D03*
X1152Y1290D03*
X3517Y885D03*
X3517Y760D03*
X2542Y1850D03*
X2542Y1975D03*
D18*
X2592Y2705D03*
X2592Y2845D03*
D24*
X2892Y790D03*
X2892Y950D03*
D26*
X3312Y1075D03*
X3252Y1075D03*
X3372Y1075D03*
D17*
X627Y1190D03*
X627Y1065D03*
X1137Y985D03*
X1137Y860D03*
D16*
X1382Y360D03*
X1382Y440D03*
D27*
X2872Y290D03*
X2792Y290D03*
D17*
X2542Y2155D03*
X2542Y2280D03*
X2572Y495D03*
X2572Y620D03*
D16*
X1382Y520D03*
X1382Y600D03*
X967Y490D03*
X967Y570D03*
D18*
X1837Y2870D03*
X1837Y2970D03*
X1837Y3070D03*
X1047Y3170D03*
X1047Y2970D03*
X1047Y2770D03*
D17*
X1992Y3070D03*
X1992Y2930D03*
D23*
X3217Y2575D03*
X3417Y3070D03*
X3017Y3070D03*
D17*
X2062Y2185D03*
X2062Y2310D03*
D18*
X2357Y2440D03*
X2357Y2580D03*
D23*
X3217Y2086D03*
X3345Y2052D03*
X3439Y1958D03*
X3473Y1830D03*
X3171Y1659D03*
X1892Y1630D03*
X1992Y2030D03*
X1792Y2030D03*
D17*
X3722Y2105D03*
X3722Y2245D03*
X3032Y1075D03*
X3032Y950D03*
D28*
X2132Y2557D03*
X2092Y2422D03*
X2172Y2422D03*
D25*
X252Y2680D03*
D18*
X1197Y645D03*
X1197Y445D03*
X407Y1380D03*
D28*
X1882Y2557D03*
X1842Y2422D03*
X1922Y2422D03*
D26*
X2542Y1715D03*
X2482Y1715D03*
X2602Y1715D03*
D19*
X707Y2670D03*
D29*
X2922Y415D03*
X2872Y415D03*
X2822Y415D03*
X2772Y415D03*
X2772Y615D03*
X2822Y615D03*
X2872Y615D03*
X2922Y615D03*
D26*
X3297Y445D03*
X3357Y445D03*
X3237Y445D03*
D17*
X2212Y1870D03*
X2212Y1995D03*
D30*
X2347Y925D03*
X2325Y903D03*
X2303Y881D03*
X2280Y859D03*
X2258Y836D03*
X2236Y814D03*
X2214Y792D03*
X2191Y769D03*
X2169Y747D03*
X2147Y725D03*
X2125Y703D03*
D31*
X1961Y703D03*
X1939Y725D03*
X1917Y747D03*
X1894Y769D03*
X1872Y792D03*
X1850Y814D03*
X1827Y836D03*
X1805Y858D03*
X1783Y881D03*
X1761Y903D03*
X1738Y925D03*
D30*
X1739Y1088D03*
X1761Y1111D03*
X1783Y1133D03*
X1805Y1155D03*
X1828Y1178D03*
X1850Y1200D03*
X1872Y1222D03*
X1895Y1244D03*
X1917Y1267D03*
X1939Y1289D03*
X1961Y1311D03*
D31*
X2125Y1311D03*
X2147Y1289D03*
X2169Y1267D03*
X2191Y1245D03*
X2214Y1222D03*
X2236Y1200D03*
X2258Y1178D03*
X2280Y1156D03*
X2303Y1133D03*
X2325Y1111D03*
X2347Y1089D03*
D32*
X3417Y2940D03*
X3517Y1105D03*
X3472Y2475D03*
X2092Y1870D03*
X512Y1665D03*
X1137Y1075D03*
X2102Y2095D03*
X2172Y2310D03*
X627Y680D03*
X967Y415D03*
X1812Y2310D03*
X2502Y1265D03*
X1472Y440D03*
X1892Y1930D03*
X2647Y290D03*
X2722Y1710D03*
X2242Y1385D03*
X2257Y2605D03*
X3142Y1075D03*
X2572Y710D03*
X1492Y760D03*
X1262Y1380D03*
X2432Y2155D03*
X3360Y1879D03*
X3412Y550D03*
X1837Y2745D03*
X3622Y420D03*
X502Y800D03*
X3182Y2920D03*
X1812Y2185D03*
X1247Y495D03*
X1282Y360D03*
X2392Y2280D03*
X1762Y1615D03*
X3072Y2490D03*
X2767Y745D03*
X407Y575D03*
X1262Y1505D03*
X2292Y510D03*
X3417Y2625D03*
X3472Y2245D03*
X3182Y2705D03*
X1777Y515D03*
X3002Y1235D03*
X2392Y405D03*
X802Y410D03*
X3302Y2170D03*
X3272Y1979D03*
X2467Y1115D03*
X1827Y2625D03*
X627Y1280D03*
X2767Y1505D03*
X1907Y515D03*
D13*
X777Y1235D02*
X783Y1282*
X821Y1282D01*
X802Y1263D02*
X802Y1300D01*
X2442Y925D02*
X2415Y920*
X2373Y962D01*
X2391Y962*
X2637Y1155D02*
X2643Y1202*
X2681Y1202D01*
X2662Y1183D02*
X2662Y1220D01*
X2992Y370D02*
X2970Y385*
X2970Y445D01*
X2983Y432*
X2587Y3250D02*
X2543Y3265*
X2587Y3265D01*
X2587Y3325*
X2512Y3319D02*
X2506Y3325D01*
X2474Y3325*
X2468Y3319*
X2468Y3303*
X2474Y3297*
X2493Y3297*
X2474Y3297*
X2468Y3290*
X2468Y3275*
X2474Y3265*
X2506Y3265*
X2512Y3272*
X2406Y3265D02*
X2406Y3325D01*
X2437Y3287*
X2393Y3287*
X2318Y3300D02*
X2324Y3294D01*
X2359Y3294*
X2362Y3300*
X2362Y3319*
X2356Y3325*
X2324Y3325*
X2318Y3319*
X2318Y3272*
X2324Y3265*
X2356Y3265*
X2362Y3272*
X2243Y3272D02*
X2249Y3265D01*
X2281Y3265*
X2287Y3272*
X2287Y3319*
X2281Y3325*
X2249Y3325*
X2243Y3319*
X2243Y3272*
X2287Y3272D02*
X2243Y3319D01*
X2212Y3325D02*
X2168Y3325D01*
X2206Y3265*
X2137Y3272D02*
X2137Y3290D01*
X2131Y3297*
X2099Y3297*
X2093Y3303*
X2093Y3319*
X2099Y3325*
X2131Y3325*
X2137Y3319*
X2137Y3303*
X2131Y3297*
X2099Y3297*
X2093Y3290*
X2093Y3272*
X2099Y3265*
X2131Y3265*
X2137Y3272*
X2018Y3272D02*
X2025Y3265D01*
X2056Y3265*
X2062Y3272*
X2062Y3319*
X2056Y3325*
X2025Y3325*
X2018Y3319*
X2018Y3272*
X2062Y3272D02*
X2018Y3319D01*
X1987Y3319D02*
X1981Y3325D01*
X1950Y3325*
X1943Y3319*
X1943Y3306*
X1950Y3300*
X1987Y3265*
X1943Y3265*
D12*
X2612Y2580D02*
X2620Y2642*
X2670Y2642D01*
X2645Y2617D02*
X2645Y2667D01*
D13*
X2942Y650D02*
X2948Y697*
X2986Y697D01*
X2967Y678D02*
X2967Y715D01*
D12*
X2302Y2285D02*
X2310Y2347*
X2360Y2347D01*
X2335Y2322D02*
X2335Y2372D01*
D20*
X1682Y1340D03*
X1672Y400D03*
X2012Y2425D03*
X3102Y1825D03*
X1137Y775D03*
X2467Y1210D03*
X1762Y2425D03*
X1622Y750D03*
X3127Y620D03*
X2712Y290D03*
X1992Y1820D03*
X2787Y1205D03*
X1817Y1340D03*
X2262Y590D03*
X2342Y1285D03*
X2102Y2040D03*
X1022Y840D03*
X2547Y280D03*
X3432Y340D03*
X3032Y2330D03*
X2467Y535D03*
X2437Y2280D03*
X2467Y880D03*
X627Y980D03*
X1737Y580D03*
X1922Y2110D03*
X3252Y640D03*
X2537Y1420D03*
X2537Y1210D03*
X3077Y290D03*
X3032Y1205D03*
X2467Y1000D03*
X1762Y1510D03*
X2467Y810D03*
X597Y1580D03*
X2667Y415D03*
X3082Y760D03*
X2722Y820D03*
X2467Y470D03*
X252Y2780D03*
X1607Y460D03*
X3332Y1790D03*
X3192Y1560D03*
M02*
