0
SECTION
2
TABLES
0
TABLE
2
LTYPE
70
6
0
LTYPE
2
AUSGEZOGEN
70
64
3
AUSGEZOGEN
72
65
73
0
40
0.000
0
LTYPE
2
PUNKT
70
64
3
PUNKT
72
65
73
2
40
0.250
49
0.000
49
-0.250
0
LTYPE
2
GESTRICHELT
70
64
3
GESTRICHELT
72
65
73
2
40
0.750
49
0.500
49
-0.250
0
LTYPE
2
STRICHLINIE
70
64
3
STRICHLINIE
72
65
73
2
40
1.000
49
0.750
49
-0.250
0
LTYPE
2
STRICHPUNKTLINIE
70
64
3
STRICHPUNKTLINIE
72
65
73
4
40
2.000
49
1.250
49
-0.250
49
0.250
49
-0.250
0
LTYPE
2
STRICH-ZWEIPUNKTLINIE
70
64
3
STRICH-ZWEIPUNKTLINIE
72
65
73
6
40
2.500
49
1.250
49
-0.250
49
0.250
49
-0.250
49
0.250
49
-0.250
0
ENDTAB
0
TABLE
2
LAYER
70
6
0
LAYER
2
VORSCHUB
70
64
62
0
6
AUSGEZOGEN
0
LAYER
2
MITTELLINIEN
70
64
62
1
6
AUSGEZOGEN
0
LAYER
2
TEXT
70
64
62
7
6
AUSGEZOGEN
0
LAYER
2
DINA2
70
64
62
0
6
AUSGEZOGEN
0
LAYER
2
SCHRIFTFELD
70
64
62
0
6
AUSGEZOGEN
0
LAYER
2
SCHNITTE
70
64
62
2
6
AUSGEZOGEN
0
ENDTAB
0
ENDSEC
0
SECTION
2
ENTITIES
0
LINE
8
VORSCHUB
62
0
6
AUSGEZOGEN
10
237.007
20
-18.528
11
235.082
21
-20.590
0
LINE
8
VORSCHUB
62
0
6
AUSGEZOGEN
10
229.832
20
-20.771
11
235.082
21
-20.590
0
LINE
8
VORSCHUB
62
0
6
AUSGEZOGEN
10
236.669
20
-8.534
11
237.007
21
-18.528
0
LINE
8
VORSCHUB
62
0
6
AUSGEZOGEN
10
233.399
20
-0.640
11
236.669
21
-8.534
0
LINE
8
VORSCHUB
62
0
6
AUSGEZOGEN
10
231.398
20
-0.707
11
229.733
21
-2.490
0
LINE
8
VORSCHUB
62
0
6
AUSGEZOGEN
10
230.343
20
-20.752
11
229.733
21
-2.490
0
LINE
8
VORSCHUB
62
0
6
AUSGEZOGEN
10
229.211
20
-2.507
11
229.733
21
-2.490
0
LINE
8
VORSCHUB
62
0
6
AUSGEZOGEN
10
229.832
20
-20.771
11
227.752
21
40.413
0
LINE
8
VORSCHUB
62
0
6
AUSGEZOGEN
10
229.152
20
-0.782
11
231.399
21
-0.706
0
LINE
8
VORSCHUB
62
0
6
AUSGEZOGEN
10
232.002
20
40.493
11
233.399
21
-0.640
0
LINE
8
VORSCHUB
62
0
6
AUSGEZOGEN
10
230.002
20
40.454
11
231.400
21
-0.708
0
LINE
8
VORSCHUB
62
0
6
AUSGEZOGEN
10
216.996
20
-18.525
11
218.921
21
-20.587
0
LINE
8
VORSCHUB
62
0
6
AUSGEZOGEN
10
224.170
20
-20.768
11
218.921
21
-20.587
0
LINE
8
VORSCHUB
62
0
6
AUSGEZOGEN
10
217.334
20
-8.532
11
216.996
21
-18.525
0
LINE
8
VORSCHUB
62
0
6
AUSGEZOGEN
10
220.604
20
-0.639
11
217.334
21
-8.532
0
LINE
8
VORSCHUB
62
0
6
AUSGEZOGEN
10
222.604
20
-0.706
11
224.269
21
-2.489
0
LINE
8
VORSCHUB
62
0
6
AUSGEZOGEN
10
223.659
20
-20.749
11
224.269
21
-2.489
0
LINE
8
VORSCHUB
62
0
6
AUSGEZOGEN
10
224.791
20
-2.506
11
224.269
21
-2.489
0
LINE
8
VORSCHUB
62
0
6
AUSGEZOGEN
10
224.170
20
-20.768
11
226.250
21
40.410
0
LINE
8
VORSCHUB
62
0
6
AUSGEZOGEN
10
224.850
20
-0.781
11
222.603
21
-0.705
0
LINE
8
VORSCHUB
62
0
6
AUSGEZOGEN
10
222.000
20
40.490
11
220.604
21
-0.639
0
LINE
8
VORSCHUB
62
0
6
AUSGEZOGEN
10
224.000
20
40.451
11
222.602
21
-0.707
0
LINE
8
VORSCHUB
62
0
6
AUSGEZOGEN
10
59.637
20
-22.004
11
58.254
21
-23.387
0
LINE
8
VORSCHUB
62
0
6
AUSGEZOGEN
10
62.002
20
-22.467
11
58.254
21
-26.215
0
LINE
8
VORSCHUB
62
0
6
AUSGEZOGEN
10
62.003
20
-25.294
11
58.254
21
-29.043
0
LINE
8
VORSCHUB
62
0
6
AUSGEZOGEN
10
62.003
20
-28.121
11
58.254
21
-31.870
0
LINE
8
VORSCHUB
62
0
6
AUSGEZOGEN
10
62.003
20
-30.949
11
58.254
21
-34.698
0
LINE
8
VORSCHUB
62
0
6
AUSGEZOGEN
10
62.003
20
-33.777
11
58.254
21
-37.526
0
LINE
8
VORSCHUB
62
0
6
AUSGEZOGEN
10
62.003
20
-36.605
11
59.603
21
-39.005
0
LINE
8
VORSCHUB
62
0
6
AUSGEZOGEN
10
58.605
20
-22.004
11
62.002
21
-25.399
0
LINE
8
VORSCHUB
62
0
6
AUSGEZOGEN
10
58.252
20
-24.479
11
62.002
21
-28.226
0
LINE
8
VORSCHUB
62
0
6
AUSGEZOGEN
10
58.252
20
-27.306
11
62.002
21
-31.053
0
LINE
8
VORSCHUB
62
0
6
AUSGEZOGEN
10
58.252
20
-30.134
11
62.002
21
-33.881
0
LINE
8
VORSCHUB
62
0
6
AUSGEZOGEN
10
58.252
20
-32.962
11
62.002
21
-36.709
0
LINE
8
VORSCHUB
62
0
6
AUSGEZOGEN
10
58.252
20
-35.790
11
61.470
21
-39.005
0
LINE
8
VORSCHUB
62
0
6
AUSGEZOGEN
10
58.362
20
-38.728
11
58.640
21
-39.005
0
LINE
8
VORSCHUB
62
0
6
AUSGEZOGEN
10
61.432
20
-22.004
11
62.002
21
-22.574
0
LINE
8
VORSCHUB
62
0
6
AUSGEZOGEN
10
53.197
20
-22.004
11
52.002
21
-23.199
0
LINE
8
VORSCHUB
62
0
6
AUSGEZOGEN
10
55.682
20
-22.347
11
52.002
21
-26.027
0
LINE
8
VORSCHUB
62
0
6
AUSGEZOGEN
10
55.752
20
-25.105
11
52.002
21
-28.855
0
LINE
8
VORSCHUB
62
0
6
AUSGEZOGEN
10
55.752
20
-27.932
11
52.002
21
-31.682
0
LINE
8
VORSCHUB
62
0
6
AUSGEZOGEN
10
55.752
20
-30.760
11
52.002
21
-34.510
0
LINE
8
VORSCHUB
62
0
6
AUSGEZOGEN
10
55.752
20
-33.588
11
52.002
21
-37.338
0
LINE
8
VORSCHUB
62
0
6
AUSGEZOGEN
10
55.752
20
-36.416
11
53.163
21
-39.005
0
LINE
8
VORSCHUB
62
0
6
AUSGEZOGEN
10
52.405
20
-22.004
11
55.750
21
-25.347
0
LINE
8
VORSCHUB
62
0
6
AUSGEZOGEN
10
52.001
20
-24.427
11
55.750
21
-28.174
0
LINE
8
VORSCHUB
62
0
6
AUSGEZOGEN
10
52.001
20
-27.255
11
55.750
21
-31.002
0
LINE
8
VORSCHUB
62
0
6
AUSGEZOGEN
10
52.001
20
-30.084
11
55.750
21
-33.830
0
LINE
8
VORSCHUB
62
0
6
AUSGEZOGEN
10
52.001
20
-32.912
11
55.750
21
-36.658
0
LINE
8
VORSCHUB
62
0
6
AUSGEZOGEN
10
52.001
20
-35.740
11
55.269
21
-39.005
0
LINE
8
VORSCHUB
62
0
6
AUSGEZOGEN
10
55.232
20
-22.004
11
55.750
21
-22.522
0
LINE
8
VORSCHUB
62
0
6
AUSGEZOGEN
10
53.462
20
-39.259
11
52.676
21
-40.045
0
LINE
8
VORSCHUB
62
0
6
AUSGEZOGEN
10
54.920
20
-40.629
11
54.158
21
-41.391
0
LINE
8
VORSCHUB
62
0
6
AUSGEZOGEN
10
55.252
20
-43.125
11
54.252
21
-44.125
0
LINE
8
VORSCHUB
62
0
6
AUSGEZOGEN
10
55.252
20
-45.952
11
54.252
21
-46.952
0
LINE
8
VORSCHUB
62
0
6
AUSGEZOGEN
10
55.252
20
-48.780
11
54.252
21
-49.780
0
LINE
8
VORSCHUB
62
0
6
AUSGEZOGEN
10
55.252
20
-51.608
11
54.252
21
-52.608
0
LINE
8
VORSCHUB
62
0
6
AUSGEZOGEN
10
55.252
20
-54.436
11
54.252
21
-55.436
0
LINE
8
VORSCHUB
62
0
6
AUSGEZOGEN
10
55.252
20
-57.264
11
54.252
21
-58.264
0
LINE
8
VORSCHUB
62
0
6
AUSGEZOGEN
10
55.252
20
-60.092
11
54.252
21
-61.092
0
LINE
8
VORSCHUB
62
0
6
AUSGEZOGEN
10
55.252
20
-62.920
11
54.252
21
-63.920
0
LINE
8
VORSCHUB
62
0
6
AUSGEZOGEN
10
55.252
20
-65.748
11
54.252
21
-66.748
0
LINE
8
VORSCHUB
62
0
6
AUSGEZOGEN
10
55.252
20
-68.576
11
54.252
21
-69.576
0
LINE
8
VORSCHUB
62
0
6
AUSGEZOGEN
10
55.252
20
-71.404
11
54.252
21
-72.404
0
LINE
8
VORSCHUB
62
0
6
AUSGEZOGEN
10
55.252
20
-74.232
11
54.252
21
-75.232
0
LINE
8
VORSCHUB
62
0
6
AUSGEZOGEN
10
55.252
20
-77.060
11
54.252
21
-78.060
0
LINE
8
VORSCHUB
62
0
6
AUSGEZOGEN
10
55.252
20
-79.888
11
54.252
21
-80.888
0
LINE
8
VORSCHUB
62
0
6
AUSGEZOGEN
10
55.252
20
-82.716
11
54.252
21
-83.716
0
LINE
8
VORSCHUB
62
0
6
AUSGEZOGEN
10
55.252
20
-85.544
11
54.252
21
-86.544
0
LINE
8
VORSCHUB
62
0
6
AUSGEZOGEN
10
55.252
20
-88.372
11
54.252
21
-89.372
0
LINE
8
VORSCHUB
62
0
6
AUSGEZOGEN
10
55.252
20
-91.200
11
54.638
21
-91.814
0
LINE
8
VORSCHUB
62
0
6
AUSGEZOGEN
10
59.754
20
-90.297
11
58.753
21
-91.298
0
LINE
8
VORSCHUB
62
0
6
AUSGEZOGEN
10
59.754
20
-87.470
11
58.753
21
-88.471
0
LINE
8
VORSCHUB
62
0
6
AUSGEZOGEN
10
59.754
20
-84.642
11
58.753
21
-85.643
0
LINE
8
VORSCHUB
62
0
6
AUSGEZOGEN
10
59.754
20
-81.814
11
58.753
21
-82.815
0
LINE
8
VORSCHUB
62
0
6
AUSGEZOGEN
10
59.754
20
-78.986
11
58.753
21
-79.987
0
LINE
8
VORSCHUB
62
0
6
AUSGEZOGEN
10
59.754
20
-76.158
11
58.753
21
-77.159
0
LINE
8
VORSCHUB
62
0
6
AUSGEZOGEN
10
59.754
20
-73.330
11
58.753
21
-74.331
0
LINE
8
VORSCHUB
62
0
6
AUSGEZOGEN
10
59.754
20
-70.502
11
58.753
21
-71.503
0
LINE
8
VORSCHUB
62
0
6
AUSGEZOGEN
10
59.754
20
-67.674
11
58.753
21
-68.675
0
LINE
8
VORSCHUB
62
0
6
AUSGEZOGEN
10
59.754
20
-64.846
11
58.753
21
-65.847
0
LINE
8
VORSCHUB
62
0
6
AUSGEZOGEN
10
59.754
20
-62.018
11
58.753
21
-63.019
0
LINE
8
VORSCHUB
62
0
6
AUSGEZOGEN
10
59.754
20
-59.190
11
58.753
21
-60.191
0
LINE
8
VORSCHUB
62
0
6
AUSGEZOGEN
10
59.754
20
-56.362
11
58.753
21
-57.363
0
LINE
8
VORSCHUB
62
0
6
AUSGEZOGEN
10
59.754
20
-53.534
11
58.753
21
-54.535
0
LINE
8
VORSCHUB
62
0
6
AUSGEZOGEN
10
59.754
20
-50.706
11
58.753
21
-51.707
0
LINE
8
VORSCHUB
62
0
6
AUSGEZOGEN
10
59.754
20
-47.878
11
58.753
21
-48.879
0
LINE
8
VORSCHUB
62
0
6
AUSGEZOGEN
10
59.754
20
-45.050
11
58.753
21
-46.051
0
LINE
8
VORSCHUB
62
0
6
AUSGEZOGEN
10
59.754
20
-42.222
11
58.753
21
-43.223
0
LINE
8
VORSCHUB
62
0
6
AUSGEZOGEN
10
63.549
20
60.998
11
62.004
21
59.453
0
LINE
8
VORSCHUB
62
0
6
AUSGEZOGEN
10
67.790
20
60.997
11
62.397
21
55.604
0
LINE
8
VORSCHUB
62
0
6
AUSGEZOGEN
10
71.830
20
60.795
11
65.032
21
53.997
0
LINE
8
VORSCHUB
62
0
6
AUSGEZOGEN
10
72.000
20
56.723
11
68.255
21
52.978
0
LINE
8
VORSCHUB
62
0
6
AUSGEZOGEN
10
72.001
20
52.482
11
69.001
21
49.482
0
LINE
8
VORSCHUB
62
0
6
AUSGEZOGEN
10
72.001
20
48.240
11
69.758
21
45.997
0
LINE
8
VORSCHUB
62
0
6
AUSGEZOGEN
10
67.404
20
15.997
11
70.000
21
13.401
0
LINE
8
VORSCHUB
62
0
6
AUSGEZOGEN
10
63.576
20
15.581
11
70.000
21
9.161
0
LINE
8
VORSCHUB
62
0
6
AUSGEZOGEN
10
63.503
20
11.413
11
69.670
21
5.250
0
LINE
8
VORSCHUB
62
0
6
AUSGEZOGEN
10
63.503
20
7.171
11
65.679
21
4.997
0
LINE
8
VORSCHUB
62
0
6
AUSGEZOGEN
10
48.203
20
15.997
11
50.500
21
13.702
0
LINE
8
VORSCHUB
62
0
6
AUSGEZOGEN
10
44.275
20
15.682
11
50.500
21
9.461
0
LINE
8
VORSCHUB
62
0
6
AUSGEZOGEN
10
44.001
20
11.715
11
50.416
21
5.305
0
LINE
8
VORSCHUB
62
0
6
AUSGEZOGEN
10
44.001
20
7.473
11
46.474
21
5.002
0
LINE
8
VORSCHUB
62
0
6
AUSGEZOGEN
10
59.754
20
-60.354
11
65.393
21
-65.990
0
LINE
8
VORSCHUB
62
0
6
AUSGEZOGEN
10
60.158
20
-67.829
11
64.067
21
-71.735
0
LINE
8
VORSCHUB
62
0
6
AUSGEZOGEN
10
59.754
20
-53.285
11
66.718
21
-60.245
0
LINE
8
VORSCHUB
62
0
6
AUSGEZOGEN
10
68.044
20
-54.500
11
59.754
21
-46.215
0
LINE
8
VORSCHUB
62
0
6
AUSGEZOGEN
10
69.369
20
-48.755
11
61.688
21
-41.079
0
LINE
8
VORSCHUB
62
0
6
AUSGEZOGEN
10
70.695
20
-43.010
11
62.003
21
-34.324
0
LINE
8
VORSCHUB
62
0
6
AUSGEZOGEN
10
72.020
20
-37.264
11
62.003
21
-27.254
0
LINE
8
VORSCHUB
62
0
6
AUSGEZOGEN
10
73.346
20
-31.518
11
63.827
21
-22.006
0
LINE
8
VORSCHUB
62
0
6
AUSGEZOGEN
10
74.671
20
-25.772
11
67.002
21
-18.107
0
LINE
8
VORSCHUB
62
0
6
AUSGEZOGEN
10
75.996
20
-20.024
11
67.002
21
-11.037
0
LINE
8
VORSCHUB
62
0
6
AUSGEZOGEN
10
67.002
20
-3.966
11
77.321
21
-14.278
0
LINE
8
VORSCHUB
62
0
6
AUSGEZOGEN
10
69.961
20
0.149
11
78.647
21
-8.531
0
LINE
8
VORSCHUB
62
0
6
AUSGEZOGEN
10
72.002
20
5.180
11
78.281
21
-1.095
0
LINE
8
VORSCHUB
62
0
6
AUSGEZOGEN
10
72.002
20
12.251
11
78.998
21
5.259
0
LINE
8
VORSCHUB
62
0
6
AUSGEZOGEN
10
73.332
20
17.992
11
78.998
21
12.330
0
LINE
8
VORSCHUB
62
0
6
AUSGEZOGEN
10
60.003
20
66.997
11
66.006
21
60.998
0
LINE
8
VORSCHUB
62
0
6
AUSGEZOGEN
10
60.037
20
74.032
11
72.000
21
62.078
0
LINE
8
VORSCHUB
62
0
6
AUSGEZOGEN
10
65.144
20
75.998
11
72.000
21
69.147
0
LINE
8
VORSCHUB
62
0
6
AUSGEZOGEN
10
78.720
20
141.019
11
72.001
21
134.300
0
LINE
8
VORSCHUB
62
0
6
AUSGEZOGEN
10
82.001
20
137.228
11
72.001
21
127.228
0
LINE
8
VORSCHUB
62
0
6
AUSGEZOGEN
10
82.002
20
130.157
11
72.001
21
120.156
0
LINE
8
VORSCHUB
62
0
6
AUSGEZOGEN
10
82.002
20
123.087
11
72.001
21
113.086
0
LINE
8
VORSCHUB
62
0
6
AUSGEZOGEN
10
82.002
20
116.016
11
72.001
21
106.015
0
LINE
8
VORSCHUB
62
0
6
AUSGEZOGEN
10
82.002
20
108.945
11
72.001
21
98.944
0
LINE
8
VORSCHUB
62
0
6
AUSGEZOGEN
10
82.002
20
101.874
11
72.001
21
91.873
0
LINE
8
VORSCHUB
62
0
6
AUSGEZOGEN
10
82.002
20
94.803
11
72.001
21
84.802
0
LINE
8
VORSCHUB
62
0
6
AUSGEZOGEN
10
82.002
20
87.732
11
72.001
21
77.731
0
LINE
8
VORSCHUB
62
0
6
AUSGEZOGEN
10
82.002
20
80.661
11
72.001
21
70.660
0
LINE
8
VORSCHUB
62
0
6
AUSGEZOGEN
10
82.002
20
73.590
11
72.001
21
63.589
0
LINE
8
VORSCHUB
62
0
6
AUSGEZOGEN
10
82.001
20
66.518
11
72.001
21
56.518
0
LINE
8
VORSCHUB
62
0
6
AUSGEZOGEN
10
82.001
20
59.447
11
72.001
21
49.447
0
LINE
8
VORSCHUB
62
0
6
AUSGEZOGEN
10
82.001
20
52.376
11
72.001
21
42.376
0
LINE
8
VORSCHUB
62
0
6
AUSGEZOGEN
10
82.001
20
45.305
11
72.001
21
35.305
0
LINE
8
VORSCHUB
62
0
6
AUSGEZOGEN
10
67.694
20
30.998
11
63.503
21
26.807
0
LINE
8
VORSCHUB
62
0
6
AUSGEZOGEN
10
82.001
20
38.234
11
63.503
21
19.736
0
LINE
8
VORSCHUB
62
0
6
AUSGEZOGEN
10
82.001
20
31.163
11
71.836
21
20.998
0
LINE
8
VORSCHUB
62
0
6
AUSGEZOGEN
10
69.002
20
18.164
11
66.835
21
15.997
0
LINE
8
VORSCHUB
62
0
6
AUSGEZOGEN
10
82.001
20
24.092
11
78.075
21
20.166
0
LINE
8
VORSCHUB
62
0
6
AUSGEZOGEN
10
82.001
20
17.021
11
79.000
21
14.020
0
LINE
8
VORSCHUB
62
0
6
AUSGEZOGEN
10
82.001
20
9.950
11
79.000
21
6.949
0
LINE
8
VORSCHUB
62
0
6
AUSGEZOGEN
10
82.001
20
2.879
11
79.000
21
-0.122
0
LINE
8
VORSCHUB
62
0
6
AUSGEZOGEN
10
82.001
20
-4.192
11
79.187
21
-7.006
0
LINE
8
VORSCHUB
62
0
6
AUSGEZOGEN
10
36.611
20
141.010
11
32.001
21
136.400
0
LINE
8
VORSCHUB
62
0
6
AUSGEZOGEN
10
41.993
20
139.320
11
32.001
21
129.328
0
LINE
8
VORSCHUB
62
0
6
AUSGEZOGEN
10
42.002
20
132.257
11
32.001
21
122.256
0
LINE
8
VORSCHUB
62
0
6
AUSGEZOGEN
10
42.002
20
125.187
11
32.001
21
115.186
0
LINE
8
VORSCHUB
62
0
6
AUSGEZOGEN
10
42.002
20
118.116
11
32.001
21
108.115
0
LINE
8
VORSCHUB
62
0
6
AUSGEZOGEN
10
42.002
20
111.045
11
32.001
21
101.044
0
LINE
8
VORSCHUB
62
0
6
AUSGEZOGEN
10
42.002
20
103.974
11
32.001
21
93.973
0
LINE
8
VORSCHUB
62
0
6
AUSGEZOGEN
10
42.002
20
96.903
11
32.001
21
86.902
0
LINE
8
VORSCHUB
62
0
6
AUSGEZOGEN
10
42.002
20
89.832
11
32.001
21
79.831
0
LINE
8
VORSCHUB
62
0
6
AUSGEZOGEN
10
42.002
20
82.761
11
35.240
21
75.999
0
LINE
8
VORSCHUB
62
0
6
AUSGEZOGEN
10
47.001
20
52.991
11
67.000
21
52.997
0
LINE
8
VORSCHUB
62
0
6
AUSGEZOGEN
10
67.001
20
49.497
11
47.001
21
52.991
0
LINE
8
VORSCHUB
62
0
6
AUSGEZOGEN
10
47.003
20
47.495
11
67.001
21
49.497
0
LINE
8
VORSCHUB
62
0
6
AUSGEZOGEN
10
67.001
20
43.496
11
47.003
21
47.495
0
LINE
8
VORSCHUB
62
0
6
AUSGEZOGEN
10
47.003
20
41.495
11
67.001
21
43.496
0
LINE
8
VORSCHUB
62
0
6
AUSGEZOGEN
10
67.001
20
37.496
11
47.003
21
41.495
0
LINE
8
VORSCHUB
62
0
6
AUSGEZOGEN
10
47.003
20
35.495
11
67.001
21
37.496
0
LINE
8
VORSCHUB
62
0
6
AUSGEZOGEN
10
67.000
20
31.997
11
47.003
21
35.495
0
LINE
8
VORSCHUB
62
0
6
AUSGEZOGEN
10
47.001
20
31.994
11
67.000
21
31.997
0
LINE
8
VORSCHUB
62
0
6
AUSGEZOGEN
10
360.292
20
134.892
11
342.921
21
117.521
0
LINE
8
VORSCHUB
62
0
6
AUSGEZOGEN
10
368.250
20
135.778
11
342.035
21
109.563
0
LINE
8
VORSCHUB
62
0
6
AUSGEZOGEN
10
364.614
20
125.070
11
374.273
21
134.729
0
LINE
8
VORSCHUB
62
0
6
AUSGEZOGEN
10
352.106
20
112.562
11
343.084
21
103.540
0
LINE
8
VORSCHUB
62
0
6
AUSGEZOGEN
10
371.678
20
125.062
11
379.231
21
132.615
0
LINE
8
VORSCHUB
62
0
6
AUSGEZOGEN
10
352.751
20
106.135
11
345.198
21
98.582
0
LINE
8
VORSCHUB
62
0
6
AUSGEZOGEN
10
376.282
20
122.594
11
383.383
21
129.695
0
LINE
8
VORSCHUB
62
0
6
AUSGEZOGEN
10
355.219
20
101.531
11
348.118
21
94.430
0
LINE
8
VORSCHUB
62
0
6
AUSGEZOGEN
10
379.644
20
118.884
11
386.816
21
126.056
0
LINE
8
VORSCHUB
62
0
6
AUSGEZOGEN
10
358.929
20
98.169
11
351.757
21
90.997
0
LINE
8
VORSCHUB
62
0
6
AUSGEZOGEN
10
381.690
20
113.858
11
389.514
21
121.682
0
LINE
8
VORSCHUB
62
0
6
AUSGEZOGEN
10
365.877
20
98.045
11
364.770
21
96.938
0
LINE
8
VORSCHUB
62
0
6
AUSGEZOGEN
10
363.955
20
96.123
11
356.131
21
88.299
0
LINE
8
VORSCHUB
62
0
6
AUSGEZOGEN
10
381.355
20
106.451
11
391.357
21
116.453
0
LINE
8
VORSCHUB
62
0
6
AUSGEZOGEN
10
371.362
20
96.458
11
361.360
21
86.456
0
LINE
8
VORSCHUB
62
0
6
AUSGEZOGEN
10
391.990
20
110.014
11
367.799
21
85.823
0
LINE
8
VORSCHUB
62
0
6
AUSGEZOGEN
10
389.960
20
100.912
11
376.901
21
87.853
0
LINE
8
SCHNITTE
62
2
6
AUSGEZOGEN
10
176.499
20
128.309
11
177.749
21
127.059
0
LINE
8
SCHNITTE
62
2
6
AUSGEZOGEN
10
176.570
20
128.662
11
177.643
21
127.589
0
LINE
8
SCHNITTE
62
2
6
AUSGEZOGEN
10
176.641
20
129.015
11
177.537
21
128.119
0
LINE
8
SCHNITTE
62
2
6
AUSGEZOGEN
10
177.431
20
128.649
11
176.711
21
129.369
0
LINE
8
SCHNITTE
62
2
6
AUSGEZOGEN
10
177.325
20
129.179
11
176.782
21
129.722
0
LINE
8
SCHNITTE
62
2
6
AUSGEZOGEN
10
177.219
20
129.709
11
176.853
21
130.075
0
LINE
8
SCHNITTE
62
2
6
AUSGEZOGEN
10
177.114
20
130.237
11
176.923
21
130.428
0
LINE
8
SCHNITTE
62
2
6
AUSGEZOGEN
10
177.008
20
130.767
11
176.994
21
130.781
0
LINE
8
SCHNITTE
62
2
6
AUSGEZOGEN
10
176.429
20
127.955
11
177.855
21
126.530
0
LINE
8
SCHNITTE
62
2
6
AUSGEZOGEN
10
176.358
20
127.602
11
177.961
21
126.000
0
LINE
8
SCHNITTE
62
2
6
AUSGEZOGEN
10
176.287
20
127.249
11
177.727
21
125.810
0
LINE
8
SCHNITTE
62
2
6
AUSGEZOGEN
10
176.217
20
126.896
11
177.303
21
125.810
0
LINE
8
SCHNITTE
62
2
6
AUSGEZOGEN
10
176.146
20
126.543
11
176.879
21
125.810
0
LINE
8
SCHNITTE
62
2
6
AUSGEZOGEN
10
176.076
20
126.190
11
176.456
21
125.810
0
LINE
8
SCHNITTE
62
2
6
AUSGEZOGEN
10
176.005
20
125.837
11
176.032
21
125.810
0
LINE
8
SCHNITTE
62
2
6
AUSGEZOGEN
10
177.501
20
128.308
11
176.251
21
127.059
0
LINE
8
SCHNITTE
62
2
6
AUSGEZOGEN
10
177.571
20
127.955
11
176.145
21
126.530
0
LINE
8
SCHNITTE
62
2
6
AUSGEZOGEN
10
177.642
20
127.602
11
176.039
21
126.001
0
LINE
8
SCHNITTE
62
2
6
AUSGEZOGEN
10
177.713
20
127.248
11
176.272
21
125.810
0
LINE
8
SCHNITTE
62
2
6
AUSGEZOGEN
10
177.783
20
126.896
11
176.696
21
125.810
0
LINE
8
SCHNITTE
62
2
6
AUSGEZOGEN
10
177.854
20
126.543
11
177.120
21
125.810
0
LINE
8
SCHNITTE
62
2
6
AUSGEZOGEN
10
177.924
20
126.190
11
177.543
21
125.810
0
LINE
8
SCHNITTE
62
2
6
AUSGEZOGEN
10
177.995
20
125.837
11
177.967
21
125.810
0
LINE
8
SCHNITTE
62
2
6
AUSGEZOGEN
10
177.430
20
128.661
11
176.357
21
127.589
0
LINE
8
SCHNITTE
62
2
6
AUSGEZOGEN
10
177.359
20
129.015
11
176.463
21
128.119
0
LINE
8
SCHNITTE
62
2
6
AUSGEZOGEN
10
176.568
20
128.648
11
177.289
21
129.368
0
LINE
8
SCHNITTE
62
2
6
AUSGEZOGEN
10
176.674
20
129.178
11
177.218
21
129.721
0
LINE
8
SCHNITTE
62
2
6
AUSGEZOGEN
10
176.780
20
129.708
11
177.147
21
130.074
0
LINE
8
SCHNITTE
62
2
6
AUSGEZOGEN
10
176.886
20
130.236
11
177.077
21
130.427
0
LINE
8
SCHNITTE
62
2
6
AUSGEZOGEN
10
176.992
20
130.766
11
177.006
21
130.780
0
LINE
8
SCHNITTE
62
2
6
AUSGEZOGEN
10
277.504
20
128.311
11
276.254
21
127.061
0
LINE
8
SCHNITTE
62
2
6
AUSGEZOGEN
10
277.433
20
128.664
11
276.360
21
127.591
0
LINE
8
SCHNITTE
62
2
6
AUSGEZOGEN
10
277.362
20
129.017
11
276.466
21
128.121
0
LINE
8
SCHNITTE
62
2
6
AUSGEZOGEN
10
276.572
20
128.651
11
277.292
21
129.371
0
LINE
8
SCHNITTE
62
2
6
AUSGEZOGEN
10
276.678
20
129.181
11
277.221
21
129.724
0
LINE
8
SCHNITTE
62
2
6
AUSGEZOGEN
10
276.784
20
129.711
11
277.150
21
130.077
0
LINE
8
SCHNITTE
62
2
6
AUSGEZOGEN
10
276.889
20
130.239
11
277.080
21
130.430
0
LINE
8
SCHNITTE
62
2
6
AUSGEZOGEN
10
276.995
20
130.769
11
277.009
21
130.783
0
LINE
8
SCHNITTE
62
2
6
AUSGEZOGEN
10
277.574
20
127.957
11
276.148
21
126.531
0
LINE
8
SCHNITTE
62
2
6
AUSGEZOGEN
10
277.645
20
127.604
11
276.042
21
126.001
0
LINE
8
SCHNITTE
62
2
6
AUSGEZOGEN
10
277.716
20
127.251
11
276.276
21
125.811
0
LINE
8
SCHNITTE
62
2
6
AUSGEZOGEN
10
277.786
20
126.897
11
276.700
21
125.811
0
LINE
8
SCHNITTE
62
2
6
AUSGEZOGEN
10
277.857
20
126.544
11
277.124
21
125.811
0
LINE
8
SCHNITTE
62
2
6
AUSGEZOGEN
10
277.927
20
126.191
11
277.547
21
125.811
0
LINE
8
SCHNITTE
62
2
6
AUSGEZOGEN
10
277.998
20
125.838
11
277.971
21
125.811
0
LINE
8
SCHNITTE
62
2
6
AUSGEZOGEN
10
276.502
20
128.310
11
277.752
21
127.061
0
LINE
8
SCHNITTE
62
2
6
AUSGEZOGEN
10
276.432
20
127.957
11
277.858
21
126.531
0
LINE
8
SCHNITTE
62
2
6
AUSGEZOGEN
10
276.361
20
127.604
11
277.964
21
126.002
0
LINE
8
SCHNITTE
62
2
6
AUSGEZOGEN
10
276.290
20
127.250
11
277.731
21
125.811
0
LINE
8
SCHNITTE
62
2
6
AUSGEZOGEN
10
276.220
20
126.897
11
277.307
21
125.811
0
LINE
8
SCHNITTE
62
2
6
AUSGEZOGEN
10
276.149
20
126.544
11
276.883
21
125.811
0
LINE
8
SCHNITTE
62
2
6
AUSGEZOGEN
10
276.079
20
126.191
11
276.460
21
125.811
0
LINE
8
SCHNITTE
62
2
6
AUSGEZOGEN
10
276.008
20
125.838
11
276.036
21
125.811
0
LINE
8
SCHNITTE
62
2
6
AUSGEZOGEN
10
276.573
20
128.663
11
277.646
21
127.591
0
LINE
8
SCHNITTE
62
2
6
AUSGEZOGEN
10
276.644
20
129.017
11
277.540
21
128.121
0
LINE
8
SCHNITTE
62
2
6
AUSGEZOGEN
10
277.435
20
128.650
11
276.714
21
129.370
0
LINE
8
SCHNITTE
62
2
6
AUSGEZOGEN
10
277.329
20
129.180
11
276.785
21
129.723
0
LINE
8
SCHNITTE
62
2
6
AUSGEZOGEN
10
277.223
20
129.710
11
276.856
21
130.076
0
LINE
8
SCHNITTE
62
2
6
AUSGEZOGEN
10
277.117
20
130.238
11
276.926
21
130.429
0
LINE
8
SCHNITTE
62
2
6
AUSGEZOGEN
10
277.011
20
130.768
11
276.997
21
130.782
0
LINE
8
DINA2
62
0
6
AUSGEZOGEN
10
461.003
20
-189.190
11
-122.997
21
-189.190
0
LINE
8
DINA2
62
0
6
AUSGEZOGEN
10
461.003
20
220.810
11
461.003
21
-189.190
0
LINE
8
DINA2
62
0
6
AUSGEZOGEN
10
-122.997
20
220.810
11
461.003
21
220.810
0
LINE
8
DINA2
62
0
6
AUSGEZOGEN
10
-122.997
20
-189.190
11
-122.997
21
220.810
0
LINE
8
DINA2
62
0
6
AUSGEZOGEN
10
466.003
20
-194.190
11
-127.997
21
-194.190
0
LINE
8
DINA2
62
0
6
AUSGEZOGEN
10
466.003
20
225.810
11
466.003
21
-194.190
0
LINE
8
DINA2
62
0
6
AUSGEZOGEN
10
-127.997
20
225.810
11
466.003
21
225.810
0
LINE
8
DINA2
62
0
6
AUSGEZOGEN
10
-127.997
20
-194.190
11
-127.997
21
225.810
0
LINE
8
VORSCHUB
62
0
6
AUSGEZOGEN
10
217.002
20
43.144
11
237.001
21
43.149
0
LINE
8
VORSCHUB
62
0
6
AUSGEZOGEN
10
237.002
20
41.649
11
217.002
21
43.144
0
LINE
8
VORSCHUB
62
0
6
AUSGEZOGEN
10
217.001
20
39.700
11
237.002
21
41.649
0
LINE
8
VORSCHUB
62
0
6
AUSGEZOGEN
10
237.001
20
38.649
11
217.001
21
39.700
0
LINE
8
VORSCHUB
62
0
6
AUSGEZOGEN
10
217.001
20
36.700
11
237.001
21
38.649
0
LINE
8
VORSCHUB
62
0
6
AUSGEZOGEN
10
237.002
20
35.649
11
217.001
21
36.700
0
LINE
8
VORSCHUB
62
0
6
AUSGEZOGEN
10
217.001
20
33.700
11
237.002
21
35.649
0
LINE
8
VORSCHUB
62
0
6
AUSGEZOGEN
10
237.002
20
32.196
11
217.001
21
33.700
0
LINE
8
VORSCHUB
62
0
6
AUSGEZOGEN
10
217.003
20
32.199
11
237.002
21
32.196
0
LINE
8
VORSCHUB
62
0
6
AUSGEZOGEN
10
230.002
20
57.164
11
236.005
21
51.165
0
LINE
8
VORSCHUB
62
0
6
AUSGEZOGEN
10
230.036
20
64.199
11
241.999
21
52.245
0
LINE
8
VORSCHUB
62
0
6
AUSGEZOGEN
10
235.143
20
66.165
11
241.999
21
59.314
0
LINE
8
VORSCHUB
62
0
6
AUSGEZOGEN
10
233.547
20
51.166
11
232.002
21
49.621
0
LINE
8
VORSCHUB
62
0
6
AUSGEZOGEN
10
237.788
20
51.165
11
232.395
21
45.772
0
LINE
8
VORSCHUB
62
0
6
AUSGEZOGEN
10
241.828
20
50.963
11
235.030
21
44.165
0
LINE
8
VORSCHUB
62
0
6
AUSGEZOGEN
10
241.998
20
46.891
11
238.253
21
43.146
0
LINE
8
VORSCHUB
62
0
6
AUSGEZOGEN
10
241.999
20
42.650
11
238.999
21
39.650
0
LINE
8
VORSCHUB
62
0
6
AUSGEZOGEN
10
241.999
20
38.408
11
239.756
21
36.165
0
LINE
8
VORSCHUB
62
0
6
AUSGEZOGEN
10
218.202
20
11.160
11
220.499
21
8.865
0
LINE
8
VORSCHUB
62
0
6
AUSGEZOGEN
10
214.274
20
10.845
11
220.499
21
4.624
0
LINE
8
VORSCHUB
62
0
6
AUSGEZOGEN
10
214.000
20
6.878
11
220.415
21
0.468
0
LINE
8
VORSCHUB
62
0
6
AUSGEZOGEN
10
214.000
20
2.636
11
216.473
21
0.165
0
LINE
8
VORSCHUB
62
0
6
AUSGEZOGEN
10
237.403
20
11.160
11
239.999
21
8.564
0
LINE
8
VORSCHUB
62
0
6
AUSGEZOGEN
10
233.575
20
10.744
11
239.999
21
4.324
0
LINE
8
VORSCHUB
62
0
6
AUSGEZOGEN
10
233.502
20
6.576
11
239.669
21
0.413
0
LINE
8
VORSCHUB
62
0
6
AUSGEZOGEN
10
233.502
20
2.334
11
235.678
21
0.160
0
LINE
8
VORSCHUB
62
0
6
AUSGEZOGEN
10
229.753
20
-60.187
11
235.392
21
-65.823
0
LINE
8
VORSCHUB
62
0
6
AUSGEZOGEN
10
230.157
20
-67.662
11
234.066
21
-71.568
0
LINE
8
VORSCHUB
62
0
6
AUSGEZOGEN
10
229.753
20
-53.118
11
236.717
21
-60.078
0
LINE
8
VORSCHUB
62
0
6
AUSGEZOGEN
10
238.043
20
-54.333
11
229.753
21
-46.048
0
LINE
8
VORSCHUB
62
0
6
AUSGEZOGEN
10
239.368
20
-48.588
11
231.687
21
-40.912
0
LINE
8
VORSCHUB
62
0
6
AUSGEZOGEN
10
240.694
20
-42.843
11
232.002
21
-34.157
0
LINE
8
VORSCHUB
62
0
6
AUSGEZOGEN
10
242.019
20
-37.097
11
232.002
21
-27.087
0
LINE
8
VORSCHUB
62
0
6
AUSGEZOGEN
10
243.345
20
-31.351
11
233.826
21
-21.839
0
LINE
8
VORSCHUB
62
0
6
AUSGEZOGEN
10
244.670
20
-25.605
11
237.001
21
-17.940
0
LINE
8
VORSCHUB
62
0
6
AUSGEZOGEN
10
245.995
20
-19.857
11
237.001
21
-10.870
0
LINE
8
VORSCHUB
62
0
6
AUSGEZOGEN
10
237.001
20
-3.799
11
247.320
21
-14.111
0
LINE
8
VORSCHUB
62
0
6
AUSGEZOGEN
10
239.960
20
0.316
11
248.646
21
-8.364
0
LINE
8
VORSCHUB
62
0
6
AUSGEZOGEN
10
242.001
20
5.347
11
248.280
21
-0.928
0
LINE
8
VORSCHUB
62
0
6
AUSGEZOGEN
10
242.001
20
12.418
11
248.997
21
5.426
0
LINE
8
VORSCHUB
62
0
6
AUSGEZOGEN
10
243.331
20
18.159
11
248.997
21
12.497
0
LINE
8
VORSCHUB
62
0
6
AUSGEZOGEN
10
229.753
20
-90.130
11
228.752
21
-91.131
0
LINE
8
VORSCHUB
62
0
6
AUSGEZOGEN
10
229.753
20
-87.303
11
228.752
21
-88.304
0
LINE
8
VORSCHUB
62
0
6
AUSGEZOGEN
10
229.753
20
-84.475
11
228.752
21
-85.476
0
LINE
8
VORSCHUB
62
0
6
AUSGEZOGEN
10
229.753
20
-81.647
11
228.752
21
-82.648
0
LINE
8
VORSCHUB
62
0
6
AUSGEZOGEN
10
229.753
20
-78.819
11
228.752
21
-79.820
0
LINE
8
VORSCHUB
62
0
6
AUSGEZOGEN
10
229.753
20
-75.991
11
228.752
21
-76.992
0
LINE
8
VORSCHUB
62
0
6
AUSGEZOGEN
10
229.753
20
-73.163
11
228.752
21
-74.164
0
LINE
8
VORSCHUB
62
0
6
AUSGEZOGEN
10
229.753
20
-70.335
11
228.752
21
-71.336
0
LINE
8
VORSCHUB
62
0
6
AUSGEZOGEN
10
229.753
20
-67.507
11
228.752
21
-68.508
0
LINE
8
VORSCHUB
62
0
6
AUSGEZOGEN
10
229.753
20
-64.679
11
228.752
21
-65.680
0
LINE
8
VORSCHUB
62
0
6
AUSGEZOGEN
10
229.753
20
-61.851
11
228.752
21
-62.852
0
LINE
8
VORSCHUB
62
0
6
AUSGEZOGEN
10
229.753
20
-59.023
11
228.752
21
-60.024
0
LINE
8
VORSCHUB
62
0
6
AUSGEZOGEN
10
229.753
20
-56.195
11
228.752
21
-57.196
0
LINE
8
VORSCHUB
62
0
6
AUSGEZOGEN
10
229.753
20
-53.367
11
228.752
21
-54.368
0
LINE
8
VORSCHUB
62
0
6
AUSGEZOGEN
10
229.753
20
-50.539
11
228.752
21
-51.540
0
LINE
8
VORSCHUB
62
0
6
AUSGEZOGEN
10
229.753
20
-47.711
11
228.752
21
-48.712
0
LINE
8
VORSCHUB
62
0
6
AUSGEZOGEN
10
229.753
20
-44.883
11
228.752
21
-45.884
0
LINE
8
VORSCHUB
62
0
6
AUSGEZOGEN
10
229.753
20
-42.055
11
228.752
21
-43.056
0
LINE
8
VORSCHUB
62
0
6
AUSGEZOGEN
10
223.461
20
-39.092
11
222.675
21
-39.878
0
LINE
8
VORSCHUB
62
0
6
AUSGEZOGEN
10
224.919
20
-40.462
11
224.157
21
-41.224
0
LINE
8
VORSCHUB
62
0
6
AUSGEZOGEN
10
225.251
20
-42.958
11
224.251
21
-43.958
0
LINE
8
VORSCHUB
62
0
6
AUSGEZOGEN
10
225.251
20
-45.785
11
224.251
21
-46.785
0
LINE
8
VORSCHUB
62
0
6
AUSGEZOGEN
10
225.251
20
-48.613
11
224.251
21
-49.613
0
LINE
8
VORSCHUB
62
0
6
AUSGEZOGEN
10
225.251
20
-51.441
11
224.251
21
-52.441
0
LINE
8
VORSCHUB
62
0
6
AUSGEZOGEN
10
225.251
20
-54.269
11
224.251
21
-55.269
0
LINE
8
VORSCHUB
62
0
6
AUSGEZOGEN
10
225.251
20
-57.097
11
224.251
21
-58.097
0
LINE
8
VORSCHUB
62
0
6
AUSGEZOGEN
10
225.251
20
-59.925
11
224.251
21
-60.925
0
LINE
8
VORSCHUB
62
0
6
AUSGEZOGEN
10
225.251
20
-62.753
11
224.251
21
-63.753
0
LINE
8
VORSCHUB
62
0
6
AUSGEZOGEN
10
225.251
20
-65.581
11
224.251
21
-66.581
0
LINE
8
VORSCHUB
62
0
6
AUSGEZOGEN
10
225.251
20
-68.409
11
224.251
21
-69.409
0
LINE
8
VORSCHUB
62
0
6
AUSGEZOGEN
10
225.251
20
-71.237
11
224.251
21
-72.237
0
LINE
8
VORSCHUB
62
0
6
AUSGEZOGEN
10
225.251
20
-74.065
11
224.251
21
-75.065
0
LINE
8
VORSCHUB
62
0
6
AUSGEZOGEN
10
225.251
20
-76.893
11
224.251
21
-77.893
0
LINE
8
VORSCHUB
62
0
6
AUSGEZOGEN
10
225.251
20
-79.721
11
224.251
21
-80.721
0
LINE
8
VORSCHUB
62
0
6
AUSGEZOGEN
10
225.251
20
-82.549
11
224.251
21
-83.549
0
LINE
8
VORSCHUB
62
0
6
AUSGEZOGEN
10
225.251
20
-85.377
11
224.251
21
-86.377
0
LINE
8
VORSCHUB
62
0
6
AUSGEZOGEN
10
225.251
20
-88.205
11
224.251
21
-89.205
0
LINE
8
VORSCHUB
62
0
6
AUSGEZOGEN
10
225.251
20
-91.033
11
224.637
21
-91.647
0
LINE
8
VORSCHUB
62
0
6
AUSGEZOGEN
10
223.196
20
-21.837
11
222.001
21
-23.032
0
LINE
8
VORSCHUB
62
0
6
AUSGEZOGEN
10
225.681
20
-22.180
11
222.001
21
-25.860
0
LINE
8
VORSCHUB
62
0
6
AUSGEZOGEN
10
225.751
20
-24.938
11
222.001
21
-28.688
0
LINE
8
VORSCHUB
62
0
6
AUSGEZOGEN
10
225.751
20
-27.765
11
222.001
21
-31.515
0
LINE
8
VORSCHUB
62
0
6
AUSGEZOGEN
10
225.751
20
-30.593
11
222.001
21
-34.343
0
LINE
8
VORSCHUB
62
0
6
AUSGEZOGEN
10
225.751
20
-33.421
11
222.001
21
-37.171
0
LINE
8
VORSCHUB
62
0
6
AUSGEZOGEN
10
225.751
20
-36.249
11
223.162
21
-38.838
0
LINE
8
VORSCHUB
62
0
6
AUSGEZOGEN
10
222.404
20
-21.837
11
225.749
21
-25.180
0
LINE
8
VORSCHUB
62
0
6
AUSGEZOGEN
10
222.000
20
-24.260
11
225.749
21
-28.007
0
LINE
8
VORSCHUB
62
0
6
AUSGEZOGEN
10
222.000
20
-27.088
11
225.749
21
-30.835
0
LINE
8
VORSCHUB
62
0
6
AUSGEZOGEN
10
222.000
20
-29.917
11
225.749
21
-33.663
0
LINE
8
VORSCHUB
62
0
6
AUSGEZOGEN
10
222.000
20
-32.745
11
225.749
21
-36.491
0
LINE
8
VORSCHUB
62
0
6
AUSGEZOGEN
10
222.000
20
-35.573
11
225.268
21
-38.838
0
LINE
8
VORSCHUB
62
0
6
AUSGEZOGEN
10
225.231
20
-21.837
11
225.749
21
-22.355
0
LINE
8
VORSCHUB
62
0
6
AUSGEZOGEN
10
229.636
20
-21.837
11
228.253
21
-23.220
0
LINE
8
VORSCHUB
62
0
6
AUSGEZOGEN
10
232.001
20
-22.300
11
228.253
21
-26.048
0
LINE
8
VORSCHUB
62
0
6
AUSGEZOGEN
10
232.002
20
-25.127
11
228.253
21
-28.876
0
LINE
8
VORSCHUB
62
0
6
AUSGEZOGEN
10
232.002
20
-27.954
11
228.253
21
-31.703
0
LINE
8
VORSCHUB
62
0
6
AUSGEZOGEN
10
232.002
20
-30.782
11
228.253
21
-34.531
0
LINE
8
VORSCHUB
62
0
6
AUSGEZOGEN
10
232.002
20
-33.610
11
228.253
21
-37.359
0
LINE
8
VORSCHUB
62
0
6
AUSGEZOGEN
10
232.002
20
-36.438
11
229.602
21
-38.838
0
LINE
8
VORSCHUB
62
0
6
AUSGEZOGEN
10
228.604
20
-21.837
11
232.001
21
-25.232
0
LINE
8
VORSCHUB
62
0
6
AUSGEZOGEN
10
228.251
20
-24.312
11
232.001
21
-28.059
0
LINE
8
VORSCHUB
62
0
6
AUSGEZOGEN
10
228.251
20
-27.139
11
232.001
21
-30.886
0
LINE
8
VORSCHUB
62
0
6
AUSGEZOGEN
10
228.251
20
-29.967
11
232.001
21
-33.714
0
LINE
8
VORSCHUB
62
0
6
AUSGEZOGEN
10
228.251
20
-32.795
11
232.001
21
-36.542
0
LINE
8
VORSCHUB
62
0
6
AUSGEZOGEN
10
228.251
20
-35.623
11
231.469
21
-38.838
0
LINE
8
VORSCHUB
62
0
6
AUSGEZOGEN
10
228.361
20
-38.561
11
228.639
21
-38.838
0
LINE
8
VORSCHUB
62
0
6
AUSGEZOGEN
10
231.431
20
-21.837
11
232.001
21
-22.407
0
TEXT
8
SCHNITTE
62
2
6
AUSGEZOGEN
1
A-A
10
347.003
20
140.810
40
5.000
41
2.003
50
0.000
0
TEXT
8
SCHNITTE
62
2
6
AUSGEZOGEN
1
A
10
169.001
20
127.811
40
-5.000
41
2.003
50
180.037
0
TEXT
8
SCHNITTE
62
2
6
AUSGEZOGEN
1
A
10
285.003
20
127.810
40
5.000
41
2.003
50
0.000
0
LINE
8
SCHNITTE
62
2
6
AUSGEZOGEN
10
177.000
20
130.808
11
177.002
21
115.810
0
LINE
8
SCHNITTE
62
2
6
AUSGEZOGEN
10
177.000
20
130.808
11
176.000
21
125.809
0
LINE
8
SCHNITTE
62
2
6
AUSGEZOGEN
10
176.000
20
125.809
11
178.000
21
125.809
0
LINE
8
SCHNITTE
62
2
6
AUSGEZOGEN
10
178.000
20
125.809
11
177.000
21
130.808
0
LINE
8
SCHNITTE
62
2
6
AUSGEZOGEN
10
276.003
20
125.810
11
277.003
21
130.810
0
LINE
8
SCHNITTE
62
2
6
AUSGEZOGEN
10
278.003
20
125.810
11
276.003
21
125.810
0
LINE
8
SCHNITTE
62
2
6
AUSGEZOGEN
10
277.003
20
130.810
11
278.003
21
125.810
0
LINE
8
SCHNITTE
62
2
6
AUSGEZOGEN
10
277.003
20
130.810
11
277.003
21
115.811
0
LINE
8
SCHNITTE
62
2
6
STRICHPUNKTLINIE
10
172.000
20
130.810
11
282.000
21
130.810
0
TEXT
8
SCHRIFTFELD
62
0
6
AUSGEZOGEN
1
GIEBEL
10
358.001
20
-159.190
40
3.000
41
1.975
50
0.000
0
TEXT
8
SCHRIFTFELD
62
0
6
AUSGEZOGEN
1
FB FEINWERKTECHNIK
10
333.003
20
-181.690
40
2.500
41
2.003
50
0.000
0
TEXT
8
SCHRIFTFELD
62
0
6
AUSGEZOGEN
1
FH FRANKFURT/MAIN
10
333.003
20
-178.190
40
2.500
41
2.003
50
0.000
0
TEXT
8
SCHRIFTFELD
62
0
6
AUSGEZOGEN
1
1.7.91
10
343.003
20
-159.190
40
2.500
41
2.003
50
0.000
0
TEXT
8
SCHRIFTFELD
62
0
6
AUSGEZOGEN
1
1
10
451.003
20
-184.190
40
2.500
41
2.003
50
0.000
0
TEXT
8
SCHRIFTFELD
62
0
6
AUSGEZOGEN
1
1
10
453.003
20
-180.190
40
5.000
41
2.003
50
0.000
0
TEXT
8
SCHRIFTFELD
62
0
6
AUSGEZOGEN
1
01.00
10
380.003
20
-181.190
40
5.000
41
2.003
50
0.000
0
TEXT
8
SCHRIFTFELD
62
0
6
AUSGEZOGEN
1
vorschub
10
380.003
20
-167.190
40
5.000
41
2.003
50
0.000
0
TEXT
8
SCHRIFTFELD
62
0
6
AUSGEZOGEN
1
Bleistiftminen-
10
380.003
20
-160.190
40
5.000
41
2.003
50
0.000
0
TEXT
8
SCHRIFTFELD
62
0
6
AUSGEZOGEN
1
5:1
10
401.003
20
-140.190
40
5.000
41
2.003
50
0.000
0
LINE
8
SCHRIFTFELD
62
0
6
AUSGEZOGEN
10
341.624
20
-151.127
11
341.625
21
-168.045
0
TEXT
8
SCHRIFTFELD
62
0
6
AUSGEZOGEN
1
!!!!!! CAD-Zeichnung !!!!!!
10
390.730
20
-114.190
40
3.500
41
2.003
50
0.000
0
TEXT
8
SCHRIFTFELD
62
0
6
AUSGEZOGEN
1
Urspr.
10
332.322
20
-188.552
40
1.800
41
2.003
50
0.000
0
TEXT
8
SCHRIFTFELD
62
0
6
AUSGEZOGEN
1
Ers. f.
10
375.501
20
-188.552
40
1.800
41
2.003
50
0.000
0
TEXT
8
SCHRIFTFELD
62
0
6
AUSGEZOGEN
1
Ers. d.
10
418.683
20
-188.552
40
1.800
41
2.003
50
0.000
0
TEXT
8
SCHRIFTFELD
62
0
6
AUSGEZOGEN
1
…nderungstext
10
286.473
20
-133.543
40
1.800
41
2.003
50
0.000
0
LINE
8
SCHRIFTFELD
62
0
6
AUSGEZOGEN
10
285.745
20
-151.126
11
285.743
21
-189.190
0
LINE
8
SCHRIFTFELD
62
0
6
AUSGEZOGEN
10
285.745
20
-117.290
11
285.746
21
-134.206
0
TEXT
8
SCHRIFTFELD
62
0
6
AUSGEZOGEN
1
Zust
10
278.873
20
-133.543
40
1.800
41
2.003
50
0.000
0
LINE
8
SCHRIFTFELD
62
0
6
AUSGEZOGEN
10
278.122
20
-129.976
11
461.004
21
-129.978
0
LINE
8
SCHRIFTFELD
62
0
6
AUSGEZOGEN
10
278.122
20
-125.747
11
461.004
21
-125.749
0
LINE
8
SCHRIFTFELD
62
0
6
AUSGEZOGEN
10
278.122
20
-121.518
11
461.004
21
-121.520
0
LINE
8
SCHRIFTFELD
62
0
6
AUSGEZOGEN
10
278.122
20
-117.289
11
461.005
21
-117.290
0
LINE
8
SCHRIFTFELD
62
0
6
AUSGEZOGEN
10
461.005
20
-117.290
11
461.003
21
-189.190
0
LINE
8
SCHRIFTFELD
62
0
6
AUSGEZOGEN
10
278.124
20
-117.290
11
278.123
21
-189.191
0
TEXT
8
SCHRIFTFELD
62
0
6
AUSGEZOGEN
1
Maûstab
10
375.427
20
-138.927
40
2.800
41
2.003
50
0.000
0
LINE
8
SCHRIFTFELD
62
0
6
AUSGEZOGEN
10
425.445
20
-134.209
11
425.445
21
-140.550
0
LINE
8
SCHRIFTFELD
62
0
6
AUSGEZOGEN
10
417.823
20
-184.960
11
417.823
21
-189.190
0
LINE
8
SCHRIFTFELD
62
0
6
AUSGEZOGEN
10
323.844
20
-151.127
11
323.843
21
-189.190
0
LINE
8
SCHRIFTFELD
62
0
6
AUSGEZOGEN
10
311.144
20
-151.127
11
311.143
21
-189.190
0
LINE
8
SCHRIFTFELD
62
0
6
AUSGEZOGEN
10
278.123
20
-155.357
11
374.643
21
-155.358
0
LINE
8
SCHRIFTFELD
62
0
6
AUSGEZOGEN
10
278.123
20
-151.127
11
461.005
21
-151.126
0
LINE
8
SCHRIFTFELD
62
0
6
AUSGEZOGEN
10
374.644
20
-140.552
11
461.005
21
-140.549
0
LINE
8
SCHRIFTFELD
62
0
6
AUSGEZOGEN
10
448.304
20
-172.273
11
448.303
21
-184.960
0
LINE
8
SCHRIFTFELD
62
0
6
AUSGEZOGEN
10
331.463
20
-172.273
11
461.004
21
-172.272
0
LINE
8
SCHRIFTFELD
62
0
6
AUSGEZOGEN
10
331.466
20
-134.206
11
331.463
21
-189.190
0
TEXT
8
SCHRIFTFELD
62
0
6
AUSGEZOGEN
1
Bl
10
456.595
20
-184.152
40
2.000
41
2.003
50
0.000
0
TEXT
8
SCHRIFTFELD
62
0
6
AUSGEZOGEN
1
.
10
459.147
20
-184.227
40
2.000
41
2.003
50
0.000
0
TEXT
8
SCHRIFTFELD
62
0
6
AUSGEZOGEN
1
Blatt
10
448.791
20
-174.777
40
1.800
41
2.003
50
0.000
0
LINE
8
SCHRIFTFELD
62
0
6
AUSGEZOGEN
10
374.647
20
-134.206
11
374.642
21
-189.190
0
LINE
8
SCHRIFTFELD
62
0
6
AUSGEZOGEN
10
278.123
20
-172.273
11
331.463
21
-172.273
0
LINE
8
SCHRIFTFELD
62
0
6
AUSGEZOGEN
10
356.865
20
-134.206
11
356.865
21
-151.126
0
LINE
8
SCHRIFTFELD
62
0
6
AUSGEZOGEN
10
356.865
20
-151.126
11
356.863
21
-172.273
0
TEXT
8
SCHRIFTFELD
62
0
6
AUSGEZOGEN
1
Name
10
358.163
20
-154.607
40
1.800
41
2.003
50
0.000
0
TEXT
8
SCHRIFTFELD
62
0
6
AUSGEZOGEN
1
Datum
10
343.043
20
-154.687
40
1.800
41
2.003
50
0.000
0
TEXT
8
SCHRIFTFELD
62
0
6
AUSGEZOGEN
1
Norm
10
332.323
20
-167.407
40
1.800
41
2.003
50
0.000
0
TEXT
8
SCHRIFTFELD
62
0
6
AUSGEZOGEN
1
Gepr.
10
332.203
20
-163.167
40
1.800
41
2.003
50
0.000
0
TEXT
8
SCHRIFTFELD
62
0
6
AUSGEZOGEN
1
Bearb
10
332.163
20
-159.007
40
1.800
41
2.003
50
0.000
0
TEXT
8
SCHRIFTFELD
62
0
6
AUSGEZOGEN
1
Name
10
324.573
20
-188.427
40
1.800
41
2.003
50
0.000
0
TEXT
8
SCHRIFTFELD
62
0
6
AUSGEZOGEN
1
Datum
10
311.923
20
-188.427
40
1.800
41
2.003
50
0.000
0
TEXT
8
SCHRIFTFELD
62
0
6
AUSGEZOGEN
1
…nderung
10
286.473
20
-188.527
40
1.800
41
2.003
50
0.000
0
TEXT
8
SCHRIFTFELD
62
0
6
AUSGEZOGEN
1
Zust
10
278.873
20
-188.527
40
1.800
41
2.003
50
0.000
0
LINE
8
SCHRIFTFELD
62
0
6
AUSGEZOGEN
10
278.123
20
-159.586
11
374.643
21
-159.587
0
LINE
8
SCHRIFTFELD
62
0
6
AUSGEZOGEN
10
278.123
20
-163.815
11
374.643
21
-163.816
0
LINE
8
SCHRIFTFELD
62
0
6
AUSGEZOGEN
10
278.123
20
-168.044
11
374.643
21
-168.045
0
LINE
8
SCHRIFTFELD
62
0
6
AUSGEZOGEN
10
278.123
20
-180.731
11
331.463
21
-180.732
0
LINE
8
SCHRIFTFELD
62
0
6
AUSGEZOGEN
10
278.128
20
-176.502
11
331.463
21
-176.502
0
LINE
8
SCHRIFTFELD
62
0
6
AUSGEZOGEN
10
448.303
20
-180.735
11
461.004
21
-180.734
0
LINE
8
SCHRIFTFELD
62
0
6
AUSGEZOGEN
10
278.123
20
-184.960
11
461.003
21
-184.960
0
LINE
8
SCHRIFTFELD
62
0
6
AUSGEZOGEN
10
278.123
20
-189.191
11
461.003
21
-189.190
0
LINE
8
SCHRIFTFELD
62
0
6
AUSGEZOGEN
10
278.123
20
-134.207
11
461.005
21
-134.206
0
LINE
8
DINA2
62
0
6
AUSGEZOGEN
10
82.002
20
-189.190
11
82.002
21
-194.190
0
LINE
8
DINA2
62
0
6
AUSGEZOGEN
10
274.002
20
-189.190
11
274.002
21
-194.190
0
LINE
8
DINA2
62
0
6
AUSGEZOGEN
10
466.003
20
102.809
11
461.003
21
102.809
0
LINE
8
DINA2
62
0
6
AUSGEZOGEN
10
274.004
20
225.810
11
274.004
21
220.810
0
LINE
8
DINA2
62
0
6
AUSGEZOGEN
10
82.004
20
225.810
11
82.004
21
220.810
0
LINE
8
DINA2
62
0
6
AUSGEZOGEN
10
-122.997
20
102.811
11
-127.997
21
102.811
0
LINE
8
DINA2
62
0
6
AUSGEZOGEN
10
-122.997
20
108.668
11
-127.997
21
102.811
0
LINE
8
DINA2
62
0
6
AUSGEZOGEN
10
-22.997
20
225.809
11
-27.264
21
220.810
0
TEXT
8
TEXT
62
7
6
AUSGEZOGEN
1
Schreibposition
10
23.191
20
160.810
40
5.000
41
2.003
50
0.000
0
TEXT
8
TEXT
62
7
6
AUSGEZOGEN
1
1
10
127.003
20
90.810
40
10.000
41
2.003
50
0.000
0
TEXT
8
TEXT
62
7
6
AUSGEZOGEN
1
2
10
127.003
20
70.810
40
10.000
41
2.003
50
0.000
0
TEXT
8
TEXT
62
7
6
AUSGEZOGEN
1
3
10
127.003
20
10.810
40
10.000
41
2.003
50
0.000
0
TEXT
8
TEXT
62
7
6
AUSGEZOGEN
1
4
10
127.003
20
-9.190
40
10.000
41
2.003
50
0.000
0
TEXT
8
TEXT
62
7
6
AUSGEZOGEN
1
5
10
127.003
20
-29.190
40
10.000
41
2.003
50
0.000
0
TEXT
8
TEXT
62
7
6
AUSGEZOGEN
1
9
10
-22.013
20
90.810
40
10.000
41
2.003
50
0.000
0
TEXT
8
TEXT
62
7
6
AUSGEZOGEN
1
8
10
-22.013
20
50.810
40
10.000
41
2.003
50
0.000
0
TEXT
8
TEXT
62
7
6
AUSGEZOGEN
1
7
10
-22.013
20
-9.190
40
10.000
41
2.003
50
0.000
0
TEXT
8
TEXT
62
7
6
AUSGEZOGEN
1
6
10
-22.013
20
-29.190
40
10.000
41
2.003
50
0.000
0
TEXT
8
TEXT
62
7
6
AUSGEZOGEN
1
Preûsitz
10
-49.063
20
73.310
40
5.000
41
2.003
50
0.000
0
TEXT
8
TEXT
62
7
6
AUSGEZOGEN
1
Preûsitz
10
-49.063
20
-46.690
40
5.000
41
2.003
50
0.000
0
LINE
8
TEXT
62
7
6
AUSGEZOGEN
10
-7.997
20
-44.190
11
54.251
21
-62.400
0
LINE
8
TEXT
62
7
6
AUSGEZOGEN
10
-7.996
20
-44.191
11
52.001
21
-35.160
0
LINE
8
TEXT
62
7
6
AUSGEZOGEN
10
-7.997
20
-23.998
11
54.250
21
-31.000
0
LINE
8
TEXT
62
7
6
AUSGEZOGEN
10
-7.997
20
-3.999
11
43.000
21
-14.500
0
LINE
8
TEXT
62
7
6
AUSGEZOGEN
10
122.000
20
-23.996
11
59.200
21
-51.000
0
LINE
8
TEXT
62
7
6
AUSGEZOGEN
10
122.000
20
-3.997
11
61.000
21
3.750
0
LINE
8
TEXT
62
7
6
AUSGEZOGEN
10
122.000
20
16.001
11
67.000
21
9.750
0
LINE
8
TEXT
62
7
6
AUSGEZOGEN
10
122.000
20
75.997
11
69.750
21
56.500
0
LINE
8
TEXT
62
7
6
AUSGEZOGEN
10
122.001
20
95.996
11
77.500
21
101.250
0
LINE
8
TEXT
62
7
6
AUSGEZOGEN
10
-7.998
20
95.997
11
25.500
21
109.500
0
LINE
8
TEXT
62
7
6
AUSGEZOGEN
10
-7.997
20
55.998
11
49.001
21
44.500
0
LINE
8
TEXT
62
7
6
AUSGEZOGEN
10
-7.997
20
75.997
11
52.001
21
57.920
0
CIRCLE
8
TEXT
62
7
6
AUSGEZOGEN
10
77.500
20
101.250
40
0.250
0
CIRCLE
8
TEXT
62
7
6
AUSGEZOGEN
10
69.750
20
56.500
40
0.250
0
CIRCLE
8
TEXT
62
7
6
AUSGEZOGEN
10
52.001
20
57.919
40
0.250
0
CIRCLE
8
TEXT
62
7
6
AUSGEZOGEN
10
49.001
20
44.500
40
0.250
0
CIRCLE
8
TEXT
62
7
6
AUSGEZOGEN
10
25.500
20
109.500
40
0.250
0
CIRCLE
8
TEXT
62
7
6
AUSGEZOGEN
10
67.000
20
9.750
40
0.250
0
CIRCLE
8
TEXT
62
7
6
AUSGEZOGEN
10
61.000
20
3.750
40
0.250
0
CIRCLE
8
TEXT
62
7
6
AUSGEZOGEN
10
43.000
20
-14.500
40
0.250
0
CIRCLE
8
TEXT
62
7
6
AUSGEZOGEN
10
54.250
20
-31.000
40
0.250
0
CIRCLE
8
TEXT
62
7
6
AUSGEZOGEN
10
52.002
20
-35.160
40
0.250
0
CIRCLE
8
TEXT
62
7
6
AUSGEZOGEN
10
59.200
20
-51.000
40
0.250
0
CIRCLE
8
TEXT
62
7
6
AUSGEZOGEN
10
54.251
20
-62.401
40
0.250
0
TEXT
8
TEXT
62
7
6
AUSGEZOGEN
1
Vorschub betÙtigt
10
188.683
20
160.810
40
5.000
41
2.003
50
0.000
0
LINE
8
MITTELLINIEN
62
1
6
STRICHPUNKTLINIE
10
57.003
20
-96.999
11
57.001
21
146.000
0
LINE
8
MITTELLINIEN
62
1
6
STRICHPUNKTLINIE
10
367.003
20
140.810
11
367.003
21
80.810
0
LINE
8
MITTELLINIEN
62
1
6
STRICHPUNKTLINIE
10
337.003
20
110.810
11
397.003
21
110.810
0
LINE
8
MITTELLINIEN
62
1
6
STRICHPUNKTLINIE
10
227.002
20
-96.832
11
227.000
21
146.167
0
ARC
8
VORSCHUB
62
0
6
AUSGEZOGEN
10
367.002
20
95.812
40
2.500
50
4.728
51
175.308
0
ARC
8
VORSCHUB
62
0
6
AUSGEZOGEN
10
367.003
20
125.810
40
2.500
50
184.811
51
355.300
0
LINE
8
VORSCHUB
62
0
6
AUSGEZOGEN
10
199.998
20
51.166
11
241.999
21
51.164
0
LINE
8
VORSCHUB
62
0
6
AUSGEZOGEN
10
232.004
20
43.284
11
230.004
21
41.284
0
LINE
8
VORSCHUB
62
0
6
AUSGEZOGEN
10
232.004
20
44.698
11
230.004
21
42.698
0
LINE
8
VORSCHUB
62
0
6
AUSGEZOGEN
10
232.004
20
46.111
11
230.004
21
44.111
0
LINE
8
VORSCHUB
62
0
6
AUSGEZOGEN
10
232.004
20
47.525
11
230.004
21
45.525
0
LINE
8
VORSCHUB
62
0
6
AUSGEZOGEN
10
232.004
20
48.939
11
230.004
21
46.939
0
LINE
8
VORSCHUB
62
0
6
AUSGEZOGEN
10
232.004
20
50.353
11
230.004
21
48.353
0
LINE
8
VORSCHUB
62
0
6
AUSGEZOGEN
10
231.403
20
51.166
11
230.004
21
49.767
0
LINE
8
VORSCHUB
62
0
6
AUSGEZOGEN
10
224.001
20
41.870
11
222.001
21
39.870
0
LINE
8
VORSCHUB
62
0
6
AUSGEZOGEN
10
224.001
20
43.284
11
222.001
21
41.284
0
LINE
8
VORSCHUB
62
0
6
AUSGEZOGEN
10
224.001
20
44.698
11
222.001
21
42.698
0
LINE
8
VORSCHUB
62
0
6
AUSGEZOGEN
10
224.001
20
46.111
11
222.001
21
44.111
0
LINE
8
VORSCHUB
62
0
6
AUSGEZOGEN
10
224.001
20
47.525
11
222.001
21
45.525
0
LINE
8
VORSCHUB
62
0
6
AUSGEZOGEN
10
224.001
20
48.939
11
222.001
21
46.939
0
LINE
8
VORSCHUB
62
0
6
AUSGEZOGEN
10
224.001
20
50.353
11
222.001
21
48.353
0
LINE
8
VORSCHUB
62
0
6
AUSGEZOGEN
10
223.400
20
51.166
11
222.001
21
49.767
0
ARC
8
VORSCHUB
62
0
6
AUSGEZOGEN
10
227.000
20
40.412
40
0.750
50
0.076
51
180.342
0
LINE
8
VORSCHUB
62
0
6
AUSGEZOGEN
10
222.000
20
51.165
11
232.002
21
51.165
0
LINE
8
VORSCHUB
62
0
6
AUSGEZOGEN
10
222.000
20
51.165
11
222.000
21
40.490
0
LINE
8
VORSCHUB
62
0
6
AUSGEZOGEN
10
224.000
20
51.165
11
224.000
21
40.457
0
LINE
8
VORSCHUB
62
0
6
AUSGEZOGEN
10
230.002
20
51.165
11
230.002
21
40.454
0
LINE
8
VORSCHUB
62
0
6
AUSGEZOGEN
10
232.002
20
51.165
11
232.002
21
40.493
0
LINE
8
VORSCHUB
62
0
6
AUSGEZOGEN
10
236.903
20
-15.448
11
231.642
21
-20.708
0
LINE
8
VORSCHUB
62
0
6
AUSGEZOGEN
10
236.857
20
-14.080
11
230.102
21
-20.834
0
LINE
8
VORSCHUB
62
0
6
AUSGEZOGEN
10
236.811
20
-12.712
11
230.292
21
-19.230
0
LINE
8
VORSCHUB
62
0
6
AUSGEZOGEN
10
236.765
20
-11.344
11
230.246
21
-17.861
0
LINE
8
VORSCHUB
62
0
6
AUSGEZOGEN
10
236.718
20
-9.977
11
230.200
21
-16.493
0
LINE
8
VORSCHUB
62
0
6
AUSGEZOGEN
10
236.672
20
-8.609
11
230.155
21
-15.125
0
LINE
8
VORSCHUB
62
0
6
AUSGEZOGEN
10
236.278
20
-7.589
11
230.109
21
-13.756
0
LINE
8
VORSCHUB
62
0
6
AUSGEZOGEN
10
235.864
20
-6.590
11
230.063
21
-12.388
0
LINE
8
VORSCHUB
62
0
6
AUSGEZOGEN
10
235.450
20
-5.590
11
230.017
21
-11.020
0
LINE
8
VORSCHUB
62
0
6
AUSGEZOGEN
10
235.036
20
-4.590
11
229.972
21
-9.652
0
LINE
8
VORSCHUB
62
0
6
AUSGEZOGEN
10
234.622
20
-3.591
11
229.926
21
-8.284
0
LINE
8
VORSCHUB
62
0
6
AUSGEZOGEN
10
236.996
20
-18.184
11
234.572
21
-20.607
0
LINE
8
VORSCHUB
62
0
6
AUSGEZOGEN
10
236.950
20
-16.816
11
233.107
21
-20.658
0
LINE
8
VORSCHUB
62
0
6
AUSGEZOGEN
10
234.208
20
-2.592
11
229.880
21
-6.915
0
LINE
8
VORSCHUB
62
0
6
AUSGEZOGEN
10
233.793
20
-1.591
11
229.835
21
-5.547
0
LINE
8
VORSCHUB
62
0
6
AUSGEZOGEN
10
233.397
20
-0.574
11
229.789
21
-4.179
0
LINE
8
VORSCHUB
62
0
6
AUSGEZOGEN
10
233.351
20
0.795
11
229.743
21
-2.810
0
LINE
8
VORSCHUB
62
0
6
AUSGEZOGEN
10
233.165
20
6.266
11
231.229
21
4.330
0
LINE
8
VORSCHUB
62
0
6
AUSGEZOGEN
10
233.211
20
4.898
11
231.276
21
2.962
0
LINE
8
VORSCHUB
62
0
6
AUSGEZOGEN
10
233.258
20
3.531
11
231.322
21
1.595
0
LINE
8
VORSCHUB
62
0
6
AUSGEZOGEN
10
233.304
20
2.163
11
231.369
21
0.227
0
LINE
8
VORSCHUB
62
0
6
AUSGEZOGEN
10
232.793
20
17.206
11
230.858
21
15.270
0
LINE
8
VORSCHUB
62
0
6
AUSGEZOGEN
10
232.840
20
15.839
11
230.904
21
13.903
0
LINE
8
VORSCHUB
62
0
6
AUSGEZOGEN
10
232.886
20
14.471
11
230.951
21
12.535
0
LINE
8
VORSCHUB
62
0
6
AUSGEZOGEN
10
232.933
20
13.104
11
230.997
21
11.168
0
LINE
8
VORSCHUB
62
0
6
AUSGEZOGEN
10
232.979
20
11.736
11
231.044
21
9.800
0
LINE
8
VORSCHUB
62
0
6
AUSGEZOGEN
10
233.026
20
10.369
11
231.090
21
8.433
0
LINE
8
VORSCHUB
62
0
6
AUSGEZOGEN
10
233.072
20
9.001
11
231.136
21
7.065
0
LINE
8
VORSCHUB
62
0
6
AUSGEZOGEN
10
233.118
20
7.633
11
231.183
21
5.698
0
LINE
8
VORSCHUB
62
0
6
AUSGEZOGEN
10
232.515
20
25.412
11
230.579
21
23.476
0
LINE
8
VORSCHUB
62
0
6
AUSGEZOGEN
10
232.561
20
24.044
11
230.626
21
22.108
0
LINE
8
VORSCHUB
62
0
6
AUSGEZOGEN
10
232.608
20
22.677
11
230.672
21
20.741
0
LINE
8
VORSCHUB
62
0
6
AUSGEZOGEN
10
232.654
20
21.309
11
230.718
21
19.373
0
LINE
8
VORSCHUB
62
0
6
AUSGEZOGEN
10
232.700
20
19.941
11
230.765
21
18.006
0
LINE
8
VORSCHUB
62
0
6
AUSGEZOGEN
10
232.747
20
18.574
11
230.811
21
16.638
0
LINE
8
VORSCHUB
62
0
6
AUSGEZOGEN
10
232.097
20
37.720
11
230.161
21
35.784
0
LINE
8
VORSCHUB
62
0
6
AUSGEZOGEN
10
232.143
20
36.352
11
230.208
21
34.416
0
LINE
8
VORSCHUB
62
0
6
AUSGEZOGEN
10
232.190
20
34.985
11
230.254
21
33.049
0
LINE
8
VORSCHUB
62
0
6
AUSGEZOGEN
10
232.236
20
33.617
11
230.300
21
31.681
0
LINE
8
VORSCHUB
62
0
6
AUSGEZOGEN
10
232.282
20
32.249
11
230.347
21
30.314
0
LINE
8
VORSCHUB
62
0
6
AUSGEZOGEN
10
232.329
20
30.882
11
230.393
21
28.946
0
LINE
8
VORSCHUB
62
0
6
AUSGEZOGEN
10
232.375
20
29.514
11
230.440
21
27.579
0
LINE
8
VORSCHUB
62
0
6
AUSGEZOGEN
10
232.422
20
28.147
11
230.486
21
26.211
0
LINE
8
VORSCHUB
62
0
6
AUSGEZOGEN
10
232.468
20
26.779
11
230.533
21
24.842
0
LINE
8
VORSCHUB
62
0
6
AUSGEZOGEN
10
232.050
20
39.087
11
230.115
21
37.152
0
LINE
8
VORSCHUB
62
0
6
AUSGEZOGEN
10
232.004
20
41.870
11
230.022
21
39.887
0
LINE
8
VORSCHUB
62
0
6
AUSGEZOGEN
10
232.004
20
40.455
11
230.068
21
38.519
0
LINE
8
VORSCHUB
62
0
6
AUSGEZOGEN
10
224.000
20
40.457
11
221.928
21
38.383
0
LINE
8
VORSCHUB
62
0
6
AUSGEZOGEN
10
223.850
20
36.063
11
221.779
21
33.992
0
LINE
8
VORSCHUB
62
0
6
AUSGEZOGEN
10
223.900
20
37.527
11
221.829
21
35.456
0
LINE
8
VORSCHUB
62
0
6
AUSGEZOGEN
10
223.950
20
38.991
11
221.878
21
36.919
0
LINE
8
VORSCHUB
62
0
6
AUSGEZOGEN
10
223.453
20
24.354
11
221.382
21
22.283
0
LINE
8
VORSCHUB
62
0
6
AUSGEZOGEN
10
223.502
20
25.817
11
221.431
21
23.746
0
LINE
8
VORSCHUB
62
0
6
AUSGEZOGEN
10
223.552
20
27.281
11
221.481
21
25.210
0
LINE
8
VORSCHUB
62
0
6
AUSGEZOGEN
10
223.602
20
28.745
11
221.531
21
26.674
0
LINE
8
VORSCHUB
62
0
6
AUSGEZOGEN
10
223.652
20
30.209
11
221.580
21
28.137
0
LINE
8
VORSCHUB
62
0
6
AUSGEZOGEN
10
223.701
20
31.672
11
221.630
21
29.601
0
LINE
8
VORSCHUB
62
0
6
AUSGEZOGEN
10
223.751
20
33.136
11
221.680
21
31.065
0
LINE
8
VORSCHUB
62
0
6
AUSGEZOGEN
10
223.801
20
34.600
11
221.729
21
32.528
0
LINE
8
VORSCHUB
62
0
6
AUSGEZOGEN
10
223.055
20
12.644
11
220.984
21
10.573
0
LINE
8
VORSCHUB
62
0
6
AUSGEZOGEN
10
223.105
20
14.108
11
221.034
21
12.037
0
LINE
8
VORSCHUB
62
0
6
AUSGEZOGEN
10
223.154
20
15.571
11
221.083
21
13.500
0
LINE
8
VORSCHUB
62
0
6
AUSGEZOGEN
10
223.204
20
17.035
11
221.133
21
14.964
0
LINE
8
VORSCHUB
62
0
6
AUSGEZOGEN
10
223.403
20
22.890
11
221.332
21
20.819
0
LINE
8
VORSCHUB
62
0
6
AUSGEZOGEN
10
223.353
20
21.426
11
221.282
21
19.355
0
LINE
8
VORSCHUB
62
0
6
AUSGEZOGEN
10
223.304
20
19.963
11
221.232
21
17.891
0
LINE
8
VORSCHUB
62
0
6
AUSGEZOGEN
10
223.254
20
18.499
11
221.183
21
16.428
0
LINE
8
VORSCHUB
62
0
6
AUSGEZOGEN
10
223.005
20
11.180
11
220.934
21
9.109
0
LINE
8
VORSCHUB
62
0
6
AUSGEZOGEN
10
222.956
20
9.717
11
220.885
21
7.646
0
LINE
8
VORSCHUB
62
0
6
AUSGEZOGEN
10
222.906
20
8.253
11
220.835
21
6.182
0
LINE
8
VORSCHUB
62
0
6
AUSGEZOGEN
10
222.856
20
6.789
11
220.785
21
4.718
0
LINE
8
VORSCHUB
62
0
6
AUSGEZOGEN
10
222.806
20
5.325
11
220.736
21
3.255
0
LINE
8
VORSCHUB
62
0
6
AUSGEZOGEN
10
222.757
20
3.862
11
220.686
21
1.791
0
LINE
8
VORSCHUB
62
0
6
AUSGEZOGEN
10
222.707
20
2.398
11
220.636
21
0.327
0
LINE
8
VORSCHUB
62
0
6
AUSGEZOGEN
10
222.657
20
0.934
11
220.264
21
-1.459
0
LINE
8
VORSCHUB
62
0
6
AUSGEZOGEN
10
222.608
20
-0.529
11
219.264
21
-3.873
0
LINE
8
VORSCHUB
62
0
6
AUSGEZOGEN
10
223.204
20
-1.348
11
218.264
21
-6.287
0
LINE
8
VORSCHUB
62
0
6
AUSGEZOGEN
10
223.887
20
-2.079
11
217.330
21
-8.635
0
LINE
8
VORSCHUB
62
0
6
AUSGEZOGEN
10
224.248
20
-3.131
11
217.281
21
-10.098
0
LINE
8
VORSCHUB
62
0
6
AUSGEZOGEN
10
224.199
20
-4.594
11
217.231
21
-11.562
0
LINE
8
VORSCHUB
62
0
6
AUSGEZOGEN
10
224.150
20
-6.057
11
217.182
21
-13.025
0
LINE
8
VORSCHUB
62
0
6
AUSGEZOGEN
10
224.101
20
-7.520
11
217.132
21
-14.489
0
LINE
8
VORSCHUB
62
0
6
AUSGEZOGEN
10
224.053
20
-8.982
11
217.083
21
-15.952
0
LINE
8
VORSCHUB
62
0
6
AUSGEZOGEN
10
224.004
20
-10.445
11
217.033
21
-17.416
0
LINE
8
VORSCHUB
62
0
6
AUSGEZOGEN
10
223.955
20
-11.908
11
217.162
21
-18.702
0
LINE
8
VORSCHUB
62
0
6
AUSGEZOGEN
10
223.906
20
-13.371
11
217.844
21
-19.434
0
LINE
8
VORSCHUB
62
0
6
AUSGEZOGEN
10
223.857
20
-14.834
11
218.527
21
-20.165
0
LINE
8
VORSCHUB
62
0
6
AUSGEZOGEN
10
223.808
20
-16.297
11
219.498
21
-20.606
0
LINE
8
VORSCHUB
62
0
6
AUSGEZOGEN
10
223.710
20
-19.222
11
222.231
21
-20.701
0
LINE
8
VORSCHUB
62
0
6
AUSGEZOGEN
10
223.759
20
-17.760
11
220.864
21
-20.654
0
LINE
8
VORSCHUB
62
0
6
AUSGEZOGEN
10
223.662
20
-20.684
11
223.598
21
-20.748
0
LINE
8
VORSCHUB
62
0
6
AUSGEZOGEN
10
62.005
20
51.703
11
60.005
21
49.703
0
LINE
8
VORSCHUB
62
0
6
AUSGEZOGEN
10
65.002
20
-7.516
11
61.518
21
-11.000
0
LINE
8
VORSCHUB
62
0
6
AUSGEZOGEN
10
65.002
20
-4.688
11
58.692
21
-10.998
0
LINE
8
VORSCHUB
62
0
6
AUSGEZOGEN
10
65.002
20
-3.274
11
58.267
21
-10.009
0
LINE
8
VORSCHUB
62
0
6
AUSGEZOGEN
10
65.002
20
-1.860
11
58.268
21
-8.594
0
LINE
8
VORSCHUB
62
0
6
AUSGEZOGEN
10
65.002
20
-6.102
11
60.103
21
-11.001
0
LINE
8
VORSCHUB
62
0
6
AUSGEZOGEN
10
65.002
20
-0.446
11
58.269
21
-7.179
0
LINE
8
VORSCHUB
62
0
6
AUSGEZOGEN
10
65.002
20
0.968
11
58.269
21
-5.765
0
LINE
8
VORSCHUB
62
0
6
AUSGEZOGEN
10
64.626
20
2.005
11
58.270
21
-4.350
0
LINE
8
VORSCHUB
62
0
6
AUSGEZOGEN
10
64.240
20
3.033
11
58.271
21
-2.935
0
LINE
8
VORSCHUB
62
0
6
AUSGEZOGEN
10
63.855
20
4.062
11
58.272
21
-1.520
0
LINE
8
VORSCHUB
62
0
6
AUSGEZOGEN
10
63.469
20
5.090
11
58.272
21
-0.106
0
LINE
8
VORSCHUB
62
0
6
AUSGEZOGEN
10
63.084
20
6.118
11
58.273
21
1.309
0
LINE
8
VORSCHUB
62
0
6
AUSGEZOGEN
10
62.698
20
7.147
11
58.274
21
2.724
0
LINE
8
VORSCHUB
62
0
6
AUSGEZOGEN
10
62.312
20
8.175
11
58.275
21
4.139
0
LINE
8
VORSCHUB
62
0
6
AUSGEZOGEN
10
62.005
20
9.283
11
58.276
21
5.554
0
LINE
8
VORSCHUB
62
0
6
AUSGEZOGEN
10
62.005
20
10.697
11
58.276
21
6.968
0
LINE
8
VORSCHUB
62
0
6
AUSGEZOGEN
10
62.005
20
12.111
11
60.005
21
10.111
0
LINE
8
VORSCHUB
62
0
6
AUSGEZOGEN
10
62.005
20
13.525
11
60.005
21
11.525
0
LINE
8
VORSCHUB
62
0
6
AUSGEZOGEN
10
62.005
20
14.939
11
60.005
21
12.939
0
LINE
8
VORSCHUB
62
0
6
AUSGEZOGEN
10
62.005
20
16.353
11
60.005
21
14.353
0
LINE
8
VORSCHUB
62
0
6
AUSGEZOGEN
10
62.005
20
17.767
11
60.005
21
15.767
0
LINE
8
VORSCHUB
62
0
6
AUSGEZOGEN
10
62.005
20
19.181
11
60.005
21
17.181
0
LINE
8
VORSCHUB
62
0
6
AUSGEZOGEN
10
62.005
20
20.595
11
60.005
21
18.595
0
LINE
8
VORSCHUB
62
0
6
AUSGEZOGEN
10
62.005
20
22.009
11
60.005
21
20.009
0
LINE
8
VORSCHUB
62
0
6
AUSGEZOGEN
10
62.005
20
23.423
11
60.005
21
21.423
0
LINE
8
VORSCHUB
62
0
6
AUSGEZOGEN
10
62.005
20
24.837
11
60.005
21
22.837
0
LINE
8
VORSCHUB
62
0
6
AUSGEZOGEN
10
62.005
20
26.251
11
60.005
21
24.251
0
LINE
8
VORSCHUB
62
0
6
AUSGEZOGEN
10
62.005
20
27.665
11
60.005
21
25.665
0
LINE
8
VORSCHUB
62
0
6
AUSGEZOGEN
10
62.005
20
29.079
11
60.005
21
27.079
0
LINE
8
VORSCHUB
62
0
6
AUSGEZOGEN
10
62.005
20
30.493
11
60.005
21
28.493
0
LINE
8
VORSCHUB
62
0
6
AUSGEZOGEN
10
62.005
20
31.907
11
60.005
21
29.907
0
LINE
8
VORSCHUB
62
0
6
AUSGEZOGEN
10
62.005
20
33.321
11
60.005
21
31.321
0
LINE
8
VORSCHUB
62
0
6
AUSGEZOGEN
10
62.005
20
34.735
11
60.005
21
32.735
0
LINE
8
VORSCHUB
62
0
6
AUSGEZOGEN
10
62.005
20
36.149
11
60.005
21
34.149
0
LINE
8
VORSCHUB
62
0
6
AUSGEZOGEN
10
62.005
20
37.563
11
60.005
21
35.563
0
LINE
8
VORSCHUB
62
0
6
AUSGEZOGEN
10
62.005
20
38.977
11
60.005
21
36.977
0
LINE
8
VORSCHUB
62
0
6
AUSGEZOGEN
10
62.005
20
40.391
11
60.005
21
38.391
0
LINE
8
VORSCHUB
62
0
6
AUSGEZOGEN
10
62.005
20
41.805
11
60.005
21
39.805
0
LINE
8
VORSCHUB
62
0
6
AUSGEZOGEN
10
62.005
20
43.219
11
60.005
21
41.219
0
LINE
8
VORSCHUB
62
0
6
AUSGEZOGEN
10
62.005
20
44.633
11
60.005
21
42.633
0
LINE
8
VORSCHUB
62
0
6
AUSGEZOGEN
10
62.005
20
46.047
11
60.005
21
44.047
0
LINE
8
VORSCHUB
62
0
6
AUSGEZOGEN
10
62.005
20
47.461
11
60.005
21
45.461
0
LINE
8
VORSCHUB
62
0
6
AUSGEZOGEN
10
62.005
20
48.875
11
60.005
21
46.875
0
LINE
8
VORSCHUB
62
0
6
AUSGEZOGEN
10
62.005
20
50.289
11
60.005
21
48.289
0
LINE
8
VORSCHUB
62
0
6
AUSGEZOGEN
10
62.005
20
53.117
11
60.005
21
51.117
0
LINE
8
VORSCHUB
62
0
6
AUSGEZOGEN
10
62.005
20
54.531
11
60.005
21
52.531
0
LINE
8
VORSCHUB
62
0
6
AUSGEZOGEN
10
62.005
20
55.944
11
60.005
21
53.944
0
LINE
8
VORSCHUB
62
0
6
AUSGEZOGEN
10
62.005
20
57.358
11
60.005
21
55.358
0
LINE
8
VORSCHUB
62
0
6
AUSGEZOGEN
10
62.005
20
58.772
11
60.005
21
56.772
0
LINE
8
VORSCHUB
62
0
6
AUSGEZOGEN
10
62.005
20
60.186
11
60.005
21
58.186
0
LINE
8
VORSCHUB
62
0
6
AUSGEZOGEN
10
61.404
20
60.999
11
60.005
21
59.600
0
LINE
8
VORSCHUB
62
0
6
AUSGEZOGEN
10
55.738
20
-10.191
11
54.930
21
-10.999
0
LINE
8
VORSCHUB
62
0
6
AUSGEZOGEN
10
55.737
20
-8.778
11
53.515
21
-11.000
0
LINE
8
VORSCHUB
62
0
6
AUSGEZOGEN
10
55.737
20
-7.364
11
52.100
21
-11.001
0
LINE
8
VORSCHUB
62
0
6
AUSGEZOGEN
10
55.736
20
-5.951
11
50.846
21
-10.841
0
LINE
8
VORSCHUB
62
0
6
AUSGEZOGEN
10
55.735
20
-4.538
11
50.139
21
-10.134
0
LINE
8
VORSCHUB
62
0
6
AUSGEZOGEN
10
55.735
20
-3.124
11
49.432
21
-9.427
0
LINE
8
VORSCHUB
62
0
6
AUSGEZOGEN
10
55.734
20
-1.711
11
49.002
21
-8.443
0
LINE
8
VORSCHUB
62
0
6
AUSGEZOGEN
10
55.733
20
-0.298
11
49.002
21
-7.029
0
LINE
8
VORSCHUB
62
0
6
AUSGEZOGEN
10
55.733
20
1.116
11
49.002
21
-5.615
0
LINE
8
VORSCHUB
62
0
6
AUSGEZOGEN
10
55.732
20
2.529
11
49.002
21
-4.201
0
LINE
8
VORSCHUB
62
0
6
AUSGEZOGEN
10
55.731
20
3.942
11
49.002
21
-2.787
0
LINE
8
VORSCHUB
62
0
6
AUSGEZOGEN
10
55.730
20
5.355
11
49.002
21
-1.373
0
LINE
8
VORSCHUB
62
0
6
AUSGEZOGEN
10
55.730
20
6.769
11
49.002
21
0.041
0
LINE
8
VORSCHUB
62
0
6
AUSGEZOGEN
10
55.275
20
7.728
11
49.273
21
1.726
0
LINE
8
VORSCHUB
62
0
6
AUSGEZOGEN
10
54.568
20
8.435
11
50.122
21
3.989
0
LINE
8
VORSCHUB
62
0
6
AUSGEZOGEN
10
54.002
20
9.283
11
50.970
21
6.251
0
LINE
8
VORSCHUB
62
0
6
AUSGEZOGEN
10
54.002
20
10.697
11
51.819
21
8.514
0
LINE
8
VORSCHUB
62
0
6
AUSGEZOGEN
10
54.002
20
12.111
11
52.002
21
10.111
0
LINE
8
VORSCHUB
62
0
6
AUSGEZOGEN
10
54.002
20
13.525
11
52.002
21
11.525
0
LINE
8
VORSCHUB
62
0
6
AUSGEZOGEN
10
54.002
20
14.939
11
52.002
21
12.939
0
LINE
8
VORSCHUB
62
0
6
AUSGEZOGEN
10
54.002
20
16.353
11
52.002
21
14.353
0
LINE
8
VORSCHUB
62
0
6
AUSGEZOGEN
10
54.002
20
17.767
11
52.002
21
15.767
0
LINE
8
VORSCHUB
62
0
6
AUSGEZOGEN
10
54.002
20
19.181
11
52.002
21
17.181
0
LINE
8
VORSCHUB
62
0
6
AUSGEZOGEN
10
54.002
20
20.595
11
52.002
21
18.595
0
LINE
8
VORSCHUB
62
0
6
AUSGEZOGEN
10
54.002
20
22.009
11
52.002
21
20.009
0
LINE
8
VORSCHUB
62
0
6
AUSGEZOGEN
10
54.002
20
23.423
11
52.002
21
21.423
0
LINE
8
VORSCHUB
62
0
6
AUSGEZOGEN
10
54.002
20
24.837
11
52.002
21
22.837
0
LINE
8
VORSCHUB
62
0
6
AUSGEZOGEN
10
54.002
20
26.251
11
52.002
21
24.251
0
LINE
8
VORSCHUB
62
0
6
AUSGEZOGEN
10
54.002
20
27.665
11
52.002
21
25.665
0
LINE
8
VORSCHUB
62
0
6
AUSGEZOGEN
10
54.002
20
29.079
11
52.002
21
27.079
0
LINE
8
VORSCHUB
62
0
6
AUSGEZOGEN
10
54.002
20
30.493
11
52.002
21
28.493
0
LINE
8
VORSCHUB
62
0
6
AUSGEZOGEN
10
54.002
20
31.907
11
52.002
21
29.907
0
LINE
8
VORSCHUB
62
0
6
AUSGEZOGEN
10
54.002
20
33.321
11
52.002
21
31.321
0
LINE
8
VORSCHUB
62
0
6
AUSGEZOGEN
10
54.002
20
34.735
11
52.002
21
32.735
0
LINE
8
VORSCHUB
62
0
6
AUSGEZOGEN
10
54.002
20
36.149
11
52.002
21
34.149
0
LINE
8
VORSCHUB
62
0
6
AUSGEZOGEN
10
54.002
20
37.563
11
52.002
21
35.563
0
LINE
8
VORSCHUB
62
0
6
AUSGEZOGEN
10
54.002
20
38.977
11
52.002
21
36.977
0
LINE
8
VORSCHUB
62
0
6
AUSGEZOGEN
10
54.002
20
40.391
11
52.002
21
38.391
0
LINE
8
VORSCHUB
62
0
6
AUSGEZOGEN
10
54.002
20
41.805
11
52.002
21
39.805
0
LINE
8
VORSCHUB
62
0
6
AUSGEZOGEN
10
54.002
20
43.219
11
52.002
21
41.219
0
LINE
8
VORSCHUB
62
0
6
AUSGEZOGEN
10
54.002
20
44.633
11
52.002
21
42.633
0
LINE
8
VORSCHUB
62
0
6
AUSGEZOGEN
10
54.002
20
46.047
11
52.002
21
44.047
0
LINE
8
VORSCHUB
62
0
6
AUSGEZOGEN
10
54.002
20
47.461
11
52.002
21
45.461
0
LINE
8
VORSCHUB
62
0
6
AUSGEZOGEN
10
54.002
20
48.875
11
52.002
21
46.875
0
LINE
8
VORSCHUB
62
0
6
AUSGEZOGEN
10
54.002
20
50.289
11
52.002
21
48.289
0
LINE
8
VORSCHUB
62
0
6
AUSGEZOGEN
10
54.002
20
51.703
11
52.002
21
49.703
0
LINE
8
VORSCHUB
62
0
6
AUSGEZOGEN
10
54.002
20
53.117
11
52.002
21
51.117
0
LINE
8
VORSCHUB
62
0
6
AUSGEZOGEN
10
54.002
20
54.531
11
52.002
21
52.531
0
LINE
8
VORSCHUB
62
0
6
AUSGEZOGEN
10
54.002
20
55.944
11
52.002
21
53.944
0
LINE
8
VORSCHUB
62
0
6
AUSGEZOGEN
10
54.002
20
57.358
11
52.002
21
55.358
0
LINE
8
VORSCHUB
62
0
6
AUSGEZOGEN
10
54.002
20
58.772
11
52.002
21
56.772
0
LINE
8
VORSCHUB
62
0
6
AUSGEZOGEN
10
54.002
20
60.186
11
52.002
21
58.186
0
LINE
8
VORSCHUB
62
0
6
AUSGEZOGEN
10
53.401
20
60.999
11
52.002
21
59.600
0
LINE
8
VORSCHUB
62
0
6
AUSGEZOGEN
10
56.252
20
-10.999
11
56.251
21
50.241
0
ARC
8
VORSCHUB
62
0
6
AUSGEZOGEN
10
57.001
20
50.245
40
0.750
50
0.076
51
180.342
0
LINE
8
VORSCHUB
62
0
6
AUSGEZOGEN
10
57.754
20
-10.999
11
57.753
21
50.246
0
LINE
8
VORSCHUB
62
0
6
AUSGEZOGEN
10
55.729
20
7.273
11
56.251
21
7.274
0
LINE
8
VORSCHUB
62
0
6
AUSGEZOGEN
10
54.002
20
9.000
11
56.251
21
9.001
0
LINE
8
VORSCHUB
62
0
6
AUSGEZOGEN
10
57.753
20
7.275
11
58.276
21
7.275
0
LINE
8
VORSCHUB
62
0
6
AUSGEZOGEN
10
57.753
20
9.001
11
60.002
21
9.001
0
LINE
8
VORSCHUB
62
0
6
AUSGEZOGEN
10
57.754
20
-10.999
11
63.007
21
-10.996
0
LINE
8
VORSCHUB
62
0
6
AUSGEZOGEN
10
51.005
20
-11.002
11
56.252
21
-10.999
0
LINE
8
VORSCHUB
62
0
6
AUSGEZOGEN
10
52.001
20
60.998
11
52.001
21
9.000
0
LINE
8
VORSCHUB
62
0
6
AUSGEZOGEN
10
62.003
20
60.998
11
62.003
21
8.999
0
LINE
8
VORSCHUB
62
0
6
AUSGEZOGEN
10
62.003
20
8.999
11
65.003
21
0.999
0
LINE
8
VORSCHUB
62
0
6
AUSGEZOGEN
10
65.003
20
0.999
11
65.002
21
-9.001
0
LINE
8
VORSCHUB
62
0
6
AUSGEZOGEN
10
49.001
20
1.001
11
49.002
21
-8.999
0
LINE
8
VORSCHUB
62
0
6
AUSGEZOGEN
10
52.001
20
9.000
11
49.001
21
1.001
0
LINE
8
VORSCHUB
62
0
6
AUSGEZOGEN
10
49.002
20
-8.999
11
51.005
21
-11.002
0
LINE
8
VORSCHUB
62
0
6
AUSGEZOGEN
10
60.003
20
60.998
11
60.003
21
8.999
0
LINE
8
VORSCHUB
62
0
6
AUSGEZOGEN
10
54.001
20
60.998
11
54.002
21
8.999
0
LINE
8
VORSCHUB
62
0
6
AUSGEZOGEN
10
65.002
20
-9.001
11
63.007
21
-10.996
0
LINE
8
VORSCHUB
62
0
6
AUSGEZOGEN
10
58.266
20
-10.997
11
58.276
21
7.275
0
LINE
8
VORSCHUB
62
0
6
AUSGEZOGEN
10
60.001
20
9.000
11
58.276
21
7.275
0
LINE
8
VORSCHUB
62
0
6
AUSGEZOGEN
10
55.738
20
-10.999
11
55.729
21
7.273
0
LINE
8
VORSCHUB
62
0
6
AUSGEZOGEN
10
54.003
20
8.999
11
55.729
21
7.273
0
LINE
8
VORSCHUB
62
0
6
AUSGEZOGEN
10
29.999
20
60.999
11
72.000
21
60.997
0
ARC
8
VORSCHUB
62
0
6
AUSGEZOGEN
10
38.001
20
10.998
40
8.002
50
139.105
51
180.037
0
ARC
8
VORSCHUB
62
0
6
AUSGEZOGEN
10
38.000
20
125.999
40
8.000
50
180.037
51
220.962
0
LINE
8
VORSCHUB
62
0
6
AUSGEZOGEN
10
45.002
20
46.209
11
44.789
21
45.997
0
LINE
8
VORSCHUB
62
0
6
AUSGEZOGEN
10
42.003
20
60.178
11
42.824
21
60.999
0
LINE
8
VORSCHUB
62
0
6
AUSGEZOGEN
10
47.066
20
60.999
11
42.003
21
55.936
0
LINE
8
VORSCHUB
62
0
6
AUSGEZOGEN
10
51.306
20
60.997
11
42.003
21
51.694
0
LINE
8
VORSCHUB
62
0
6
AUSGEZOGEN
10
45.003
20
50.452
11
42.003
21
47.452
0
LINE
8
VORSCHUB
62
0
6
AUSGEZOGEN
10
52.000
20
57.449
11
48.548
21
53.997
0
LINE
8
VORSCHUB
62
0
6
AUSGEZOGEN
10
52.002
20
-27.319
11
36.005
21
-11.340
0
LINE
8
VORSCHUB
62
0
6
AUSGEZOGEN
10
52.002
20
-34.407
11
38.125
21
-20.530
0
LINE
8
VORSCHUB
62
0
6
AUSGEZOGEN
10
42.002
20
10.951
11
35.005
21
17.944
0
LINE
8
VORSCHUB
62
0
6
AUSGEZOGEN
10
42.002
20
3.879
11
35.005
21
10.873
0
LINE
8
VORSCHUB
62
0
6
AUSGEZOGEN
10
46.644
20
-0.759
11
45.890
21
-0.006
0
LINE
8
VORSCHUB
62
0
6
AUSGEZOGEN
10
47.002
20
-8.188
11
35.005
21
3.802
0
LINE
8
VORSCHUB
62
0
6
AUSGEZOGEN
10
47.002
20
-15.259
11
37.463
21
-5.726
0
LINE
8
VORSCHUB
62
0
6
AUSGEZOGEN
10
40.246
20
-29.720
11
54.250
21
-43.715
0
LINE
8
VORSCHUB
62
0
6
AUSGEZOGEN
10
42.365
20
-38.909
11
54.250
21
-50.786
0
LINE
8
VORSCHUB
62
0
6
AUSGEZOGEN
10
44.485
20
-48.098
11
54.250
21
-57.857
0
LINE
8
VORSCHUB
62
0
6
AUSGEZOGEN
10
46.605
20
-57.287
11
54.250
21
-64.928
0
LINE
8
VORSCHUB
62
0
6
AUSGEZOGEN
10
48.724
20
-66.475
11
52.961
21
-70.710
0
LINE
8
VORSCHUB
62
0
6
AUSGEZOGEN
10
30.000
20
100.992
11
21.129
21
109.858
0
LINE
8
VORSCHUB
62
0
6
AUSGEZOGEN
10
20.994
20
10.999
11
20.006
21
11.987
0
LINE
8
VORSCHUB
62
0
6
AUSGEZOGEN
10
20.208
20
18.855
11
28.070
21
10.999
0
LINE
8
VORSCHUB
62
0
6
AUSGEZOGEN
10
20.720
20
25.415
11
29.998
21
16.143
0
LINE
8
VORSCHUB
62
0
6
AUSGEZOGEN
10
22.011
20
31.195
11
29.998
21
23.214
0
LINE
8
VORSCHUB
62
0
6
AUSGEZOGEN
10
23.098
20
37.180
11
29.998
21
30.285
0
LINE
8
VORSCHUB
62
0
6
AUSGEZOGEN
10
23.964
20
43.386
11
29.998
21
37.356
0
LINE
8
VORSCHUB
62
0
6
AUSGEZOGEN
10
24.585
20
49.836
11
29.998
21
44.427
0
LINE
8
VORSCHUB
62
0
6
AUSGEZOGEN
10
24.935
20
56.558
11
29.998
21
51.498
0
LINE
8
VORSCHUB
62
0
6
AUSGEZOGEN
10
25.000
20
63.563
11
29.998
21
58.569
0
LINE
8
VORSCHUB
62
0
6
AUSGEZOGEN
10
25.000
20
70.634
11
34.642
21
60.999
0
LINE
8
VORSCHUB
62
0
6
AUSGEZOGEN
10
24.991
20
77.715
11
41.718
21
60.999
0
LINE
8
VORSCHUB
62
0
6
AUSGEZOGEN
10
33.784
20
75.999
11
48.794
21
60.999
0
LINE
8
VORSCHUB
62
0
6
AUSGEZOGEN
10
24.727
20
85.049
11
29.999
21
79.781
0
LINE
8
VORSCHUB
62
0
6
AUSGEZOGEN
10
40.860
20
75.999
11
53.932
21
62.935
0
LINE
8
VORSCHUB
62
0
6
AUSGEZOGEN
10
24.058
20
92.789
11
29.999
21
86.852
0
LINE
8
VORSCHUB
62
0
6
AUSGEZOGEN
10
47.936
20
75.999
11
53.999
21
69.939
0
LINE
8
VORSCHUB
62
0
6
AUSGEZOGEN
10
22.899
20
101.018
11
29.999
21
93.923
0
LINE
8
VORSCHUB
62
0
6
AUSGEZOGEN
10
20.223
20
117.833
11
29.999
21
108.064
0
LINE
8
VORSCHUB
62
0
6
AUSGEZOGEN
10
20.004
20
125.122
11
29.999
21
115.133
0
LINE
8
VORSCHUB
62
0
6
AUSGEZOGEN
10
26.201
20
125.998
11
29.999
21
122.203
0
LINE
8
VORSCHUB
62
0
6
AUSGEZOGEN
10
35.004
20
-5.021
11
33.512
21
-6.513
0
LINE
8
VORSCHUB
62
0
6
AUSGEZOGEN
10
35.004
20
2.051
11
32.001
21
-0.951
0
LINE
8
VORSCHUB
62
0
6
AUSGEZOGEN
10
35.004
20
16.192
11
32.001
21
13.190
0
LINE
8
VORSCHUB
62
0
6
AUSGEZOGEN
10
50.501
20
24.619
11
45.002
21
19.120
0
LINE
8
VORSCHUB
62
0
6
AUSGEZOGEN
10
50.501
20
17.548
11
48.949
21
15.996
0
LINE
8
VORSCHUB
62
0
6
AUSGEZOGEN
10
35.005
20
9.124
11
32.002
21
6.121
0
LINE
8
VORSCHUB
62
0
6
AUSGEZOGEN
10
49.809
20
30.998
11
39.809
21
20.998
0
LINE
8
VORSCHUB
62
0
6
AUSGEZOGEN
10
43.281
20
31.542
11
32.002
21
20.263
0
LINE
8
VORSCHUB
62
0
6
AUSGEZOGEN
10
42.003
20
37.336
11
32.002
21
27.335
0
LINE
8
VORSCHUB
62
0
6
AUSGEZOGEN
10
42.003
20
44.408
11
32.002
21
34.407
0
LINE
8
VORSCHUB
62
0
6
AUSGEZOGEN
10
41.382
20
50.859
11
32.002
21
41.479
0
LINE
8
VORSCHUB
62
0
6
AUSGEZOGEN
10
34.451
20
51.000
11
32.002
21
48.551
0
LINE
8
VORSCHUB
62
0
6
AUSGEZOGEN
10
54.253
20
-67.028
11
52.502
21
-72.022
0
LINE
8
VORSCHUB
62
0
6
AUSGEZOGEN
10
59.753
20
-67.029
11
61.504
21
-72.023
0
LINE
8
VORSCHUB
62
0
6
AUSGEZOGEN
10
52.001
20
-22.005
11
52.002
21
-39.940
0
ARC
8
VORSCHUB
62
0
6
AUSGEZOGEN
10
53.999
20
-40.003
40
1.998
50
178.229
51
271.863
0
LINE
8
VORSCHUB
62
0
6
AUSGEZOGEN
10
62.003
20
-22.005
11
62.002
21
-39.938
0
ARC
8
VORSCHUB
62
0
6
AUSGEZOGEN
10
60.004
20
-40.001
40
1.999
50
270.027
51
361.880
0
LINE
8
VORSCHUB
62
0
6
AUSGEZOGEN
10
54.251
20
-42.001
11
54.062
21
-42.000
0
LINE
8
VORSCHUB
62
0
6
AUSGEZOGEN
10
60.003
20
-42.000
11
59.753
21
-42.000
0
ARC
8
VORSCHUB
62
0
6
AUSGEZOGEN
10
52.252
20
-42.000
40
2.000
50
0.028
51
97.198
0
ARC
8
VORSCHUB
62
0
6
AUSGEZOGEN
10
61.754
20
-42.001
40
2.000
50
82.895
51
180.008
0
LINE
8
VORSCHUB
62
0
6
AUSGEZOGEN
10
54.251
20
-41.999
11
54.251
21
-91.025
0
LINE
8
VORSCHUB
62
0
6
AUSGEZOGEN
10
59.753
20
-42.000
11
59.753
21
-91.029
0
ARC
8
VORSCHUB
62
0
6
AUSGEZOGEN
10
52.253
20
-42.005
40
3.000
50
0.019
51
90.018
0
LINE
8
VORSCHUB
62
0
6
AUSGEZOGEN
10
55.251
20
-42.004
11
55.252
21
-92.023
0
ARC
8
VORSCHUB
62
0
6
AUSGEZOGEN
10
61.752
20
-42.005
40
3.000
50
90.018
51
180.018
0
LINE
8
VORSCHUB
62
0
6
AUSGEZOGEN
10
58.753
20
-42.004
11
58.752
21
-92.027
0
LINE
8
VORSCHUB
62
0
6
AUSGEZOGEN
10
55.253
20
-92.031
11
58.754
21
-92.028
0
LINE
8
VORSCHUB
62
0
6
AUSGEZOGEN
10
50.006
20
-72.035
11
54.251
21
-72.032
0
ARC
8
VORSCHUB
62
0
6
AUSGEZOGEN
10
55.251
20
-91.025
40
1.000
50
180.037
51
269.998
0
ARC
8
VORSCHUB
62
0
6
AUSGEZOGEN
10
58.753
20
-91.029
40
1.000
50
270.113
51
360.074
0
LINE
8
VORSCHUB
62
0
6
AUSGEZOGEN
10
59.752
20
-72.026
11
64.002
21
-72.021
0
LINE
8
VORSCHUB
62
0
6
AUSGEZOGEN
10
52.002
20
-39.005
11
62.002
21
-39.006
0
LINE
8
VORSCHUB
62
0
6
AUSGEZOGEN
10
55.751
20
-22.005
11
55.751
21
-39.005
0
LINE
8
VORSCHUB
62
0
6
AUSGEZOGEN
10
51.002
20
-22.005
11
52.002
21
-26.001
0
LINE
8
VORSCHUB
62
0
6
AUSGEZOGEN
10
63.002
20
-22.005
11
62.002
21
-26.001
0
LINE
8
VORSCHUB
62
0
6
AUSGEZOGEN
10
58.253
20
-22.005
11
58.253
21
-39.006
0
LINE
8
VORSCHUB
62
0
6
AUSGEZOGEN
10
50.006
20
-72.035
11
35.006
21
-7.007
0
LINE
8
VORSCHUB
62
0
6
AUSGEZOGEN
10
64.002
20
-72.021
11
78.999
21
-7.007
0
LINE
8
VORSCHUB
62
0
6
AUSGEZOGEN
10
50.080
20
-22.005
11
64.000
21
-22.005
0
ARC
8
VORSCHUB
62
0
6
AUSGEZOGEN
10
50.002
20
-19.006
40
3.000
50
180.018
51
270.074
0
LINE
8
VORSCHUB
62
0
6
AUSGEZOGEN
10
47.001
20
-0.008
11
47.002
21
-19.005
0
LINE
8
VORSCHUB
62
0
6
AUSGEZOGEN
10
67.002
20
-0.006
11
67.001
21
-19.005
0
ARC
8
VORSCHUB
62
0
6
AUSGEZOGEN
10
64.001
20
-19.006
40
3.000
50
270.036
51
360.093
0
LINE
8
VORSCHUB
62
0
6
AUSGEZOGEN
10
32.001
20
-5.002
11
34.004
21
-7.005
0
LINE
8
VORSCHUB
62
0
6
AUSGEZOGEN
10
32.002
20
61.000
11
32.001
21
-5.002
0
LINE
8
VORSCHUB
62
0
6
AUSGEZOGEN
10
49.000
20
-0.005
11
45.002
21
-0.005
0
LINE
8
VORSCHUB
62
0
6
AUSGEZOGEN
10
45.001
20
20.998
11
45.002
21
15.997
0
ARC
8
VORSCHUB
62
0
6
AUSGEZOGEN
10
45.001
20
2.993
40
3.000
50
180.018
51
270.074
0
ARC
8
VORSCHUB
62
0
6
AUSGEZOGEN
10
45.000
20
5.995
40
1.000
50
179.979
51
270.113
0
LINE
8
VORSCHUB
62
0
6
AUSGEZOGEN
10
44.002
20
14.997
11
44.002
21
5.996
0
ARC
8
VORSCHUB
62
0
6
AUSGEZOGEN
10
45.001
20
14.996
40
1.000
50
89.961
51
179.979
0
LINE
8
VORSCHUB
62
0
6
AUSGEZOGEN
10
42.001
20
17.994
11
42.002
21
2.994
0
LINE
8
VORSCHUB
62
0
6
AUSGEZOGEN
10
45.002
20
17.993
11
35.004
21
17.993
0
LINE
8
VORSCHUB
62
0
6
AUSGEZOGEN
10
45.001
20
20.998
11
38.067
21
20.997
0
ARC
8
VORSCHUB
62
0
6
AUSGEZOGEN
10
38.003
20
17.998
40
3.000
50
88.795
51
180.132
0
ARC
8
VORSCHUB
62
0
6
AUSGEZOGEN
10
38.003
20
17.998
40
3.000
50
180.132
51
270.074
0
LINE
8
VORSCHUB
62
0
6
AUSGEZOGEN
10
35.004
20
-7.006
11
34.004
21
-7.005
0
ARC
8
VORSCHUB
62
0
6
AUSGEZOGEN
10
35.004
20
-4.007
40
3.000
50
270.055
51
450.092
0
LINE
8
VORSCHUB
62
0
6
AUSGEZOGEN
10
38.003
20
17.994
11
38.004
21
-3.960
0
LINE
8
VORSCHUB
62
0
6
AUSGEZOGEN
10
35.004
20
17.975
11
35.004
21
-7.006
0
LINE
8
VORSCHUB
62
0
6
AUSGEZOGEN
10
78.999
20
17.975
11
78.999
21
-7.007
0
LINE
8
VORSCHUB
62
0
6
AUSGEZOGEN
10
76.000
20
17.994
11
75.999
21
-3.961
0
ARC
8
VORSCHUB
62
0
6
AUSGEZOGEN
10
78.999
20
-4.008
40
3.000
50
90.018
51
270.055
0
LINE
8
VORSCHUB
62
0
6
AUSGEZOGEN
10
78.999
20
-7.007
11
79.999
21
-7.006
0
LINE
8
VORSCHUB
62
0
6
AUSGEZOGEN
10
82.000
20
-5.005
11
79.999
21
-7.006
0
LINE
8
VORSCHUB
62
0
6
AUSGEZOGEN
10
82.002
20
141.000
11
82.000
21
-5.005
0
ARC
8
VORSCHUB
62
0
6
AUSGEZOGEN
10
76.000
20
17.998
40
3.000
50
270.036
51
359.978
0
ARC
8
VORSCHUB
62
0
6
AUSGEZOGEN
10
76.000
20
17.998
40
3.000
50
359.978
51
451.315
0
LINE
8
VORSCHUB
62
0
6
AUSGEZOGEN
10
69.002
20
20.998
11
75.936
21
20.997
0
LINE
8
VORSCHUB
62
0
6
AUSGEZOGEN
10
69.001
20
17.993
11
78.999
21
17.993
0
LINE
8
VORSCHUB
62
0
6
AUSGEZOGEN
10
72.002
20
17.994
11
72.001
21
2.993
0
LINE
8
VORSCHUB
62
0
6
AUSGEZOGEN
10
45.000
20
5.002
11
50.501
21
5.000
0
LINE
8
VORSCHUB
62
0
6
AUSGEZOGEN
10
45.000
20
15.997
11
52.001
21
15.996
0
ARC
8
VORSCHUB
62
0
6
AUSGEZOGEN
10
69.002
20
14.996
40
1.000
50
0.057
51
90.075
0
LINE
8
VORSCHUB
62
0
6
AUSGEZOGEN
10
62.003
20
15.996
11
69.001
21
15.996
0
LINE
8
VORSCHUB
62
0
6
AUSGEZOGEN
10
70.001
20
14.997
11
70.001
21
5.995
0
ARC
8
VORSCHUB
62
0
6
AUSGEZOGEN
10
69.003
20
5.994
40
1.000
50
269.998
51
360.131
0
LINE
8
VORSCHUB
62
0
6
AUSGEZOGEN
10
63.504
20
4.997
11
69.002
21
4.996
0
ARC
8
VORSCHUB
62
0
6
AUSGEZOGEN
10
69.002
20
2.992
40
3.000
50
270.036
51
360.093
0
LINE
8
VORSCHUB
62
0
6
AUSGEZOGEN
10
65.002
20
-0.006
11
69.001
21
-0.006
0
LINE
8
VORSCHUB
62
0
6
STRICHPUNKTLINIE
10
49.001
20
57.700
11
49.001
21
24.902
0
LINE
8
VORSCHUB
62
0
6
STRICHPUNKTLINIE
10
65.001
20
57.700
11
65.001
21
24.900
0
LINE
8
VORSCHUB
62
0
6
AUSGEZOGEN
10
45.002
20
45.997
11
42.003
21
45.997
0
LINE
8
VORSCHUB
62
0
6
AUSGEZOGEN
10
45.003
20
50.997
11
45.002
21
45.997
0
ARC
8
VORSCHUB
62
0
6
AUSGEZOGEN
10
48.001
20
50.996
40
3.000
50
89.999
51
180.018
0
LINE
8
VORSCHUB
62
0
6
AUSGEZOGEN
10
49.999
20
53.997
11
51.999
21
55.996
0
LINE
8
VORSCHUB
62
0
6
AUSGEZOGEN
10
51.999
20
53.996
11
48.002
21
53.997
0
LINE
8
VORSCHUB
62
0
6
AUSGEZOGEN
10
62.003
20
53.996
11
66.001
21
53.997
0
LINE
8
VORSCHUB
62
0
6
AUSGEZOGEN
10
64.003
20
53.997
11
62.003
21
55.996
0
ARC
8
VORSCHUB
62
0
6
AUSGEZOGEN
10
66.002
20
50.996
40
3.000
50
0.019
51
90.037
0
LINE
8
VORSCHUB
62
0
6
AUSGEZOGEN
10
69.000
20
50.997
11
69.001
21
45.996
0
LINE
8
VORSCHUB
62
0
6
AUSGEZOGEN
10
69.001
20
45.996
11
72.000
21
45.996
0
LINE
8
VORSCHUB
62
0
6
AUSGEZOGEN
10
56.251
20
5.000
11
57.753
21
4.999
0
LINE
8
VORSCHUB
62
0
6
AUSGEZOGEN
10
63.502
20
30.998
11
63.504
21
4.998
0
LINE
8
VORSCHUB
62
0
6
AUSGEZOGEN
10
50.500
20
30.999
11
50.501
21
5.000
0
LINE
8
VORSCHUB
62
0
6
AUSGEZOGEN
10
56.251
20
15.997
11
57.753
21
15.997
0
LINE
8
VORSCHUB
62
0
6
AUSGEZOGEN
10
56.251
20
30.998
11
57.753
21
30.998
0
LINE
8
VORSCHUB
62
0
6
AUSGEZOGEN
10
62.003
20
30.997
11
69.000
21
30.998
0
LINE
8
VORSCHUB
62
0
6
AUSGEZOGEN
10
45.001
20
30.998
11
52.001
21
30.997
0
LINE
8
VORSCHUB
62
0
6
AUSGEZOGEN
10
87.001
20
141.000
11
69.910
21
141.040
0
LINE
8
VORSCHUB
62
0
6
AUSGEZOGEN
10
69.910
20
141.040
11
68.160
21
134.505
0
LINE
8
VORSCHUB
62
0
6
AUSGEZOGEN
10
68.160
20
134.505
11
64.660
21
147.571
0
LINE
8
VORSCHUB
62
0
6
AUSGEZOGEN
10
62.911
20
141.040
11
64.660
21
147.571
0
LINE
8
VORSCHUB
62
0
6
AUSGEZOGEN
10
62.911
20
141.040
11
27.001
21
141.000
0
LINE
8
VORSCHUB
62
0
6
AUSGEZOGEN
10
32.000
20
141.000
11
32.001
21
76.000
0
LINE
8
VORSCHUB
62
0
6
AUSGEZOGEN
10
42.001
20
141.000
11
42.002
21
76.000
0
LINE
8
VORSCHUB
62
0
6
AUSGEZOGEN
10
32.001
20
50.999
11
42.001
21
50.999
0
LINE
8
VORSCHUB
62
0
6
AUSGEZOGEN
10
37.002
20
61.000
11
37.002
21
50.999
0
LINE
8
VORSCHUB
62
0
6
AUSGEZOGEN
10
30.000
20
75.998
11
71.999
21
75.999
0
LINE
8
VORSCHUB
62
0
6
AUSGEZOGEN
10
30.000
20
125.999
11
30.000
21
75.998
0
LINE
8
VORSCHUB
62
0
6
AUSGEZOGEN
10
20.001
20
125.999
11
30.000
21
125.999
0
ARC
8
VORSCHUB
62
0
6
AUSGEZOGEN
10
170.001
20
125.999
40
150.000
50
180.037
51
185.491
0
ARC
8
VORSCHUB
62
0
6
AUSGEZOGEN
10
-124.999
20
75.999
40
150.000
50
0.000
51
13.788
0
LINE
8
VORSCHUB
62
0
6
AUSGEZOGEN
10
25.001
20
75.999
11
25.001
21
60.999
0
ARC
8
VORSCHUB
62
0
6
AUSGEZOGEN
10
169.997
20
11.005
40
149.994
50
174.584
51
180.039
0
ARC
8
VORSCHUB
62
0
6
AUSGEZOGEN
10
-124.993
20
60.991
40
149.994
50
346.287
51
360.076
0
LINE
8
VORSCHUB
62
0
6
AUSGEZOGEN
10
20.003
20
10.999
11
29.999
21
10.998
0
LINE
8
VORSCHUB
62
0
6
AUSGEZOGEN
10
29.999
20
60.998
11
29.999
21
10.998
0
LINE
8
VORSCHUB
62
0
6
AUSGEZOGEN
10
60.002
20
73.998
11
62.003
21
75.999
0
LINE
8
VORSCHUB
62
0
6
AUSGEZOGEN
10
60.002
20
73.998
11
60.002
21
63.000
0
LINE
8
VORSCHUB
62
0
6
AUSGEZOGEN
10
60.002
20
63.000
11
62.003
21
60.999
0
LINE
8
VORSCHUB
62
0
6
AUSGEZOGEN
10
54.000
20
63.002
11
51.999
21
61.001
0
LINE
8
VORSCHUB
62
0
6
AUSGEZOGEN
10
54.000
20
73.999
11
54.000
21
63.002
0
LINE
8
VORSCHUB
62
0
6
AUSGEZOGEN
10
54.000
20
73.999
11
51.999
21
76.000
0
LINE
8
VORSCHUB
62
0
6
AUSGEZOGEN
10
54.000
20
73.999
11
60.002
21
73.998
0
LINE
8
VORSCHUB
62
0
6
AUSGEZOGEN
10
54.000
20
63.002
11
60.002
21
63.000
0
LINE
8
VORSCHUB
62
0
6
AUSGEZOGEN
10
59.501
20
75.999
11
59.500
21
141.000
0
LINE
8
VORSCHUB
62
0
6
AUSGEZOGEN
10
54.501
20
76.000
11
54.502
21
140.998
0
LINE
8
VORSCHUB
62
0
6
AUSGEZOGEN
10
42.002
20
61.000
11
42.002
21
33.999
0
LINE
8
VORSCHUB
62
0
6
AUSGEZOGEN
10
72.001
20
141.000
11
72.000
21
33.997
0
ARC
8
VORSCHUB
62
0
6
AUSGEZOGEN
10
69.000
20
33.997
40
3.000
50
270.055
51
360.074
0
LINE
8
VORSCHUB
62
0
6
AUSGEZOGEN
10
69.002
20
20.998
11
69.001
21
15.997
0
ARC
8
VORSCHUB
62
0
6
AUSGEZOGEN
10
45.002
20
33.998
40
3.000
50
180.037
51
270.055
0
ARC
8
VORSCHUB
62
0
6
AUSGEZOGEN
10
367.003
20
110.810
40
15.000
50
99.579
51
260.491
0
ARC
8
VORSCHUB
62
0
6
AUSGEZOGEN
10
367.003
20
110.810
40
15.000
50
279.613
51
440.531
0
CIRCLE
8
VORSCHUB
62
0
6
AUSGEZOGEN
10
367.003
20
110.810
40
25.000
0
LINE
8
VORSCHUB
62
0
6
AUSGEZOGEN
10
215.173
20
0.164
11
220.631
21
0.163
0
LINE
8
VORSCHUB
62
0
6
AUSGEZOGEN
10
233.372
20
0.161
11
238.944
21
0.160
0
LINE
8
VORSCHUB
62
0
6
AUSGEZOGEN
10
224.882
20
0.163
11
229.120
21
0.163
0
LINE
8
VORSCHUB
62
0
6
AUSGEZOGEN
10
215.001
20
11.159
11
221.004
21
11.159
0
LINE
8
VORSCHUB
62
0
6
AUSGEZOGEN
10
232.999
20
11.159
11
239.000
21
11.159
0
LINE
8
VORSCHUB
62
0
6
AUSGEZOGEN
10
225.256
20
11.160
11
228.746
21
11.160
0
LINE
8
VORSCHUB
62
0
6
AUSGEZOGEN
10
215.001
20
16.164
11
221.174
21
16.164
0
LINE
8
VORSCHUB
62
0
6
AUSGEZOGEN
10
232.829
20
16.164
11
239.000
21
16.164
0
LINE
8
VORSCHUB
62
0
6
AUSGEZOGEN
10
225.426
20
16.165
11
228.576
21
16.165
0
LINE
8
VORSCHUB
62
0
6
AUSGEZOGEN
10
215.000
20
31.165
11
221.683
21
31.164
0
LINE
8
VORSCHUB
62
0
6
AUSGEZOGEN
10
232.319
20
31.163
11
238.998
21
31.162
0
LINE
8
VORSCHUB
62
0
6
AUSGEZOGEN
10
225.936
20
31.164
11
228.066
21
31.164
0
ARC
8
VORSCHUB
62
0
6
AUSGEZOGEN
10
208.000
20
116.164
40
8.000
50
180.037
51
220.957
0
ARC
8
VORSCHUB
62
0
6
AUSGEZOGEN
10
208.000
20
1.163
40
8.001
50
139.111
51
180.037
0
LINE
8
VORSCHUB
62
0
6
AUSGEZOGEN
10
207.729
20
99.871
11
202.000
21
94.140
0
LINE
8
VORSCHUB
62
0
6
AUSGEZOGEN
10
241.999
20
97.999
11
241.999
21
34.164
0
LINE
8
VORSCHUB
62
0
6
AUSGEZOGEN
10
212.001
20
95.920
11
212.002
21
66.166
0
LINE
8
VORSCHUB
62
0
6
AUSGEZOGEN
10
224.500
20
66.166
11
224.500
21
93.600
0
LINE
8
VORSCHUB
62
0
6
AUSGEZOGEN
10
229.501
20
66.166
11
229.500
21
94.766
0
LINE
8
VORSCHUB
62
0
6
AUSGEZOGEN
10
248.159
20
98.200
11
242.000
21
92.040
0
LINE
8
VORSCHUB
62
0
6
AUSGEZOGEN
10
204.020
20
103.232
11
202.000
21
101.211
0
LINE
8
VORSCHUB
62
0
6
AUSGEZOGEN
10
212.001
20
82.928
11
205.239
21
76.166
0
LINE
8
VORSCHUB
62
0
6
AUSGEZOGEN
10
212.001
20
89.999
11
202.000
21
79.998
0
LINE
8
VORSCHUB
62
0
6
AUSGEZOGEN
10
212.001
20
97.070
11
202.000
21
87.069
0
POLYLINE
8
VORSCHUB
62
0
6
AUSGEZOGEN
66
1
70
0
0
VERTEX
8
VORSCHUB
62
0
6
AUSGEZOGEN
10
202.000
20
103.800
0
VERTEX
8
VORSCHUB
62
0
6
AUSGEZOGEN
10
202.800
20
103.800
0
VERTEX
8
VORSCHUB
62
0
6
AUSGEZOGEN
10
203.600
20
103.400
0
VERTEX
8
VORSCHUB
62
0
6
AUSGEZOGEN
10
204.600
20
103.000
0
VERTEX
8
VORSCHUB
62
0
6
AUSGEZOGEN
10
205.400
20
102.200
0
VERTEX
8
VORSCHUB
62
0
6
AUSGEZOGEN
10
206.200
20
101.200
0
VERTEX
8
VORSCHUB
62
0
6
AUSGEZOGEN
10
207.000
20
100.600
0
VERTEX
8
VORSCHUB
62
0
6
AUSGEZOGEN
10
207.800
20
99.800
0
VERTEX
8
VORSCHUB
62
0
6
AUSGEZOGEN
10
208.600
20
98.800
0
VERTEX
8
VORSCHUB
62
0
6
AUSGEZOGEN
10
209.600
20
98.000
0
VERTEX
8
VORSCHUB
62
0
6
AUSGEZOGEN
10
210.600
20
97.200
0
VERTEX
8
VORSCHUB
62
0
6
AUSGEZOGEN
10
211.400
20
96.400
0
VERTEX
8
VORSCHUB
62
0
6
AUSGEZOGEN
10
212.400
20
95.600
0
VERTEX
8
VORSCHUB
62
0
6
AUSGEZOGEN
10
213.200
20
95.200
0
VERTEX
8
VORSCHUB
62
0
6
AUSGEZOGEN
10
214.200
20
94.600
0
VERTEX
8
VORSCHUB
62
0
6
AUSGEZOGEN
10
215.000
20
94.400
0
VERTEX
8
VORSCHUB
62
0
6
AUSGEZOGEN
10
215.800
20
94.000
0
VERTEX
8
VORSCHUB
62
0
6
AUSGEZOGEN
10
216.600
20
93.800
0
VERTEX
8
VORSCHUB
62
0
6
AUSGEZOGEN
10
217.400
20
93.600
0
VERTEX
8
VORSCHUB
62
0
6
AUSGEZOGEN
10
218.200
20
93.400
0
VERTEX
8
VORSCHUB
62
0
6
AUSGEZOGEN
10
219.200
20
93.200
0
VERTEX
8
VORSCHUB
62
0
6
AUSGEZOGEN
10
220.200
20
93.200
0
VERTEX
8
VORSCHUB
62
0
6
AUSGEZOGEN
10
221.200
20
93.200
0
VERTEX
8
VORSCHUB
62
0
6
AUSGEZOGEN
10
222.400
20
93.400
0
VERTEX
8
VORSCHUB
62
0
6
AUSGEZOGEN
10
223.400
20
93.600
0
VERTEX
8
VORSCHUB
62
0
6
AUSGEZOGEN
10
224.600
20
93.600
0
VERTEX
8
VORSCHUB
62
0
6
AUSGEZOGEN
10
225.400
20
93.800
0
VERTEX
8
VORSCHUB
62
0
6
AUSGEZOGEN
10
226.200
20
94.000
0
VERTEX
8
VORSCHUB
62
0
6
AUSGEZOGEN
10
227.600
20
94.200
0
VERTEX
8
VORSCHUB
62
0
6
AUSGEZOGEN
10
228.400
20
94.400
0
VERTEX
8
VORSCHUB
62
0
6
AUSGEZOGEN
10
229.600
20
94.800
0
VERTEX
8
VORSCHUB
62
0
6
AUSGEZOGEN
10
230.600
20
95.000
0
VERTEX
8
VORSCHUB
62
0
6
AUSGEZOGEN
10
232.000
20
95.200
0
VERTEX
8
VORSCHUB
62
0
6
AUSGEZOGEN
10
232.800
20
95.400
0
VERTEX
8
VORSCHUB
62
0
6
AUSGEZOGEN
10
234.200
20
96.000
0
VERTEX
8
VORSCHUB
62
0
6
AUSGEZOGEN
10
235.000
20
96.000
0
VERTEX
8
VORSCHUB
62
0
6
AUSGEZOGEN
10
236.400
20
96.400
0
VERTEX
8
VORSCHUB
62
0
6
AUSGEZOGEN
10
237.200
20
96.800
0
VERTEX
8
VORSCHUB
62
0
6
AUSGEZOGEN
10
238.000
20
97.000
0
VERTEX
8
VORSCHUB
62
0
6
AUSGEZOGEN
10
238.800
20
97.200
0
VERTEX
8
VORSCHUB
62
0
6
AUSGEZOGEN
10
239.600
20
97.400
0
VERTEX
8
VORSCHUB
62
0
6
AUSGEZOGEN
10
240.400
20
97.600
0
VERTEX
8
VORSCHUB
62
0
6
AUSGEZOGEN
10
241.200
20
97.800
0
VERTEX
8
VORSCHUB
62
0
6
AUSGEZOGEN
10
242.000
20
98.000
0
VERTEX
8
VORSCHUB
62
0
6
AUSGEZOGEN
10
243.200
20
98.000
0
VERTEX
8
VORSCHUB
62
0
6
AUSGEZOGEN
10
244.000
20
98.200
0
VERTEX
8
VORSCHUB
62
0
6
AUSGEZOGEN
10
244.800
20
98.200
0
VERTEX
8
VORSCHUB
62
0
6
AUSGEZOGEN
10
245.600
20
98.400
0
VERTEX
8
VORSCHUB
62
0
6
AUSGEZOGEN
10
246.800
20
98.400
0
VERTEX
8
VORSCHUB
62
0
6
AUSGEZOGEN
10
247.600
20
98.200
0
VERTEX
8
VORSCHUB
62
0
6
AUSGEZOGEN
10
248.600
20
98.200
0
VERTEX
8
VORSCHUB
62
0
6
AUSGEZOGEN
10
249.600
20
98.000
0
VERTEX
8
VORSCHUB
62
0
6
AUSGEZOGEN
10
250.400
20
97.800
0
VERTEX
8
VORSCHUB
62
0
6
AUSGEZOGEN
10
251.200
20
97.600
0
VERTEX
8
VORSCHUB
62
0
6
AUSGEZOGEN
10
252.000
20
97.400
0
SEQEND
8
VORSCHUB
62
0
6
AUSGEZOGEN
0
LINE
8
VORSCHUB
62
0
6
AUSGEZOGEN
10
195.001
20
60.799
11
204.643
21
51.164
0
LINE
8
VORSCHUB
62
0
6
AUSGEZOGEN
10
194.992
20
67.880
11
211.719
21
51.164
0
LINE
8
VORSCHUB
62
0
6
AUSGEZOGEN
10
200.000
20
91.157
11
191.129
21
100.023
0
LINE
8
VORSCHUB
62
0
6
AUSGEZOGEN
10
190.994
20
1.164
11
190.006
21
2.152
0
LINE
8
VORSCHUB
62
0
6
AUSGEZOGEN
10
190.208
20
9.020
11
198.070
21
1.164
0
LINE
8
VORSCHUB
62
0
6
AUSGEZOGEN
10
190.720
20
15.580
11
199.998
21
6.308
0
LINE
8
VORSCHUB
62
0
6
AUSGEZOGEN
10
192.011
20
21.360
11
199.998
21
13.379
0
LINE
8
VORSCHUB
62
0
6
AUSGEZOGEN
10
193.098
20
27.345
11
199.998
21
20.450
0
LINE
8
VORSCHUB
62
0
6
AUSGEZOGEN
10
193.964
20
33.551
11
199.998
21
27.521
0
LINE
8
VORSCHUB
62
0
6
AUSGEZOGEN
10
194.585
20
40.001
11
199.998
21
34.592
0
LINE
8
VORSCHUB
62
0
6
AUSGEZOGEN
10
194.935
20
46.723
11
199.998
21
41.663
0
LINE
8
VORSCHUB
62
0
6
AUSGEZOGEN
10
195.000
20
53.728
11
199.998
21
48.734
0
LINE
8
VORSCHUB
62
0
6
AUSGEZOGEN
10
194.727
20
75.214
11
199.999
21
69.946
0
LINE
8
VORSCHUB
62
0
6
AUSGEZOGEN
10
194.058
20
82.954
11
199.999
21
77.017
0
LINE
8
VORSCHUB
62
0
6
AUSGEZOGEN
10
192.899
20
91.183
11
199.999
21
84.088
0
LINE
8
VORSCHUB
62
0
6
AUSGEZOGEN
10
190.223
20
107.998
11
199.999
21
98.229
0
LINE
8
VORSCHUB
62
0
6
AUSGEZOGEN
10
190.004
20
115.287
11
199.999
21
105.298
0
LINE
8
VORSCHUB
62
0
6
AUSGEZOGEN
10
196.201
20
116.163
11
199.999
21
112.368
0
LINE
8
VORSCHUB
62
0
6
AUSGEZOGEN
10
200.000
20
116.164
11
200.000
21
66.163
0
LINE
8
VORSCHUB
62
0
6
AUSGEZOGEN
10
190.001
20
116.164
11
200.000
21
116.164
0
ARC
8
VORSCHUB
62
0
6
AUSGEZOGEN
10
340.001
20
116.164
40
150.000
50
180.037
51
185.491
0
ARC
8
VORSCHUB
62
0
6
AUSGEZOGEN
10
45.001
20
66.164
40
150.000
50
0.000
51
13.788
0
LINE
8
VORSCHUB
62
0
6
AUSGEZOGEN
10
195.001
20
66.164
11
195.001
21
51.164
0
ARC
8
VORSCHUB
62
0
6
AUSGEZOGEN
10
339.997
20
1.170
40
149.994
50
174.584
51
180.039
0
ARC
8
VORSCHUB
62
0
6
AUSGEZOGEN
10
45.007
20
51.156
40
149.994
50
346.287
51
360.076
0
LINE
8
VORSCHUB
62
0
6
AUSGEZOGEN
10
190.003
20
1.164
11
199.999
21
1.163
0
LINE
8
VORSCHUB
62
0
6
AUSGEZOGEN
10
199.999
20
51.163
11
199.999
21
1.163
0
LINE
8
VORSCHUB
62
0
6
AUSGEZOGEN
10
201.999
20
141.167
11
202.001
21
66.166
0
LINE
8
VORSCHUB
62
0
6
AUSGEZOGEN
10
207.002
20
76.168
11
207.002
21
66.166
0
LINE
8
VORSCHUB
62
0
6
AUSGEZOGEN
10
202.001
20
51.166
11
202.000
21
-4.835
0
LINE
8
VORSCHUB
62
0
6
AUSGEZOGEN
10
202.000
20
76.167
11
212.001
21
76.168
0
LINE
8
VORSCHUB
62
0
6
AUSGEZOGEN
10
212.002
20
51.165
11
212.001
21
34.166
0
LINE
8
VORSCHUB
62
0
6
AUSGEZOGEN
10
203.783
20
66.166
11
218.793
21
51.166
0
LINE
8
VORSCHUB
62
0
6
AUSGEZOGEN
10
210.859
20
66.166
11
223.931
21
53.102
0
LINE
8
VORSCHUB
62
0
6
AUSGEZOGEN
10
217.935
20
66.166
11
223.998
21
60.106
0
LINE
8
VORSCHUB
62
0
6
AUSGEZOGEN
10
199.999
20
66.165
11
241.998
21
66.166
0
LINE
8
VORSCHUB
62
0
6
AUSGEZOGEN
10
230.001
20
64.165
11
232.002
21
66.166
0
LINE
8
VORSCHUB
62
0
6
AUSGEZOGEN
10
230.001
20
64.165
11
230.001
21
53.167
0
LINE
8
VORSCHUB
62
0
6
AUSGEZOGEN
10
230.001
20
53.167
11
232.002
21
51.166
0
LINE
8
VORSCHUB
62
0
6
AUSGEZOGEN
10
223.999
20
53.169
11
221.998
21
51.168
0
LINE
8
VORSCHUB
62
0
6
AUSGEZOGEN
10
223.999
20
64.166
11
223.999
21
53.169
0
LINE
8
VORSCHUB
62
0
6
AUSGEZOGEN
10
223.999
20
64.166
11
221.998
21
66.167
0
LINE
8
VORSCHUB
62
0
6
AUSGEZOGEN
10
223.999
20
64.166
11
230.001
21
64.165
0
LINE
8
VORSCHUB
62
0
6
AUSGEZOGEN
10
223.999
20
53.169
11
230.001
21
53.167
0
LINE
8
VORSCHUB
62
0
6
AUSGEZOGEN
10
215.000
20
36.377
11
214.787
21
36.165
0
LINE
8
VORSCHUB
62
0
6
AUSGEZOGEN
10
212.001
20
50.346
11
212.822
21
51.167
0
LINE
8
VORSCHUB
62
0
6
AUSGEZOGEN
10
217.064
20
51.167
11
212.001
21
46.104
0
LINE
8
VORSCHUB
62
0
6
AUSGEZOGEN
10
221.304
20
51.165
11
212.001
21
41.862
0
LINE
8
VORSCHUB
62
0
6
AUSGEZOGEN
10
215.001
20
40.620
11
212.001
21
37.620
0
LINE
8
VORSCHUB
62
0
6
AUSGEZOGEN
10
221.998
20
47.617
11
218.546
21
44.165
0
LINE
8
VORSCHUB
62
0
6
AUSGEZOGEN
10
215.000
20
36.165
11
212.001
21
36.165
0
LINE
8
VORSCHUB
62
0
6
AUSGEZOGEN
10
215.001
20
41.165
11
215.000
21
36.165
0
ARC
8
VORSCHUB
62
0
6
AUSGEZOGEN
10
217.999
20
41.164
40
3.000
50
89.999
51
180.018
0
LINE
8
VORSCHUB
62
0
6
AUSGEZOGEN
10
219.997
20
44.165
11
221.997
21
46.164
0
LINE
8
VORSCHUB
62
0
6
AUSGEZOGEN
10
221.997
20
44.164
11
218.000
21
44.165
0
LINE
8
VORSCHUB
62
0
6
AUSGEZOGEN
10
232.001
20
44.164
11
235.999
21
44.165
0
LINE
8
VORSCHUB
62
0
6
AUSGEZOGEN
10
234.001
20
44.165
11
232.001
21
46.164
0
ARC
8
VORSCHUB
62
0
6
AUSGEZOGEN
10
236.000
20
41.164
40
3.000
50
0.019
51
90.037
0
LINE
8
VORSCHUB
62
0
6
AUSGEZOGEN
10
238.998
20
41.165
11
238.999
21
36.164
0
LINE
8
VORSCHUB
62
0
6
AUSGEZOGEN
10
238.999
20
36.164
11
241.998
21
36.164
0
ARC
8
VORSCHUB
62
0
6
AUSGEZOGEN
10
238.999
20
34.164
40
3.000
50
270.036
51
360.074
0
LINE
8
VORSCHUB
62
0
6
AUSGEZOGEN
10
220.501
20
11.159
11
220.501
21
0.163
0
LINE
8
VORSCHUB
62
0
6
AUSGEZOGEN
10
233.504
20
11.159
11
233.504
21
0.160
0
LINE
8
VORSCHUB
62
0
6
AUSGEZOGEN
10
233.501
20
31.165
11
233.503
21
16.164
0
LINE
8
VORSCHUB
62
0
6
AUSGEZOGEN
10
220.499
20
31.166
11
220.500
21
16.164
0
ARC
8
VORSCHUB
62
0
6
AUSGEZOGEN
10
215.000
20
10.159
40
1.000
50
89.961
51
179.979
0
ARC
8
VORSCHUB
62
0
6
AUSGEZOGEN
10
239.001
20
3.159
40
3.000
50
268.966
51
360.093
0
ARC
8
VORSCHUB
62
0
6
AUSGEZOGEN
10
215.000
20
3.160
40
3.000
50
180.018
51
273.361
0
ARC
8
VORSCHUB
62
0
6
AUSGEZOGEN
10
214.999
20
1.158
40
1.000
50
179.979
51
270.113
0
LINE
8
VORSCHUB
62
0
6
AUSGEZOGEN
10
214.001
20
10.160
11
214.001
21
1.159
0
ARC
8
VORSCHUB
62
0
6
AUSGEZOGEN
10
239.001
20
10.159
40
1.000
50
0.057
51
90.075
0
LINE
8
VORSCHUB
62
0
6
AUSGEZOGEN
10
240.000
20
10.160
11
240.000
21
1.158
0
ARC
8
VORSCHUB
62
0
6
AUSGEZOGEN
10
239.002
20
1.157
40
1.000
50
269.998
51
360.131
0
ARC
8
VORSCHUB
62
0
6
AUSGEZOGEN
10
215.001
20
34.165
40
3.000
50
180.037
51
270.055
0
LINE
8
VORSCHUB
62
0
6
AUSGEZOGEN
10
239.001
20
21.165
11
239.000
21
16.164
0
LINE
8
VORSCHUB
62
0
6
AUSGEZOGEN
10
202.000
20
51.166
11
212.000
21
51.166
0
LINE
8
VORSCHUB
62
0
6
AUSGEZOGEN
10
232.910
20
141.207
11
197.000
21
141.167
0
LINE
8
VORSCHUB
62
0
6
AUSGEZOGEN
10
232.910
20
141.207
11
234.659
21
147.738
0
LINE
8
VORSCHUB
62
0
6
AUSGEZOGEN
10
238.159
20
134.672
11
234.659
21
147.738
0
LINE
8
VORSCHUB
62
0
6
AUSGEZOGEN
10
239.909
20
141.207
11
238.159
21
134.672
0
LINE
8
VORSCHUB
62
0
6
AUSGEZOGEN
10
257.000
20
141.167
11
239.909
21
141.207
0
LINE
8
VORSCHUB
62
0
6
STRICHPUNKTLINIE
10
235.000
20
57.867
11
235.000
21
25.067
0
LINE
8
VORSCHUB
62
0
6
STRICHPUNKTLINIE
10
219.000
20
57.867
11
219.000
21
25.069
0
LINE
8
VORSCHUB
62
0
6
AUSGEZOGEN
10
242.001
20
18.161
11
242.000
21
3.160
0
LINE
8
VORSCHUB
62
0
6
AUSGEZOGEN
10
239.000
20
18.160
11
248.998
21
18.160
0
LINE
8
VORSCHUB
62
0
6
AUSGEZOGEN
10
239.001
20
21.165
11
245.935
21
21.164
0
ARC
8
VORSCHUB
62
0
6
AUSGEZOGEN
10
245.999
20
18.165
40
3.000
50
359.978
51
451.315
0
ARC
8
VORSCHUB
62
0
6
AUSGEZOGEN
10
245.999
20
18.165
40
3.000
50
270.036
51
359.978
0
LINE
8
VORSCHUB
62
0
6
AUSGEZOGEN
10
252.001
20
141.167
11
251.999
21
-4.838
0
LINE
8
VORSCHUB
62
0
6
AUSGEZOGEN
10
251.999
20
-4.838
11
249.998
21
-6.839
0
LINE
8
VORSCHUB
62
0
6
AUSGEZOGEN
10
248.998
20
-6.840
11
249.998
21
-6.839
0
ARC
8
VORSCHUB
62
0
6
AUSGEZOGEN
10
248.998
20
-3.841
40
3.000
50
90.018
51
270.055
0
LINE
8
VORSCHUB
62
0
6
AUSGEZOGEN
10
245.999
20
18.161
11
245.998
21
-3.794
0
LINE
8
VORSCHUB
62
0
6
AUSGEZOGEN
10
248.998
20
18.142
11
248.998
21
-6.840
0
LINE
8
VORSCHUB
62
0
6
AUSGEZOGEN
10
205.003
20
18.142
11
205.003
21
-6.839
0
LINE
8
VORSCHUB
62
0
6
AUSGEZOGEN
10
208.002
20
18.161
11
208.003
21
-3.793
0
ARC
8
VORSCHUB
62
0
6
AUSGEZOGEN
10
205.003
20
-3.840
40
3.000
50
270.055
51
450.092
0
LINE
8
VORSCHUB
62
0
6
AUSGEZOGEN
10
205.003
20
-6.839
11
204.003
21
-6.838
0
ARC
8
VORSCHUB
62
0
6
AUSGEZOGEN
10
208.002
20
18.165
40
3.000
50
180.132
51
270.074
0
ARC
8
VORSCHUB
62
0
6
AUSGEZOGEN
10
208.002
20
18.165
40
3.000
50
88.795
51
180.132
0
LINE
8
VORSCHUB
62
0
6
AUSGEZOGEN
10
215.000
20
21.165
11
208.066
21
21.164
0
LINE
8
VORSCHUB
62
0
6
AUSGEZOGEN
10
215.001
20
18.160
11
205.003
21
18.160
0
LINE
8
VORSCHUB
62
0
6
AUSGEZOGEN
10
212.000
20
18.161
11
212.001
21
3.161
0
LINE
8
VORSCHUB
62
0
6
AUSGEZOGEN
10
215.000
20
21.165
11
215.001
21
16.164
0
LINE
8
VORSCHUB
62
0
6
AUSGEZOGEN
10
202.000
20
-4.835
11
204.003
21
-6.838
0
ARC
8
VORSCHUB
62
0
6
AUSGEZOGEN
10
234.000
20
-18.839
40
3.000
50
270.036
51
360.093
0
LINE
8
VORSCHUB
62
0
6
AUSGEZOGEN
10
237.001
20
0.161
11
237.000
21
-18.838
0
LINE
8
VORSCHUB
62
0
6
AUSGEZOGEN
10
217.000
20
0.159
11
217.001
21
-18.838
0
ARC
8
VORSCHUB
62
0
6
AUSGEZOGEN
10
220.001
20
-18.839
40
3.000
50
180.018
51
270.074
0
LINE
8
VORSCHUB
62
0
6
AUSGEZOGEN
10
220.079
20
-21.838
11
233.999
21
-21.838
0
LINE
8
VORSCHUB
62
0
6
AUSGEZOGEN
10
234.001
20
-71.854
11
248.998
21
-6.840
0
LINE
8
VORSCHUB
62
0
6
AUSGEZOGEN
10
220.005
20
-71.868
11
205.005
21
-6.840
0
LINE
8
VORSCHUB
62
0
6
AUSGEZOGEN
10
228.252
20
-21.838
11
228.252
21
-38.839
0
LINE
8
VORSCHUB
62
0
6
AUSGEZOGEN
10
233.001
20
-21.838
11
232.001
21
-25.834
0
LINE
8
VORSCHUB
62
0
6
AUSGEZOGEN
10
221.001
20
-21.838
11
222.001
21
-25.834
0
LINE
8
VORSCHUB
62
0
6
AUSGEZOGEN
10
225.750
20
-21.838
11
225.750
21
-38.838
0
LINE
8
VORSCHUB
62
0
6
AUSGEZOGEN
10
222.001
20
-38.838
11
232.001
21
-38.839
0
LINE
8
VORSCHUB
62
0
6
AUSGEZOGEN
10
229.751
20
-71.859
11
234.001
21
-71.854
0
ARC
8
VORSCHUB
62
0
6
AUSGEZOGEN
10
228.752
20
-90.862
40
1.000
50
270.113
51
360.074
0
ARC
8
VORSCHUB
62
0
6
AUSGEZOGEN
10
225.250
20
-90.858
40
1.000
50
180.037
51
269.998
0
LINE
8
VORSCHUB
62
0
6
AUSGEZOGEN
10
220.005
20
-71.868
11
224.250
21
-71.865
0
LINE
8
VORSCHUB
62
0
6
AUSGEZOGEN
10
225.252
20
-91.864
11
228.753
21
-91.861
0
LINE
8
VORSCHUB
62
0
6
AUSGEZOGEN
10
228.752
20
-41.837
11
228.751
21
-91.860
0
ARC
8
VORSCHUB
62
0
6
AUSGEZOGEN
10
231.751
20
-41.838
40
3.000
50
90.018
51
180.018
0
LINE
8
VORSCHUB
62
0
6
AUSGEZOGEN
10
225.250
20
-41.837
11
225.251
21
-91.856
0
ARC
8
VORSCHUB
62
0
6
AUSGEZOGEN
10
222.252
20
-41.838
40
3.000
50
0.019
51
90.018
0
LINE
8
VORSCHUB
62
0
6
AUSGEZOGEN
10
229.752
20
-41.833
11
229.752
21
-90.862
0
LINE
8
VORSCHUB
62
0
6
AUSGEZOGEN
10
224.250
20
-41.832
11
224.250
21
-90.858
0
ARC
8
VORSCHUB
62
0
6
AUSGEZOGEN
10
231.753
20
-41.834
40
2.000
50
82.895
51
180.008
0
ARC
8
VORSCHUB
62
0
6
AUSGEZOGEN
10
222.251
20
-41.833
40
2.000
50
0.028
51
97.198
0
LINE
8
VORSCHUB
62
0
6
AUSGEZOGEN
10
230.002
20
-41.833
11
229.752
21
-41.833
0
LINE
8
VORSCHUB
62
0
6
AUSGEZOGEN
10
224.250
20
-41.834
11
224.061
21
-41.833
0
ARC
8
VORSCHUB
62
0
6
AUSGEZOGEN
10
230.003
20
-39.834
40
1.999
50
270.027
51
361.880
0
LINE
8
VORSCHUB
62
0
6
AUSGEZOGEN
10
232.002
20
-21.838
11
232.001
21
-39.771
0
ARC
8
VORSCHUB
62
0
6
AUSGEZOGEN
10
223.998
20
-39.836
40
1.998
50
178.229
51
271.863
0
LINE
8
VORSCHUB
62
0
6
AUSGEZOGEN
10
222.000
20
-21.838
11
222.001
21
-39.773
0
LINE
8
VORSCHUB
62
0
6
AUSGEZOGEN
10
229.752
20
-66.862
11
231.503
21
-71.856
0
LINE
8
VORSCHUB
62
0
6
AUSGEZOGEN
10
224.252
20
-66.861
11
222.501
21
-71.855
0
LINE
8
VORSCHUB
62
0
6
AUSGEZOGEN
10
252.000
20
-4.025
11
249.186
21
-6.839
0
LINE
8
VORSCHUB
62
0
6
AUSGEZOGEN
10
252.000
20
3.046
11
248.999
21
0.045
0
LINE
8
VORSCHUB
62
0
6
AUSGEZOGEN
10
252.000
20
10.117
11
248.999
21
7.116
0
LINE
8
VORSCHUB
62
0
6
AUSGEZOGEN
10
252.000
20
17.188
11
248.999
21
14.187
0
LINE
8
VORSCHUB
62
0
6
AUSGEZOGEN
10
252.000
20
24.259
11
248.074
21
20.333
0
LINE
8
VORSCHUB
62
0
6
AUSGEZOGEN
10
239.001
20
18.331
11
236.834
21
16.164
0
LINE
8
VORSCHUB
62
0
6
AUSGEZOGEN
10
252.000
20
31.330
11
241.835
21
21.165
0
LINE
8
VORSCHUB
62
0
6
AUSGEZOGEN
10
252.000
20
38.401
11
233.502
21
19.903
0
LINE
8
VORSCHUB
62
0
6
AUSGEZOGEN
10
237.693
20
31.165
11
233.502
21
26.974
0
LINE
8
VORSCHUB
62
0
6
AUSGEZOGEN
10
252.000
20
45.472
11
242.000
21
35.472
0
LINE
8
VORSCHUB
62
0
6
AUSGEZOGEN
10
252.000
20
52.543
11
242.000
21
42.543
0
LINE
8
VORSCHUB
62
0
6
AUSGEZOGEN
10
252.000
20
59.614
11
242.000
21
49.614
0
LINE
8
VORSCHUB
62
0
6
AUSGEZOGEN
10
252.000
20
66.685
11
242.000
21
56.685
0
LINE
8
VORSCHUB
62
0
6
AUSGEZOGEN
10
252.001
20
73.757
11
242.000
21
63.756
0
LINE
8
VORSCHUB
62
0
6
AUSGEZOGEN
10
252.001
20
80.828
11
242.000
21
70.827
0
LINE
8
VORSCHUB
62
0
6
AUSGEZOGEN
10
252.001
20
87.899
11
242.000
21
77.898
0
LINE
8
VORSCHUB
62
0
6
AUSGEZOGEN
10
252.001
20
94.970
11
242.000
21
84.969
0
LINE
8
VORSCHUB
62
0
6
AUSGEZOGEN
10
204.450
20
51.167
11
202.001
21
48.718
0
LINE
8
VORSCHUB
62
0
6
AUSGEZOGEN
10
211.381
20
51.026
11
202.001
21
41.646
0
LINE
8
VORSCHUB
62
0
6
AUSGEZOGEN
10
212.002
20
44.575
11
202.001
21
34.574
0
LINE
8
VORSCHUB
62
0
6
AUSGEZOGEN
10
212.002
20
37.503
11
202.001
21
27.502
0
LINE
8
VORSCHUB
62
0
6
AUSGEZOGEN
10
213.280
20
31.709
11
202.001
21
20.430
0
LINE
8
VORSCHUB
62
0
6
AUSGEZOGEN
10
219.808
20
31.165
11
209.808
21
21.165
0
LINE
8
VORSCHUB
62
0
6
AUSGEZOGEN
10
205.004
20
9.291
11
202.001
21
6.288
0
LINE
8
VORSCHUB
62
0
6
AUSGEZOGEN
10
220.500
20
17.715
11
218.948
21
16.163
0
LINE
8
VORSCHUB
62
0
6
AUSGEZOGEN
10
220.500
20
24.786
11
215.001
21
19.287
0
LINE
8
VORSCHUB
62
0
6
AUSGEZOGEN
10
205.003
20
16.359
11
202.000
21
13.357
0
LINE
8
VORSCHUB
62
0
6
AUSGEZOGEN
10
205.003
20
2.218
11
202.000
21
-0.784
0
LINE
8
VORSCHUB
62
0
6
AUSGEZOGEN
10
205.003
20
-4.854
11
203.511
21
-6.346
0
LINE
8
VORSCHUB
62
0
6
AUSGEZOGEN
10
218.723
20
-66.308
11
222.960
21
-70.543
0
LINE
8
VORSCHUB
62
0
6
AUSGEZOGEN
10
216.604
20
-57.120
11
224.249
21
-64.761
0
LINE
8
VORSCHUB
62
0
6
AUSGEZOGEN
10
214.484
20
-47.931
11
224.249
21
-57.690
0
LINE
8
VORSCHUB
62
0
6
AUSGEZOGEN
10
212.364
20
-38.742
11
224.249
21
-50.619
0
LINE
8
VORSCHUB
62
0
6
AUSGEZOGEN
10
210.245
20
-29.553
11
224.249
21
-43.548
0
LINE
8
VORSCHUB
62
0
6
AUSGEZOGEN
10
217.001
20
-15.092
11
207.462
21
-5.559
0
LINE
8
VORSCHUB
62
0
6
AUSGEZOGEN
10
217.001
20
-8.021
11
205.004
21
3.969
0
LINE
8
VORSCHUB
62
0
6
AUSGEZOGEN
10
216.643
20
-0.592
11
215.889
21
0.161
0
LINE
8
VORSCHUB
62
0
6
AUSGEZOGEN
10
212.001
20
4.046
11
205.004
21
11.040
0
LINE
8
VORSCHUB
62
0
6
AUSGEZOGEN
10
212.001
20
11.118
11
205.004
21
18.111
0
LINE
8
VORSCHUB
62
0
6
AUSGEZOGEN
10
222.001
20
-34.240
11
208.124
21
-20.363
0
LINE
8
VORSCHUB
62
0
6
AUSGEZOGEN
10
222.001
20
-27.152
11
206.004
21
-11.173
0
ENDSEC
0
EOF
