0
SECTION
2
TABLES
0
TABLE
2
LTYPE
70
6
0
LTYPE
2
AUSGEZOGEN
70
64
3
AUSGEZOGEN
72
65
73
0
40
0.000
0
LTYPE
2
PUNKT
70
64
3
PUNKT
72
65
73
2
40
0.500
49
0.000
49
-0.500
0
LTYPE
2
GESTRICHELT
70
64
3
GESTRICHELT
72
65
73
2
40
1.000
49
0.500
49
-0.500
0
LTYPE
2
STRICHLINIE
70
64
3
STRICHLINIE
72
65
73
2
40
6.500
49
5.000
49
-1.500
0
LTYPE
2
STRICHPUNKTLINIE
70
64
3
STRICHPUNKTLINIE
72
65
73
4
40
14.500
49
10.000
49
-1.500
49
1.500
49
-1.500
0
LTYPE
2
STRICH-ZWEIPUNKTLINIE
70
64
3
STRICH-ZWEIPUNKTLINIE
72
65
73
6
40
17.500
49
10.000
49
-1.500
49
1.500
49
-1.500
49
1.500
49
-1.500
0
ENDTAB
0
TABLE
2
LAYER
70
11
0
LAYER
2
RAHMEN
70
64
62
7
6
AUSGEZOGEN
0
LAYER
2
BEMASS
70
64
62
7
6
AUSGEZOGEN
0
LAYER
2
SCHRAFF
70
64
62
1
6
AUSGEZOGEN
0
LAYER
2
VORDER
70
64
62
7
6
AUSGEZOGEN
0
LAYER
2
SEITEN
70
64
62
7
6
AUSGEZOGEN
0
LAYER
2
DRAUF
70
64
62
7
6
AUSGEZOGEN
0
LAYER
2
SCHMIEDE
70
64
62
7
6
AUSGEZOGEN
0
LAYER
2
SCHNITT
70
64
62
7
6
AUSGEZOGEN
0
LAYER
2
SCHRIFTF
70
64
62
5
6
AUSGEZOGEN
0
LAYER
2
TEXTE
70
64
62
7
6
AUSGEZOGEN
0
LAYER
2
FOLIE
70
64
62
7
6
AUSGEZOGEN
0
ENDTAB
0
ENDSEC
0
SECTION
2
ENTITIES
0
LINE
8
RAHMEN
62
1
6
AUSGEZOGEN
10
841.000
20
594.000
11
0.000
21
594.000
0
LINE
8
RAHMEN
62
1
6
AUSGEZOGEN
10
841.000
20
0.000
11
841.000
21
594.000
0
LINE
8
RAHMEN
62
1
6
AUSGEZOGEN
10
0.000
20
0.000
11
841.000
21
0.000
0
LINE
8
RAHMEN
62
1
6
AUSGEZOGEN
10
0.000
20
594.000
11
0.000
21
0.000
0
LINE
8
RAHMEN
62
7
6
AUSGEZOGEN
10
648.800
20
5.000
11
836.000
21
5.000
0
LINE
8
RAHMEN
62
7
6
AUSGEZOGEN
10
836.000
20
5.000
11
836.000
21
60.250
0
LINE
8
RAHMEN
62
7
6
AUSGEZOGEN
10
836.000
20
60.250
11
836.000
21
589.000
0
LINE
8
RAHMEN
62
7
6
AUSGEZOGEN
10
836.000
20
589.000
11
5.000
21
589.000
0
LINE
8
RAHMEN
62
7
6
AUSGEZOGEN
10
5.000
20
589.000
11
5.000
21
5.000
0
LINE
8
RAHMEN
62
7
6
AUSGEZOGEN
10
5.000
20
5.000
11
648.800
21
5.000
0
LINE
8
BEMASS
62
5
6
AUSGEZOGEN
10
191.528
20
487.640
11
194.998
21
488.097
0
LINE
8
BEMASS
62
5
6
AUSGEZOGEN
10
191.528
20
487.640
11
194.998
21
487.183
0
LINE
8
BEMASS
62
5
6
AUSGEZOGEN
10
285.528
20
487.640
11
282.058
21
488.097
0
LINE
8
BEMASS
62
5
6
AUSGEZOGEN
10
285.528
20
487.640
11
282.058
21
487.183
0
LINE
8
BEMASS
62
1
6
STRICHPUNKTLINIE
10
191.528
20
452.176
11
191.528
21
466.176
0
LINE
8
BEMASS
62
5
6
AUSGEZOGEN
10
191.528
20
487.640
11
285.528
21
487.640
0
LINE
8
BEMASS
62
1
6
STRICHPUNKTLINIE
10
285.528
20
452.176
11
285.528
21
466.176
0
TEXT
8
BEMASS
62
7
6
AUSGEZOGEN
1
94.0mh+0.5pt-0.5
10
234.003
20
488.640
40
3.500
41
0.374
50
0.000
0
LINE
8
BEMASS
62
5
6
AUSGEZOGEN
10
191.528
20
482.176
11
191.528
21
489.640
0
LINE
8
BEMASS
62
5
6
AUSGEZOGEN
10
285.528
20
482.176
11
285.528
21
489.640
0
LINE
8
BEMASS
62
5
6
AUSGEZOGEN
10
201.778
20
479.057
11
275.278
21
479.057
0
LINE
8
BEMASS
62
5
6
AUSGEZOGEN
10
201.778
20
466.176
11
201.778
21
481.057
0
LINE
8
BEMASS
62
5
6
AUSGEZOGEN
10
275.278
20
466.176
11
275.278
21
481.057
0
LINE
8
BEMASS
62
5
6
AUSGEZOGEN
10
201.778
20
479.057
11
205.248
21
479.514
0
LINE
8
BEMASS
62
5
6
AUSGEZOGEN
10
201.778
20
479.057
11
205.248
21
478.600
0
LINE
8
BEMASS
62
5
6
AUSGEZOGEN
10
275.278
20
479.057
11
271.808
21
479.514
0
LINE
8
BEMASS
62
5
6
AUSGEZOGEN
10
275.278
20
479.057
11
271.808
21
478.600
0
TEXT
8
BEMASS
62
7
6
AUSGEZOGEN
1
73.5h+0.2
10
246.453
20
480.057
40
3.500
41
0.374
50
0.000
0
LINE
8
BEMASS
62
5
6
AUSGEZOGEN
10
170.528
20
457.176
11
170.528
21
496.967
0
LINE
8
BEMASS
62
5
6
AUSGEZOGEN
10
191.528
20
464.176
11
168.528
21
464.176
0
LINE
8
BEMASS
62
5
6
AUSGEZOGEN
10
196.528
20
471.176
11
168.528
21
471.176
0
LINE
8
BEMASS
62
5
6
AUSGEZOGEN
10
170.528
20
471.176
11
170.071
21
474.646
0
LINE
8
BEMASS
62
5
6
AUSGEZOGEN
10
170.528
20
471.176
11
170.985
21
474.646
0
TEXT
8
BEMASS
62
7
6
AUSGEZOGEN
1
7.0mh+0.1pt-0.1
10
169.528
20
476.176
40
3.500
41
0.374
50
89.999
0
LINE
8
BEMASS
62
5
6
AUSGEZOGEN
10
170.528
20
451.176
11
170.528
21
489.967
0
LINE
8
BEMASS
62
5
6
AUSGEZOGEN
10
191.528
20
458.176
11
168.528
21
458.176
0
LINE
8
BEMASS
62
5
6
AUSGEZOGEN
10
170.528
20
458.176
11
170.071
21
454.706
0
LINE
8
BEMASS
62
5
6
AUSGEZOGEN
10
170.528
20
458.176
11
170.985
21
454.706
0
TEXT
8
BEMASS
62
7
6
AUSGEZOGEN
1
5.0mh+0.2
10
169.528
20
447.176
40
3.500
41
0.374
50
90.000
0
LINE
8
BEMASS
62
5
6
AUSGEZOGEN
10
238.528
20
490.176
11
242.001
21
470.480
0
TEXT
8
BEMASS
62
7
6
AUSGEZOGEN
1
R 20.0
10
239.585
20
489.941
40
3.497
41
0.374
50
280.001
0
LINE
8
BEMASS
62
5
6
AUSGEZOGEN
10
242.001
20
470.480
11
241.848
21
473.977
0
LINE
8
BEMASS
62
5
6
AUSGEZOGEN
10
242.001
20
470.480
11
240.948
21
473.818
0
LINE
8
BEMASS
62
5
6
AUSGEZOGEN
10
285.528
20
452.176
11
309.923
21
476.571
0
TEXT
8
BEMASS
62
7
6
AUSGEZOGEN
1
R 12.0
10
296.841
20
464.904
40
3.499
41
0.373
50
45.001
0
LINE
8
BEMASS
62
5
6
AUSGEZOGEN
10
294.013
20
460.661
11
296.790
21
462.792
0
LINE
8
BEMASS
62
5
6
AUSGEZOGEN
10
294.013
20
460.661
11
296.144
21
463.438
0
LINE
8
BEMASS
62
5
6
AUSGEZOGEN
10
285.528
20
452.176
11
313.488
21
428.714
0
TEXT
8
BEMASS
62
7
6
AUSGEZOGEN
1
R 14.0
10
300.725
20
440.729
40
3.499
41
0.374
50
319.997
0
LINE
8
BEMASS
62
5
6
AUSGEZOGEN
10
296.252
20
443.177
11
298.617
21
440.597
0
LINE
8
BEMASS
62
5
6
AUSGEZOGEN
10
296.252
20
443.177
11
299.204
21
441.297
0
LINE
8
BEMASS
62
5
6
AUSGEZOGEN
10
488.528
20
485.176
11
548.528
21
485.176
0
LINE
8
BEMASS
62
5
6
AUSGEZOGEN
10
548.528
20
452.176
11
548.528
21
487.176
0
LINE
8
BEMASS
62
5
6
AUSGEZOGEN
10
488.528
20
485.176
11
491.998
21
485.633
0
LINE
8
BEMASS
62
5
6
AUSGEZOGEN
10
488.528
20
485.176
11
491.998
21
484.719
0
LINE
8
BEMASS
62
5
6
AUSGEZOGEN
10
548.528
20
485.176
11
545.058
21
485.633
0
LINE
8
BEMASS
62
5
6
AUSGEZOGEN
10
548.528
20
485.176
11
545.058
21
484.719
0
TEXT
8
BEMASS
62
7
6
AUSGEZOGEN
1
60.0
10
511.433
20
486.176
40
3.500
41
0.374
50
0.000
0
LINE
8
BEMASS
62
5
6
AUSGEZOGEN
10
488.528
20
492.176
11
578.528
21
492.176
0
LINE
8
BEMASS
62
5
6
AUSGEZOGEN
10
578.528
20
452.176
11
578.528
21
494.176
0
LINE
8
BEMASS
62
5
6
AUSGEZOGEN
10
488.528
20
492.176
11
491.998
21
492.633
0
LINE
8
BEMASS
62
5
6
AUSGEZOGEN
10
488.528
20
492.176
11
491.998
21
491.719
0
LINE
8
BEMASS
62
5
6
AUSGEZOGEN
10
578.528
20
492.176
11
575.058
21
492.633
0
LINE
8
BEMASS
62
5
6
AUSGEZOGEN
10
578.528
20
492.176
11
575.058
21
491.719
0
TEXT
8
BEMASS
62
7
6
AUSGEZOGEN
1
90.0
10
526.433
20
493.176
40
3.500
41
0.374
50
0.000
0
LINE
8
BEMASS
62
5
6
AUSGEZOGEN
10
488.528
20
499.176
11
588.528
21
499.176
0
LINE
8
BEMASS
62
5
6
AUSGEZOGEN
10
588.528
20
452.176
11
588.528
21
501.176
0
LINE
8
BEMASS
62
5
6
AUSGEZOGEN
10
488.528
20
499.176
11
491.998
21
499.633
0
LINE
8
BEMASS
62
5
6
AUSGEZOGEN
10
488.528
20
499.176
11
491.998
21
498.719
0
LINE
8
BEMASS
62
5
6
AUSGEZOGEN
10
588.528
20
499.176
11
585.058
21
499.633
0
LINE
8
BEMASS
62
5
6
AUSGEZOGEN
10
588.528
20
499.176
11
585.058
21
498.719
0
TEXT
8
BEMASS
62
7
6
AUSGEZOGEN
1
100.0
10
530.188
20
500.176
40
3.500
41
0.374
50
0.000
0
LINE
8
BEMASS
62
5
6
AUSGEZOGEN
10
488.528
20
471.176
11
488.528
21
501.176
0
LINE
8
BEMASS
62
5
6
AUSGEZOGEN
10
453.428
20
443.211
11
522.363
21
443.211
0
LINE
8
BEMASS
62
5
6
AUSGEZOGEN
10
453.428
20
443.211
11
456.898
21
443.668
0
LINE
8
BEMASS
62
5
6
AUSGEZOGEN
10
453.428
20
443.211
11
456.898
21
442.754
0
LINE
8
BEMASS
62
5
6
AUSGEZOGEN
10
522.363
20
443.211
11
518.893
21
443.668
0
LINE
8
BEMASS
62
5
6
AUSGEZOGEN
10
522.363
20
443.211
11
518.893
21
442.754
0
TEXT
8
BEMASS
62
7
6
AUSGEZOGEN
1
%%k71.0
10
462.045
20
444.211
40
3.500
41
0.374
50
0.000
0
LINE
8
BEMASS
62
5
6
AUSGEZOGEN
10
426.613
20
440.176
11
426.613
21
464.176
0
LINE
8
BEMASS
62
5
6
AUSGEZOGEN
10
439.428
20
440.176
11
424.613
21
440.176
0
LINE
8
BEMASS
62
5
6
AUSGEZOGEN
10
439.428
20
464.176
11
424.613
21
464.176
0
LINE
8
BEMASS
62
5
6
AUSGEZOGEN
10
426.613
20
440.176
11
426.157
21
443.646
0
LINE
8
BEMASS
62
5
6
AUSGEZOGEN
10
426.613
20
440.176
11
427.070
21
443.646
0
LINE
8
BEMASS
62
5
6
AUSGEZOGEN
10
426.613
20
464.176
11
426.157
21
460.706
0
LINE
8
BEMASS
62
5
6
AUSGEZOGEN
10
426.613
20
464.176
11
427.070
21
460.706
0
TEXT
8
BEMASS
62
7
6
AUSGEZOGEN
1
24.0
10
425.613
20
445.081
40
3.500
41
0.374
50
90.002
0
LINE
8
BEMASS
62
5
6
AUSGEZOGEN
10
419.613
20
433.176
11
419.613
21
471.176
0
LINE
8
BEMASS
62
5
6
AUSGEZOGEN
10
446.428
20
433.176
11
417.613
21
433.176
0
LINE
8
BEMASS
62
5
6
AUSGEZOGEN
10
446.428
20
471.176
11
417.613
21
471.176
0
LINE
8
BEMASS
62
5
6
AUSGEZOGEN
10
419.613
20
433.176
11
419.157
21
436.646
0
LINE
8
BEMASS
62
5
6
AUSGEZOGEN
10
419.613
20
433.176
11
420.070
21
436.646
0
LINE
8
BEMASS
62
5
6
AUSGEZOGEN
10
419.613
20
471.176
11
419.157
21
467.706
0
LINE
8
BEMASS
62
5
6
AUSGEZOGEN
10
419.613
20
471.176
11
420.070
21
467.706
0
TEXT
8
BEMASS
62
7
6
AUSGEZOGEN
1
38.0
10
418.613
20
445.081
40
3.500
41
0.374
50
90.002
0
LINE
8
BEMASS
62
7
6
AUSGEZOGEN
10
548.528
20
466.176
11
548.182
21
466.176
0
TEXT
8
BEMASS
62
7
6
AUSGEZOGEN
1
R 25.0
10
534.845
20
435.037
40
3.500
41
0.374
50
314.999
0
LINE
8
BEMASS
62
5
6
AUSGEZOGEN
10
532.077
20
436.391
11
534.208
21
433.614
0
LINE
8
BEMASS
62
5
6
AUSGEZOGEN
10
532.077
20
436.391
11
534.854
21
434.260
0
LINE
8
BEMASS
62
5
6
AUSGEZOGEN
10
547.017
20
421.450
11
532.077
21
436.391
0
LINE
8
BEMASS
62
5
6
AUSGEZOGEN
10
565.685
20
438.176
11
565.685
21
466.176
0
LINE
8
BEMASS
62
5
6
AUSGEZOGEN
10
565.685
20
438.176
11
565.228
21
441.646
0
LINE
8
BEMASS
62
5
6
AUSGEZOGEN
10
565.685
20
438.176
11
566.142
21
441.646
0
LINE
8
BEMASS
62
5
6
AUSGEZOGEN
10
565.685
20
466.176
11
565.228
21
462.706
0
LINE
8
BEMASS
62
5
6
AUSGEZOGEN
10
565.685
20
466.176
11
566.142
21
462.706
0
TEXT
8
BEMASS
62
7
6
AUSGEZOGEN
1
28.0
10
564.685
20
445.081
40
3.500
41
0.374
50
90.002
0
LINE
8
BEMASS
62
5
6
AUSGEZOGEN
10
548.528
20
466.176
11
567.685
21
466.176
0
LINE
8
BEMASS
62
5
6
AUSGEZOGEN
10
548.528
20
438.176
11
567.685
21
438.176
0
TEXT
8
BEMASS
62
7
6
AUSGEZOGEN
1
R 8.0
10
448.620
20
463.398
40
3.500
41
0.374
50
315.000
0
LINE
8
BEMASS
62
5
6
AUSGEZOGEN
10
444.377
20
466.226
11
446.508
21
463.450
0
LINE
8
BEMASS
62
5
6
AUSGEZOGEN
10
444.377
20
466.226
11
447.154
21
464.096
0
LINE
8
BEMASS
62
5
6
AUSGEZOGEN
10
439.428
20
471.176
11
456.656
21
453.948
0
TEXT
8
BEMASS
62
7
6
AUSGEZOGEN
1
%%k73.0
10
464.045
20
479.176
40
3.500
41
0.374
50
0.000
0
LINE
8
BEMASS
62
5
6
AUSGEZOGEN
10
451.928
20
478.176
11
523.863
21
478.176
0
LINE
8
BEMASS
62
5
6
AUSGEZOGEN
10
523.863
20
478.176
11
520.393
21
478.633
0
LINE
8
BEMASS
62
5
6
AUSGEZOGEN
10
523.863
20
478.176
11
520.393
21
477.719
0
LINE
8
BEMASS
62
5
6
AUSGEZOGEN
10
523.863
20
471.176
11
523.863
21
480.176
0
LINE
8
BEMASS
62
5
6
AUSGEZOGEN
10
451.928
20
471.176
11
451.928
21
480.176
0
LINE
8
BEMASS
62
5
6
AUSGEZOGEN
10
451.928
20
478.176
11
455.398
21
478.633
0
LINE
8
BEMASS
62
5
6
AUSGEZOGEN
10
451.928
20
478.176
11
455.398
21
477.719
0
TEXT
8
BEMASS
62
7
6
AUSGEZOGEN
1
%%k84.0
10
457.045
20
427.176
40
3.500
41
0.374
50
0.000
0
LINE
8
BEMASS
62
5
6
AUSGEZOGEN
10
446.428
20
426.176
11
529.363
21
426.176
0
LINE
8
BEMASS
62
5
6
AUSGEZOGEN
10
446.428
20
433.176
11
446.428
21
424.176
0
LINE
8
BEMASS
62
5
6
AUSGEZOGEN
10
446.428
20
426.176
11
449.898
21
425.719
0
LINE
8
BEMASS
62
5
6
AUSGEZOGEN
10
446.428
20
426.176
11
449.898
21
426.633
0
LINE
8
BEMASS
62
5
6
AUSGEZOGEN
10
529.363
20
426.176
11
525.893
21
426.633
0
LINE
8
BEMASS
62
5
6
AUSGEZOGEN
10
529.363
20
426.176
11
525.893
21
425.719
0
LINE
8
BEMASS
62
5
6
AUSGEZOGEN
10
529.363
20
433.176
11
529.363
21
424.176
0
LINE
8
BEMASS
62
5
6
AUSGEZOGEN
10
620.528
20
441.176
11
620.528
21
463.176
0
LINE
8
BEMASS
62
5
6
AUSGEZOGEN
10
620.528
20
441.176
11
620.071
21
444.646
0
LINE
8
BEMASS
62
5
6
AUSGEZOGEN
10
620.528
20
441.176
11
620.984
21
444.646
0
LINE
8
BEMASS
62
5
6
AUSGEZOGEN
10
620.528
20
463.176
11
620.071
21
459.706
0
LINE
8
BEMASS
62
5
6
AUSGEZOGEN
10
620.528
20
463.176
11
620.984
21
459.706
0
TEXT
8
BEMASS
62
7
6
AUSGEZOGEN
1
22.0
10
619.528
20
445.081
40
3.500
41
0.374
50
90.002
0
LINE
8
BEMASS
62
5
6
AUSGEZOGEN
10
700.028
20
478.176
11
703.498
21
477.719
0
LINE
8
BEMASS
62
5
6
AUSGEZOGEN
10
700.028
20
478.176
11
703.498
21
478.633
0
LINE
8
BEMASS
62
5
6
AUSGEZOGEN
10
700.028
20
471.176
11
700.028
21
480.176
0
LINE
8
BEMASS
62
5
6
AUSGEZOGEN
10
700.028
20
478.176
11
741.028
21
478.176
0
LINE
8
BEMASS
62
5
6
AUSGEZOGEN
10
741.028
20
471.176
11
741.028
21
480.176
0
LINE
8
BEMASS
62
5
6
AUSGEZOGEN
10
741.028
20
478.176
11
737.558
21
478.633
0
LINE
8
BEMASS
62
5
6
AUSGEZOGEN
10
741.028
20
478.176
11
737.558
21
477.719
0
TEXT
8
BEMASS
62
7
6
AUSGEZOGEN
1
%%k41.0
10
724.678
20
479.176
40
3.500
41
0.374
50
0.000
0
LINE
8
BEMASS
62
5
6
AUSGEZOGEN
10
755.528
20
433.176
11
755.528
21
471.176
0
LINE
8
BEMASS
62
5
6
AUSGEZOGEN
10
747.528
20
433.176
11
757.528
21
433.176
0
LINE
8
BEMASS
62
5
6
AUSGEZOGEN
10
747.528
20
471.176
11
757.528
21
471.176
0
LINE
8
BEMASS
62
5
6
AUSGEZOGEN
10
755.528
20
433.176
11
755.071
21
436.646
0
LINE
8
BEMASS
62
5
6
AUSGEZOGEN
10
755.528
20
433.176
11
755.984
21
436.646
0
LINE
8
BEMASS
62
5
6
AUSGEZOGEN
10
755.528
20
471.176
11
755.071
21
467.706
0
LINE
8
BEMASS
62
5
6
AUSGEZOGEN
10
755.528
20
471.176
11
755.984
21
467.706
0
TEXT
8
BEMASS
62
7
6
AUSGEZOGEN
1
38.0
10
754.528
20
445.081
40
3.500
41
0.374
50
90.002
0
LINE
8
BEMASS
62
5
6
AUSGEZOGEN
10
650.528
20
485.176
11
720.528
21
485.176
0
LINE
8
BEMASS
62
5
6
AUSGEZOGEN
10
650.528
20
485.176
11
653.998
21
485.633
0
LINE
8
BEMASS
62
5
6
AUSGEZOGEN
10
650.528
20
485.176
11
653.998
21
484.719
0
LINE
8
BEMASS
62
5
6
AUSGEZOGEN
10
720.528
20
485.176
11
717.058
21
485.633
0
LINE
8
BEMASS
62
5
6
AUSGEZOGEN
10
720.528
20
485.176
11
717.058
21
484.719
0
TEXT
8
BEMASS
62
7
6
AUSGEZOGEN
1
70.0
10
678.433
20
486.176
40
3.500
41
0.374
50
0.000
0
LINE
8
BEMASS
62
5
6
AUSGEZOGEN
10
650.528
20
452.176
11
650.528
21
487.176
0
LINE
8
BEMASS
62
5
6
AUSGEZOGEN
10
720.528
20
471.176
11
720.528
21
487.176
0
LINE
8
BEMASS
62
5
6
AUSGEZOGEN
10
488.528
20
419.176
11
720.528
21
419.176
0
LINE
8
BEMASS
62
5
6
AUSGEZOGEN
10
488.528
20
433.176
11
488.528
21
417.176
0
LINE
8
BEMASS
62
5
6
AUSGEZOGEN
10
720.528
20
433.176
11
720.528
21
417.176
0
LINE
8
BEMASS
62
5
6
AUSGEZOGEN
10
488.528
20
419.176
11
491.998
21
419.633
0
LINE
8
BEMASS
62
5
6
AUSGEZOGEN
10
488.528
20
419.176
11
491.998
21
418.719
0
LINE
8
BEMASS
62
5
6
AUSGEZOGEN
10
720.528
20
419.176
11
717.058
21
419.633
0
LINE
8
BEMASS
62
5
6
AUSGEZOGEN
10
720.528
20
419.176
11
717.058
21
418.719
0
TEXT
8
BEMASS
62
7
6
AUSGEZOGEN
1
232.0
10
596.188
20
420.176
40
3.500
41
0.374
50
0.000
0
LINE
8
BEMASS
62
5
6
AUSGEZOGEN
10
674.047
20
420.386
11
691.725
21
438.064
0
TEXT
8
BEMASS
62
7
6
AUSGEZOGEN
1
R 25.0
10
675.402
20
423.154
40
3.499
41
0.373
50
45.001
0
LINE
8
BEMASS
62
5
6
AUSGEZOGEN
10
691.725
20
438.064
11
688.949
21
435.933
0
LINE
8
BEMASS
62
5
6
AUSGEZOGEN
10
691.725
20
438.064
11
689.595
21
435.287
0
ARC
8
BEMASS
62
5
6
AUSGEZOGEN
10
650.527
20
447.176
40
30.948
50
355.000
51
363.125
0
LINE
8
BEMASS
62
5
6
AUSGEZOGEN
10
680.413
20
444.561
11
683.350
21
444.304
0
LINE
8
BEMASS
62
5
6
AUSGEZOGEN
10
650.528
20
447.176
11
683.476
21
447.176
0
TEXT
8
BEMASS
62
7
6
AUSGEZOGEN
1
5
10
680.301
20
442.513
40
3.503
41
0.373
50
87.490
0
LINE
8
BEMASS
62
5
6
AUSGEZOGEN
10
511.862
20
325.008
11
536.611
21
300.259
0
LINE
8
BEMASS
62
5
6
AUSGEZOGEN
10
506.912
20
320.058
11
513.276
21
326.422
0
LINE
8
BEMASS
62
5
6
AUSGEZOGEN
10
531.661
20
295.310
11
538.025
21
301.674
0
LINE
8
BEMASS
62
5
6
AUSGEZOGEN
10
511.862
20
325.008
11
514.639
21
322.877
0
LINE
8
BEMASS
62
5
6
AUSGEZOGEN
10
511.862
20
325.008
11
513.993
21
322.231
0
LINE
8
BEMASS
62
5
6
AUSGEZOGEN
10
536.611
20
300.259
11
534.480
21
303.036
0
LINE
8
BEMASS
62
5
6
AUSGEZOGEN
10
536.611
20
300.259
11
533.834
21
302.390
0
TEXT
8
BEMASS
62
7
6
AUSGEZOGEN
1
35.0
10
519.927
20
318.358
40
3.500
41
0.374
50
314.995
0
LINE
8
BEMASS
62
5
6
AUSGEZOGEN
10
412.867
20
231.670
11
440.444
21
204.093
0
LINE
8
BEMASS
62
5
6
AUSGEZOGEN
10
417.817
20
236.620
11
411.453
21
230.256
0
LINE
8
BEMASS
62
5
6
AUSGEZOGEN
10
445.394
20
209.043
11
439.030
21
202.679
0
LINE
8
BEMASS
62
5
6
AUSGEZOGEN
10
412.867
20
231.670
11
415.644
21
229.539
0
LINE
8
BEMASS
62
5
6
AUSGEZOGEN
10
412.867
20
231.670
11
414.998
21
228.893
0
LINE
8
BEMASS
62
5
6
AUSGEZOGEN
10
440.444
20
204.093
11
438.314
21
206.870
0
LINE
8
BEMASS
62
5
6
AUSGEZOGEN
10
440.444
20
204.093
11
437.668
21
206.224
0
TEXT
8
BEMASS
62
7
6
AUSGEZOGEN
1
39.0
10
422.346
20
223.605
40
3.500
41
0.374
50
314.995
0
LINE
8
BEMASS
62
5
6
AUSGEZOGEN
10
480.212
20
184.124
11
490.112
21
194.024
0
LINE
8
BEMASS
62
5
6
AUSGEZOGEN
10
466.517
20
197.820
11
481.626
21
182.710
0
LINE
8
BEMASS
62
5
6
AUSGEZOGEN
10
480.212
20
184.124
11
482.343
21
186.901
0
LINE
8
BEMASS
62
5
6
AUSGEZOGEN
10
480.212
20
184.124
11
482.989
21
186.255
0
LINE
8
BEMASS
62
5
6
AUSGEZOGEN
10
490.112
20
194.024
11
487.335
21
191.893
0
LINE
8
BEMASS
62
5
6
AUSGEZOGEN
10
490.112
20
194.024
11
487.981
21
191.247
0
TEXT
8
BEMASS
62
7
6
AUSGEZOGEN
1
%%k16.0
10
480.318
20
185.645
40
3.499
41
0.374
50
44.999
0
LINE
8
BEMASS
62
5
6
AUSGEZOGEN
10
486.316
20
197.820
11
491.526
21
192.610
0
LINE
8
BEMASS
62
5
6
AUSGEZOGEN
10
488.528
20
185.820
11
558.528
21
185.820
0
LINE
8
BEMASS
62
5
6
AUSGEZOGEN
10
488.528
20
197.820
11
488.528
21
183.820
0
LINE
8
BEMASS
62
5
6
AUSGEZOGEN
10
488.528
20
185.820
11
491.998
21
186.276
0
LINE
8
BEMASS
62
5
6
AUSGEZOGEN
10
488.528
20
185.820
11
491.998
21
185.363
0
LINE
8
BEMASS
62
5
6
AUSGEZOGEN
10
558.528
20
185.820
11
555.058
21
186.276
0
LINE
8
BEMASS
62
5
6
AUSGEZOGEN
10
558.528
20
185.820
11
555.058
21
185.363
0
TEXT
8
BEMASS
62
7
6
AUSGEZOGEN
1
%%k70.0
10
517.678
20
186.820
40
3.500
41
0.374
50
0.000
0
LINE
8
BEMASS
62
5
6
AUSGEZOGEN
10
558.528
20
332.073
11
558.528
21
168.488
0
LINE
8
BEMASS
62
5
6
AUSGEZOGEN
10
440.444
20
204.093
11
457.324
21
187.213
0
LINE
8
BEMASS
62
5
6
AUSGEZOGEN
10
445.394
20
209.043
11
439.030
21
202.679
0
LINE
8
BEMASS
62
5
6
AUSGEZOGEN
10
440.444
20
204.093
11
443.221
21
201.962
0
LINE
8
BEMASS
62
5
6
AUSGEZOGEN
10
440.444
20
204.093
11
442.575
21
201.316
0
LINE
8
BEMASS
62
5
6
AUSGEZOGEN
10
457.324
20
187.213
11
455.194
21
189.990
0
LINE
8
BEMASS
62
5
6
AUSGEZOGEN
10
457.324
20
187.213
11
454.548
21
189.344
0
TEXT
8
BEMASS
62
7
6
AUSGEZOGEN
1
19.0
10
446.335
20
199.616
40
3.500
41
0.374
50
314.995
0
LINE
8
BEMASS
62
5
6
AUSGEZOGEN
10
467.224
20
197.112
11
455.910
21
185.799
0
LINE
8
BEMASS
62
5
6
AUSGEZOGEN
10
544.528
20
196.820
11
544.528
21
252.176
0
LINE
8
BEMASS
62
5
6
AUSGEZOGEN
10
488.528
20
196.820
11
546.528
21
196.820
0
LINE
8
BEMASS
62
5
6
AUSGEZOGEN
10
544.528
20
196.820
11
544.071
21
200.290
0
LINE
8
BEMASS
62
5
6
AUSGEZOGEN
10
544.528
20
196.820
11
544.984
21
200.290
0
LINE
8
BEMASS
62
5
6
AUSGEZOGEN
10
544.528
20
252.176
11
544.071
21
248.706
0
LINE
8
BEMASS
62
5
6
AUSGEZOGEN
10
544.528
20
252.176
11
544.984
21
248.706
0
TEXT
8
BEMASS
62
7
6
AUSGEZOGEN
1
52.5
10
543.528
20
208.648
40
3.500
41
0.374
50
90.002
0
TEXT
8
BEMASS
62
7
6
AUSGEZOGEN
1
R 6.0
10
469.613
20
292.658
40
3.499
41
0.374
50
45.000
0
LINE
8
BEMASS
62
5
6
AUSGEZOGEN
10
480.042
20
301.674
11
477.266
21
299.543
0
LINE
8
BEMASS
62
5
6
AUSGEZOGEN
10
480.042
20
301.674
11
477.912
21
298.897
0
LINE
8
BEMASS
62
5
6
AUSGEZOGEN
10
484.285
20
305.916
11
469.019
21
290.650
0
LINE
8
BEMASS
62
5
6
AUSGEZOGEN
10
474.650
20
307.117
11
487.353
21
319.819
0
LINE
8
BEMASS
62
5
6
AUSGEZOGEN
10
479.600
20
302.168
11
473.236
21
308.532
0
LINE
8
BEMASS
62
5
6
AUSGEZOGEN
10
474.650
20
307.117
11
476.781
21
309.894
0
LINE
8
BEMASS
62
5
6
AUSGEZOGEN
10
474.650
20
307.117
11
477.427
21
309.248
0
LINE
8
BEMASS
62
5
6
AUSGEZOGEN
10
487.353
20
319.819
11
484.576
21
317.689
0
LINE
8
BEMASS
62
5
6
AUSGEZOGEN
10
487.353
20
319.819
11
485.222
21
317.043
0
TEXT
8
BEMASS
62
7
6
AUSGEZOGEN
1
18.0
10
477.038
20
310.919
40
3.499
41
0.374
50
44.997
0
LINE
8
BEMASS
62
5
6
AUSGEZOGEN
10
497.013
20
310.159
11
485.938
21
321.234
0
ARC
8
BEMASS
62
5
6
AUSGEZOGEN
10
488.528
20
252.176
40
71.592
50
90.000
51
135.000
0
LINE
8
BEMASS
62
5
6
AUSGEZOGEN
10
488.528
20
323.769
11
485.040
21
324.141
0
LINE
8
BEMASS
62
5
6
AUSGEZOGEN
10
488.528
20
323.769
11
485.084
21
323.228
0
LINE
8
BEMASS
62
5
6
AUSGEZOGEN
10
437.904
20
302.800
11
440.107
21
305.529
0
LINE
8
BEMASS
62
5
6
AUSGEZOGEN
10
437.904
20
302.800
11
440.721
21
304.853
0
TEXT
8
BEMASS
62
7
6
AUSGEZOGEN
1
45
10
456.493
20
317.481
40
3.500
41
0.374
50
22.506
0
LINE
8
BEMASS
62
5
6
AUSGEZOGEN
10
535.028
20
280.832
11
537.158
21
283.609
0
LINE
8
BEMASS
62
5
6
AUSGEZOGEN
10
535.028
20
280.832
11
536.367
21
284.066
0
LINE
8
BEMASS
62
5
6
AUSGEZOGEN
10
558.528
20
321.535
11
535.028
21
280.832
0
TEXT
8
BEMASS
62
7
6
AUSGEZOGEN
1
R 87.0
10
548.321
20
305.857
40
3.501
41
0.374
50
60.000
0
LINE
8
BEMASS
62
5
6
AUSGEZOGEN
10
574.028
20
310.176
11
563.675
21
271.539
0
TEXT
8
BEMASS
62
7
6
AUSGEZOGEN
1
R 40.0
10
565.405
20
281.858
40
3.502
41
0.373
50
75.000
0
LINE
8
BEMASS
62
5
6
AUSGEZOGEN
10
563.675
20
271.539
11
565.014
21
274.773
0
LINE
8
BEMASS
62
5
6
AUSGEZOGEN
10
563.675
20
271.539
11
564.132
21
275.009
0
LINE
8
BEMASS
62
5
6
AUSGEZOGEN
10
561.963
20
232.262
11
562.420
21
228.792
0
LINE
8
BEMASS
62
5
6
AUSGEZOGEN
10
561.963
20
232.262
11
563.303
21
229.028
0
LINE
8
BEMASS
62
5
6
AUSGEZOGEN
10
574.742
20
184.570
11
561.963
21
232.262
0
TEXT
8
BEMASS
62
7
6
AUSGEZOGEN
1
R 64.0
10
567.838
20
218.244
40
3.503
41
0.374
50
285.000
0
LINE
8
BEMASS
62
5
6
AUSGEZOGEN
10
418.966
20
255.270
11
431.671
21
267.975
0
LINE
8
BEMASS
62
5
6
AUSGEZOGEN
10
436.620
20
263.025
11
430.256
21
269.389
0
LINE
8
BEMASS
62
5
6
AUSGEZOGEN
10
418.966
20
255.270
11
421.096
21
258.047
0
LINE
8
BEMASS
62
5
6
AUSGEZOGEN
10
418.966
20
255.270
11
421.742
21
257.401
0
LINE
8
BEMASS
62
5
6
AUSGEZOGEN
10
431.671
20
267.975
11
428.894
21
265.844
0
LINE
8
BEMASS
62
5
6
AUSGEZOGEN
10
431.671
20
267.975
11
429.540
21
265.198
0
TEXT
8
BEMASS
62
7
6
AUSGEZOGEN
1
18.0
10
419.594
20
257.313
40
3.499
41
0.374
50
44.997
0
LINE
8
BEMASS
62
5
6
AUSGEZOGEN
10
427.716
20
246.519
11
417.551
21
256.684
0
LINE
8
BEMASS
62
5
6
AUSGEZOGEN
10
492.063
20
255.712
11
521.063
21
205.482
0
TEXT
8
BEMASS
62
7
6
AUSGEZOGEN
1
R 58.0
10
502.637
20
239.398
40
3.500
41
0.374
50
299.997
0
LINE
8
BEMASS
62
5
6
AUSGEZOGEN
10
521.063
20
205.482
11
519.724
21
208.716
0
LINE
8
BEMASS
62
5
6
AUSGEZOGEN
10
521.063
20
205.482
11
518.933
21
208.259
0
LINE
8
BEMASS
62
5
6
AUSGEZOGEN
10
489.753
20
241.051
11
510.259
21
261.557
0
LINE
8
BEMASS
62
5
6
AUSGEZOGEN
10
488.528
20
252.176
11
496.117
21
244.586
0
LINE
8
BEMASS
62
5
6
AUSGEZOGEN
10
492.063
20
255.712
11
499.653
21
248.122
0
LINE
8
BEMASS
62
5
6
AUSGEZOGEN
10
494.703
20
246.001
11
491.926
21
243.870
0
LINE
8
BEMASS
62
5
6
AUSGEZOGEN
10
494.703
20
246.001
11
492.572
21
243.224
0
LINE
8
BEMASS
62
5
6
AUSGEZOGEN
10
498.239
20
249.536
11
500.369
21
252.313
0
LINE
8
BEMASS
62
5
6
AUSGEZOGEN
10
498.239
20
249.536
11
501.015
21
251.667
0
TEXT
8
BEMASS
62
7
6
AUSGEZOGEN
1
5.0
10
501.067
20
253.779
40
3.500
41
0.374
50
44.993
0
LINE
8
BEMASS
62
5
6
AUSGEZOGEN
10
480.528
20
252.176
11
442.225
21
284.316
0
LINE
8
BEMASS
62
5
6
AUSGEZOGEN
10
442.225
20
284.316
11
444.590
21
281.735
0
LINE
8
BEMASS
62
5
6
AUSGEZOGEN
10
442.225
20
284.316
11
445.177
21
282.435
0
TEXT
8
BEMASS
62
7
6
AUSGEZOGEN
1
R 50.0
10
459.627
20
270.223
40
3.499
41
0.374
50
319.997
0
LINE
8
BEMASS
62
5
6
AUSGEZOGEN
10
473.528
20
262.305
11
505.778
21
262.305
0
LINE
8
BEMASS
62
5
6
AUSGEZOGEN
10
480.528
20
252.176
11
480.528
21
264.305
0
LINE
8
BEMASS
62
5
6
AUSGEZOGEN
10
488.528
20
252.176
11
488.528
21
264.305
0
LINE
8
BEMASS
62
5
6
AUSGEZOGEN
10
480.528
20
262.305
11
477.058
21
262.762
0
LINE
8
BEMASS
62
5
6
AUSGEZOGEN
10
480.528
20
262.305
11
477.058
21
261.848
0
LINE
8
BEMASS
62
5
6
AUSGEZOGEN
10
488.528
20
262.305
11
491.998
21
262.762
0
LINE
8
BEMASS
62
5
6
AUSGEZOGEN
10
488.528
20
262.305
11
491.998
21
261.848
0
TEXT
8
BEMASS
62
7
6
AUSGEZOGEN
1
8.0
10
491.528
20
263.305
40
3.500
41
0.374
50
0.000
0
LINE
8
BEMASS
62
5
6
AUSGEZOGEN
10
599.329
20
262.176
11
599.329
21
286.676
0
LINE
8
BEMASS
62
5
6
AUSGEZOGEN
10
599.329
20
269.176
11
598.872
21
265.706
0
LINE
8
BEMASS
62
5
6
AUSGEZOGEN
10
599.329
20
269.176
11
599.785
21
265.706
0
LINE
8
BEMASS
62
5
6
AUSGEZOGEN
10
599.329
20
270.176
11
598.872
21
273.646
0
LINE
8
BEMASS
62
5
6
AUSGEZOGEN
10
599.329
20
270.176
11
599.785
21
273.646
0
TEXT
8
BEMASS
62
7
6
AUSGEZOGEN
1
1.0
10
598.329
20
275.176
40
3.500
41
0.374
50
89.996
0
LINE
8
BEMASS
62
5
6
AUSGEZOGEN
10
548.766
20
238.750
11
548.614
21
235.253
0
LINE
8
BEMASS
62
5
6
AUSGEZOGEN
10
548.766
20
238.750
11
549.524
21
235.333
0
TEXT
8
BEMASS
62
7
6
AUSGEZOGEN
1
R 112.0
10
551.212
20
227.777
40
3.500
41
0.374
50
274.996
0
LINE
8
BEMASS
62
5
6
AUSGEZOGEN
10
552.557
20
195.420
11
548.766
21
238.750
0
LINE
8
BEMASS
62
5
6
AUSGEZOGEN
10
629.329
20
234.443
11
629.329
21
270.176
0
LINE
8
BEMASS
62
5
6
AUSGEZOGEN
10
629.329
20
234.443
11
628.872
21
237.913
0
LINE
8
BEMASS
62
5
6
AUSGEZOGEN
10
629.329
20
234.443
11
629.785
21
237.913
0
LINE
8
BEMASS
62
5
6
AUSGEZOGEN
10
629.329
20
270.176
11
628.872
21
266.706
0
LINE
8
BEMASS
62
5
6
AUSGEZOGEN
10
629.329
20
270.176
11
629.785
21
266.706
0
TEXT
8
BEMASS
62
7
6
AUSGEZOGEN
1
36.0
10
628.329
20
245.214
40
3.500
41
0.374
50
90.002
0
LINE
8
BEMASS
62
5
6
AUSGEZOGEN
10
681.528
20
252.176
11
714.852
21
243.247
0
TEXT
8
BEMASS
62
7
6
AUSGEZOGEN
1
R 12.0
10
698.207
20
248.742
40
3.503
41
0.374
50
345.000
0
LINE
8
BEMASS
62
5
6
AUSGEZOGEN
10
693.119
20
249.070
11
696.352
21
247.731
0
LINE
8
BEMASS
62
5
6
AUSGEZOGEN
10
693.119
20
249.070
11
696.589
21
248.614
0
LINE
8
BEMASS
62
5
6
AUSGEZOGEN
10
672.867
20
290.176
11
720.528
21
290.176
0
LINE
8
BEMASS
62
5
6
AUSGEZOGEN
10
720.528
20
278.176
11
720.528
21
292.176
0
LINE
8
BEMASS
62
5
6
AUSGEZOGEN
10
672.867
20
290.176
11
676.337
21
290.633
0
LINE
8
BEMASS
62
5
6
AUSGEZOGEN
10
672.867
20
290.176
11
676.337
21
289.719
0
LINE
8
BEMASS
62
5
6
AUSGEZOGEN
10
720.528
20
290.176
11
717.058
21
290.633
0
LINE
8
BEMASS
62
5
6
AUSGEZOGEN
10
720.528
20
290.176
11
717.058
21
289.719
0
TEXT
8
BEMASS
62
7
6
AUSGEZOGEN
1
52.0
10
693.603
20
291.176
40
3.500
41
0.374
50
0.000
0
LINE
8
BEMASS
62
5
6
AUSGEZOGEN
10
672.867
20
239.176
11
672.867
21
292.176
0
LINE
8
BEMASS
62
5
6
AUSGEZOGEN
10
672.867
20
289.176
11
685.808
21
240.879
0
TEXT
8
BEMASS
62
7
6
AUSGEZOGEN
1
R 50.0
10
677.823
20
274.545
40
3.503
41
0.374
50
285.000
0
LINE
8
BEMASS
62
5
6
AUSGEZOGEN
10
685.808
20
240.879
11
685.352
21
244.349
0
LINE
8
BEMASS
62
5
6
AUSGEZOGEN
10
685.808
20
240.879
11
684.469
21
244.113
0
LINE
8
BEMASS
62
5
6
AUSGEZOGEN
10
680.130
20
350.176
11
700.835
21
272.902
0
TEXT
8
BEMASS
62
7
6
AUSGEZOGEN
1
R 80.0
10
688.968
20
321.056
40
3.503
41
0.374
50
285.000
0
LINE
8
BEMASS
62
5
6
AUSGEZOGEN
10
700.835
20
272.902
11
700.378
21
276.372
0
LINE
8
BEMASS
62
5
6
AUSGEZOGEN
10
700.835
20
272.902
11
699.496
21
276.135
0
LINE
8
BEMASS
62
5
6
AUSGEZOGEN
10
722.528
20
252.176
11
745.045
21
239.176
0
TEXT
8
BEMASS
62
7
6
AUSGEZOGEN
1
R 26.0
10
725.985
20
251.335
40
3.500
41
0.374
50
330.000
0
LINE
8
BEMASS
62
5
6
AUSGEZOGEN
10
745.045
20
239.176
11
742.268
21
241.307
0
LINE
8
BEMASS
62
5
6
AUSGEZOGEN
10
745.045
20
239.176
11
741.811
21
240.515
0
LINE
8
BEMASS
62
5
6
AUSGEZOGEN
10
720.527
20
252.199
11
720.527
21
226.199
0
TEXT
8
BEMASS
62
7
6
AUSGEZOGEN
1
R 26.0
10
719.527
20
229.614
40
3.500
41
0.374
50
90.002
0
LINE
8
BEMASS
62
5
6
AUSGEZOGEN
10
720.527
20
226.199
11
720.984
21
229.669
0
LINE
8
BEMASS
62
5
6
AUSGEZOGEN
10
720.527
20
226.199
11
720.071
21
229.669
0
LINE
8
BEMASS
62
5
6
AUSGEZOGEN
10
720.528
20
252.176
11
698.877
21
264.676
0
TEXT
8
BEMASS
62
7
6
AUSGEZOGEN
1
R 25.0
10
701.902
20
264.085
40
3.500
41
0.374
50
330.000
0
LINE
8
BEMASS
62
5
6
AUSGEZOGEN
10
698.877
20
264.676
11
701.654
21
262.545
0
LINE
8
BEMASS
62
5
6
AUSGEZOGEN
10
698.877
20
264.676
11
702.111
21
263.336
0
LINE
8
BEMASS
62
5
6
AUSGEZOGEN
10
722.528
20
252.176
11
746.676
21
258.647
0
TEXT
8
BEMASS
62
7
6
AUSGEZOGEN
1
R 25.0
10
725.084
20
253.897
40
3.500
41
0.373
50
14.995
0
LINE
8
BEMASS
62
5
6
AUSGEZOGEN
10
746.676
20
258.647
11
743.206
21
258.190
0
LINE
8
BEMASS
62
5
6
AUSGEZOGEN
10
746.676
20
258.647
11
743.442
21
257.307
0
LINE
8
BEMASS
62
5
6
AUSGEZOGEN
10
336.148
20
59.200
11
336.148
21
86.878
0
LINE
8
BEMASS
62
5
6
AUSGEZOGEN
10
283.066
20
59.200
11
338.148
21
59.200
0
LINE
8
BEMASS
62
5
6
AUSGEZOGEN
10
336.148
20
59.200
11
335.691
21
62.670
0
LINE
8
BEMASS
62
5
6
AUSGEZOGEN
10
336.148
20
59.200
11
336.605
21
62.670
0
LINE
8
BEMASS
62
5
6
AUSGEZOGEN
10
336.148
20
86.878
11
335.691
21
83.408
0
LINE
8
BEMASS
62
5
6
AUSGEZOGEN
10
336.148
20
86.878
11
336.605
21
83.408
0
TEXT
8
BEMASS
62
7
6
AUSGEZOGEN
1
52.5
10
335.148
20
68.434
40
3.500
41
0.374
50
90.002
0
LINE
8
BEMASS
62
5
6
AUSGEZOGEN
10
236.044
20
77.332
11
250.539
21
62.837
0
LINE
8
BEMASS
62
5
6
AUSGEZOGEN
10
240.994
20
82.282
11
234.630
21
75.918
0
LINE
8
BEMASS
62
5
6
AUSGEZOGEN
10
236.044
20
77.332
11
238.821
21
75.202
0
LINE
8
BEMASS
62
5
6
AUSGEZOGEN
10
236.044
20
77.332
11
238.174
21
74.556
0
LINE
8
BEMASS
62
5
6
AUSGEZOGEN
10
250.539
20
62.837
11
248.409
21
65.613
0
LINE
8
BEMASS
62
5
6
AUSGEZOGEN
10
250.539
20
62.837
11
247.763
21
64.967
0
TEXT
8
BEMASS
62
7
6
AUSGEZOGEN
1
41.0
10
240.742
20
74.048
40
3.500
41
0.374
50
314.995
0
LINE
8
BEMASS
62
5
6
AUSGEZOGEN
10
301.098
20
108.445
11
307.462
21
114.809
0
LINE
8
BEMASS
62
5
6
AUSGEZOGEN
10
303.572
20
115.870
11
301.442
21
118.646
0
LINE
8
BEMASS
62
5
6
AUSGEZOGEN
10
303.572
20
115.870
11
300.796
21
118.000
0
LINE
8
BEMASS
62
5
6
AUSGEZOGEN
10
306.047
20
113.395
11
308.824
21
111.264
0
LINE
8
BEMASS
62
5
6
AUSGEZOGEN
10
306.047
20
113.395
11
308.178
21
110.618
0
TEXT
8
BEMASS
62
7
6
AUSGEZOGEN
1
7.0
10
308.890
20
111.969
40
3.500
41
0.374
50
315.003
0
LINE
8
BEMASS
62
5
6
AUSGEZOGEN
10
298.623
20
120.819
11
313.807
21
105.635
0
LINE
8
BEMASS
62
5
6
AUSGEZOGEN
10
388.531
20
66.878
11
410.995
21
66.878
0
LINE
8
BEMASS
62
5
6
AUSGEZOGEN
10
396.495
20
73.878
11
396.495
21
64.878
0
LINE
8
BEMASS
62
5
6
AUSGEZOGEN
10
395.531
20
66.878
11
392.061
21
67.335
0
LINE
8
BEMASS
62
5
6
AUSGEZOGEN
10
395.531
20
66.878
11
392.061
21
66.421
0
LINE
8
BEMASS
62
5
6
AUSGEZOGEN
10
396.495
20
66.878
11
399.965
21
67.335
0
LINE
8
BEMASS
62
5
6
AUSGEZOGEN
10
396.495
20
66.878
11
399.965
21
66.421
0
TEXT
8
BEMASS
62
7
6
AUSGEZOGEN
1
2.0
10
401.495
20
67.878
40
3.500
41
0.374
50
0.000
0
LINE
8
BEMASS
62
5
6
AUSGEZOGEN
10
245.590
20
67.786
11
263.798
21
49.578
0
LINE
8
BEMASS
62
5
6
AUSGEZOGEN
10
255.489
20
67.786
11
249.125
21
61.422
0
LINE
8
BEMASS
62
5
6
AUSGEZOGEN
10
257.964
20
65.311
11
251.600
21
58.948
0
LINE
8
BEMASS
62
5
6
AUSGEZOGEN
10
250.539
20
62.837
11
248.409
21
65.613
0
LINE
8
BEMASS
62
5
6
AUSGEZOGEN
10
250.539
20
62.837
11
247.763
21
64.967
0
LINE
8
BEMASS
62
5
6
AUSGEZOGEN
10
253.014
20
60.362
11
255.791
21
58.231
0
LINE
8
BEMASS
62
5
6
AUSGEZOGEN
10
253.014
20
60.362
11
255.145
21
57.585
0
TEXT
8
BEMASS
62
7
6
AUSGEZOGEN
1
7.0
10
257.257
20
57.533
40
3.500
41
0.374
50
315.003
0
ARC
8
BEMASS
62
5
6
AUSGEZOGEN
10
277.056
20
89.353
40
32.736
50
135.000
51
180.000
0
LINE
8
BEMASS
62
5
6
AUSGEZOGEN
10
259.967
20
106.442
11
252.494
21
113.916
0
LINE
8
BEMASS
62
5
6
AUSGEZOGEN
10
248.065
20
89.353
11
242.319
21
89.353
0
LINE
8
BEMASS
62
5
6
AUSGEZOGEN
10
253.908
20
112.501
11
251.241
21
110.220
0
LINE
8
BEMASS
62
5
6
AUSGEZOGEN
10
253.908
20
112.501
11
251.952
21
109.645
0
LINE
8
BEMASS
62
5
6
AUSGEZOGEN
10
244.319
20
89.353
11
244.048
21
92.852
0
LINE
8
BEMASS
62
5
6
AUSGEZOGEN
10
244.319
20
89.353
11
244.956
21
92.756
0
TEXT
8
BEMASS
62
7
6
AUSGEZOGEN
1
45
10
245.078
20
100.310
40
3.498
41
0.374
50
67.491
0
LINE
8
BEMASS
62
5
6
AUSGEZOGEN
10
275.531
20
86.878
11
252.531
21
126.715
0
TEXT
8
BEMASS
62
7
6
AUSGEZOGEN
1
R 50.0
10
255.897
20
122.885
40
3.500
41
0.374
50
299.997
0
LINE
8
BEMASS
62
5
6
AUSGEZOGEN
10
263.031
20
108.529
11
261.692
21
111.762
0
LINE
8
BEMASS
62
5
6
AUSGEZOGEN
10
263.031
20
108.529
11
260.900
21
111.306
0
LINE
8
BEMASS
62
5
6
AUSGEZOGEN
10
275.531
20
113.991
11
275.531
21
130.770
0
LINE
8
BEMASS
62
5
6
AUSGEZOGEN
10
279.531
20
117.991
11
279.531
21
130.770
0
LINE
8
BEMASS
62
5
6
AUSGEZOGEN
10
275.531
20
128.770
11
272.061
21
129.227
0
LINE
8
BEMASS
62
5
6
AUSGEZOGEN
10
275.531
20
128.770
11
272.061
21
128.313
0
LINE
8
BEMASS
62
5
6
AUSGEZOGEN
10
279.531
20
128.770
11
283.001
21
129.227
0
LINE
8
BEMASS
62
5
6
AUSGEZOGEN
10
279.531
20
128.770
11
283.001
21
128.313
0
TEXT
8
BEMASS
62
7
6
AUSGEZOGEN
1
8.0
10
265.610
20
129.728
40
3.500
41
0.374
50
0.000
0
LINE
8
BEMASS
62
5
6
AUSGEZOGEN
10
262.338
20
128.770
11
286.708
21
128.770
0
LINE
8
BEMASS
62
5
6
AUSGEZOGEN
10
290.491
20
128.951
11
303.572
21
115.870
0
LINE
8
BEMASS
62
5
6
AUSGEZOGEN
10
285.541
20
124.001
11
291.905
21
130.365
0
LINE
8
BEMASS
62
5
6
AUSGEZOGEN
10
298.623
20
110.920
11
304.987
21
117.284
0
LINE
8
BEMASS
62
5
6
AUSGEZOGEN
10
290.491
20
128.951
11
293.268
21
126.820
0
LINE
8
BEMASS
62
5
6
AUSGEZOGEN
10
290.491
20
128.951
11
292.622
21
126.174
0
LINE
8
BEMASS
62
5
6
AUSGEZOGEN
10
303.572
20
115.870
11
301.442
21
118.646
0
LINE
8
BEMASS
62
5
6
AUSGEZOGEN
10
303.572
20
115.870
11
300.796
21
118.000
0
TEXT
8
BEMASS
62
7
6
AUSGEZOGEN
1
37.0
10
294.483
20
126.374
40
3.500
41
0.374
50
314.995
0
LINE
8
BEMASS
62
5
6
AUSGEZOGEN
10
395.531
20
86.878
11
386.666
21
119.962
0
TEXT
8
BEMASS
62
7
6
AUSGEZOGEN
1
R 26.0
10
388.926
20
115.391
40
3.503
41
0.374
50
285.000
0
LINE
8
BEMASS
62
5
6
AUSGEZOGEN
10
392.166
20
99.436
11
391.709
21
102.906
0
LINE
8
BEMASS
62
5
6
AUSGEZOGEN
10
392.166
20
99.436
11
390.827
21
102.669
0
LINE
8
BEMASS
62
5
6
AUSGEZOGEN
10
396.531
20
86.878
11
426.192
21
69.753
0
TEXT
8
BEMASS
62
7
6
AUSGEZOGEN
1
R 26.0
10
412.619
20
78.744
40
3.500
41
0.374
50
330.000
0
LINE
8
BEMASS
62
5
6
AUSGEZOGEN
10
407.789
20
80.378
11
410.566
21
78.248
0
LINE
8
BEMASS
62
5
6
AUSGEZOGEN
10
407.789
20
80.378
11
411.023
21
79.039
0
LINE
8
BEMASS
62
5
6
AUSGEZOGEN
10
385.685
20
76.527
11
384.345
21
73.293
0
LINE
8
BEMASS
62
5
6
AUSGEZOGEN
10
385.685
20
76.527
11
385.228
21
73.056
0
TEXT
8
BEMASS
62
7
6
AUSGEZOGEN
1
R 80.0
10
379.918
20
57.773
40
3.502
41
0.373
50
75.000
0
LINE
8
BEMASS
62
5
6
AUSGEZOGEN
10
385.685
20
76.527
11
378.655
21
50.293
0
LINE
8
BEMASS
62
5
6
AUSGEZOGEN
10
279.531
20
47.132
11
395.531
21
47.132
0
LINE
8
BEMASS
62
5
6
AUSGEZOGEN
10
279.531
20
47.132
11
283.001
21
47.588
0
LINE
8
BEMASS
62
5
6
AUSGEZOGEN
10
279.531
20
47.132
11
283.001
21
46.675
0
LINE
8
BEMASS
62
5
6
AUSGEZOGEN
10
395.531
20
47.132
11
392.061
21
47.588
0
LINE
8
BEMASS
62
5
6
AUSGEZOGEN
10
395.531
20
47.132
11
392.061
21
46.675
0
TEXT
8
BEMASS
62
7
6
AUSGEZOGEN
1
232.0
10
331.681
20
48.132
40
3.500
41
0.374
50
0.000
0
LINE
8
BEMASS
62
5
6
AUSGEZOGEN
10
279.531
20
59.200
11
279.531
21
46.878
0
LINE
8
BEMASS
62
5
6
AUSGEZOGEN
10
395.531
20
73.889
11
395.531
21
46.878
0
LINE
8
BEMASS
62
5
6
AUSGEZOGEN
10
231.529
20
267.023
11
204.017
21
284.056
0
LINE
8
BEMASS
62
5
6
AUSGEZOGEN
10
231.529
20
253.001
11
252.718
21
240.559
0
LINE
8
BEMASS
62
5
6
AUSGEZOGEN
10
222.029
20
253.001
11
241.029
21
253.001
0
LINE
8
BEMASS
62
5
6
AUSGEZOGEN
10
222.029
20
259.673
11
222.029
21
251.001
0
LINE
8
BEMASS
62
5
6
AUSGEZOGEN
10
241.029
20
259.673
11
241.029
21
251.001
0
LINE
8
BEMASS
62
5
6
AUSGEZOGEN
10
222.029
20
253.001
11
225.499
21
253.457
0
LINE
8
BEMASS
62
5
6
AUSGEZOGEN
10
222.029
20
253.001
11
225.499
21
252.544
0
LINE
8
BEMASS
62
5
6
AUSGEZOGEN
10
241.029
20
253.001
11
237.559
21
253.457
0
LINE
8
BEMASS
62
5
6
AUSGEZOGEN
10
241.029
20
253.001
11
237.559
21
252.544
0
TEXT
8
BEMASS
62
7
6
AUSGEZOGEN
1
%%k19.0hF7
10
250.845
20
238.900
40
3.500
41
0.374
50
0.000
0
LINE
8
BEMASS
62
5
6
AUSGEZOGEN
10
235.197
20
216.874
11
232.245
21
218.754
0
LINE
8
BEMASS
62
5
6
AUSGEZOGEN
10
235.197
20
216.874
11
231.859
21
217.926
0
LINE
8
BEMASS
62
5
6
AUSGEZOGEN
10
246.072
20
211.802
11
227.077
21
220.660
0
TEXT
8
BEMASS
62
7
6
AUSGEZOGEN
1
R 12.0
10
238.570
20
215.754
40
3.499
41
0.373
50
335.002
0
LINE
8
BEMASS
62
5
6
AUSGEZOGEN
10
201.529
20
226.673
11
201.529
21
264.773
0
LINE
8
BEMASS
62
5
6
AUSGEZOGEN
10
225.529
20
226.673
11
199.529
21
226.673
0
LINE
8
BEMASS
62
5
6
AUSGEZOGEN
10
215.529
20
264.773
11
199.529
21
264.773
0
LINE
8
BEMASS
62
5
6
AUSGEZOGEN
10
201.529
20
226.673
11
201.072
21
230.143
0
LINE
8
BEMASS
62
5
6
AUSGEZOGEN
10
201.529
20
226.673
11
201.985
21
230.143
0
LINE
8
BEMASS
62
5
6
AUSGEZOGEN
10
201.529
20
264.773
11
201.072
21
261.303
0
LINE
8
BEMASS
62
5
6
AUSGEZOGEN
10
201.529
20
264.773
11
201.985
21
261.303
0
TEXT
8
BEMASS
62
7
6
AUSGEZOGEN
1
33.0
10
200.529
20
239.873
40
3.500
41
0.374
50
90.002
0
LINE
8
BEMASS
62
5
6
AUSGEZOGEN
10
208.529
20
228.339
11
208.529
21
264.773
0
LINE
8
BEMASS
62
5
6
AUSGEZOGEN
10
231.529
20
228.339
11
206.529
21
228.339
0
LINE
8
BEMASS
62
5
6
AUSGEZOGEN
10
208.529
20
228.339
11
208.072
21
231.809
0
LINE
8
BEMASS
62
5
6
AUSGEZOGEN
10
208.529
20
228.339
11
208.985
21
231.809
0
LINE
8
BEMASS
62
5
6
AUSGEZOGEN
10
208.529
20
264.773
11
208.072
21
261.303
0
LINE
8
BEMASS
62
5
6
AUSGEZOGEN
10
208.529
20
264.773
11
208.985
21
261.303
0
TEXT
8
BEMASS
62
7
6
AUSGEZOGEN
1
29.0
10
207.529
20
240.706
40
3.500
41
0.374
50
90.002
0
LINE
8
BEMASS
62
5
6
AUSGEZOGEN
10
232.892
20
229.702
11
208.496
21
205.307
0
LINE
8
BEMASS
62
5
6
AUSGEZOGEN
10
224.406
20
221.216
11
221.629
21
219.086
0
LINE
8
BEMASS
62
5
6
AUSGEZOGEN
10
224.406
20
221.216
11
222.276
21
218.440
0
TEXT
8
BEMASS
62
7
6
AUSGEZOGEN
1
R 12.0
10
209.371
20
207.657
40
3.499
41
0.373
50
45.001
0
LINE
8
BEMASS
62
5
6
AUSGEZOGEN
10
222.029
20
267.023
11
241.029
21
267.023
0
LINE
8
BEMASS
62
5
6
AUSGEZOGEN
10
222.029
20
267.023
11
225.499
21
267.480
0
LINE
8
BEMASS
62
5
6
AUSGEZOGEN
10
222.029
20
267.023
11
225.499
21
266.566
0
LINE
8
BEMASS
62
5
6
AUSGEZOGEN
10
241.029
20
267.023
11
237.559
21
267.480
0
LINE
8
BEMASS
62
5
6
AUSGEZOGEN
10
241.029
20
267.023
11
237.559
21
266.566
0
TEXT
8
BEMASS
62
7
6
AUSGEZOGEN
1
19.0 hh7
10
191.942
20
284.853
40
3.500
41
0.374
50
0.000
0
LINE
8
BEMASS
62
5
6
AUSGEZOGEN
10
254.529
20
252.673
11
254.529
21
281.023
0
LINE
8
BEMASS
62
5
6
AUSGEZOGEN
10
241.029
20
259.673
11
256.529
21
259.673
0
LINE
8
BEMASS
62
5
6
AUSGEZOGEN
10
241.029
20
264.773
11
256.529
21
264.773
0
LINE
8
BEMASS
62
5
6
AUSGEZOGEN
10
254.529
20
259.673
11
254.072
21
256.203
0
LINE
8
BEMASS
62
5
6
AUSGEZOGEN
10
254.529
20
259.673
11
254.985
21
256.203
0
TEXT
8
BEMASS
62
7
6
AUSGEZOGEN
1
5.1
10
253.529
20
249.773
40
3.500
41
0.374
50
89.996
0
LINE
8
BEMASS
62
5
6
AUSGEZOGEN
10
239.161
20
298.773
11
256.530
21
298.773
0
LINE
8
BEMASS
62
5
6
AUSGEZOGEN
10
240.148
20
299.773
11
256.530
21
299.773
0
LINE
8
BEMASS
62
5
6
AUSGEZOGEN
10
254.530
20
298.773
11
254.073
21
295.303
0
LINE
8
BEMASS
62
5
6
AUSGEZOGEN
10
254.530
20
298.773
11
254.987
21
295.303
0
LINE
8
BEMASS
62
5
6
AUSGEZOGEN
10
254.530
20
299.773
11
254.987
21
303.243
0
TEXT
8
BEMASS
62
7
6
AUSGEZOGEN
1
1.0
10
253.530
20
290.773
40
3.500
41
0.374
50
89.996
0
LINE
8
BEMASS
62
5
6
AUSGEZOGEN
10
254.530
20
291.773
11
254.530
21
299.773
0
LINE
8
BEMASS
62
5
6
AUSGEZOGEN
10
240.148
20
299.773
11
250.457
21
310.082
0
LINE
8
BEMASS
62
5
6
AUSGEZOGEN
10
254.530
20
299.773
11
253.637
21
302.997
0
ARC
8
BEMASS
62
5
6
AUSGEZOGEN
10
241.951
20
299.773
40
12.579
50
0.000
51
50.817
0
LINE
8
BEMASS
62
5
6
AUSGEZOGEN
10
249.899
20
309.524
11
251.546
21
306.613
0
LINE
8
BEMASS
62
5
6
AUSGEZOGEN
10
249.899
20
309.524
11
252.894
21
307.780
0
TEXT
8
BEMASS
62
7
6
AUSGEZOGEN
1
45
10
253.411
20
310.886
40
3.500
41
0.374
50
292.494
0
LINE
8
BEMASS
62
5
6
AUSGEZOGEN
10
254.529
20
257.773
11
254.529
21
287.373
0
LINE
8
BEMASS
62
5
6
AUSGEZOGEN
10
241.029
20
270.373
11
256.529
21
270.373
0
LINE
8
BEMASS
62
5
6
AUSGEZOGEN
10
254.529
20
270.373
11
254.072
21
273.843
0
LINE
8
BEMASS
62
5
6
AUSGEZOGEN
10
254.529
20
270.373
11
254.985
21
273.843
0
TEXT
8
BEMASS
62
7
6
AUSGEZOGEN
1
5.6
10
253.529
20
275.373
40
3.500
41
0.374
50
89.996
0
LINE
8
BEMASS
62
5
6
AUSGEZOGEN
10
223.896
20
321.773
11
239.161
21
321.773
0
LINE
8
BEMASS
62
5
6
AUSGEZOGEN
10
223.896
20
298.773
11
223.896
21
323.773
0
LINE
8
BEMASS
62
5
6
AUSGEZOGEN
10
239.161
20
298.787
11
239.161
21
323.773
0
LINE
8
BEMASS
62
5
6
AUSGEZOGEN
10
223.896
20
321.773
11
227.366
21
322.230
0
LINE
8
BEMASS
62
5
6
AUSGEZOGEN
10
223.896
20
321.773
11
227.366
21
321.316
0
LINE
8
BEMASS
62
5
6
AUSGEZOGEN
10
239.161
20
321.773
11
235.691
21
322.230
0
LINE
8
BEMASS
62
5
6
AUSGEZOGEN
10
239.161
20
321.773
11
235.691
21
321.316
0
TEXT
8
BEMASS
62
7
6
AUSGEZOGEN
1
%%k14
10
226.924
20
322.773
40
3.500
41
0.374
50
0.000
0
LINE
8
SCHRAFF
62
5
6
AUSGEZOGEN
10
525.604
20
471.176
11
523.226
21
468.798
0
LINE
8
SCHRAFF
62
5
6
AUSGEZOGEN
10
529.565
20
470.895
11
522.363
21
463.692
0
LINE
8
SCHRAFF
62
5
6
AUSGEZOGEN
10
531.486
20
468.573
11
522.363
21
459.450
0
LINE
8
SCHRAFF
62
5
6
AUSGEZOGEN
10
533.663
20
466.507
11
522.363
21
455.207
0
LINE
8
SCHRAFF
62
5
6
AUSGEZOGEN
10
536.098
20
464.699
11
522.363
21
450.964
0
LINE
8
SCHRAFF
62
5
6
AUSGEZOGEN
10
538.806
20
463.164
11
522.363
21
446.722
0
LINE
8
SCHRAFF
62
5
6
AUSGEZOGEN
10
541.817
20
461.933
11
522.363
21
442.479
0
LINE
8
SCHRAFF
62
5
6
AUSGEZOGEN
10
545.187
20
461.060
11
522.477
21
438.350
0
LINE
8
SCHRAFF
62
5
6
AUSGEZOGEN
10
549.003
20
460.634
11
523.373
21
435.004
0
LINE
8
SCHRAFF
62
5
6
AUSGEZOGEN
10
552.905
20
460.293
11
525.788
21
433.176
0
LINE
8
SCHRAFF
62
5
6
AUSGEZOGEN
10
556.806
20
459.951
11
537.168
21
440.313
0
LINE
8
SCHRAFF
62
5
6
AUSGEZOGEN
10
560.707
20
459.610
11
544.181
21
443.084
0
LINE
8
SCHRAFF
62
5
6
AUSGEZOGEN
10
564.609
20
459.269
11
549.063
21
443.723
0
LINE
8
SCHRAFF
62
5
6
AUSGEZOGEN
10
568.510
20
458.927
11
553.713
21
444.130
0
LINE
8
SCHRAFF
62
5
6
AUSGEZOGEN
10
572.411
20
458.586
11
558.362
21
444.537
0
LINE
8
SCHRAFF
62
5
6
AUSGEZOGEN
10
576.313
20
458.245
11
563.012
21
444.944
0
LINE
8
SCHRAFF
62
5
6
AUSGEZOGEN
10
580.214
20
457.904
11
567.661
21
445.351
0
LINE
8
SCHRAFF
62
5
6
AUSGEZOGEN
10
584.115
20
457.562
11
572.310
21
445.757
0
LINE
8
SCHRAFF
62
5
6
AUSGEZOGEN
10
588.017
20
457.221
11
576.960
21
446.164
0
LINE
8
SCHRAFF
62
5
6
AUSGEZOGEN
10
592.215
20
457.176
11
581.609
21
446.571
0
LINE
8
SCHRAFF
62
5
6
AUSGEZOGEN
10
596.457
20
457.176
11
586.259
21
446.978
0
LINE
8
SCHRAFF
62
5
6
AUSGEZOGEN
10
600.700
20
457.176
11
590.700
21
447.176
0
LINE
8
SCHRAFF
62
5
6
AUSGEZOGEN
10
604.943
20
457.176
11
594.943
21
447.176
0
LINE
8
SCHRAFF
62
5
6
AUSGEZOGEN
10
609.185
20
457.176
11
599.185
21
447.176
0
LINE
8
SCHRAFF
62
5
6
AUSGEZOGEN
10
613.428
20
457.176
11
603.428
21
447.176
0
LINE
8
SCHRAFF
62
5
6
AUSGEZOGEN
10
617.671
20
457.176
11
607.671
21
447.176
0
LINE
8
SCHRAFF
62
5
6
AUSGEZOGEN
10
621.913
20
457.176
11
611.913
21
447.176
0
LINE
8
SCHRAFF
62
5
6
AUSGEZOGEN
10
626.156
20
457.176
11
616.156
21
447.176
0
LINE
8
SCHRAFF
62
5
6
AUSGEZOGEN
10
630.398
20
457.176
11
620.398
21
447.176
0
LINE
8
SCHRAFF
62
5
6
AUSGEZOGEN
10
634.641
20
457.176
11
624.641
21
447.176
0
LINE
8
SCHRAFF
62
5
6
AUSGEZOGEN
10
638.884
20
457.176
11
628.884
21
447.176
0
LINE
8
SCHRAFF
62
5
6
AUSGEZOGEN
10
643.127
20
457.176
11
633.126
21
447.176
0
LINE
8
SCHRAFF
62
5
6
AUSGEZOGEN
10
647.369
20
457.176
11
637.369
21
447.176
0
LINE
8
SCHRAFF
62
5
6
AUSGEZOGEN
10
651.716
20
457.280
11
641.612
21
447.176
0
LINE
8
SCHRAFF
62
5
6
AUSGEZOGEN
10
656.365
20
457.687
11
645.854
21
447.176
0
LINE
8
SCHRAFF
62
5
6
AUSGEZOGEN
10
661.015
20
458.094
11
650.097
21
447.176
0
LINE
8
SCHRAFF
62
5
6
AUSGEZOGEN
10
665.664
20
458.500
11
654.033
21
446.870
0
LINE
8
SCHRAFF
62
5
6
AUSGEZOGEN
10
670.313
20
458.907
11
657.934
21
446.528
0
LINE
8
SCHRAFF
62
5
6
AUSGEZOGEN
10
674.963
20
459.314
11
661.836
21
446.187
0
LINE
8
SCHRAFF
62
5
6
AUSGEZOGEN
10
679.612
20
459.721
11
665.737
21
445.846
0
LINE
8
SCHRAFF
62
5
6
AUSGEZOGEN
10
686.321
20
462.187
11
669.638
21
445.504
0
LINE
8
SCHRAFF
62
5
6
AUSGEZOGEN
10
453.428
20
455.939
11
449.665
21
452.176
0
LINE
8
SCHRAFF
62
5
6
AUSGEZOGEN
10
453.428
20
460.181
11
445.423
21
452.176
0
LINE
8
SCHRAFF
62
5
6
AUSGEZOGEN
10
453.428
20
464.424
11
441.180
21
452.176
0
LINE
8
SCHRAFF
62
5
6
AUSGEZOGEN
10
452.775
20
468.014
11
436.937
21
452.176
0
LINE
8
SCHRAFF
62
5
6
AUSGEZOGEN
10
447.452
20
471.176
11
446.339
21
470.063
0
LINE
8
SCHRAFF
62
5
6
AUSGEZOGEN
10
451.695
20
471.176
11
434.064
21
453.546
0
LINE
8
SCHRAFF
62
5
6
AUSGEZOGEN
10
451.946
20
433.244
11
451.878
21
433.176
0
LINE
8
SCHRAFF
62
5
6
AUSGEZOGEN
10
453.428
20
438.968
11
447.636
21
433.176
0
LINE
8
SCHRAFF
62
5
6
AUSGEZOGEN
10
453.428
20
443.211
11
445.946
21
435.729
0
LINE
8
SCHRAFF
62
5
6
AUSGEZOGEN
10
453.428
20
447.453
11
444.237
21
438.263
0
LINE
8
SCHRAFF
62
5
6
AUSGEZOGEN
10
453.428
20
451.696
11
441.571
21
439.840
0
LINE
8
SCHRAFF
62
5
6
AUSGEZOGEN
10
449.665
20
452.176
11
438.837
21
441.348
0
LINE
8
SCHRAFF
62
5
6
AUSGEZOGEN
10
445.423
20
452.176
11
437.414
21
444.168
0
LINE
8
SCHRAFF
62
5
6
AUSGEZOGEN
10
441.180
20
452.176
11
435.991
21
446.987
0
LINE
8
SCHRAFF
62
5
6
AUSGEZOGEN
10
436.937
20
452.176
11
434.568
21
449.807
0
LINE
8
SCHRAFF
62
5
6
AUSGEZOGEN
10
700.028
20
467.408
11
677.441
21
444.822
0
LINE
8
SCHRAFF
62
5
6
AUSGEZOGEN
10
700.028
20
463.166
11
681.202
21
444.340
0
LINE
8
SCHRAFF
62
5
6
AUSGEZOGEN
10
700.028
20
458.923
11
684.294
21
443.189
0
LINE
8
SCHRAFF
62
5
6
AUSGEZOGEN
10
700.028
20
454.680
11
687.072
21
441.725
0
LINE
8
SCHRAFF
62
5
6
AUSGEZOGEN
10
700.028
20
450.438
11
689.571
21
439.982
0
LINE
8
SCHRAFF
62
5
6
AUSGEZOGEN
10
700.028
20
446.195
11
691.810
21
437.978
0
LINE
8
SCHRAFF
62
5
6
AUSGEZOGEN
10
700.028
20
441.953
11
693.793
21
435.718
0
LINE
8
SCHRAFF
62
5
6
AUSGEZOGEN
10
700.028
20
437.710
11
695.515
21
433.197
0
LINE
8
SCHRAFF
62
5
6
AUSGEZOGEN
10
700.028
20
433.467
11
699.736
21
433.176
0
LINE
8
SCHRAFF
62
5
6
AUSGEZOGEN
10
699.553
20
471.176
11
673.540
21
445.163
0
LINE
8
SCHRAFF
62
5
6
AUSGEZOGEN
10
747.826
20
438.839
11
742.163
21
433.176
0
LINE
8
SCHRAFF
62
5
6
AUSGEZOGEN
10
747.590
20
434.361
11
746.405
21
433.176
0
LINE
8
SCHRAFF
62
5
6
AUSGEZOGEN
10
748.061
20
443.317
11
741.028
21
436.284
0
LINE
8
SCHRAFF
62
5
6
AUSGEZOGEN
10
748.297
20
447.796
11
741.028
21
440.526
0
LINE
8
SCHRAFF
62
5
6
AUSGEZOGEN
10
748.523
20
452.264
11
741.028
21
444.769
0
LINE
8
SCHRAFF
62
5
6
AUSGEZOGEN
10
748.311
20
456.295
11
741.028
21
449.012
0
LINE
8
SCHRAFF
62
5
6
AUSGEZOGEN
10
748.099
20
460.325
11
741.028
21
453.254
0
LINE
8
SCHRAFF
62
5
6
AUSGEZOGEN
10
747.887
20
464.356
11
741.028
21
457.497
0
LINE
8
SCHRAFF
62
5
6
AUSGEZOGEN
10
747.674
20
468.386
11
741.028
21
461.739
0
LINE
8
SCHRAFF
62
5
6
AUSGEZOGEN
10
746.222
20
471.176
11
741.028
21
465.982
0
LINE
8
SCHRAFF
62
5
6
AUSGEZOGEN
10
741.979
20
471.176
11
741.028
21
470.225
0
LINE
8
SCHRAFF
62
5
6
AUSGEZOGEN
10
207.425
20
215.042
11
204.319
21
211.936
0
LINE
8
SCHRAFF
62
5
6
AUSGEZOGEN
10
207.425
20
219.284
11
201.759
21
213.618
0
LINE
8
SCHRAFF
62
5
6
AUSGEZOGEN
10
214.450
20
239.037
11
210.592
21
235.179
0
LINE
8
SCHRAFF
62
5
6
AUSGEZOGEN
10
214.450
20
243.280
11
210.592
21
239.422
0
LINE
8
SCHRAFF
62
5
6
AUSGEZOGEN
10
214.450
20
247.522
11
210.592
21
243.664
0
LINE
8
SCHRAFF
62
5
6
AUSGEZOGEN
10
214.450
20
251.765
11
210.592
21
247.907
0
LINE
8
SCHRAFF
62
5
6
AUSGEZOGEN
10
198.592
20
235.907
11
194.734
21
232.049
0
LINE
8
SCHRAFF
62
5
6
AUSGEZOGEN
10
216.558
20
258.115
11
216.306
21
257.864
0
LINE
8
SCHRAFF
62
5
6
AUSGEZOGEN
10
214.676
20
256.234
11
210.592
21
252.150
0
LINE
8
SCHRAFF
62
5
6
AUSGEZOGEN
10
198.592
20
240.150
11
194.734
21
236.292
0
LINE
8
SCHRAFF
62
5
6
AUSGEZOGEN
10
216.558
20
262.358
11
210.592
21
256.392
0
LINE
8
SCHRAFF
62
5
6
AUSGEZOGEN
10
198.592
20
244.392
11
194.734
21
240.534
0
LINE
8
SCHRAFF
62
5
6
AUSGEZOGEN
10
216.558
20
266.601
11
210.592
21
260.635
0
LINE
8
SCHRAFF
62
5
6
AUSGEZOGEN
10
198.592
20
248.635
11
194.734
21
244.777
0
LINE
8
SCHRAFF
62
5
6
AUSGEZOGEN
10
216.558
20
270.843
11
214.092
21
268.378
0
LINE
8
SCHRAFF
62
5
6
AUSGEZOGEN
10
211.705
20
265.991
11
210.592
21
264.878
0
LINE
8
SCHRAFF
62
5
6
AUSGEZOGEN
10
198.592
20
252.878
11
194.734
21
249.020
0
LINE
8
SCHRAFF
62
5
6
AUSGEZOGEN
10
216.209
20
274.737
11
214.092
21
272.620
0
LINE
8
SCHRAFF
62
5
6
AUSGEZOGEN
10
198.592
20
257.120
11
194.734
21
253.262
0
LINE
8
SCHRAFF
62
5
6
AUSGEZOGEN
10
215.839
20
278.610
11
213.920
21
276.691
0
LINE
8
SCHRAFF
62
5
6
AUSGEZOGEN
10
198.592
20
261.363
11
194.128
21
256.899
0
LINE
8
SCHRAFF
62
5
6
AUSGEZOGEN
10
215.469
20
282.482
11
212.225
21
279.238
0
LINE
8
SCHRAFF
62
5
6
AUSGEZOGEN
10
215.098
20
286.355
11
212.225
21
283.481
0
LINE
8
SCHRAFF
62
5
6
AUSGEZOGEN
10
214.728
20
290.227
11
212.225
21
287.723
0
LINE
8
SCHRAFF
62
5
6
AUSGEZOGEN
10
214.358
20
294.099
11
212.225
21
291.966
0
LINE
8
SCHRAFF
62
5
6
AUSGEZOGEN
10
196.959
20
276.701
11
196.949
21
276.691
0
LINE
8
SCHRAFF
62
5
6
AUSGEZOGEN
10
195.092
20
274.833
11
192.761
21
272.503
0
LINE
8
SCHRAFF
62
5
6
AUSGEZOGEN
10
213.987
20
297.972
11
212.225
21
296.209
0
LINE
8
SCHRAFF
62
5
6
AUSGEZOGEN
10
196.959
20
280.943
11
193.210
21
277.194
0
LINE
8
SCHRAFF
62
5
6
AUSGEZOGEN
10
213.617
20
301.844
11
212.225
21
300.451
0
LINE
8
SCHRAFF
62
5
6
AUSGEZOGEN
10
196.959
20
285.186
11
193.658
21
281.885
0
LINE
8
SCHRAFF
62
5
6
AUSGEZOGEN
10
213.247
20
305.716
11
212.225
21
304.694
0
LINE
8
SCHRAFF
62
5
6
AUSGEZOGEN
10
196.959
20
289.429
11
194.107
21
286.576
0
LINE
8
SCHRAFF
62
5
6
AUSGEZOGEN
10
196.959
20
293.671
11
194.555
21
291.267
0
LINE
8
SCHRAFF
62
5
6
AUSGEZOGEN
10
196.959
20
297.914
11
195.004
21
295.959
0
LINE
8
SCHRAFF
62
5
6
AUSGEZOGEN
10
196.959
20
302.157
11
195.452
21
300.650
0
LINE
8
SCHRAFF
62
5
6
AUSGEZOGEN
10
196.312
20
305.752
11
195.901
21
305.341
0
LINE
8
SCHRAFF
62
5
6
AUSGEZOGEN
10
198.592
20
265.606
11
192.626
21
259.640
0
LINE
8
SCHRAFF
62
5
6
AUSGEZOGEN
10
195.092
20
266.348
11
192.626
21
263.882
0
LINE
8
SCHRAFF
62
5
6
AUSGEZOGEN
10
195.092
20
270.591
11
192.626
21
268.125
0
LINE
8
SCHRAFF
62
5
6
AUSGEZOGEN
10
199.433
20
232.505
11
196.100
21
229.172
0
LINE
8
SCHRAFF
62
5
6
AUSGEZOGEN
10
202.122
20
230.952
11
198.109
21
226.939
0
LINE
8
SCHRAFF
62
5
6
AUSGEZOGEN
10
214.450
20
234.794
11
201.466
21
221.811
0
LINE
8
SCHRAFF
62
5
6
AUSGEZOGEN
10
205.414
20
230.001
11
200.095
21
224.682
0
LINE
8
SCHRAFF
62
5
6
AUSGEZOGEN
10
213.115
20
229.216
11
201.759
21
217.861
0
LINE
8
VORDER
62
1
6
STRICHPUNKTLINIE
10
191.528
20
433.633
11
191.528
21
482.176
0
LINE
8
VORDER
62
1
6
STRICHPUNKTLINIE
10
285.528
20
433.012
11
285.528
21
482.176
0
LINE
8
VORDER
62
1
6
STRICHPUNKTLINIE
10
177.528
20
452.176
11
298.528
21
452.176
0
ARC
8
VORDER
62
7
6
AUSGEZOGEN
10
285.528
20
452.176
40
14.000
50
270.000
51
450.074
0
LINE
8
VORDER
62
7
6
AUSGEZOGEN
10
191.528
20
466.176
11
285.528
21
466.176
0
LINE
8
VORDER
62
7
6
AUSGEZOGEN
10
191.528
20
438.176
11
285.528
21
438.176
0
ARC
8
VORDER
62
7
6
AUSGEZOGEN
10
191.528
20
452.176
40
14.000
50
90.000
51
270.000
0
ARC
8
VORDER
62
7
6
AUSGEZOGEN
10
191.528
20
452.176
40
12.000
50
90.000
51
270.000
0
LINE
8
VORDER
62
7
6
AUSGEZOGEN
10
191.528
20
464.176
11
285.528
21
464.176
0
LINE
8
VORDER
62
7
6
AUSGEZOGEN
10
191.528
20
440.176
11
285.528
21
440.176
0
CIRCLE
8
VORDER
62
7
6
AUSGEZOGEN
10
191.528
20
452.176
40
8.000
0
CIRCLE
8
VORDER
62
7
6
AUSGEZOGEN
10
191.528
20
452.176
40
6.000
0
CIRCLE
8
VORDER
62
7
6
AUSGEZOGEN
10
285.528
20
452.176
40
6.000
0
ARC
8
VORDER
62
7
6
AUSGEZOGEN
10
191.528
20
471.176
40
5.000
50
270.000
51
360.000
0
ARC
8
VORDER
62
7
6
AUSGEZOGEN
10
191.528
20
433.176
40
5.000
50
0.000
51
90.000
0
ARC
8
VORDER
62
7
6
AUSGEZOGEN
10
285.528
20
471.176
40
5.000
50
180.000
51
270.000
0
ARC
8
VORDER
62
7
6
AUSGEZOGEN
10
285.528
20
433.176
40
5.000
50
90.000
51
180.000
0
LINE
8
VORDER
62
7
6
AUSGEZOGEN
10
268.528
20
462.176
11
268.528
21
442.176
0
LINE
8
VORDER
62
7
6
AUSGEZOGEN
10
208.528
20
462.176
11
208.528
21
442.176
0
ARC
8
VORDER
62
7
6
AUSGEZOGEN
10
210.528
20
462.176
40
2.000
50
90.000
51
180.000
0
ARC
8
VORDER
62
7
6
AUSGEZOGEN
10
210.528
20
442.176
40
2.000
50
180.000
51
270.000
0
ARC
8
VORDER
62
7
6
AUSGEZOGEN
10
266.528
20
462.176
40
2.000
50
0.000
51
90.000
0
ARC
8
VORDER
62
7
6
AUSGEZOGEN
10
266.528
20
442.176
40
2.000
50
270.000
51
360.000
0
LINE
8
VORDER
62
7
6
GESTRICHELT
10
201.778
20
466.176
11
200.379
21
471.176
0
LINE
8
VORDER
62
7
6
GESTRICHELT
10
201.778
20
438.176
11
201.778
21
466.176
0
LINE
8
VORDER
62
7
6
GESTRICHELT
10
201.778
20
438.176
11
200.379
21
433.176
0
LINE
8
VORDER
62
7
6
GESTRICHELT
10
275.278
20
438.176
11
276.676
21
433.176
0
LINE
8
VORDER
62
7
6
GESTRICHELT
10
275.278
20
438.176
11
275.278
21
466.176
0
LINE
8
VORDER
62
7
6
GESTRICHELT
10
275.278
20
466.176
11
276.676
21
471.176
0
ARC
8
VORDER
62
7
6
AUSGEZOGEN
10
238.528
20
490.176
40
20.000
50
251.805
51
288.194
0
CIRCLE
8
VORDER
62
7
6
AUSGEZOGEN
10
285.528
20
452.176
40
8.000
0
ARC
8
VORDER
62
7
6
AUSGEZOGEN
10
285.528
20
452.176
40
12.000
50
270.000
51
450.074
0
LINE
8
VORDER
62
7
6
AUSGEZOGEN
10
244.773
20
471.176
11
280.528
21
471.176
0
LINE
8
VORDER
62
7
6
AUSGEZOGEN
10
232.283
20
471.176
11
196.528
21
471.176
0
LINE
8
VORDER
62
7
6
AUSGEZOGEN
10
196.528
20
433.176
11
280.528
21
433.176
0
LINE
8
VORDER
62
1
6
STRICHPUNKTLINIE
10
238.528
20
474.283
11
238.528
21
430.069
0
LINE
8
SEITEN
62
1
6
STRICHPUNKTLINIE
10
488.528
20
452.176
11
488.528
21
471.176
0
LINE
8
SEITEN
62
7
6
AUSGEZOGEN
10
451.928
20
471.176
11
453.428
21
465.578
0
LINE
8
SEITEN
62
7
6
AUSGEZOGEN
10
453.428
20
465.578
11
522.363
21
465.578
0
LINE
8
SEITEN
62
7
6
AUSGEZOGEN
10
451.928
20
471.176
11
446.428
21
471.176
0
ARC
8
SEITEN
62
7
6
AUSGEZOGEN
10
439.428
20
471.176
40
7.000
50
270.000
51
360.000
0
LINE
8
SEITEN
62
7
6
AUSGEZOGEN
10
433.828
20
453.077
11
439.428
21
464.176
0
LINE
8
SEITEN
62
1
6
STRICHPUNKTLINIE
10
488.528
20
452.176
11
488.528
21
433.176
0
LINE
8
SEITEN
62
7
6
AUSGEZOGEN
10
451.928
20
433.176
11
524.928
21
433.176
0
LINE
8
SEITEN
62
7
6
AUSGEZOGEN
10
451.928
20
433.176
11
453.428
21
438.774
0
LINE
8
SEITEN
62
7
6
AUSGEZOGEN
10
523.863
20
433.176
11
522.363
21
438.774
0
LINE
8
SEITEN
62
7
6
AUSGEZOGEN
10
453.428
20
438.774
11
522.363
21
438.774
0
LINE
8
SEITEN
62
7
6
AUSGEZOGEN
10
451.928
20
433.176
11
446.428
21
433.176
0
LINE
8
SEITEN
62
7
6
AUSGEZOGEN
10
523.863
20
433.176
11
529.363
21
433.176
0
LINE
8
SEITEN
62
7
6
AUSGEZOGEN
10
588.528
20
447.176
11
548.680
21
443.690
0
ARC
8
SEITEN
62
7
6
AUSGEZOGEN
10
439.428
20
433.176
40
7.000
50
0.000
51
90.000
0
LINE
8
SEITEN
62
7
6
AUSGEZOGEN
10
433.828
20
451.275
11
439.428
21
440.176
0
LINE
8
SEITEN
62
7
6
AUSGEZOGEN
10
453.428
20
438.774
11
453.428
21
465.578
0
LINE
8
SEITEN
62
7
6
AUSGEZOGEN
10
522.363
20
452.176
11
522.363
21
438.774
0
ARC
8
SEITEN
62
7
6
AUSGEZOGEN
10
549.755
20
418.713
40
25.000
50
92.463
51
144.653
0
LINE
8
SEITEN
62
7
6
AUSGEZOGEN
10
522.363
20
452.176
11
522.363
21
465.578
0
LINE
8
SEITEN
62
7
6
AUSGEZOGEN
10
523.863
20
471.176
11
522.363
21
465.578
0
LINE
8
SEITEN
62
7
6
AUSGEZOGEN
10
451.928
20
471.176
11
524.928
21
471.176
0
ARC
8
SEITEN
62
7
6
AUSGEZOGEN
10
549.755
20
485.639
40
25.000
50
215.346
51
267.536
0
LINE
8
SEITEN
62
7
6
AUSGEZOGEN
10
588.528
20
457.176
11
548.680
21
460.662
0
LINE
8
SEITEN
62
7
6
AUSGEZOGEN
10
523.863
20
471.176
11
529.363
21
471.176
0
LINE
8
SEITEN
62
7
6
AUSGEZOGEN
10
548.528
20
466.176
11
534.064
21
466.176
0
LINE
8
SEITEN
62
7
6
AUSGEZOGEN
10
548.528
20
466.176
11
588.528
21
463.176
0
LINE
8
SEITEN
62
7
6
AUSGEZOGEN
10
548.528
20
438.176
11
534.064
21
438.176
0
LINE
8
SEITEN
62
7
6
AUSGEZOGEN
10
548.528
20
438.176
11
588.528
21
441.176
0
ARC
8
SEITEN
62
7
6
AUSGEZOGEN
10
435.613
20
452.176
40
2.000
50
153.226
51
206.771
0
ARC
8
SEITEN
62
7
6
AUSGEZOGEN
10
549.755
20
418.713
40
25.000
50
92.463
51
93.885
0
LINE
8
SEITEN
62
1
6
STRICHPUNKTLINIE
10
432.695
20
452.176
11
753.906
21
452.176
0
LINE
8
SEITEN
62
7
6
AUSGEZOGEN
10
741.028
20
433.176
11
741.028
21
471.176
0
LINE
8
SEITEN
62
7
6
AUSGEZOGEN
10
700.028
20
471.176
11
741.028
21
471.176
0
LINE
8
SEITEN
62
7
6
AUSGEZOGEN
10
741.028
20
471.176
11
747.528
21
471.176
0
LINE
8
SEITEN
62
7
6
AUSGEZOGEN
10
747.528
20
471.176
11
748.528
21
452.176
0
LINE
8
SEITEN
62
7
6
AUSGEZOGEN
10
700.028
20
433.176
11
741.028
21
433.176
0
LINE
8
SEITEN
62
7
6
AUSGEZOGEN
10
747.528
20
433.176
11
748.528
21
452.176
0
LINE
8
SEITEN
62
7
6
AUSGEZOGEN
10
741.028
20
433.176
11
747.528
21
433.176
0
LINE
8
SEITEN
62
7
6
AUSGEZOGEN
10
700.028
20
433.176
11
695.528
21
433.176
0
ARC
8
SEITEN
62
7
6
AUSGEZOGEN
10
674.047
20
420.386
40
25.000
50
30.771
51
75.247
0
LINE
8
SEITEN
62
7
6
AUSGEZOGEN
10
700.028
20
471.176
11
700.028
21
433.176
0
LINE
8
SEITEN
62
1
6
STRICHPUNKTLINIE
10
720.528
20
433.176
11
720.528
21
471.176
0
ARC
8
SEITEN
62
7
6
AUSGEZOGEN
10
674.047
20
483.967
40
25.000
50
284.752
51
329.228
0
LINE
8
SEITEN
62
7
6
AUSGEZOGEN
10
700.028
20
471.176
11
695.528
21
471.176
0
LINE
8
SEITEN
62
7
6
AUSGEZOGEN
10
588.528
20
441.176
11
687.931
21
441.176
0
LINE
8
SEITEN
62
7
6
AUSGEZOGEN
10
588.528
20
463.176
11
687.931
21
463.176
0
LINE
8
SEITEN
62
7
6
AUSGEZOGEN
10
650.528
20
457.176
11
588.528
21
457.176
0
LINE
8
SEITEN
62
7
6
AUSGEZOGEN
10
650.528
20
457.176
11
680.413
21
459.791
0
LINE
8
SEITEN
62
7
6
AUSGEZOGEN
10
650.528
20
447.176
11
680.413
21
444.561
0
LINE
8
SEITEN
62
7
6
AUSGEZOGEN
10
650.528
20
447.176
11
588.528
21
447.176
0
LINE
8
DRAUF
62
1
6
STRICHPUNKTLINIE
10
488.528
20
197.820
11
488.528
21
251.414
0
ARC
8
DRAUF
62
7
6
AUSGEZOGEN
10
574.028
20
310.176
40
40.000
50
225.000
51
270.000
0
LINE
8
DRAUF
62
7
6
AUSGEZOGEN
10
531.661
20
295.310
11
506.912
21
320.058
0
LINE
8
DRAUF
62
7
6
AUSGEZOGEN
10
531.661
20
295.310
11
545.743
21
281.892
0
LINE
8
DRAUF
62
7
6
AUSGEZOGEN
10
574.028
20
270.176
11
578.528
21
270.176
0
ARC
8
DRAUF
62
7
6
AUSGEZOGEN
10
578.528
20
356.176
40
87.000
50
231.533
51
270.000
0
LINE
8
DRAUF
62
7
6
AUSGEZOGEN
10
445.394
20
209.043
11
417.817
21
236.620
0
LINE
8
DRAUF
62
7
6
AUSGEZOGEN
10
445.394
20
209.043
11
456.617
21
197.820
0
LINE
8
DRAUF
62
7
6
AUSGEZOGEN
10
495.599
20
197.820
11
456.617
21
197.820
0
ARC
8
DRAUF
62
7
6
AUSGEZOGEN
10
492.063
20
255.712
40
58.000
50
273.494
51
319.410
0
ARC
8
DRAUF
62
7
6
AUSGEZOGEN
10
574.077
20
185.443
40
50.000
50
90.000
51
139.410
0
LINE
8
DRAUF
62
7
6
AUSGEZOGEN
10
495.599
20
196.820
11
480.107
21
196.820
0
ARC
8
DRAUF
62
7
6
AUSGEZOGEN
10
492.063
20
255.712
40
59.000
50
273.494
51
319.410
0
ARC
8
DRAUF
62
7
6
AUSGEZOGEN
10
574.077
20
185.443
40
49.000
50
125.482
51
139.410
0
LINE
8
DRAUF
62
7
6
AUSGEZOGEN
10
545.635
20
225.343
11
546.746
21
225.994
0
ARC
8
DRAUF
62
7
6
AUSGEZOGEN
10
485.349
20
243.634
40
47.106
50
256.546
51
263.610
0
LINE
8
DRAUF
62
1
6
STRICHPUNKTLINIE
10
488.528
20
328.070
11
488.528
21
251.269
0
LINE
8
DRAUF
62
7
6
AUSGEZOGEN
10
417.817
20
236.620
11
436.202
21
255.005
0
ARC
8
DRAUF
62
7
6
AUSGEZOGEN
10
431.959
20
259.247
40
6.000
50
315.000
51
405.074
0
ARC
8
DRAUF
62
7
6
AUSGEZOGEN
10
444.389
20
269.322
40
10.000
50
154.618
51
219.026
0
ARC
8
DRAUF
62
7
6
AUSGEZOGEN
10
484.285
20
305.916
40
6.000
50
218.666
51
315.000
0
ARC
8
DRAUF
62
7
6
AUSGEZOGEN
10
480.528
20
252.176
40
50.000
50
91.062
51
154.618
0
ARC
8
DRAUF
62
7
6
AUSGEZOGEN
10
578.528
20
170.443
40
64.000
50
90.000
51
120.927
0
ARC
8
DRAUF
62
7
6
AUSGEZOGEN
10
558.528
20
127.176
40
112.000
50
90.000
51
100.147
0
ARC
8
DRAUF
62
7
6
AUSGEZOGEN
10
488.528
20
252.176
40
44.000
50
349.810
51
370.263
0
ARC
8
DRAUF
62
7
6
AUSGEZOGEN
10
537.739
20
243.331
40
6.000
50
169.809
51
280.147
0
ARC
8
DRAUF
62
7
6
AUSGEZOGEN
10
558.528
20
377.176
40
112.000
50
259.852
51
270.000
0
ARC
8
DRAUF
62
7
6
AUSGEZOGEN
10
537.739
20
261.022
40
6.000
50
79.852
51
190.190
0
LINE
8
DRAUF
62
1
6
STRICHPUNKTLINIE
10
535.938
20
271.234
11
497.013
21
310.159
0
LINE
8
DRAUF
62
1
6
STRICHPUNKTLINIE
10
469.470
20
204.766
11
428.424
21
245.812
0
LINE
8
DRAUF
62
7
6
GESTRICHELT
10
503.117
20
314.849
11
523.199
21
294.767
0
LINE
8
DRAUF
62
5
6
AUSGEZOGEN
10
512.397
20
283.980
11
512.397
21
283.966
0
LINE
8
DRAUF
62
7
6
GESTRICHELT
10
532.085
20
288.521
11
529.611
21
286.047
0
LINE
8
DRAUF
62
7
6
AUSGEZOGEN
10
513.630
20
277.278
11
531.661
21
295.310
0
LINE
8
DRAUF
62
7
6
AUSGEZOGEN
10
488.528
20
301.674
11
506.912
21
320.058
0
LINE
8
DRAUF
62
7
6
GESTRICHELT
10
467.224
20
197.112
11
477.123
21
207.012
0
LINE
8
DRAUF
62
7
6
AUSGEZOGEN
10
463.425
20
227.074
11
445.394
21
209.043
0
LINE
8
DRAUF
62
1
6
STRICHPUNKTLINIE
10
545.096
20
195.608
11
433.466
21
307.238
0
LINE
8
DRAUF
62
1
6
STRICHPUNKTLINIE
10
463.425
20
227.074
11
513.630
21
277.278
0
LINE
8
DRAUF
62
7
6
GESTRICHELT
10
503.108
20
314.858
11
523.199
21
294.767
0
LINE
8
DRAUF
62
7
6
GESTRICHELT
10
503.108
20
316.255
11
503.108
21
314.841
0
LINE
8
DRAUF
62
7
6
GESTRICHELT
10
492.323
20
304.055
11
503.117
21
314.849
0
LINE
8
DRAUF
62
1
6
STRICHPUNKTLINIE
10
553.834
20
253.338
11
495.436
21
311.736
0
LINE
8
DRAUF
62
7
6
GESTRICHELT
10
492.323
20
304.055
11
512.405
21
283.973
0
LINE
8
DRAUF
62
7
6
GESTRICHELT
10
490.917
20
304.064
11
492.331
21
304.064
0
LINE
8
DRAUF
62
7
6
GESTRICHELT
10
511.084
20
282.652
11
524.519
21
296.087
0
LINE
8
DRAUF
62
7
6
GESTRICHELT
10
532.085
20
288.521
11
524.519
21
296.087
0
LINE
8
DRAUF
62
7
6
GESTRICHELT
10
518.650
20
275.086
11
532.085
21
288.521
0
LINE
8
DRAUF
62
7
6
GESTRICHELT
10
550.117
20
266.955
11
530.318
21
286.754
0
LINE
8
DRAUF
62
7
6
GESTRICHELT
10
529.611
20
286.047
11
552.945
21
262.712
0
LINE
8
DRAUF
62
7
6
GESTRICHELT
10
540.217
20
257.055
11
520.418
21
276.854
0
LINE
8
DRAUF
62
7
6
GESTRICHELT
10
544.460
20
254.227
11
521.125
21
277.561
0
LINE
8
DRAUF
62
7
6
GESTRICHELT
10
511.084
20
282.652
11
518.650
21
275.086
0
LINE
8
DRAUF
62
7
6
GESTRICHELT
10
549.409
20
266.248
11
540.924
21
257.762
0
LINE
8
DRAUF
62
7
6
GESTRICHELT
10
544.460
20
254.227
11
552.945
21
262.712
0
LINE
8
DRAUF
62
7
6
GESTRICHELT
10
544.460
20
254.227
11
551.152
21
256.020
0
LINE
8
DRAUF
62
7
6
GESTRICHELT
10
552.945
20
262.712
11
551.152
21
256.020
0
LINE
8
DRAUF
62
7
6
GESTRICHELT
10
549.409
20
266.248
11
550.117
21
266.955
0
LINE
8
DRAUF
62
7
6
GESTRICHELT
10
540.924
20
257.762
11
540.217
21
257.055
0
LINE
8
DRAUF
62
7
6
GESTRICHELT
10
433.811
20
251.219
11
453.903
21
231.127
0
LINE
8
DRAUF
62
7
6
GESTRICHELT
10
433.811
20
252.616
11
433.811
21
251.202
0
LINE
8
DRAUF
62
7
6
GESTRICHELT
10
423.027
20
240.415
11
433.821
21
251.209
0
LINE
8
DRAUF
62
7
6
GESTRICHELT
10
423.027
20
240.415
11
443.108
21
220.333
0
LINE
8
DRAUF
62
7
6
GESTRICHELT
10
421.620
20
240.425
11
423.034
21
240.425
0
LINE
8
DRAUF
62
7
6
GESTRICHELT
10
441.788
20
219.013
11
455.223
21
232.448
0
LINE
8
DRAUF
62
7
6
GESTRICHELT
10
462.789
20
224.882
11
455.223
21
232.448
0
LINE
8
DRAUF
62
7
6
GESTRICHELT
10
449.354
20
211.447
11
462.789
21
224.882
0
LINE
8
DRAUF
62
7
6
GESTRICHELT
10
441.788
20
219.013
11
449.354
21
211.447
0
LINE
8
DRAUF
62
7
6
GESTRICHELT
10
466.517
20
197.820
11
451.122
21
213.215
0
LINE
8
DRAUF
62
7
6
GESTRICHELT
10
467.931
20
197.820
11
451.829
21
213.922
0
LINE
8
DRAUF
62
7
6
GESTRICHELT
10
486.316
20
197.820
11
461.021
21
223.114
0
LINE
8
DRAUF
62
7
6
GESTRICHELT
10
460.314
20
222.407
11
476.416
21
206.305
0
LINE
8
DRAUF
62
1
6
STRICHPUNKTLINIE
10
479.033
20
195.203
11
427.716
21
246.519
0
CIRCLE
8
DRAUF
62
7
6
AUSGEZOGEN
10
488.528
20
252.176
40
35.500
0
CIRCLE
8
DRAUF
62
7
6
AUSGEZOGEN
10
488.528
20
252.176
40
36.600
0
CIRCLE
8
DRAUF
62
7
6
AUSGEZOGEN
10
488.528
20
252.176
40
42.000
0
ARC
8
DRAUF
62
7
6
AUSGEZOGEN
10
680.409
20
155.199
40
80.000
50
68.534
51
90.200
0
ARC
8
DRAUF
62
7
6
AUSGEZOGEN
10
680.409
20
349.176
40
80.000
50
269.800
51
291.687
0
ARC
8
DRAUF
62
7
6
AUSGEZOGEN
10
672.867
20
289.176
40
50.000
50
270.000
51
283.173
0
ARC
8
DRAUF
62
7
6
AUSGEZOGEN
10
681.528
20
252.176
40
12.000
50
283.239
51
360.000
0
ARC
8
DRAUF
62
7
6
AUSGEZOGEN
10
672.867
20
215.176
40
50.000
50
76.826
51
90.000
0
ARC
8
DRAUF
62
7
6
AUSGEZOGEN
10
681.528
20
252.176
40
12.000
50
0.000
51
76.760
0
LINE
8
DRAUF
62
7
6
AUSGEZOGEN
10
558.528
20
239.176
11
672.867
21
239.176
0
LINE
8
DRAUF
62
7
6
AUSGEZOGEN
10
558.528
20
265.176
11
672.867
21
265.176
0
LINE
8
DRAUF
62
7
6
AUSGEZOGEN
10
574.077
20
235.443
11
680.130
21
235.443
0
LINE
8
DRAUF
62
7
6
AUSGEZOGEN
10
578.528
20
269.176
11
680.130
21
269.176
0
LINE
8
DRAUF
62
7
6
AUSGEZOGEN
10
578.528
20
270.176
11
680.130
21
270.176
0
LINE
8
DRAUF
62
7
6
AUSGEZOGEN
10
578.528
20
234.443
11
680.130
21
234.443
0
ARC
8
DRAUF
62
7
6
AUSGEZOGEN
10
680.130
20
154.199
40
80.000
50
67.597
51
90.000
0
ARC
8
DRAUF
62
7
6
AUSGEZOGEN
10
720.527
20
252.199
40
26.000
50
247.598
51
270.000
0
ARC
8
DRAUF
62
7
6
AUSGEZOGEN
10
720.527
20
252.176
40
26.000
50
89.999
51
112.402
0
LINE
8
DRAUF
62
7
6
AUSGEZOGEN
10
722.599
20
278.176
11
720.599
21
278.176
0
ARC
8
DRAUF
62
7
6
AUSGEZOGEN
10
680.130
20
350.176
40
80.000
50
270.000
51
292.402
0
CIRCLE
8
DRAUF
62
7
6
AUSGEZOGEN
10
720.528
20
252.176
40
20.500
0
LINE
8
DRAUF
62
7
6
AUSGEZOGEN
10
720.528
20
226.176
11
722.456
21
226.176
0
LINE
8
DRAUF
62
7
6
AUSGEZOGEN
10
720.528
20
227.176
11
722.459
21
227.176
0
LINE
8
DRAUF
62
7
6
AUSGEZOGEN
10
720.980
20
277.176
11
718.911
21
277.176
0
LINE
8
DRAUF
62
7
6
AUSGEZOGEN
10
720.528
20
227.176
11
720.528
21
227.256
0
LINE
8
DRAUF
62
7
6
AUSGEZOGEN
10
720.528
20
227.176
11
720.528
21
227.256
0
LINE
8
DRAUF
62
7
6
AUSGEZOGEN
10
720.528
20
227.176
11
720.528
21
227.256
0
LINE
8
DRAUF
62
7
6
AUSGEZOGEN
10
720.528
20
277.176
11
722.596
21
277.176
0
LINE
8
DRAUF
62
7
6
AUSGEZOGEN
10
720.528
20
278.176
11
722.599
21
278.176
0
ARC
8
DRAUF
62
7
6
AUSGEZOGEN
10
720.528
20
252.176
40
25.000
50
90.000
51
270.000
0
ARC
8
DRAUF
62
7
6
AUSGEZOGEN
10
722.528
20
252.176
40
26.000
50
269.842
51
449.916
0
ARC
8
DRAUF
62
7
6
AUSGEZOGEN
10
722.528
20
252.176
40
25.000
50
265.411
51
449.916
0
LINE
8
DRAUF
62
1
6
STRICHPUNKTLINIE
10
722.336
20
182.515
11
722.719
21
321.837
0
LINE
8
DRAUF
62
1
6
STRICHPUNKTLINIE
10
720.528
20
182.176
11
720.528
21
278.176
0
LINE
8
DRAUF
62
1
6
STRICHPUNKTLINIE
10
758.400
20
252.176
11
427.322
21
252.176
0
LINE
8
SCHMIEDE
62
1
6
STRICHPUNKTLINIE
10
395.531
20
73.889
11
395.531
21
121.878
0
LINE
8
SCHMIEDE
62
1
6
STRICHPUNKTLINIE
10
396.495
20
73.878
11
396.627
21
121.709
0
ARC
8
SCHMIEDE
62
7
6
AUSGEZOGEN
10
396.531
20
86.878
40
13.000
50
269.842
51
449.916
0
LINE
8
SCHMIEDE
62
7
6
AUSGEZOGEN
10
395.531
20
99.878
11
396.567
21
99.878
0
CIRCLE
8
SCHMIEDE
62
7
6
AUSGEZOGEN
10
279.531
20
86.878
40
21.000
0
CIRCLE
8
SCHMIEDE
62
1
6
STRICHPUNKTLINIE
10
395.531
20
86.878
40
10.250
0
ARC
8
SCHMIEDE
62
7
6
AUSGEZOGEN
10
375.332
20
135.878
40
40.000
50
270.000
51
292.402
0
ARC
8
SCHMIEDE
62
7
6
AUSGEZOGEN
10
395.531
20
86.878
40
13.000
50
90.000
51
112.402
0
ARC
8
SCHMIEDE
62
7
6
AUSGEZOGEN
10
395.531
20
86.889
40
13.000
50
247.598
51
270.000
0
ARC
8
SCHMIEDE
62
7
6
AUSGEZOGEN
10
375.332
20
37.889
40
40.000
50
67.597
51
90.000
0
LINE
8
SCHMIEDE
62
7
6
AUSGEZOGEN
10
324.531
20
78.011
11
375.332
21
78.011
0
LINE
8
SCHMIEDE
62
7
6
AUSGEZOGEN
10
301.098
20
108.445
11
285.541
21
124.001
0
LINE
8
SCHMIEDE
62
7
6
AUSGEZOGEN
10
301.098
20
108.445
11
313.418
21
96.706
0
CIRCLE
8
SCHMIEDE
62
7
6
AUSGEZOGEN
10
279.531
20
86.878
40
18.300
0
LINE
8
SCHMIEDE
62
7
6
AUSGEZOGEN
10
257.964
20
65.311
11
240.994
21
82.282
0
LINE
8
SCHMIEDE
62
7
6
AUSGEZOGEN
10
257.964
20
65.311
11
264.076
21
59.200
0
LINE
8
SCHMIEDE
62
7
6
AUSGEZOGEN
10
283.066
20
59.200
11
264.076
21
59.200
0
ARC
8
SCHMIEDE
62
7
6
AUSGEZOGEN
10
281.299
20
88.646
40
29.500
50
273.494
51
319.410
0
ARC
8
SCHMIEDE
62
7
6
AUSGEZOGEN
10
322.305
20
53.511
40
24.500
50
125.482
51
139.410
0
ARC
8
SCHMIEDE
62
7
6
AUSGEZOGEN
10
257.461
20
95.451
40
5.000
50
154.618
51
197.192
0
ARC
8
SCHMIEDE
62
7
6
AUSGEZOGEN
10
275.531
20
86.878
40
25.000
50
95.073
51
154.618
0
ARC
8
SCHMIEDE
62
7
6
AUSGEZOGEN
10
324.531
20
46.011
40
32.000
50
90.000
51
120.927
0
LINE
8
SCHMIEDE
62
7
6
AUSGEZOGEN
10
314.531
20
93.378
11
371.701
21
93.378
0
LINE
8
SCHMIEDE
62
7
6
AUSGEZOGEN
10
314.531
20
80.378
11
371.701
21
80.378
0
ARC
8
SCHMIEDE
62
7
6
AUSGEZOGEN
10
376.031
20
86.878
40
6.000
50
0.000
51
76.760
0
ARC
8
SCHMIEDE
62
7
6
AUSGEZOGEN
10
371.701
20
68.378
40
25.000
50
76.826
51
90.000
0
ARC
8
SCHMIEDE
62
7
6
AUSGEZOGEN
10
376.031
20
86.878
40
6.000
50
283.239
51
360.000
0
ARC
8
SCHMIEDE
62
7
6
AUSGEZOGEN
10
371.701
20
105.378
40
25.000
50
270.000
51
283.173
0
ARC
8
SCHMIEDE
62
7
6
AUSGEZOGEN
10
314.531
20
24.378
40
56.000
50
90.000
51
100.147
0
ARC
8
SCHMIEDE
62
7
6
AUSGEZOGEN
10
279.531
20
86.878
40
22.000
50
349.810
51
370.263
0
ARC
8
SCHMIEDE
62
7
6
AUSGEZOGEN
10
304.136
20
82.455
40
3.000
50
169.809
51
280.147
0
ARC
8
SCHMIEDE
62
7
6
AUSGEZOGEN
10
314.531
20
149.378
40
56.000
50
259.852
51
270.000
0
ARC
8
SCHMIEDE
62
7
6
AUSGEZOGEN
10
304.136
20
91.301
40
3.000
50
79.852
51
190.190
0
LINE
8
SCHMIEDE
62
1
6
STRICHPUNKTLINIE
10
303.236
20
96.407
11
282.258
21
117.385
0
LINE
8
SCHMIEDE
62
1
6
STRICHPUNKTLINIE
10
270.002
20
63.173
11
247.889
21
85.286
0
LINE
8
SCHMIEDE
62
1
6
STRICHPUNKTLINIE
10
255.489
20
67.786
11
298.623
21
110.920
0
LINE
8
SCHMIEDE
62
1
6
STRICHPUNKTLINIE
10
277.056
20
89.353
11
248.065
21
89.353
0
LINE
8
SCHMIEDE
62
7
6
AUSGEZOGEN
10
273.320
20
111.780
11
285.541
21
124.001
0
LINE
8
SCHMIEDE
62
7
6
AUSGEZOGEN
10
240.994
20
82.282
11
252.685
21
93.973
0
LINE
8
SCHMIEDE
62
1
6
STRICHPUNKTLINIE
10
257.964
20
65.311
11
301.098
21
108.445
0
LINE
8
SCHMIEDE
62
1
6
STRICHPUNKTLINIE
10
277.056
20
89.353
11
259.967
21
106.442
0
LINE
8
SCHMIEDE
62
1
6
STRICHPUNKTLINIE
10
275.531
20
86.878
11
275.531
21
113.991
0
LINE
8
SCHMIEDE
62
1
6
STRICHPUNKTLINIE
10
279.531
20
117.991
11
279.531
21
59.200
0
CIRCLE
8
SCHMIEDE
62
7
6
AUSGEZOGEN
10
279.531
20
86.878
40
17.750
0
LINE
8
SCHMIEDE
62
1
6
STRICHPUNKTLINIE
10
414.467
20
86.878
11
230.314
21
86.878
0
ARC
8
SCHMIEDE
62
7
6
AUSGEZOGEN
10
315.487
20
98.878
40
2.999
50
226.384
51
270.000
0
LINE
8
SCHMIEDE
62
7
6
AUSGEZOGEN
10
315.487
20
95.878
11
375.332
21
95.878
0
ARC
8
SCHMIEDE
62
7
6
AUSGEZOGEN
10
316.509
20
121.999
40
26.140
50
238.119
51
267.186
0
LINE
8
SCHMIEDE
62
7
6
AUSGEZOGEN
10
395.531
20
73.878
11
396.495
21
73.878
0
ARC
8
SCHNITT
62
7
6
AUSGEZOGEN
10
232.892
20
229.702
40
12.000
50
200.760
51
232.210
0
ARC
8
SCHNITT
62
7
6
AUSGEZOGEN
10
232.892
20
241.492
40
12.000
50
127.789
51
159.239
0
ARC
8
SCHNITT
62
7
6
AUSGEZOGEN
10
232.892
20
241.492
40
12.000
50
127.789
51
159.239
0
ARC
8
SCHNITT
62
7
6
AUSGEZOGEN
10
216.985
20
211.802
40
12.000
50
12.605
51
44.536
0
LINE
8
SCHNITT
62
7
6
AUSGEZOGEN
10
231.529
20
314.773
11
238.148
21
314.773
0
LINE
8
SCHNITT
62
7
6
AUSGEZOGEN
10
231.529
20
314.773
11
224.909
21
314.773
0
LINE
8
SCHNITT
62
7
6
AUSGEZOGEN
10
222.909
20
299.773
11
240.148
21
299.773
0
LINE
8
SCHNITT
62
7
6
AUSGEZOGEN
10
223.896
20
298.773
11
239.161
21
298.773
0
LINE
8
SCHNITT
62
7
6
AUSGEZOGEN
10
222.029
20
270.373
11
241.029
21
270.373
0
LINE
8
SCHNITT
62
7
6
AUSGEZOGEN
10
223.896
20
298.773
11
223.896
21
270.373
0
LINE
8
SCHNITT
62
7
6
AUSGEZOGEN
10
239.161
20
298.773
11
239.161
21
270.373
0
LINE
8
SCHNITT
62
7
6
AUSGEZOGEN
10
222.908
20
299.774
11
223.908
21
298.774
0
LINE
8
SCHNITT
62
7
6
AUSGEZOGEN
10
240.149
20
299.774
11
239.149
21
298.774
0
ARC
8
SCHNITT
62
7
6
AUSGEZOGEN
10
211.582
20
316.736
40
12.000
50
289.198
51
340.717
0
ARC
8
SCHNITT
62
7
6
AUSGEZOGEN
10
251.475
20
316.736
40
12.000
50
199.282
51
250.801
0
LINE
8
SCHNITT
62
7
6
AUSGEZOGEN
10
241.029
20
270.373
11
241.029
21
259.673
0
LINE
8
SCHNITT
62
7
6
AUSGEZOGEN
10
222.029
20
270.373
11
222.029
21
259.673
0
LINE
8
SCHNITT
62
7
6
AUSGEZOGEN
10
222.029
20
259.673
11
241.029
21
259.673
0
LINE
8
SCHNITT
62
7
6
AUSGEZOGEN
10
225.529
20
259.673
11
225.529
21
226.673
0
LINE
8
SCHNITT
62
7
6
AUSGEZOGEN
10
225.529
20
226.673
11
237.529
21
226.673
0
LINE
8
SCHNITT
62
7
6
AUSGEZOGEN
10
237.529
20
259.673
11
237.529
21
226.673
0
LINE
8
SCHNITT
62
7
6
AUSGEZOGEN
10
225.529
20
226.673
11
231.529
21
223.209
0
LINE
8
SCHNITT
62
7
6
AUSGEZOGEN
10
237.529
20
226.673
11
231.529
21
223.209
0
LINE
8
SCHNITT
62
7
6
AUSGEZOGEN
10
215.529
20
264.773
11
247.529
21
264.773
0
LINE
8
SCHNITT
62
7
6
AUSGEZOGEN
10
222.909
20
299.773
11
219.563
21
264.773
0
LINE
8
SCHNITT
62
7
6
AUSGEZOGEN
10
240.148
20
299.773
11
243.494
21
264.773
0
LINE
8
SCHNITT
62
7
6
AUSGEZOGEN
10
243.494
20
263.190
11
243.494
21
206.420
0
LINE
8
SCHNITT
62
7
6
AUSGEZOGEN
10
219.563
20
264.773
11
219.563
21
206.420
0
ARC
8
SCHNITT
62
7
6
AUSGEZOGEN
10
214.563
20
215.773
40
5.000
50
0.000
51
78.862
0
ARC
8
SCHNITT
62
7
6
AUSGEZOGEN
10
248.494
20
215.773
40
5.000
50
101.137
51
180.000
0
LINE
8
SCHNITT
62
7
6
AUSGEZOGEN
10
219.563
20
264.773
11
219.563
21
251.638
0
ARC
8
SCHNITT
62
7
6
AUSGEZOGEN
10
218.671
20
248.773
40
3.000
50
360.000
51
432.774
0
LINE
8
SCHNITT
62
7
6
AUSGEZOGEN
10
221.671
20
248.773
11
221.671
21
225.448
0
LINE
8
SCHNITT
62
5
6
AUSGEZOGEN
10
228.696
20
205.670
11
228.951
21
205.660
0
LINE
8
SCHNITT
62
5
6
AUSGEZOGEN
10
228.951
20
205.660
11
229.614
21
205.641
0
LINE
8
SCHNITT
62
5
6
AUSGEZOGEN
10
229.614
20
205.641
11
230.396
21
205.627
0
LINE
8
SCHNITT
62
5
6
AUSGEZOGEN
10
230.396
20
205.627
11
231.178
21
205.619
0
LINE
8
SCHNITT
62
5
6
AUSGEZOGEN
10
231.178
20
205.619
11
231.555
21
205.618
0
LINE
8
SCHNITT
62
7
6
AUSGEZOGEN
10
241.387
20
225.448
11
241.387
21
248.773
0
ARC
8
SCHNITT
62
7
6
AUSGEZOGEN
10
244.387
20
248.773
40
3.000
50
107.299
51
180.000
0
LINE
8
SCHNITT
62
7
6
AUSGEZOGEN
10
243.494
20
251.638
11
243.494
21
264.773
0
LINE
8
SCHNITT
62
7
6
AUSGEZOGEN
10
243.494
20
264.773
11
240.148
21
299.773
0
LINE
8
SCHNITT
62
7
6
AUSGEZOGEN
10
240.148
20
299.773
11
239.161
21
298.787
0
LINE
8
SCHNITT
62
7
6
AUSGEZOGEN
10
239.161
20
298.787
11
239.161
21
270.373
0
LINE
8
SCHNITT
62
7
6
AUSGEZOGEN
10
239.161
20
270.373
11
241.029
21
270.373
0
LINE
8
SCHNITT
62
7
6
AUSGEZOGEN
10
241.029
20
270.373
11
241.029
21
259.673
0
LINE
8
SCHNITT
62
7
6
AUSGEZOGEN
10
241.029
20
259.673
11
237.529
21
259.673
0
LINE
8
SCHNITT
62
7
6
AUSGEZOGEN
10
237.529
20
259.673
11
237.529
21
226.673
0
LINE
8
SCHNITT
62
7
6
AUSGEZOGEN
10
237.529
20
226.673
11
231.529
21
223.209
0
LINE
8
SCHNITT
62
7
6
AUSGEZOGEN
10
231.529
20
223.209
11
225.529
21
226.673
0
LINE
8
SCHNITT
62
7
6
AUSGEZOGEN
10
225.529
20
226.673
11
225.529
21
259.673
0
LINE
8
SCHNITT
62
7
6
AUSGEZOGEN
10
225.529
20
259.673
11
222.029
21
259.673
0
LINE
8
SCHNITT
62
7
6
AUSGEZOGEN
10
222.029
20
259.673
11
222.029
21
270.373
0
LINE
8
SCHNITT
62
7
6
AUSGEZOGEN
10
222.029
20
270.373
11
241.029
21
270.373
0
LINE
8
SCHNITT
62
7
6
AUSGEZOGEN
10
223.896
20
270.373
11
223.896
21
298.787
0
LINE
8
SCHNITT
62
7
6
AUSGEZOGEN
10
223.896
20
298.787
11
222.909
21
299.773
0
LINE
8
SCHNITT
62
7
6
AUSGEZOGEN
10
222.909
20
299.773
11
219.563
21
264.773
0
LINE
8
SCHNITT
62
5
6
AUSGEZOGEN
10
234.362
20
205.670
11
234.711
21
205.690
0
LINE
8
SCHNITT
62
5
6
AUSGEZOGEN
10
234.711
20
205.690
11
236.346
21
205.808
0
LINE
8
SCHNITT
62
5
6
AUSGEZOGEN
10
236.346
20
205.808
11
238.789
21
206.007
0
LINE
8
SCHNITT
62
5
6
AUSGEZOGEN
10
238.789
20
206.007
11
241.671
21
206.256
0
LINE
8
SCHNITT
62
5
6
AUSGEZOGEN
10
241.671
20
206.256
11
243.494
21
206.420
0
ARC
8
SCHNITT
62
7
6
AUSGEZOGEN
10
244.387
20
248.773
40
3.000
50
107.299
51
180.000
0
LINE
8
SCHNITT
62
7
6
AUSGEZOGEN
10
241.387
20
248.773
11
241.387
21
225.448
0
ARC
8
SCHNITT
62
7
6
AUSGEZOGEN
10
218.671
20
248.773
40
3.000
50
360.000
51
432.774
0
LINE
8
SCHNITT
62
7
6
AUSGEZOGEN
10
221.671
20
248.773
11
221.671
21
225.448
0
LINE
8
SCHNITT
62
7
6
AUSGEZOGEN
10
225.529
20
231.673
11
224.529
21
231.673
0
LINE
8
SCHNITT
62
7
6
AUSGEZOGEN
10
237.529
20
231.673
11
225.529
21
231.673
0
LINE
8
SCHNITT
62
7
6
AUSGEZOGEN
10
237.529
20
231.673
11
238.529
21
231.673
0
LINE
8
SCHNITT
62
7
6
AUSGEZOGEN
10
240.148
20
312.773
11
240.148
21
299.773
0
ARC
8
SCHNITT
62
7
6
AUSGEZOGEN
10
238.148
20
312.773
40
2.000
50
0.000
51
90.000
0
LINE
8
SCHNITT
62
7
6
AUSGEZOGEN
10
222.909
20
312.773
11
222.909
21
299.773
0
ARC
8
SCHNITT
62
7
6
AUSGEZOGEN
10
224.909
20
312.773
40
2.000
50
90.000
51
180.000
0
LINE
8
SCHNITT
62
7
6
AUSGEZOGEN
10
247.529
20
305.403
11
247.529
21
220.773
0
LINE
8
SCHNITT
62
7
6
AUSGEZOGEN
10
215.529
20
305.403
11
215.529
21
220.773
0
LINE
8
SCHNITT
62
7
6
AUSGEZOGEN
10
234.362
20
214.421
11
234.362
21
205.670
0
LINE
8
SCHNITT
62
7
6
AUSGEZOGEN
10
228.696
20
214.421
11
228.696
21
205.670
0
LINE
8
SCHNITT
62
5
6
AUSGEZOGEN
10
224.529
20
231.673
11
224.529
21
259.673
0
LINE
8
SCHNITT
62
5
6
AUSGEZOGEN
10
238.529
20
231.673
11
238.529
21
259.673
0
LINE
8
SCHNITT
62
5
6
AUSGEZOGEN
10
231.555
20
205.618
11
231.879
21
205.619
0
LINE
8
SCHNITT
62
5
6
AUSGEZOGEN
10
231.879
20
205.619
11
232.661
21
205.627
0
LINE
8
SCHNITT
62
5
6
AUSGEZOGEN
10
232.661
20
205.627
11
233.443
21
205.641
0
LINE
8
SCHNITT
62
5
6
AUSGEZOGEN
10
233.443
20
205.641
11
234.106
21
205.660
0
LINE
8
SCHNITT
62
5
6
AUSGEZOGEN
10
234.106
20
205.660
11
234.362
21
205.670
0
LINE
8
SCHNITT
62
5
6
AUSGEZOGEN
10
219.563
20
206.420
11
221.386
21
206.256
0
LINE
8
SCHNITT
62
5
6
AUSGEZOGEN
10
221.386
20
206.256
11
224.268
21
206.007
0
LINE
8
SCHNITT
62
5
6
AUSGEZOGEN
10
224.268
20
206.007
11
226.712
21
205.808
0
LINE
8
SCHNITT
62
5
6
AUSGEZOGEN
10
226.712
20
205.808
11
228.346
21
205.690
0
LINE
8
SCHNITT
62
5
6
AUSGEZOGEN
10
228.346
20
205.690
11
228.696
21
205.670
0
ARC
8
SCHNITT
62
7
6
AUSGEZOGEN
10
230.166
20
229.702
40
12.000
50
307.789
51
339.239
0
ARC
8
SCHNITT
62
7
6
AUSGEZOGEN
10
246.072
20
211.802
40
12.000
50
135.463
51
167.394
0
LINE
8
SCHNITT
62
1
6
STRICHPUNKTLINIE
10
231.529
20
200.236
11
231.529
21
318.409
0
TEXT
8
SCHRIFTF
62
5
6
AUSGEZOGEN
1
34 Cr 4
10
784.651
20
47.062
40
3.000
41
0.374
50
0.000
0
TEXT
8
SCHRIFTF
62
7
6
AUSGEZOGEN
1
Pleuelstange
10
770.992
20
30.125
40
5.000
41
0.374
50
0.000
0
TEXT
8
SCHRIFTF
62
1
6
AUSGEZOGEN
1
1
10
832.100
20
14.562
40
3.500
41
0.374
50
0.000
0
TEXT
8
SCHRIFTF
62
1
6
AUSGEZOGEN
1
Massstab  1 : 1
10
750.200
20
55.734
40
2.500
41
0.374
50
0.000
0
TEXT
8
SCHRIFTF
62
1
6
AUSGEZOGEN
1
(Gewicht)
10
802.200
20
55.734
40
2.500
41
0.374
50
0.000
0
TEXT
8
SCHRIFTF
62
1
6
AUSGEZOGEN
1
Meier  II
10
730.700
20
35.812
40
2.500
41
0.374
50
0.000
0
TEXT
8
SCHRIFTF
62
7
6
AUSGEZOGEN
1
gezeichnet mit :
10
751.500
20
16.156
40
2.500
41
0.468
50
0.000
0
TEXT
8
SCHRIFTF
62
1
6
AUSGEZOGEN
1
03.05.89
10
715.100
20
35.812
40
2.500
41
0.374
50
0.000
0
TEXT
8
SCHRIFTF
62
1
6
AUSGEZOGEN
1
Datum
10
715.100
20
40.062
40
2.000
41
0.374
50
0.000
0
TEXT
8
SCHRIFTF
62
1
6
AUSGEZOGEN
1
Name
10
730.700
20
40.062
40
2.000
41
0.374
50
0.000
0
TEXT
8
SCHRIFTF
62
1
6
AUSGEZOGEN
1
Bearb.
10
704.700
20
35.812
40
2.000
41
0.374
50
0.000
0
TEXT
8
SCHRIFTF
62
1
6
AUSGEZOGEN
1
Gepr.
10
704.700
20
31.562
40
2.000
41
0.374
50
0.000
0
TEXT
8
SCHRIFTF
62
1
6
AUSGEZOGEN
1
Norm
10
704.700
20
27.312
40
2.000
41
0.374
50
0.000
0
TEXT
8
SCHRIFTF
62
1
6
AUSGEZOGEN
1
Zust.
10
650.100
20
6.062
40
2.000
41
0.374
50
0.000
0
TEXT
8
SCHRIFTF
62
1
6
AUSGEZOGEN
1
Aenderung
10
657.900
20
6.062
40
2.000
41
0.374
50
0.000
0
TEXT
8
SCHRIFTF
62
1
6
AUSGEZOGEN
1
Datum
10
683.900
20
6.062
40
2.000
41
0.374
50
0.000
0
TEXT
8
SCHRIFTF
62
1
6
AUSGEZOGEN
1
Name
10
696.575
20
6.062
40
2.000
41
0.374
50
0.000
0
TEXT
8
SCHRIFTF
62
1
6
AUSGEZOGEN
1
Ursprung
10
704.700
20
6.062
40
2.000
41
0.374
50
0.000
0
TEXT
8
SCHRIFTF
62
1
6
AUSGEZOGEN
1
Ersatz fuer:
10
748.900
20
6.062
40
2.000
41
0.374
50
0.000
0
TEXT
8
SCHRIFTF
62
1
6
AUSGEZOGEN
1
Ersatz durch:
10
793.100
20
6.062
40
2.000
41
0.374
50
0.000
0
TEXT
8
SCHRIFTF
62
1
6
AUSGEZOGEN
1
Blaetter
10
826.900
20
10.312
40
2.000
41
0.374
50
0.000
0
TEXT
8
SCHRIFTF
62
1
6
AUSGEZOGEN
1
Blatt
10
824.300
20
18.812
40
2.000
41
0.374
50
0.000
0
TEXT
8
SCHRIFTF
62
1
6
AUSGEZOGEN
1
1
10
824.300
20
10.312
40
2.500
41
0.374
50
0.000
0
LINE
8
SCHRIFTF
62
5
6
AUSGEZOGEN
10
703.400
20
5.000
11
703.400
21
60.250
0
LINE
8
SCHRIFTF
62
5
6
AUSGEZOGEN
10
747.600
20
5.000
11
747.600
21
60.250
0
LINE
8
SCHRIFTF
62
5
6
AUSGEZOGEN
10
648.800
20
43.250
11
836.000
21
43.250
0
LINE
8
SCHRIFTF
62
5
6
AUSGEZOGEN
10
703.400
20
22.000
11
836.000
21
22.000
0
LINE
8
SCHRIFTF
62
5
6
AUSGEZOGEN
10
823.000
20
22.000
11
823.000
21
9.250
0
LINE
8
SCHRIFTF
62
1
6
AUSGEZOGEN
10
836.000
20
9.250
11
648.800
21
9.250
0
LINE
8
SCHRIFTF
62
1
6
AUSGEZOGEN
10
836.000
20
13.500
11
823.000
21
13.500
0
LINE
8
SCHRIFTF
62
1
6
AUSGEZOGEN
10
791.800
20
5.000
11
791.800
21
9.250
0
LINE
8
SCHRIFTF
62
1
6
AUSGEZOGEN
10
695.600
20
43.250
11
695.600
21
5.000
0
LINE
8
SCHRIFTF
62
1
6
AUSGEZOGEN
10
682.600
20
43.250
11
682.600
21
5.000
0
LINE
8
SCHRIFTF
62
1
6
AUSGEZOGEN
10
656.600
20
43.250
11
656.600
21
5.000
0
LINE
8
SCHRIFTF
62
1
6
AUSGEZOGEN
10
703.400
20
26.250
11
747.600
21
26.250
0
LINE
8
SCHRIFTF
62
1
6
AUSGEZOGEN
10
713.800
20
43.250
11
713.800
21
26.250
0
LINE
8
SCHRIFTF
62
1
6
AUSGEZOGEN
10
729.400
20
60.250
11
729.400
21
22.000
0
LINE
8
SCHRIFTF
62
1
6
AUSGEZOGEN
10
747.600
20
53.875
11
836.000
21
53.875
0
LINE
8
SCHRIFTF
62
1
6
AUSGEZOGEN
10
799.600
20
60.250
11
799.600
21
53.875
0
LINE
8
SCHRIFTF
62
1
6
AUSGEZOGEN
10
648.800
20
39.000
11
747.600
21
39.000
0
LINE
8
SCHRIFTF
62
1
6
AUSGEZOGEN
10
648.800
20
34.750
11
747.600
21
34.750
0
LINE
8
SCHRIFTF
62
1
6
AUSGEZOGEN
10
648.800
20
30.500
11
747.600
21
30.500
0
LINE
8
SCHRIFTF
62
1
6
AUSGEZOGEN
10
648.800
20
26.250
11
703.400
21
26.250
0
LINE
8
SCHRIFTF
62
1
6
AUSGEZOGEN
10
648.800
20
22.000
11
703.400
21
22.000
0
LINE
8
SCHRIFTF
62
1
6
AUSGEZOGEN
10
648.800
20
17.750
11
703.400
21
17.750
0
LINE
8
SCHRIFTF
62
1
6
AUSGEZOGEN
10
648.800
20
13.500
11
703.400
21
13.500
0
LINE
8
SCHRIFTF
62
7
6
AUSGEZOGEN
10
648.800
20
60.250
11
648.800
21
4.999
0
LINE
8
SCHRIFTF
62
7
6
AUSGEZOGEN
10
836.000
20
60.250
11
648.800
21
60.250
0
TEXT
8
SCHRIFTF
62
5
6
AUSGEZOGEN
1
nach DIN 7168m
10
704.050
20
46.437
40
2.500
41
0.374
50
0.000
0
TEXT
8
SCHRIFTF
62
5
6
AUSGEZOGEN
1
Toleranzangaben
10
704.050
20
50.687
40
2.500
41
0.374
50
0.000
0
TEXT
8
SCHRIFTF
62
5
6
AUSGEZOGEN
1
Masse ohne
10
708.600
20
54.937
40
2.500
41
0.374
50
0.000
0
TEXT
8
SCHRIFTF
62
7
6
AUSGEZOGEN
1
rhv  Software-Systeme  GmbH
10
703.400
20
19.343
40
2.000
41
0.450
50
0.000
0
TEXT
8
SCHRIFTF
62
7
6
AUSGEZOGEN
1
4030  Ratingen
10
703.400
20
9.781
40
2.000
41
0.450
50
0.000
0
TEXT
8
SCHRIFTF
62
7
6
AUSGEZOGEN
1
Telefon  02102/497 2000
10
711.850
20
12.968
40
2.000
41
0.450
50
0.000
0
TEXT
8
SCHRIFTF
62
7
6
AUSGEZOGEN
1
Gothaer Strasse 27
10
711.850
20
16.156
40
2.000
41
0.450
50
0.000
0
TEXT
8
SCHRIFTF
62
6
6
AUSGEZOGEN
1
PC-DRAFT  plus
10
751.084
20
10.912
40
3.500
41
1.093
50
0.000
0
TEXT
8
TEXTE
62
7
6
AUSGEZOGEN
1
Schmiedeteilzeichnung   1 : 2
10
293.708
20
141.330
40
5.000
41
0.374
50
0.000
0
LINE
8
FOLIE
62
7
6
AUSGEZOGEN
10
796.500
20
15.000
11
795.000
21
15.000
0
ARC
8
FOLIE
62
7
6
AUSGEZOGEN
10
796.500
20
16.750
40
1.750
50
270.000
51
450.074
0
LINE
8
FOLIE
62
7
6
AUSGEZOGEN
10
795.000
20
18.500
11
796.500
21
18.500
0
LINE
8
FOLIE
62
7
6
AUSGEZOGEN
10
795.000
20
18.500
11
795.000
21
17.600
0
LINE
8
FOLIE
62
7
6
AUSGEZOGEN
10
795.000
20
17.600
11
796.500
21
17.600
0
ARC
8
FOLIE
62
7
6
AUSGEZOGEN
10
796.500
20
16.750
40
0.850
50
270.000
51
450.074
0
LINE
8
FOLIE
62
7
6
AUSGEZOGEN
10
795.000
20
15.900
11
796.500
21
15.900
0
LINE
8
FOLIE
62
7
6
AUSGEZOGEN
10
795.000
20
15.000
11
795.000
21
15.900
0
CIRCLE
8
FOLIE
62
7
6
AUSGEZOGEN
10
795.000
20
16.750
40
0.500
0
LINE
8
FOLIE
62
7
6
AUSGEZOGEN
10
798.250
20
15.000
11
799.243
21
15.000
0
LINE
8
FOLIE
62
7
6
AUSGEZOGEN
10
800.455
20
17.600
11
799.243
21
14.999
0
LINE
8
FOLIE
62
7
6
AUSGEZOGEN
10
800.455
20
17.600
11
801.635
21
15.070
0
LINE
8
FOLIE
62
7
6
AUSGEZOGEN
10
802.660
20
15.000
11
801.667
21
15.000
0
LINE
8
FOLIE
62
7
6
AUSGEZOGEN
10
801.028
20
18.500
11
802.660
21
15.000
0
LINE
8
FOLIE
62
7
6
AUSGEZOGEN
10
801.028
20
18.500
11
799.882
21
18.500
0
LINE
8
FOLIE
62
7
6
AUSGEZOGEN
10
799.882
20
18.500
11
798.250
21
15.000
0
LINE
8
FOLIE
62
7
6
AUSGEZOGEN
10
804.000
20
15.000
11
804.000
21
17.600
0
LINE
8
FOLIE
62
7
6
AUSGEZOGEN
10
804.900
20
15.000
11
804.000
21
15.000
0
LINE
8
FOLIE
62
7
6
AUSGEZOGEN
10
804.900
20
17.600
11
804.900
21
15.000
0
LINE
8
FOLIE
62
7
6
AUSGEZOGEN
10
804.900
20
17.600
11
806.250
21
17.600
0
LINE
8
FOLIE
62
7
6
AUSGEZOGEN
10
806.250
20
18.500
11
806.250
21
17.600
0
LINE
8
FOLIE
62
7
6
AUSGEZOGEN
10
802.650
20
18.500
11
806.250
21
18.500
0
LINE
8
FOLIE
62
7
6
AUSGEZOGEN
10
802.650
20
17.600
11
802.650
21
18.500
0
LINE
8
FOLIE
62
7
6
AUSGEZOGEN
10
804.000
20
17.600
11
802.650
21
17.600
0
LINE
8
FOLIE
62
7
6
AUSGEZOGEN
10
817.523
20
15.000
11
818.424
21
15.000
0
LINE
8
FOLIE
62
7
6
AUSGEZOGEN
10
818.424
20
15.000
11
819.697
21
18.500
0
LINE
8
FOLIE
62
7
6
AUSGEZOGEN
10
818.740
20
18.500
11
819.697
21
18.500
0
LINE
8
FOLIE
62
7
6
AUSGEZOGEN
10
817.973
20
16.395
11
818.740
21
18.500
0
LINE
8
FOLIE
62
7
6
AUSGEZOGEN
10
817.973
20
16.395
11
817.207
21
18.500
0
LINE
8
FOLIE
62
7
6
AUSGEZOGEN
10
816.250
20
18.500
11
817.207
21
18.500
0
LINE
8
FOLIE
62
7
6
AUSGEZOGEN
10
817.523
20
15.000
11
816.250
21
18.500
0
CIRCLE
8
FOLIE
62
7
6
AUSGEZOGEN
10
821.750
20
16.750
40
0.500
0
LINE
8
FOLIE
62
7
6
AUSGEZOGEN
10
810.150
20
15.000
11
811.050
21
15.000
0
LINE
8
FOLIE
62
7
6
AUSGEZOGEN
10
811.050
20
15.000
11
811.050
21
17.125
0
ARC
8
FOLIE
62
7
6
AUSGEZOGEN
10
811.675
20
17.125
40
0.625
50
53.130
51
180.000
0
LINE
8
FOLIE
62
7
6
AUSGEZOGEN
10
812.050
20
18.493
11
812.050
21
17.625
0
ARC
8
FOLIE
62
7
6
AUSGEZOGEN
10
811.900
20
17.200
40
1.300
50
83.374
51
130.832
0
LINE
8
FOLIE
62
7
6
AUSGEZOGEN
10
811.050
20
18.500
11
811.050
21
18.183
0
LINE
8
FOLIE
62
7
6
AUSGEZOGEN
10
810.150
20
18.500
11
811.050
21
18.500
0
LINE
8
FOLIE
62
7
6
AUSGEZOGEN
10
810.150
20
18.500
11
810.150
21
15.000
0
LINE
8
FOLIE
62
7
6
AUSGEZOGEN
10
812.850
20
15.000
11
813.750
21
15.000
0
LINE
8
FOLIE
62
7
6
AUSGEZOGEN
10
813.750
20
15.000
11
813.750
21
17.125
0
ARC
8
FOLIE
62
7
6
AUSGEZOGEN
10
814.375
20
17.125
40
0.625
50
0.000
51
180.000
0
LINE
8
FOLIE
62
7
6
AUSGEZOGEN
10
815.000
20
17.125
11
815.000
21
15.000
0
LINE
8
FOLIE
62
7
6
AUSGEZOGEN
10
815.000
20
15.000
11
815.900
21
15.000
0
LINE
8
FOLIE
62
7
6
AUSGEZOGEN
10
815.900
20
15.000
11
815.900
21
17.375
0
ARC
8
FOLIE
62
7
6
AUSGEZOGEN
10
814.600
20
17.200
40
1.300
50
0.000
51
130.832
0
LINE
8
FOLIE
62
7
6
AUSGEZOGEN
10
813.750
20
18.183
11
813.750
21
20.250
0
LINE
8
FOLIE
62
7
6
AUSGEZOGEN
10
812.850
20
20.250
11
812.850
21
15.000
0
LINE
8
FOLIE
62
7
6
AUSGEZOGEN
10
813.750
20
20.250
11
812.850
21
20.250
0
ENDSEC
0
EOF
