<?xml version="1.0" encoding="UTF-8" standalone="no"?>
<!-- Created with Inkscape (http://www.inkscape.org/) -->
<svg
   xmlns:dc="http://purl.org/dc/elements/1.1/"
   xmlns:cc="http://creativecommons.org/ns#"
   xmlns:rdf="http://www.w3.org/1999/02/22-rdf-syntax-ns#"
   xmlns:svg="http://www.w3.org/2000/svg"
   xmlns="http://www.w3.org/2000/svg"
   xmlns:sodipodi="http://sodipodi.sourceforge.net/DTD/sodipodi-0.dtd"
   xmlns:inkscape="http://www.inkscape.org/namespaces/inkscape"
   id="svg3486"
   sodipodi:version="0.32"
   inkscape:version="0.46"
   width="220"
   height="220"
   version="1.0"
   sodipodi:docname="hibiskus.svg"
   style="display:inline"
   inkscape:output_extension="org.inkscape.output.svg.inkscape"
   inkscape:export-filename="/home/mik/Documents/temp/hibiskus.png"
   inkscape:export-xdpi="600.13635"
   inkscape:export-ydpi="600.13635">
  <metadata
     id="metadata3491">
    <rdf:RDF>
      <cc:Work
         rdf:about="">
        <dc:format>image/svg+xml</dc:format>
        <dc:type
           rdf:resource="http://purl.org/dc/dcmitype/StillImage" />
      </cc:Work>
    </rdf:RDF>
  </metadata>
  <defs
     id="defs3489">
    <inkscape:perspective
       sodipodi:type="inkscape:persp3d"
       inkscape:vp_x="0 : 526.18109 : 1"
       inkscape:vp_y="0 : 1000 : 0"
       inkscape:vp_z="744.09448 : 526.18109 : 1"
       inkscape:persp3d-origin="372.04724 : 350.78739 : 1"
       id="perspective3493" />
  </defs>
  <sodipodi:namedview
     inkscape:window-height="480"
     inkscape:window-width="640"
     inkscape:pageshadow="2"
     inkscape:pageopacity="0.0"
     guidetolerance="10.0"
     gridtolerance="10.0"
     objecttolerance="10.0"
     borderopacity="1.0"
     bordercolor="#666666"
     pagecolor="#ffffff"
     id="base"
     showgrid="false"
     inkscape:zoom="1.3605092"
     inkscape:cx="44.234096"
     inkscape:cy="155.43024"
     inkscape:current-layer="layer2" />
  <g
     inkscape:groupmode="layer"
     id="layer2"
     inkscape:label="vektor"
     style="display:inline">
    <path
       style="fill:#4d4d4d;fill-rule:evenodd;stroke:#4d4d4d;stroke-width:1px;stroke-linecap:butt;stroke-linejoin:miter;stroke-opacity:1;display:inline"
       d="M 42.882738,119.42226 C 42.882738,119.42226 40.74124,113.83654 41.4127,111.52081 C 41.999296,109.49776 44.259537,107.21764 46.190323,106.37568 C 48.918996,105.18579 56.113078,106.37568 56.113078,106.37568 L 42.882738,119.42226 z"
       id="path3514"
       sodipodi:nodetypes="csscc" />
    <path
       style="fill:#808080;fill-rule:evenodd;stroke:#808080;stroke-width:1px;stroke-linecap:butt;stroke-linejoin:miter;stroke-opacity:1;display:inline"
       d="M 121.17105,103.60197 C 121.17105,103.60197 134.24193,102.03733 139.62171,103.3421 C 142.19769,103.96686 144.81741,106.98601 147.41776,107.5 C 150.49225,108.1077 154.75204,105.78572 157.8125,106.46053 C 163.64889,107.74741 169.36184,114.51277 174.96382,116.59539 L 180.55592,118.67434 C 182.08176,119.24159 184.53031,118.18949 185.75329,117.11513 C 188.19153,114.9732 187.52123,109.11399 190.17105,107.24013 C 192.53393,105.56918 197.29192,107.92816 199.78618,106.46053 C 201.23977,105.60524 202.63688,103.44805 202.90461,101.78289 C 203.27691,99.46733 201.54648,96.4785 200.82566,94.24671 C 199.93105,91.47684 197.83188,88.03657 197.44737,85.15132 C 197.10611,82.59065 199.1945,78.97094 198.22697,76.57566 C 196.52943,72.3731 190.93885,68.5318 186.79276,66.70066 C 174.56618,63.93425 173.32536,62.93046 161.9704,65.40132 C 157.09446,66.20507 150.52164,66.79002 145.59868,67.22039 C 141.94103,67.54015 136.9764,67.2374 133.38487,68 C 131.18915,68.46622 128.22879,69.34268 126.36842,70.59868 C 123.48678,72.54418 120.01743,76.01196 118.57237,79.17434 C 117.75651,80.95976 117.72721,83.70915 117.79276,85.67105 C 117.97554,91.14191 121.17105,103.60197 121.17105,103.60197 z"
       id="path3497"
       sodipodi:nodetypes="cssssssssssssccsssssc" />
    <path
       style="fill:#808080;fill-rule:evenodd;stroke:#ffffff;stroke-width:1px;stroke-linecap:butt;stroke-linejoin:miter;stroke-opacity:1;display:inline"
       d="M 98.19291,81.56879 C 98.19291,81.56879 87.67352,72.67437 82.390003,70.17599 C 80.637233,69.34717 78.033245,68.09367 76.142343,68.5222 C 73.319909,69.16184 70.854124,72.73921 68.792154,74.76986 C 64.979006,78.52509 60.265061,83.9192 57.031852,88.18396 C 53.988475,92.19832 49.700134,97.3089 47.351596,102.18531 C 46.580313,104.78946 43.518093,106.63563 42.33177,108.95206 C 44.656272,111.31541 53.922903,106.39137 57.215606,106.00817 C 60.879408,105.58178 65.692614,104.51306 69.343418,103.98686 C 75.664441,103.0758 90.47521,101.4143 90.47521,101.4143 L 98.19291,81.56879 z"
       id="path3511"
       sodipodi:nodetypes="cssssccsscc" />
    <path
       style="fill:#ffffff;fill-rule:evenodd;stroke:none;stroke-width:1px;stroke-linecap:butt;stroke-linejoin:miter;stroke-opacity:1;display:inline"
       d="M 87.16762,95.53414 C 80.198506,93.29705 63.279512,90.57277 63.279512,90.57277 C 67.089371,89.96025 63.486348,89.34774 78.714909,88.73522 C 77.469381,87.13448 76.451039,85.62462 70.445946,82.12005 C 78.397392,85.52762 87.68222,87.92686 97.45789,94.98288 L 96.72287,99.76051 C 96.72287,99.76051 90.15209,96.49216 87.16762,95.53414 z"
       id="path3590"
       sodipodi:nodetypes="ccccccs" />
    <path
       style="fill:#808080;fill-rule:evenodd;stroke:#ffffff;stroke-width:1px;stroke-linecap:butt;stroke-linejoin:miter;stroke-opacity:1"
       d="M 90.65897,94.79913 C 90.65897,94.79913 77.703087,94.66762 72.467248,96.26917 C 68.171348,97.58321 63.137281,101.09582 59.420663,103.61935 C 56.664175,105.49097 53.44807,108.6008 50.784191,110.60203 C 49.011313,111.9339 46.092207,113.08632 44.720285,114.82839 C 43.219201,116.73447 42.734719,120.1318 41.78021,122.36234 C 41.062217,124.04018 39.60291,126.09329 39.207643,127.87498 C 38.837519,129.54333 39.656646,131.92249 39.207643,133.57137 C 38.921974,134.62043 37.599398,135.63239 37.370096,136.6952 C 37.042702,138.21266 37.463681,140.35696 37.92136,141.84034 C 38.437621,143.51358 39.46994,145.71755 40.677681,146.98547 C 41.121083,147.45097 42.189206,147.53392 42.515228,148.088 C 43.354377,149.51415 41.990221,152.10541 42.698983,153.60064 C 43.702991,155.71874 46.703881,157.33943 48.579134,158.74577 C 51.038205,160.58994 54.532667,162.75846 57.215606,164.25841 C 58.980269,165.24498 61.257975,167.22568 63.279512,167.19849 C 64.955966,167.17594 66.957511,165.70478 68.24089,164.62592 C 70.468967,162.7529 72.262362,159.14827 74.121041,156.90822 C 76.065093,154.56528 79.136876,151.84193 80.919966,149.37428 C 83.074482,146.39261 85.08818,141.86908 86.98387,138.71651 C 88.73344,135.80693 91.02828,131.89041 93.04778,129.16126 C 95.76863,125.48431 100.28773,121.28951 102.97053,117.58471 C 104.21815,115.86181 106.8771,113.63537 106.64563,111.52081 C 105.89042,104.62178 90.65897,94.79913 90.65897,94.79913 z"
       id="path3508"
       sodipodi:nodetypes="cssssssssssssssssssssssc" />
    <path
       style="fill:#ffffff;fill-rule:evenodd;stroke:none;stroke-width:1px;stroke-linecap:butt;stroke-linejoin:miter;stroke-opacity:1;display:inline"
       d="M 96.69291,108.88832 C 93.11724,110.59438 88.44511,113.23906 85.48387,115.871 C 80.471029,120.32639 71.518512,133.32769 71.518512,133.32769 L 75.744871,123.03743 L 71.334758,126.34502 C 71.998887,122.62313 72.905359,121.4778 74.826098,117.34103 C 73.189482,117.13472 70.450925,117.26654 66.74089,119.62732 C 66.74089,119.62732 71.644904,111.49048 75.398664,108.96954 C 79.806005,106.00967 84.663883,104.05953 88.24019,103.00817 C 92.64574,101.71303 100.72287,99.9356 100.72287,99.9356 L 106.97053,106.73452 C 106.97053,106.73452 98.0618,108.23518 96.69291,108.88832 z"
       id="path3585"
       sodipodi:nodetypes="cscccccssccs" />
    <path
       style="fill:#808080;fill-rule:evenodd;stroke:#ffffff;stroke-width:1px;stroke-linecap:butt;stroke-linejoin:miter;stroke-opacity:1"
       d="M 121.346,108.02947 C 121.346,108.02947 121.59846,119.11097 122.08102,123.83237 C 122.54638,128.38547 122.95592,134.58108 124.46984,138.90026 C 125.53964,141.95239 128.68767,145.2344 129.79872,148.27175 C 130.93531,151.3789 130.54708,156.05946 131.82002,159.11328 C 132.82609,161.52687 135.42797,164.04234 136.7814,166.27971 C 138.13423,168.51608 139.90478,171.55067 140.82401,173.99741 C 141.90085,176.86368 143.32724,180.86043 143.21282,183.92017 C 143.15223,185.54035 141.65106,187.4466 141.55902,189.0653 C 141.47923,190.46849 142.84009,192.30121 142.4778,193.65917 C 142.32674,194.22537 141.42937,194.59365 141.19151,195.12921 C 140.80849,195.99159 141.33411,197.45919 140.82401,198.25304 C 139.84786,199.77222 137.45283,201.03949 135.67887,201.37687 C 133.75577,201.74261 130.80691,201.45763 129.24746,200.27434 C 127.40093,198.87322 126.95437,195.37579 125.93987,193.29166 C 125.34641,192.0725 125.27311,189.3105 123.91857,189.24906 C 122.55845,189.18736 122.84891,192.77088 121.52976,193.1079 C 119.25744,193.68843 116.53607,190.74624 114.73083,189.24906 C 112.56305,187.4512 110.012,184.55696 108.66693,182.08262 C 107.4842,179.90692 107.21038,176.47539 106.27812,174.18117 C 105.64695,172.62791 104.61952,170.62537 103.70555,169.21979 C 101.97376,166.55649 98.3425,163.87049 97.09038,160.95083 C 96.12552,158.70099 96.86038,155.15286 95.98785,152.86562 C 94.96878,150.19426 91.98266,147.49844 90.65897,144.96417 C 88.9622,141.71563 87.05211,137.14724 86.24885,133.57137 C 85.58257,130.60532 85.31887,126.49856 85.51383,123.46486 C 85.70867,120.43315 85.84805,116.06855 87.53514,113.54211 C 88.90217,111.49496 94.33406,108.94824 94.33406,108.94824 L 99.47919,106.92694 L 121.346,108.02947 z"
       id="path3506"
       sodipodi:nodetypes="cssssssssssssssssssssssssssccc" />
    <path
       style="fill:#808080;fill-rule:evenodd;stroke:#ffffff;stroke-width:1px;stroke-linecap:butt;stroke-linejoin:miter;stroke-opacity:1"
       d="M 114.73083,82.67132 C 114.73083,82.67132 119.16555,71.26719 121.346,66.5009 C 123.01775,62.84658 125.56446,58.12659 127.40991,54.55684 C 128.49702,52.45399 129.3396,49.17332 131.08501,47.57416 C 132.45134,46.32232 134.95083,45.47342 136.7814,45.18535 C 139.35009,44.78112 142.97988,45.01606 145.41787,45.92037 C 146.56547,46.34604 147.65023,47.72431 148.72546,48.30918 C 150.59598,49.32665 153.21746,50.71984 155.34063,50.88175 C 156.35417,50.95904 158.15683,51.03655 158.64821,50.14673 C 159.04438,49.42933 158.23138,48.22197 157.72944,47.57416 C 156.46519,45.94252 153.59674,45.06269 152.03304,43.71531 C 150.61437,42.4929 149.03803,40.53236 147.80668,39.12145 C 146.4422,37.55801 144.9988,35.11128 143.39657,33.79256 C 141.16817,31.95846 137.54494,30.4493 134.94385,29.19869 C 132.8954,28.21379 130.16278,26.8235 127.96117,26.25862 C 125.38426,25.59745 119.14095,25.33984 119.14095,25.33984 C 119.14095,25.33984 111.50313,27.63569 108.48317,29.19869 C 105.73978,30.61855 102.22601,32.90588 100.03046,35.07884 C 97.86696,37.22008 95.50529,40.62205 94.15031,43.3478 C 92.34975,46.9699 90.64568,52.20163 90.1077,56.21064 C 89.71883,59.10844 89.49092,63.19652 90.47521,65.94964 C 91.15074,67.83914 93.70683,69.44307 94.51782,71.27852 C 95.1296,72.66311 94.87293,74.83504 95.43659,76.2399 C 96.14826,78.01368 98.92793,81.56879 98.92793,81.56879 L 114.73083,82.67132 z"
       id="path3504"
       sodipodi:nodetypes="csssssssssssssscssssssscc" />
    <path
       id="path3541"
       style="fill:#000000;fill-rule:evenodd;stroke:#000000;stroke-width:1px;stroke-linecap:butt;stroke-linejoin:miter;stroke-opacity:1;display:inline"
       d="M 49.967106,75.01645 C 51.489608,70.07803 64.259869,65.40132 64.259869,65.40132 L 65.949013,67.48026 C 65.921821,66.6101 55.574956,69.65135 50.746711,76.96546 C 50.399775,77.49102 49.781575,75.61824 49.967106,75.01645 z M 66.46875,63.71217 C 66.46875,63.71217 81.20276,51.08997 79.72204,51.23849 C 78.640634,51.34696 66.078948,61.37335 66.078948,61.37335 L 66.46875,63.71217 z M 67.898027,62.54276 C 67.989685,62.86356 77.630769,61.53179 78.162829,62.54276 C 78.497575,63.17881 77.021565,63.86284 76.343751,64.10197 C 73.9165,64.9583 67.768092,63.8421 67.768092,63.8421 L 67.898027,62.54276 z M 65.429277,68.7796 C 65.600002,68.4723 64.151496,69.46842 63.090461,73.71711 C 62.936714,74.33275 62.331953,76.27274 63.870066,75.27631 C 64.594559,74.80697 65.276328,68.85607 65.429277,68.7796 z M 55.294408,56.95559 C 52.537462,56.25099 62.44079,63.19243 62.44079,63.19243 L 62.700658,59.42434 C 62.700658,59.42434 58.016623,57.65131 55.294408,56.95559 z"
       sodipodi:nodetypes="cccsscscccsscccssccccs" />
    <path
       style="fill:#b3b3b3;fill-rule:evenodd;stroke:#b3b3b3;stroke-width:1px;stroke-linecap:butt;stroke-linejoin:miter;stroke-opacity:1;display:inline"
       d="M 58.13438,76.79116 C 57.263717,77.00857 56.020414,77.91971 55.929323,78.81247 C 55.80508,80.03015 57.241893,81.53705 58.318135,82.12005 C 59.337191,82.67207 61.199655,82.92673 62.176984,82.30381 C 63.281964,81.59953 64.418318,79.43243 63.830776,78.2612 C 63.039412,76.68366 59.84671,76.36359 58.13438,76.79116 z"
       id="path3572" />
    <path
       style="fill:#b3b3b3;fill-rule:evenodd;stroke:#b3b3b3;stroke-width:1px;stroke-linecap:butt;stroke-linejoin:miter;stroke-opacity:1;display:inline"
       d="M 48.762889,73.48358 C 47.985041,73.43126 47.192176,74.58861 46.925342,75.32113 C 46.48974,76.51695 46.831182,78.36148 47.292851,79.54749 C 47.620828,80.39005 48.22864,82.00189 49.130398,81.9363 C 50.70578,81.82172 51.813906,78.91807 51.702965,77.34243 C 51.600744,75.89064 50.214987,73.58125 48.762889,73.48358 z"
       id="path3570" />
    <path
       style="fill:#b3b3b3;fill-rule:evenodd;stroke:#b3b3b3;stroke-width:1px;stroke-linecap:butt;stroke-linejoin:miter;stroke-opacity:1;display:inline"
       d="M 79.449928,65.58213 C 78.903538,66.21969 77.873561,67.46151 78.347399,68.15469 C 79.281189,69.52074 82.559541,68.99406 83.860041,67.97094 C 84.669437,67.33418 84.760587,65.69304 84.778815,64.66335 C 84.803901,63.24628 84.935136,60.72065 83.676286,60.06948 C 82.885255,59.6603 81.419259,60.43454 80.919966,61.17201 C 80.332763,62.03933 81.427712,63.74725 80.919966,64.66335 C 80.667857,65.11822 79.788348,65.18724 79.449928,65.58213 z"
       id="path3566" />
    <path
       style="fill:#b3b3b3;fill-rule:evenodd;stroke:#b3b3b3;stroke-width:1px;stroke-linecap:butt;stroke-linejoin:miter;stroke-opacity:1;display:inline"
       d="M 80.184947,44.45033 C 79.437701,44.38849 78.205534,44.55718 77.796135,45.18535 C 77.280913,45.97589 77.420906,47.72716 78.163645,48.30918 C 78.863308,48.85744 80.320011,47.52224 81.10372,47.94167 C 81.647125,48.23249 81.465984,49.51434 82.022494,49.77922 C 82.940313,50.21607 84.751848,49.88019 85.33008,49.0442 C 85.77356,48.40303 85.4557,47.07546 84.96257,46.47164 C 84.444191,45.83691 83.143756,45.87451 82.390003,45.55286 C 81.709753,45.26258 80.922025,44.51133 80.184947,44.45033 z"
       id="path3564" />
    <path
       style="fill:#b3b3b3;fill-rule:evenodd;stroke:#b3b3b3;stroke-width:1px;stroke-linecap:butt;stroke-linejoin:miter;stroke-opacity:1;display:inline"
       d="M 46.069079,66.18092 C 46.434275,67.18023 46.112508,68.78646 45.549342,69.68914 C 45.148724,70.33128 44.212754,71.26587 43.470395,71.11842 C 42.558387,70.93728 42.004852,69.42228 41.78125,68.51974 C 41.574173,67.68391 41.629989,66.4178 42.041119,65.66118 C 42.372477,65.05137 43.166457,64.21213 43.860198,64.23191 C 44.743582,64.2571 45.765739,65.35087 46.069079,66.18092 z"
       id="path3562" />
    <path
       style="fill:#b3b3b3;fill-rule:evenodd;stroke:#b3b3b3;stroke-width:1px;stroke-linecap:butt;stroke-linejoin:miter;stroke-opacity:1;display:inline"
       d="M 53.475329,53.9671 C 53.310192,54.66663 52.628137,55.68796 51.916119,55.78618 C 50.941531,55.92062 49.559395,54.87792 49.1875,53.9671 C 48.901397,53.2664 49.173816,52.03528 49.707237,51.49835 C 50.353865,50.84746 51.916377,50.36453 52.695724,50.84868 C 53.514852,51.35754 53.696884,53.02858 53.475329,53.9671 z"
       id="path3560" />
    <path
       style="fill:#b3b3b3;fill-rule:evenodd;stroke:#b3b3b3;stroke-width:1px;stroke-linecap:butt;stroke-linejoin:miter;stroke-opacity:1;display:inline"
       d="M 83.490132,71.11842 C 82.700937,71.36215 82.029491,73.10186 82.580592,73.7171 C 83.274574,74.49185 85.74805,73.95603 85.95888,72.9375 C 86.14536,72.03663 84.369133,70.84695 83.490132,71.11842 z"
       id="path3558" />
    <path
       style="fill:#b3b3b3;fill-rule:evenodd;stroke:#b3b3b3;stroke-width:1px;stroke-linecap:butt;stroke-linejoin:miter;stroke-opacity:1;display:inline"
       d="M 85.30921,52.14803 C 84.54258,52.28966 83.635601,53.45581 83.75,54.22697 C 83.856397,54.9442 84.979061,55.57018 85.69901,55.65625 C 86.70533,55.77655 88.73284,55.36686 88.81743,54.35691 C 88.92124,53.11754 86.53222,51.92208 85.30921,52.14803 z"
       id="path3520" />
    <path
       style="fill:#000000;fill-rule:evenodd;stroke:#000000;stroke-width:1px;stroke-linecap:butt;stroke-linejoin:miter;stroke-opacity:1;display:inline"
       d="M 109.76946,104.53813 C 109.76946,104.53813 89.05108,90.37481 82.61636,85.38901 C 76.668704,80.7806 70.304218,73.81121 65.608399,67.93232 C 60.25077,61.22489 53.724267,48.49294 53.724267,48.49294 C 53.724267,48.49294 50.616279,53.31072 50.049172,55.65937 C 49.842147,56.51675 50.624743,57.93111 50.049172,58.59945 C 49.321661,59.44423 47.346146,59.69661 46.374078,59.15071 C 45.383179,58.59424 44.38658,56.67119 44.90404,55.65937 C 45.238922,55.00456 46.727531,55.57858 47.292851,55.10811 C 49.740945,53.07077 51.51921,45.36911 51.51921,45.36911 C 51.51921,45.36911 42.990801,43.95409 39.758908,45.36911 C 38.865502,45.76027 38.528501,47.72271 37.553851,47.75792 C 36.345623,47.80157 34.732909,46.20473 34.613775,45.0016 C 34.473591,43.58588 35.977257,41.43244 37.370096,41.14275 C 38.31421,40.94639 39.194867,42.54729 40.126417,42.79654 C 43.162315,43.60883 50.600436,42.61279 50.600436,42.61279 C 50.600436,42.61279 50.868633,41.45744 50.967946,40.95899 C 51.153899,40.02571 51.935777,38.69077 51.51921,37.83516 C 51.108982,36.99257 49.025679,37.26468 48.762889,36.36513 C 48.479113,35.39374 49.478195,33.80368 50.416682,33.42505 C 51.484153,32.99438 53.635223,33.47092 54.091776,34.52758 C 54.385124,35.20651 52.97952,35.9931 52.989248,36.73263 C 53.001574,37.6697 54.459285,39.48896 54.459285,39.48896 L 57.215606,38.75394 C 57.215606,38.75394 65.870357,37.05563 68.424644,34.52758 C 69.181355,33.77864 68.734369,31.64408 69.710927,31.21999 C 70.800113,30.74698 72.82571,31.64308 73.386022,32.69003 C 73.89108,33.63374 73.438663,35.45662 72.651003,36.18137 C 71.996887,36.78324 70.571643,36.32687 69.710927,36.54888 C 67.69873,37.06789 65.1597,38.23646 63.279512,39.12145 C 62.029588,39.70978 59.236908,41.3265 59.236908,41.3265 C 59.236908,41.3265 65.355902,43.06965 68.057135,43.16405 C 69.280393,43.2068 71.017355,42.04127 72.099739,42.61279 C 73.080774,43.1308 73.910937,44.8222 73.753531,45.92037 C 73.6041,46.9629 72.36852,48.1742 71.36472,48.49294 C 70.344553,48.81687 68.759711,48.358 67.87338,47.75792 C 67.379618,47.42363 67.27855,46.41685 66.770852,46.10413 C 64.832186,44.90999 61.502416,44.95759 59.236908,45.18535 C 58.543105,45.2551 57.031852,45.92037 57.031852,45.92037 C 57.031852,45.92037 59.67662,49.94747 60.890701,51.61677 C 63.31648,54.9521 66.767293,60.73767 69.343418,63.9583 C 72.817684,68.30176 77.267913,72.76341 81.10372,76.79116 C 83.822167,79.64564 87.77468,83.13649 90.84272,85.61139 C 94.37906,88.46406 99.3334,91.97312 103.15429,94.43162 C 105.29334,95.80796 110.50448,98.65798 110.50448,98.65798 L 109.76946,104.53813 z"
       id="path3517"
       sodipodi:nodetypes="csscssssscssssscssssssccsssssscssssssscssssscc" />
    <path
       style="fill:#b3b3b3;fill-rule:evenodd;stroke:#b3b3b3;stroke-width:1px;stroke-linecap:butt;stroke-linejoin:miter;stroke-opacity:1;display:inline"
       d="M 71.732229,75.87239 C 70.984343,75.49069 69.580885,76.24856 69.159663,76.97492 C 68.435874,78.22303 68.607613,80.82283 69.710927,81.75254 C 70.470896,82.39293 72.419761,82.36198 73.018512,81.56879 C 74.07403,80.17051 73.29269,76.66881 71.732229,75.87239 z"
       id="path3568" />
    <path
       style="fill:#ffffff;fill-rule:evenodd;stroke:none;stroke-width:1px;stroke-linecap:butt;stroke-linejoin:miter;stroke-opacity:1;display:inline"
       d="M 145.0625,78.28125 C 145.0625,78.28125 131.32148,78.16344 126.0625,81.40625 C 122.44547,83.6366 115.46875,93.34375 115.46875,93.34375 L 116.75,98.28125 C 116.75,98.28125 123.78421,94.08224 127.03125,92.78125 C 132.39624,90.63167 145.59375,90.125 145.59375,90.125 L 133.625,85.59375 L 139,84.65625 L 132.4375,83.09375 L 145.0625,78.28125 z"
       id="path3576"
       sodipodi:nodetypes="csccsccccc" />
    <path
       style="fill:#ffffff;fill-rule:evenodd;stroke:none;stroke-width:1px;stroke-linecap:butt;stroke-linejoin:miter;stroke-opacity:1;display:inline"
       d="M 107.74816,85.9789 C 107.74816,85.9789 101.8861,74.20289 101.50049,68.70596 C 101.10631,63.08688 105.35934,50.33048 105.35934,50.33048 C 105.35934,53.76057 104.80808,57.92568 105.35934,60.62075 C 106.58438,59.2444 108.91193,54.97839 110.68823,51.98428 C 110.68823,51.98428 106.59208,63.66362 106.46187,68.88971 C 106.3415,73.72082 109.5857,84.69262 109.5857,84.69262 L 107.74816,85.9789 z"
       id="path3582"
       sodipodi:nodetypes="cscccscc" />
  </g>
  <g
     inkscape:groupmode="layer"
     id="layer3"
     inkscape:label="hilf"
     style="display:inline">
    <path
       style="fill:#ffffff;fill-rule:evenodd;stroke:none;stroke-width:1px;stroke-linecap:butt;stroke-linejoin:miter;stroke-opacity:1"
       d="M 107.50822,107.40954 C 107.50822,107.40954 102.53546,110.91087 101.16118,112.56743 C 99.37944,114.71514 97.74695,118.26485 97.26316,121.01316 C 96.53752,125.1354 97.60408,130.81332 98.43257,134.91612 C 99.45491,139.97892 109.25987,157.28783 109.25987,157.28783 C 109.27021,154.30353 107.17371,151.05214 107.64967,149.23191 C 108.52177,151.77333 109.58558,152.7733 110.22862,154.16941 C 110.09758,151.55444 108.90826,149.34234 109.48849,147.91283 C 109.98248,149.81853 113.19991,155.72423 114.88651,157.62993 C 114.88651,157.62993 106.09253,134.63438 105.18915,129.06908 C 104.73907,126.29636 104.21102,122.46053 104.79934,119.71382 C 105.14619,118.09446 106.29976,116.11981 107.26809,114.77632 C 108.52518,113.0322 114.33553,107.70888 114.33553,107.70888 L 107.50822,107.40954 z"
       id="path3588"
       sodipodi:nodetypes="cssscccccssscc" />
  </g>
</svg>
