<?xml version="1.0" encoding="UTF-8" standalone="no"?>
<!-- Created with Inkscape (http://www.inkscape.org/) -->
<svg
   xmlns:dc="http://purl.org/dc/elements/1.1/"
   xmlns:cc="http://web.resource.org/cc/"
   xmlns:rdf="http://www.w3.org/1999/02/22-rdf-syntax-ns#"
   xmlns:svg="http://www.w3.org/2000/svg"
   xmlns="http://www.w3.org/2000/svg"
   xmlns:sodipodi="http://inkscape.sourceforge.net/DTD/sodipodi-0.dtd"
   xmlns:inkscape="http://www.inkscape.org/namespaces/inkscape"
   version="1.0"
   width="912.27000px"
   height="871.58000px"
   id="svg1904"
   sodipodi:version="0.32"
   inkscape:version="0.42.2"
   sodipodi:docname="VzKat.svg"
   sodipodi:docbase="C:\Dokumente und Einstellungen\cfaerber\Desktop">
  <metadata
     id="metadata9">
    <rdf:RDF>
      <cc:Work
         rdf:about="">
        <dc:format>image/svg+xml</dc:format>
        <dc:type
           rdf:resource="http://purl.org/dc/dcmitype/StillImage" />
        <dc:title>Verkehrszeichenkatalog</dc:title>
        <dc:date>2006-08-21</dc:date>
        <dc:creator>
          <cc:Agent>
            <dc:title>Claus Färber</dc:title>
          </cc:Agent>
        </dc:creator>
        <cc:license
           rdf:resource="http://web.resource.org/cc/PublicDomain" />
        <dc:description>Collage aus den Zeichen 131, 215 und 306.</dc:description>
      </cc:Work>
      <cc:License
         rdf:about="http://web.resource.org/cc/PublicDomain">
        <cc:permits
           rdf:resource="http://web.resource.org/cc/Reproduction" />
        <cc:permits
           rdf:resource="http://web.resource.org/cc/Distribution" />
        <cc:permits
           rdf:resource="http://web.resource.org/cc/DerivativeWorks" />
      </cc:License>
    </rdf:RDF>
  </metadata>
  <sodipodi:namedview
     inkscape:window-height="968"
     inkscape:window-width="1280"
     inkscape:pageshadow="2"
     inkscape:pageopacity="0.0"
     borderopacity="1.0"
     bordercolor="#666666"
     pagecolor="#ffffff"
     id="base"
     inkscape:zoom="0.46666667"
     inkscape:cx="367.50000"
     inkscape:cy="296.29484"
     inkscape:window-x="-4"
     inkscape:window-y="-4"
     inkscape:current-layer="svg1904" />
  <defs
     id="defs1906" />
  <g
     id="g2100"
     transform="translate(65.12876,57.16896)">
    <g
       transform="matrix(0.822727,0.000000,0.000000,0.824401,244.7926,-60.13814)"
       id="g2038">
      <path
         id="rect1924"
         style="fill:#ffffff;fill-opacity:1.0000000;fill-rule:nonzero;stroke:#000000;stroke-width:0.25000000;stroke-linecap:round;stroke-linejoin:round;stroke-miterlimit:4.0000000;stroke-dasharray:none;stroke-dashoffset:0.00000000;stroke-opacity:1.0000000"
         d="M 391.91972,14.243162 L 722.65773,345.20930 C 737.80778,360.35936 732.35514,380.09718 721.87445,391.16572 L 393.09465,720.95694 C 376.25267,737.79891 352.57438,731.35374 341.78594,720.56530 L 14.964338,394.29884 C -0.70419830,378.63030 -1.0447956,357.69367 14.181050,342.46782 C 14.181050,342.46782 341.39430,14.634803 341.39430,14.634803 C 358.70344,-0.89065873 378.69349,1.2187057 391.91972,14.243162 z " />
      <path
         id="path2814"
         style="fill:none;fill-opacity:1.0000000;fill-rule:nonzero;stroke:#000000;stroke-width:12.174232;stroke-linecap:round;stroke-linejoin:round;stroke-miterlimit:4.0000000;stroke-dasharray:none;stroke-dashoffset:0.00000000;stroke-opacity:1.0000000"
         d="M 387.72893,30.498744 L 705.66220,348.22179 C 719.91435,362.47394 717.12142,374.03230 707.26189,384.44485 L 386.28527,705.52327 C 370.44147,721.36706 359.63687,716.36595 349.48783,706.21691 L 31.203018,388.24192 C 16.463115,373.50201 15.080636,362.09037 29.404086,347.76692 C 29.404086,347.76692 350.39389,27.256144 350.39389,27.256144 C 366.67716,12.650840 375.28659,18.246212 387.72893,30.498744 z " />
      <rect
         id="rect4591"
         style="opacity:1.0000000;fill:#ffcc33;fill-opacity:1.0000000;fill-rule:nonzero;stroke:#000000;stroke-width:5.3456020;stroke-linecap:round;stroke-linejoin:miter;stroke-miterlimit:4.0000000;stroke-dasharray:none;stroke-dashoffset:0.00000000;stroke-opacity:1.0000000"
         transform="matrix(0.707107,-0.707107,0.707107,0.707107,0.000000,0.000000)"
         y="373.03531"
         x="-146.68835"
         height="293.37686"
         width="293.37686" />
    </g>
    <g
       transform="matrix(0.712855,0.000000,0.000000,0.712855,-65.03966,76.21736)"
       id="g2090">
      <path
         style="fill:#ffffff;fill-rule:evenodd;stroke:#000000;stroke-width:0.25000000"
         d="M 40.000000,739.42290 C 25.709376,739.42290 12.504296,731.79894 5.3589838,719.42290 C -1.7863279,707.04686 -1.7863279,691.79894 5.3589838,679.42290 L 386.07698,20.000000 C 393.22230,7.6239569 406.42738,-7.9833018e-013 420.71800,-8.0380147e-013 C 435.00862,-8.0927276e-013 448.21370,7.6239569 455.35902,20.000000 L 836.07702,679.42290 C 843.22233,691.79894 843.22233,707.04686 836.07702,719.42290 C 828.93170,731.79894 815.72662,739.42290 801.43600,739.42290 L 40.000000,739.42290 z "
         id="path2069" />
      <path
         style="fill:#cc0000;fill-rule:evenodd;stroke:none"
         d="M 40.000000,724.42290 C 31.068360,724.42290 22.815185,719.65793 18.349365,711.92290 C 13.883545,704.18787 13.883545,694.65793 18.349365,686.92290 L 399.06736,27.500000 C 403.53318,19.764973 411.78636,15.000000 420.71800,15.000000 C 429.64964,15.000000 437.90282,19.764973 442.36864,27.500000 L 823.08664,686.92290 C 827.55245,694.65793 827.55245,704.18787 823.08664,711.92290 C 818.62082,719.65793 810.36764,724.42290 801.43600,724.42290 L 40.000000,724.42290 z M 126.60260,649.42290 L 420.71800,140.00000 L 714.83340,649.42290 L 126.60260,649.42290 z "
         id="path2071" />
      <path
         style="fill:#000000;fill-rule:evenodd;stroke:none"
         d="M 475.71800,564.42290 C 475.71800,544.77329 465.23506,526.61631 448.21800,516.79150 C 431.20094,506.96670 410.23506,506.96670 393.21800,516.79150 C 376.20094,526.61631 365.71800,544.77329 365.71800,564.42290 C 365.71800,584.07251 376.20094,602.22949 393.21800,612.05430 C 410.23506,621.87910 431.20094,621.87910 448.21800,612.05430 C 465.23506,602.22949 475.71800,584.07251 475.71800,564.42290 z "
         id="path2073" />
      <path
         style="fill:#009933;fill-rule:evenodd;stroke:none"
         d="M 470.71800,564.42290 C 470.71800,546.55962 461.18805,530.05327 445.71800,521.12163 C 430.24795,512.18999 411.18805,512.18999 395.71800,521.12163 C 380.24795,530.05327 370.71800,546.55962 370.71800,564.42290 C 370.71800,582.28618 380.24795,598.79253 395.71800,607.72417 C 411.18805,616.65581 430.24795,616.65581 445.71800,607.72417 C 461.18805,598.79253 470.71800,582.28618 470.71800,564.42290 z "
         id="path2075" />
      <path
         style="fill:#000000;fill-rule:evenodd;stroke:none"
         d="M 475.71800,439.42290 C 475.71800,419.77329 465.23506,401.61631 448.21800,391.79150 C 431.20094,381.96670 410.23506,381.96670 393.21800,391.79150 C 376.20094,401.61631 365.71800,419.77329 365.71800,439.42290 C 365.71800,459.07251 376.20094,477.22949 393.21800,487.05430 C 410.23506,496.87910 431.20094,496.87910 448.21800,487.05430 C 465.23506,477.22949 475.71800,459.07251 475.71800,439.42290 z "
         id="path2077" />
      <path
         style="fill:#ffcc33;fill-rule:evenodd;stroke:none"
         d="M 470.71800,439.42290 C 470.71800,421.55962 461.18805,405.05327 445.71800,396.12163 C 430.24795,387.18999 411.18805,387.18999 395.71800,396.12163 C 380.24795,405.05327 370.71800,421.55962 370.71800,439.42290 C 370.71800,457.28618 380.24795,473.79253 395.71800,482.72417 C 411.18805,491.65581 430.24795,491.65581 445.71800,482.72417 C 461.18805,473.79253 470.71800,457.28618 470.71800,439.42290 z "
         id="path2079" />
      <path
         style="fill:#000000;fill-rule:evenodd;stroke:none"
         d="M 475.71800,314.42290 C 475.71800,294.77329 465.23506,276.61631 448.21800,266.79150 C 431.20094,256.96670 410.23506,256.96670 393.21800,266.79150 C 376.20094,276.61631 365.71800,294.77329 365.71800,314.42290 C 365.71800,334.07251 376.20094,352.22949 393.21800,362.05430 C 410.23506,371.87910 431.20094,371.87910 448.21800,362.05430 C 465.23506,352.22949 475.71800,334.07251 475.71800,314.42290 z "
         id="path2081" />
      <path
         style="fill:#cc0000;fill-rule:evenodd;stroke:none"
         d="M 470.71800,314.42290 C 470.71800,296.55962 461.18805,280.05327 445.71800,271.12163 C 430.24795,262.18999 411.18805,262.18999 395.71800,271.12163 C 380.24795,280.05327 370.71800,296.55962 370.71800,314.42290 C 370.71800,332.28618 380.24795,348.79253 395.71800,357.72417 C 411.18805,366.65581 430.24795,366.65581 445.71800,357.72417 C 461.18805,348.79253 470.71800,332.28618 470.71800,314.42290 z "
         id="path2083" />
    </g>
    <g
       transform="matrix(0.799667,0.000000,0.000000,0.799667,284.9749,334.5109)"
       id="g2060">
      <path
         style="fill:#ffffff;fill-rule:evenodd;stroke:#000000;stroke-width:0.25000000"
         d="M 600.00000,300.00000 C 600.00000,192.82032 542.82032,93.782217 450.00000,40.192379 C 357.17968,-13.397460 242.82032,-13.397460 150.00000,40.192379 C 57.179677,93.782217 4.7941896e-013,192.82032 4.6629367e-013,300.00000 C 4.5316838e-013,407.17968 57.179677,506.21778 150.00000,559.80762 C 242.82032,613.39746 357.17968,613.39746 450.00000,559.80762 C 542.82032,506.21778 600.00000,407.17968 600.00000,300.00000 L 600.00000,300.00000 z "
         id="path2045" />
      <path
         style="fill:#003399;fill-rule:evenodd;stroke:none"
         d="M 585.00000,300.00000 C 585.00000,198.17931 530.67931,104.09311 442.50000,53.182760 C 354.32069,2.2724134 245.67931,2.2724134 157.50000,53.182760 C 69.320693,104.09311 15.000000,198.17931 15.000000,300.00000 C 15.000000,401.82069 69.320693,495.90689 157.50000,546.81724 C 245.67931,597.72759 354.32069,597.72759 442.50000,546.81724 C 530.67931,495.90689 585.00000,401.82069 585.00000,300.00000 L 585.00000,300.00000 z "
         id="path2047" />
      <path
         style="fill:#ffffff;fill-rule:evenodd;stroke:none"
         d="M 120.00000,361.25000 L 50.000000,291.25000 L 50.000000,247.50000 L 102.50000,300.00000 C 102.50000,204.15450 171.31510,122.14386 265.70448,105.50047 L 271.78217,139.96874 C 194.12002,153.66267 137.50000,221.13978 137.50000,300.00000 L 190.00000,247.50000 L 190.00000,288.75000 L 120.00000,361.25000 z "
         id="path2049" />
      <path
         style="fill:#ffffff;fill-rule:evenodd;stroke:none"
         d="M 443.04410,425.25960 L 417.42230,520.88140 L 379.53370,542.75640 L 398.75000,471.04002 C 315.74537,518.96276 210.31452,500.37246 148.70622,426.95055 L 175.51778,404.45299 C 226.20815,464.86342 312.95505,480.15924 381.25000,440.72913 L 309.53370,421.51280 L 345.25720,400.88780 L 443.04410,425.25960 z "
         id="path2051" />
      <path
         style="fill:#ffffff;fill-rule:evenodd;stroke:none"
         d="M 336.95590,113.49040 L 432.57770,87.868600 L 470.46630,109.74360 L 398.75000,128.95998 C 481.75463,176.88273 518.37038,277.48367 485.58929,367.54898 L 452.70005,355.57827 C 479.67183,281.47391 449.54495,198.70098 381.25000,159.27087 L 400.46630,230.98720 L 364.74280,210.36220 L 336.95590,113.49040 z "
         id="path2053" />
    </g>
  </g>
</svg>
